M48
; DRILL file {KiCad 7.0.10} date Tue Mar 12 17:08:32 2024
; FORMAT={-:-/ absolute / inch / decimal}
; #@! TF.CreationDate,2024-03-12T17:08:32+05:30
; #@! TF.GenerationSoftware,Kicad,Pcbnew,7.0.10
; #@! TF.FileFunction,Plated,1,2,PTH
FMAT,2
INCH
; #@! TA.AperFunction,Plated,PTH,ViaDrill
T1C0.0197
; #@! TA.AperFunction,Plated,PTH,ComponentDrill
T2C0.0315
; #@! TA.AperFunction,Plated,PTH,ComponentDrill
T3C0.0394
%
G90
G05
T1
X5.2Y-1.1
X5.2Y-1.2
X5.2Y-1.3
X5.2Y-1.4
X5.2Y-1.4
X5.2Y-1.5
X5.2Y-1.6
X5.2Y-1.7
X5.2Y-1.8
X5.2Y-1.9
X5.2Y-2.0
X5.2Y-2.1
X5.2Y-2.2
X5.2Y-2.3
X5.2Y-2.4
X5.2Y-2.5
X5.2Y-2.6
X5.2Y-2.7
X5.2Y-2.8
X5.2Y-2.9
X5.2Y-3.0
X5.2Y-3.1
X5.2Y-3.2
X5.2Y-3.3
X5.2Y-3.4
X5.3Y-1.4
X5.3Y-1.5
X5.3Y-1.6
X5.3Y-2.2
X5.3Y-2.3
X5.3Y-2.4
X5.3Y-2.5
X5.3Y-2.6
X5.3Y-2.7
X5.3Y-2.8
X5.3Y-2.9
X5.3Y-3.0
X5.3Y-3.1
X5.3Y-3.2
X5.3Y-3.3
X5.3Y-3.4
X5.3504Y-1.81
X5.4Y-1.4
X5.4Y-1.5
X5.4Y-1.6
X5.4Y-2.3
X5.4Y-2.4
X5.4Y-2.6
X5.4Y-3.1
X5.4Y-3.2
X5.4Y-3.3
X5.4Y-3.4
X5.5Y-1.4
X5.5Y-1.5
X5.5Y-1.6
X5.5Y-2.6
X5.5Y-3.1
X5.5Y-3.2
X5.5Y-3.3
X5.5Y-3.4
X5.5472Y-2.4173
X5.5906Y-2.3425
X5.6Y-1.3
X5.6Y-1.4
X5.6Y-1.5
X5.6Y-1.6
X5.6Y-3.2
X5.6Y-3.3
X5.6Y-3.4
X5.6063Y-2.248
X5.675Y-2.805
X5.7Y-1.2
X5.7Y-1.3
X5.7Y-1.4
X5.7Y-1.5
X5.7Y-1.6
X5.7Y-1.9
X5.7Y-2.6
X5.7Y-2.7
X5.7Y-3.2
X5.7Y-3.3
X5.7Y-3.4
X5.7008Y-1.815
X5.7795Y-2.1102
X5.8Y-1.2
X5.8Y-1.3
X5.8Y-1.4
X5.8Y-1.5
X5.8Y-1.9
X5.8Y-2.8
X5.8Y-3.3
X5.8Y-3.4
X5.8543Y-2.248
X5.8622Y-2.3307
X5.9Y-1.2
X5.9Y-1.3
X5.9Y-1.4
X5.9Y-2.6
X5.9Y-3.1
X5.9Y-3.4
X5.965Y-2.845
X6.0Y-1.2
X6.0Y-1.3
X6.0Y-1.7
X6.0Y-1.9
X6.0Y-2.6
X6.0Y-2.8
X6.0Y-3.1
X6.0Y-3.2
X6.1Y-1.2
X6.1Y-1.3
X6.1Y-3.0
X6.1063Y-1.5827
X6.17Y-3.21
X6.195Y-3.025
X6.2Y-1.2
X6.2Y-1.3
X6.2Y-2.1
X6.2Y-2.2
X6.2Y-2.3
X6.2Y-2.4
X6.24Y-1.745
X6.245Y-1.89
X6.2527Y-3.5947
X6.2577Y-5.6497
X6.2577Y-5.7497
X6.3Y-1.2
X6.3Y-2.1
X6.3Y-2.2
X6.3Y-2.3
X6.3Y-2.3
X6.3Y-2.4
X6.3Y-2.4
X6.3Y-2.6
X6.3Y-2.7
X6.3Y-2.7
X6.3Y-2.7
X6.3Y-3.2
X6.3Y-3.3
X6.3327Y-5.7197
X6.3327Y-5.7197
X6.3377Y-5.8197
X6.3377Y-5.8197
X6.34Y-2.65
X6.345Y-1.892
X6.3527Y-3.5247
X6.374Y-3.778
X6.383Y-3.362
X6.4Y-1.2
X6.4Y-2.1
X6.4Y-2.2
X6.4Y-2.3
X6.4Y-2.4
X6.4Y-3.0
X6.4Y-3.1
X6.4Y-3.3
X6.42Y-3.2
X6.445Y-1.76
X6.5Y-1.2
X6.5Y-2.2
X6.5Y-2.3
X6.5Y-2.4
X6.5Y-3.0
X6.5Y-3.1
X6.5Y-3.2
X6.5Y-3.3
X6.545Y-1.76
X6.5458Y-1.605
X6.6Y-1.2
X6.6Y-2.3
X6.6Y-2.4
X6.6Y-3.0
X6.6Y-3.1
X6.645Y-1.605
X6.7Y-1.2
X6.7Y-2.3
X6.7Y-2.4
X6.7Y-3.0
X6.7Y-3.1
X6.7Y-3.4
X6.7442Y-1.61
X6.745Y-1.75
X6.8Y-1.2
X6.8Y-2.3
X6.8Y-2.4
X6.8Y-3.4
X6.8661Y-1.7559
X6.9Y-1.2
X6.9Y-1.4
X6.9Y-1.5
X6.9Y-1.6
X6.9Y-1.9
X6.9Y-2.3
X6.9Y-2.4
X6.9Y-3.0
X6.9Y-3.1
X6.9Y-3.4
X7.0Y-1.2
X7.0Y-1.4
X7.0Y-1.5
X7.0Y-1.6
X7.0Y-2.3
X7.0Y-2.4
X7.0Y-3.4
X7.02Y-2.855
X7.0984Y-2.0472
X7.0993Y-1.9541
X7.1Y-1.2
X7.1Y-1.4
X7.1Y-1.5
X7.1Y-1.6
X7.1Y-2.3
X7.1Y-2.4
X7.1Y-2.5
X7.1Y-2.6
X7.1Y-3.4
X7.1024Y-1.7992
X7.145Y-2.66
X7.2Y-1.2
X7.2Y-1.5
X7.2Y-2.3
X7.2Y-2.4
X7.2Y-2.5
X7.2Y-2.6
X7.2Y-2.7
X7.2Y-2.8
X7.2Y-2.9
X7.2Y-3.0
X7.2Y-3.4
X7.3Y-1.3
X7.3Y-3.4
X7.311Y-3.2323
X7.4Y-1.4
X7.4Y-1.5
X7.4Y-1.6
X7.4Y-1.7
X7.4Y-1.8
X7.4Y-1.9
X7.4Y-2.0
X7.4Y-2.1
X7.4Y-2.2
X7.4Y-2.3
X7.4Y-2.4
X7.4Y-2.5
X7.4Y-2.6
X7.4Y-2.7
X7.4Y-2.8
X7.4Y-2.9
X7.4Y-3.0
X7.4Y-3.1
X7.4Y-3.2
X7.4Y-3.3
X7.4Y-3.4
X7.5Y-1.4
X7.5Y-1.5
X7.5Y-1.6
X7.5Y-1.7
X7.5Y-1.8
X7.5Y-1.9
X7.5Y-2.0
X7.5Y-2.1
X7.5Y-2.2
X7.5Y-2.3
X7.5Y-2.4
X7.5Y-2.5
X7.5Y-2.6
X7.5Y-2.7
X7.5Y-2.8
X7.5Y-2.9
X7.5Y-3.0
X7.5Y-3.1
X7.5Y-3.2
X7.5Y-3.3
X7.5Y-3.4
T2
X6.5535Y-2.83
X6.7457Y-2.83
X6.99Y-2.945
X6.99Y-3.245
X7.09Y-2.945
X7.09Y-3.245
T3
X5.4922Y-2.2159
X5.4922Y-2.3159
X5.493Y-2.514
X5.495Y-2.015
X5.593Y-2.514
X5.595Y-2.015
X5.693Y-2.514
X5.695Y-2.015
X5.793Y-2.514
X5.795Y-2.015
X5.893Y-2.514
X5.895Y-2.015
X5.993Y-2.514
X5.995Y-1.495
X5.995Y-2.015
X6.093Y-2.514
X6.095Y-1.495
X6.095Y-2.015
X6.193Y-2.514
X6.195Y-1.495
X6.195Y-2.015
X6.293Y-2.514
X6.295Y-1.495
X6.295Y-2.015
X6.393Y-2.514
X6.395Y-1.495
X6.395Y-2.015
X6.493Y-2.514
X6.495Y-1.495
X6.495Y-2.015
X6.593Y-2.514
X6.595Y-1.495
X6.595Y-2.015
X6.693Y-2.514
X6.695Y-1.495
X6.695Y-2.015
X6.793Y-2.514
X6.795Y-1.495
X6.795Y-2.015
X6.893Y-2.514
X6.895Y-2.015
X6.993Y-2.514
X6.995Y-2.015
X7.215Y-1.695
X7.215Y-1.795
X7.215Y-1.895
X7.215Y-1.995
X7.215Y-2.095
M30
