%TF.GenerationSoftware,KiCad,Pcbnew,7.0.10*%
%TF.CreationDate,2024-04-03T14:27:39+05:30*%
%TF.ProjectId,PN532,504e3533-322e-46b6-9963-61645f706362,rev?*%
%TF.SameCoordinates,Original*%
%TF.FileFunction,Copper,L2,Bot*%
%TF.FilePolarity,Positive*%
%FSLAX46Y46*%
G04 Gerber Fmt 4.6, Leading zero omitted, Abs format (unit mm)*
G04 Created by KiCad (PCBNEW 7.0.10) date 2024-04-03 14:27:39*
%MOMM*%
%LPD*%
G01*
G04 APERTURE LIST*
%TA.AperFunction,ComponentPad*%
%ADD10R,1.700000X1.700000*%
%TD*%
%TA.AperFunction,ComponentPad*%
%ADD11O,1.700000X1.700000*%
%TD*%
%TA.AperFunction,ComponentPad*%
%ADD12R,1.600000X1.600000*%
%TD*%
%TA.AperFunction,ComponentPad*%
%ADD13O,1.600000X1.600000*%
%TD*%
%TA.AperFunction,ComponentPad*%
%ADD14C,1.500000*%
%TD*%
%TA.AperFunction,ComponentPad*%
%ADD15R,2.200000X2.200000*%
%TD*%
%TA.AperFunction,ComponentPad*%
%ADD16O,2.200000X2.200000*%
%TD*%
%TA.AperFunction,ViaPad*%
%ADD17C,1.000000*%
%TD*%
%TA.AperFunction,Conductor*%
%ADD18C,0.500000*%
%TD*%
G04 APERTURE END LIST*
D10*
%TO.P,J402,1,Pin_1*%
%TO.N,/DVDD*%
X156150000Y-91370000D03*
D11*
%TO.P,J402,2,Pin_2*%
%TO.N,/P30{slash}UART_RX*%
X153610000Y-91370000D03*
%TO.P,J402,3,Pin_3*%
%TO.N,/IRQ*%
X151070000Y-91370000D03*
%TO.P,J402,4,Pin_4*%
%TO.N,/RSTOUT_N*%
X148530000Y-91370000D03*
%TO.P,J402,5,Pin_5*%
%TO.N,/NSS{slash}SCL{slash}RX*%
X145990000Y-91370000D03*
%TO.P,J402,6,Pin_6*%
%TO.N,/MOSI{slash}SDA{slash}TX*%
X143450000Y-91370000D03*
%TO.P,J402,7,Pin_7*%
%TO.N,/MISO*%
X140910000Y-91370000D03*
%TO.P,J402,8,Pin_8*%
%TO.N,/SCK*%
X138370000Y-91370000D03*
%TO.P,J402,9,Pin_9*%
%TO.N,/P31*%
X135830000Y-91370000D03*
%TO.P,J402,10,Pin_10*%
%TO.N,/P32*%
X133290000Y-91370000D03*
%TO.P,J402,11,Pin_11*%
%TO.N,/P33*%
X130750000Y-91370000D03*
%TO.P,J402,12,Pin_12*%
%TO.N,/P34{slash}SIC_CLK*%
X128210000Y-91370000D03*
%TO.P,J402,13,Pin_13*%
%TO.N,/SIGOUT*%
X125670000Y-91370000D03*
%TO.P,J402,14,Pin_14*%
%TO.N,/SIGIN*%
X123130000Y-91370000D03*
%TO.P,J402,15,Pin_15*%
%TO.N,/DVDD*%
X120590000Y-91370000D03*
%TO.P,J402,16,Pin_16*%
%TO.N,/RSTPD_N*%
X118050000Y-91370000D03*
%TD*%
D10*
%TO.P,J503,1,Pin_1*%
%TO.N,GND*%
X112205000Y-81205000D03*
%TD*%
%TO.P,J511,1,Pin_1*%
%TO.N,/DVDD*%
X116905000Y-79525000D03*
%TD*%
%TO.P,J43,1,Pin_1*%
%TO.N,Net-(J43-Pin_1)*%
X149656800Y-78536800D03*
%TD*%
%TO.P,J44,1,Pin_1*%
%TO.N,Net-(J44-Pin_1)*%
X160000000Y-78000000D03*
%TD*%
%TO.P,J8,1,Pin_1*%
%TO.N,unconnected-(J8-Pin_1-Pad1)*%
X114300000Y-55880000D03*
D11*
%TO.P,J8,2,Pin_2*%
%TO.N,unconnected-(J8-Pin_2-Pad2)*%
X116840000Y-55880000D03*
%TO.P,J8,3,Pin_3*%
%TO.N,GND*%
X119380000Y-55880000D03*
%TO.P,J8,4,Pin_4*%
%TO.N,unconnected-(J8-Pin_4-Pad4)*%
X121920000Y-55880000D03*
%TO.P,J8,5,Pin_5*%
%TO.N,unconnected-(J8-Pin_5-Pad5)*%
X124460000Y-55880000D03*
%TO.P,J8,6,Pin_6*%
%TO.N,unconnected-(J8-Pin_6-Pad6)*%
X127000000Y-55880000D03*
%TO.P,J8,7,Pin_7*%
%TO.N,unconnected-(J8-Pin_7-Pad7)*%
X129540000Y-55880000D03*
%TO.P,J8,8,Pin_8*%
%TO.N,GND*%
X132080000Y-55880000D03*
%TO.P,J8,9,Pin_9*%
%TO.N,unconnected-(J8-Pin_9-Pad9)*%
X134620000Y-55880000D03*
%TO.P,J8,10,Pin_10*%
%TO.N,unconnected-(J8-Pin_10-Pad10)*%
X137160000Y-55880000D03*
%TO.P,J8,11,Pin_11*%
%TO.N,unconnected-(J8-Pin_11-Pad11)*%
X139700000Y-55880000D03*
%TO.P,J8,12,Pin_12*%
%TO.N,unconnected-(J8-Pin_12-Pad12)*%
X142240000Y-55880000D03*
%TO.P,J8,13,Pin_13*%
%TO.N,GND*%
X144780000Y-55880000D03*
%TO.P,J8,14,Pin_14*%
%TO.N,unconnected-(J8-Pin_14-Pad14)*%
X147320000Y-55880000D03*
%TO.P,J8,15,Pin_15*%
%TO.N,unconnected-(J8-Pin_15-Pad15)*%
X149860000Y-55880000D03*
%TO.P,J8,16,Pin_16*%
%TO.N,unconnected-(J8-Pin_16-Pad16)*%
X152400000Y-55880000D03*
%TO.P,J8,17,Pin_17*%
%TO.N,unconnected-(J8-Pin_17-Pad17)*%
X154940000Y-55880000D03*
%TO.P,J8,18,Pin_18*%
%TO.N,GND*%
X157480000Y-55880000D03*
%TO.P,J8,19,Pin_19*%
%TO.N,/VSYS*%
X160020000Y-55880000D03*
%TO.P,J8,20,Pin_20*%
%TO.N,/VBUS*%
X162560000Y-55880000D03*
%TD*%
D10*
%TO.P,J40,1,Pin_1*%
%TO.N,/VSYS*%
X160200000Y-59900000D03*
D11*
%TO.P,J40,2,Pin_2*%
%TO.N,Net-(D1-K)*%
X160200000Y-62440000D03*
%TO.P,J40,3,Pin_3*%
%TO.N,/VBUS*%
X162740000Y-59900000D03*
%TO.P,J40,4,Pin_4*%
%TO.N,Net-(D1-K)*%
X162740000Y-62440000D03*
%TD*%
D10*
%TO.P,J50,1,Pin_1*%
%TO.N,/NSS{slash}SCL{slash}RX1*%
X145830000Y-83920000D03*
D11*
%TO.P,J50,2,Pin_2*%
%TO.N,/NSS{slash}SCL{slash}RX*%
X145830000Y-86460000D03*
%TO.P,J50,3,Pin_3*%
%TO.N,/MOSI{slash}SDA{slash}TX1*%
X143290000Y-83920000D03*
%TO.P,J50,4,Pin_4*%
%TO.N,/MOSI{slash}SDA{slash}TX*%
X143290000Y-86460000D03*
%TO.P,J50,5,Pin_5*%
%TO.N,/MISO1*%
X140750000Y-83920000D03*
%TO.P,J50,6,Pin_6*%
%TO.N,/MISO*%
X140750000Y-86460000D03*
%TO.P,J50,7,Pin_7*%
%TO.N,/SCK1*%
X138210000Y-83920000D03*
%TO.P,J50,8,Pin_8*%
%TO.N,/SCK*%
X138210000Y-86460000D03*
%TD*%
D10*
%TO.P,J7,1,Pin_1*%
%TO.N,unconnected-(J7-Pin_1-Pad1)*%
X114250000Y-73630000D03*
D11*
%TO.P,J7,2,Pin_2*%
%TO.N,unconnected-(J7-Pin_2-Pad2)*%
X116790000Y-73630000D03*
%TO.P,J7,3,Pin_3*%
%TO.N,GND*%
X119330000Y-73630000D03*
%TO.P,J7,4,Pin_4*%
%TO.N,/SCK1*%
X121870000Y-73630000D03*
%TO.P,J7,5,Pin_5*%
%TO.N,/MOSI{slash}SDA{slash}TX1*%
X124410000Y-73630000D03*
%TO.P,J7,6,Pin_6*%
%TO.N,/MISO1*%
X126950000Y-73630000D03*
%TO.P,J7,7,Pin_7*%
%TO.N,/NSS{slash}SCL{slash}RX1*%
X129490000Y-73630000D03*
%TO.P,J7,8,Pin_8*%
%TO.N,GND*%
X132030000Y-73630000D03*
%TO.P,J7,9,Pin_9*%
%TO.N,unconnected-(J7-Pin_9-Pad9)*%
X134570000Y-73630000D03*
%TO.P,J7,10,Pin_10*%
%TO.N,unconnected-(J7-Pin_10-Pad10)*%
X137110000Y-73630000D03*
%TO.P,J7,11,Pin_11*%
%TO.N,unconnected-(J7-Pin_11-Pad11)*%
X139650000Y-73630000D03*
%TO.P,J7,12,Pin_12*%
%TO.N,unconnected-(J7-Pin_12-Pad12)*%
X142190000Y-73630000D03*
%TO.P,J7,13,Pin_13*%
%TO.N,GND*%
X144730000Y-73630000D03*
%TO.P,J7,14,Pin_14*%
%TO.N,unconnected-(J7-Pin_14-Pad14)*%
X147270000Y-73630000D03*
%TO.P,J7,15,Pin_15*%
%TO.N,Net-(J43-Pin_1)*%
X149810000Y-73630000D03*
%TO.P,J7,16,Pin_16*%
%TO.N,unconnected-(J7-Pin_16-Pad16)*%
X152350000Y-73630000D03*
%TO.P,J7,17,Pin_17*%
%TO.N,unconnected-(J7-Pin_17-Pad17)*%
X154890000Y-73630000D03*
%TO.P,J7,18,Pin_18*%
%TO.N,GND*%
X157430000Y-73630000D03*
%TO.P,J7,19,Pin_19*%
%TO.N,Net-(J44-Pin_1)*%
X159970000Y-73630000D03*
%TO.P,J7,20,Pin_20*%
%TO.N,unconnected-(J7-Pin_20-Pad20)*%
X162510000Y-73630000D03*
%TD*%
D10*
%TO.P,J504,1,Pin_1*%
%TO.N,GND*%
X163300000Y-84400000D03*
%TD*%
%TO.P,J401,1,Pin_1*%
%TO.N,GND*%
X118000000Y-104044000D03*
D11*
%TO.P,J401,2,Pin_2*%
%TO.N,/TX1*%
X120540000Y-104044000D03*
%TO.P,J401,3,Pin_3*%
%TO.N,/TVDD*%
X123080000Y-104044000D03*
%TO.P,J401,4,Pin_4*%
%TO.N,/TX2*%
X125620000Y-104044000D03*
%TO.P,J401,5,Pin_5*%
%TO.N,GND*%
X128160000Y-104044000D03*
%TO.P,J401,6,Pin_6*%
%TO.N,/AVDD*%
X130700000Y-104044000D03*
%TO.P,J401,7,Pin_7*%
%TO.N,/VMID*%
X133240000Y-104044000D03*
%TO.P,J401,8,Pin_8*%
%TO.N,/RX*%
X135780000Y-104044000D03*
%TO.P,J401,9,Pin_9*%
%TO.N,GND*%
X138320000Y-104044000D03*
%TO.P,J401,10,Pin_10*%
%TO.N,/AUX1*%
X140860000Y-104044000D03*
%TO.P,J401,11,Pin_11*%
%TO.N,/AUX2*%
X143400000Y-104044000D03*
%TO.P,J401,12,Pin_12*%
%TO.N,/XTAL1*%
X145940000Y-104044000D03*
%TO.P,J401,13,Pin_13*%
%TO.N,/XTAL2*%
X148480000Y-104044000D03*
%TO.P,J401,14,Pin_14*%
%TO.N,/SEL0*%
X151020000Y-104044000D03*
%TO.P,J401,15,Pin_15*%
%TO.N,/SEL1*%
X153560000Y-104044000D03*
%TO.P,J401,16,Pin_16*%
%TO.N,GND*%
X156100000Y-104044000D03*
%TD*%
D10*
%TO.P,J510,1,Pin_1*%
%TO.N,/VIN*%
X113030000Y-77470000D03*
%TD*%
D12*
%TO.P,SW1,1,A*%
%TO.N,/SEL0*%
X156337000Y-115309000D03*
D13*
%TO.P,SW1,2,B*%
%TO.N,/DVDD*%
X158877000Y-115309000D03*
%TO.P,SW1,3,A*%
%TO.N,/SEL1*%
X158877000Y-107689000D03*
%TO.P,SW1,4,B*%
%TO.N,/DVDD*%
X156337000Y-107689000D03*
%TD*%
D14*
%TO.P,Y1,1,1*%
%TO.N,/XTAL1*%
X144597000Y-113789000D03*
%TO.P,Y1,2,2*%
%TO.N,/XTAL2*%
X149477000Y-113789000D03*
%TD*%
D15*
%TO.P,D1,1,K*%
%TO.N,Net-(D1-K)*%
X152000000Y-63500000D03*
D16*
%TO.P,D1,2,A*%
%TO.N,/VIN*%
X141840000Y-63500000D03*
%TD*%
D10*
%TO.P,J3,1,Pin_1*%
%TO.N,GND*%
X117980000Y-99014000D03*
D11*
%TO.P,J3,2,Pin_2*%
%TO.N,/DVDD*%
X117980000Y-96474000D03*
%TD*%
D17*
%TO.N,GND*%
X112522000Y-53594000D03*
X114808000Y-104140000D03*
X162814000Y-108966000D03*
X159512000Y-97536000D03*
X162814000Y-105918000D03*
%TO.N,Net-(C1-Pad1)*%
X137213200Y-124979800D03*
X134673200Y-126757800D03*
%TO.N,Net-(C2-Pad2)*%
X134800200Y-178954800D03*
X134800200Y-181494800D03*
X136705200Y-180732800D03*
X136832200Y-183272800D03*
%TO.N,GND*%
X142240000Y-71120000D03*
X111760000Y-99060000D03*
X129130000Y-99220000D03*
X114046000Y-60960000D03*
X109220000Y-119380000D03*
X158750000Y-81788000D03*
X160020000Y-83820000D03*
X159512000Y-89154000D03*
X114300000Y-119380000D03*
X116840000Y-58420000D03*
X119380000Y-71120000D03*
X114300000Y-116840000D03*
X114808000Y-70866000D03*
X128010000Y-82520000D03*
X133700000Y-119400000D03*
X111760000Y-96520000D03*
X157480000Y-70866000D03*
X119380000Y-66040000D03*
X160020000Y-66040000D03*
X157226000Y-85344000D03*
X148657000Y-98609000D03*
X109220000Y-85598000D03*
X121920000Y-58420000D03*
X139700000Y-58420000D03*
X129540000Y-71120000D03*
X142240000Y-66040000D03*
X153416000Y-116332000D03*
X163830000Y-88900000D03*
X156210000Y-76200000D03*
X124460000Y-66040000D03*
X154940000Y-78740000D03*
X109220000Y-101600000D03*
X146117000Y-101149000D03*
X116840000Y-119380000D03*
X109474000Y-93472000D03*
X162560000Y-99060000D03*
X153924000Y-106934000D03*
X148590000Y-58420000D03*
X151197000Y-98609000D03*
X162560000Y-114300000D03*
X130810000Y-58420000D03*
X137754997Y-131414607D03*
X161290000Y-86360000D03*
X114300000Y-101149000D03*
X127000000Y-60960000D03*
X148657000Y-101149000D03*
X162560000Y-93980000D03*
X162560000Y-116840000D03*
X142240000Y-68580000D03*
X152400000Y-60960000D03*
X123077000Y-108189000D03*
X143577000Y-98609000D03*
X152400000Y-83820000D03*
X149860000Y-87630000D03*
X152908000Y-110490000D03*
X133350000Y-68580000D03*
X137160000Y-68580000D03*
X135530000Y-95390000D03*
X109220000Y-111760000D03*
X147320000Y-71120000D03*
X153737000Y-98609000D03*
X130556000Y-109474000D03*
X114046000Y-58420000D03*
X151130000Y-66040000D03*
X140208000Y-117094000D03*
X120650000Y-95250000D03*
X154940000Y-87630000D03*
X114808000Y-68326000D03*
X156400000Y-58400000D03*
X135970000Y-102010000D03*
X123190000Y-82804000D03*
X142240000Y-60960000D03*
X119380000Y-76200000D03*
X129540000Y-66040000D03*
X143577000Y-96069000D03*
X109728000Y-83312000D03*
X116840000Y-60960000D03*
X114960000Y-108250000D03*
X110490000Y-87630000D03*
X119380000Y-68580000D03*
X124460000Y-71120000D03*
X121920000Y-60960000D03*
X152400000Y-86360000D03*
X138610000Y-99020000D03*
X138497000Y-96069000D03*
X133350000Y-66040000D03*
X156900000Y-78800000D03*
X123190000Y-114808000D03*
X162560000Y-96520000D03*
X141037000Y-101149000D03*
X111760000Y-109220000D03*
X152400000Y-96520000D03*
X130877000Y-88449000D03*
X134620000Y-58420000D03*
X132334000Y-87376000D03*
X110998000Y-85598000D03*
X109220000Y-114300000D03*
X135957000Y-98609000D03*
X123190000Y-111000000D03*
X154940000Y-70866000D03*
X111760000Y-116840000D03*
X109728000Y-79502000D03*
X111760000Y-111760000D03*
X144780000Y-77470000D03*
X157480000Y-66040000D03*
X138684000Y-119380000D03*
X151197000Y-101149000D03*
X162814000Y-66802000D03*
X109220000Y-99060000D03*
X109220000Y-96520000D03*
X146117000Y-98609000D03*
X154940000Y-68580000D03*
X141037000Y-98609000D03*
X151130000Y-68580000D03*
X141037000Y-96069000D03*
X111760000Y-104140000D03*
X155448000Y-82042000D03*
X147320000Y-96520000D03*
X152400000Y-76200000D03*
X147320000Y-119380000D03*
X118600000Y-107200000D03*
X121920000Y-119380000D03*
X152400000Y-58420000D03*
X130556000Y-111506000D03*
X109220000Y-116840000D03*
X110998000Y-94742000D03*
X147320000Y-66040000D03*
X143577000Y-101149000D03*
X138490000Y-101220000D03*
X162560000Y-91440000D03*
X127000000Y-58420000D03*
X140462000Y-106489000D03*
X138430000Y-60960000D03*
X119380000Y-119380000D03*
X160020000Y-68072000D03*
X137160000Y-66040000D03*
X114300000Y-106680000D03*
X162814000Y-69342000D03*
X157480000Y-68326000D03*
X147320000Y-76200000D03*
X147320000Y-68580000D03*
X142494000Y-117348000D03*
X148844000Y-83312000D03*
X160020000Y-70612000D03*
X118400000Y-84480000D03*
X114808000Y-65786000D03*
X154940000Y-66040000D03*
X133350000Y-71120000D03*
X128920000Y-96480000D03*
X151130000Y-71120000D03*
X144780000Y-58420000D03*
X129540000Y-68580000D03*
X156100000Y-60700000D03*
X162560000Y-111760000D03*
X111760000Y-119380000D03*
X116840000Y-76200000D03*
X113770000Y-114180000D03*
X114554000Y-81788000D03*
X124206000Y-88900000D03*
X120877000Y-97289000D03*
X134620000Y-60960000D03*
X130810000Y-60960000D03*
X123190000Y-106426000D03*
X128016000Y-106426000D03*
X113792000Y-110998000D03*
X109982000Y-91694000D03*
X114554000Y-79756000D03*
X111760000Y-101600000D03*
X109220000Y-106680000D03*
X111760000Y-106680000D03*
X109220000Y-109220000D03*
X159512000Y-92202000D03*
X124460000Y-68580000D03*
X111760000Y-114300000D03*
X119377000Y-101589000D03*
X137414000Y-106426000D03*
X149860000Y-96520000D03*
X120677000Y-99589000D03*
X162560000Y-119380000D03*
X114300000Y-98609000D03*
X152400000Y-81280000D03*
X127020000Y-88860000D03*
X109220000Y-104140000D03*
X146050000Y-60960000D03*
X109982000Y-89662000D03*
X137160000Y-71120000D03*
X144780000Y-119380000D03*
X140830000Y-111940000D03*
X113538000Y-83312000D03*
X163830000Y-76200000D03*
%TO.N,/DVDD*%
X123277000Y-86289000D03*
X125277000Y-93789000D03*
X114377000Y-86164000D03*
X149690000Y-94370000D03*
%TO.N,/SEL0*%
X150977000Y-118489000D03*
%TD*%
D18*
%TO.N,Net-(C1-Pad1)*%
X135435200Y-126757800D02*
X137213200Y-124979800D01*
X134673200Y-126757800D02*
X135435200Y-126757800D01*
%TO.N,Net-(C2-Pad2)*%
X134800200Y-181494800D02*
X135054200Y-181494800D01*
X134800200Y-178954800D02*
X134673200Y-178954800D01*
X136451200Y-180732800D02*
X134800200Y-179081800D01*
X136705200Y-180732800D02*
X136451200Y-180732800D01*
X135054200Y-181494800D02*
X136832200Y-183272800D01*
X134800200Y-179081800D02*
X134800200Y-178954800D01*
X134673200Y-178954800D02*
X134673200Y-178954800D01*
%TO.N,GND*%
X137805797Y-131363807D02*
X137754997Y-131414607D01*
X138463200Y-130706404D02*
X137754997Y-131414607D01*
X138463200Y-124175200D02*
X138463200Y-130706404D01*
X133700000Y-119400000D02*
X133700000Y-119412000D01*
X133700000Y-119412000D02*
X138463200Y-124175200D01*
%TO.N,/DVDD*%
X112077000Y-87189000D02*
X112077000Y-92889000D01*
X115177000Y-89689000D02*
X115177000Y-92189000D01*
X116777000Y-93789000D02*
X125277000Y-93789000D01*
X149690000Y-94370000D02*
X153130000Y-94370000D01*
X153130000Y-94370000D02*
X160530000Y-101770000D01*
X112077000Y-92889000D02*
X115662000Y-96474000D01*
X116696000Y-88170000D02*
X115177000Y-89689000D01*
X122530000Y-88170000D02*
X116696000Y-88170000D01*
X115177000Y-92189000D02*
X116777000Y-93789000D01*
X123277000Y-85177000D02*
X118110000Y-80010000D01*
X160530000Y-114770000D02*
X159991000Y-115309000D01*
X145911000Y-94370000D02*
X145330000Y-93789000D01*
X114377000Y-86164000D02*
X113102000Y-86164000D01*
X113102000Y-86164000D02*
X112077000Y-87189000D01*
X118110000Y-80010000D02*
X116840000Y-80010000D01*
X159991000Y-115309000D02*
X158877000Y-115309000D01*
X115662000Y-96474000D02*
X117980000Y-96474000D01*
X160530000Y-101770000D02*
X160530000Y-114770000D01*
X145330000Y-93789000D02*
X125277000Y-93789000D01*
X123277000Y-87423000D02*
X122530000Y-88170000D01*
X125277000Y-93789000D02*
X124877000Y-93789000D01*
X123277000Y-86289000D02*
X123277000Y-87423000D01*
X149690000Y-94370000D02*
X145911000Y-94370000D01*
X123277000Y-86289000D02*
X123277000Y-85177000D01*
%TO.N,/SEL0*%
X151020000Y-117732000D02*
X150977000Y-118489000D01*
X151020000Y-104044000D02*
X151020000Y-117732000D01*
X150977000Y-118489000D02*
X151020000Y-118346000D01*
%TO.N,/MOSI{slash}SDA{slash}TX1*%
X128270000Y-78740000D02*
X139580000Y-78740000D01*
X124410000Y-73630000D02*
X124410000Y-74880000D01*
X143290000Y-83920000D02*
X143290000Y-82450000D01*
X143290000Y-82450000D02*
X139580000Y-78740000D01*
X124410000Y-74880000D02*
X128270000Y-78740000D01*
%TD*%
%TA.AperFunction,Conductor*%
%TO.N,GND*%
G36*
X162726809Y-47917185D02*
G01*
X162772564Y-47969989D01*
X162782508Y-48039147D01*
X162753483Y-48102703D01*
X162721770Y-48128887D01*
X162587143Y-48206614D01*
X162382014Y-48370198D01*
X162203567Y-48562520D01*
X162055768Y-48779302D01*
X162055767Y-48779303D01*
X161941938Y-49015673D01*
X161864606Y-49266376D01*
X161864605Y-49266381D01*
X161864604Y-49266385D01*
X161849853Y-49364247D01*
X161825500Y-49525812D01*
X161825500Y-49788187D01*
X161845794Y-49922823D01*
X161864604Y-50047615D01*
X161864605Y-50047617D01*
X161864606Y-50047623D01*
X161941938Y-50298326D01*
X162055767Y-50534696D01*
X162055768Y-50534697D01*
X162055770Y-50534700D01*
X162055772Y-50534704D01*
X162203567Y-50751479D01*
X162382014Y-50943801D01*
X162382018Y-50943804D01*
X162382019Y-50943805D01*
X162587143Y-51107386D01*
X162814357Y-51238568D01*
X163058584Y-51334420D01*
X163314370Y-51392802D01*
X163314376Y-51392802D01*
X163314379Y-51392803D01*
X163510484Y-51407499D01*
X163510503Y-51407499D01*
X163510506Y-51407500D01*
X163510508Y-51407500D01*
X163641492Y-51407500D01*
X163641494Y-51407500D01*
X163641496Y-51407499D01*
X163641515Y-51407499D01*
X163837620Y-51392803D01*
X163837622Y-51392802D01*
X163837630Y-51392802D01*
X164093416Y-51334420D01*
X164337643Y-51238568D01*
X164564857Y-51107386D01*
X164769981Y-50943805D01*
X164948433Y-50751479D01*
X165096228Y-50534704D01*
X165133780Y-50456727D01*
X165180602Y-50404867D01*
X165248029Y-50386554D01*
X165314653Y-50407602D01*
X165359322Y-50461328D01*
X165369500Y-50510528D01*
X165369500Y-120279726D01*
X165349815Y-120346765D01*
X165297011Y-120392520D01*
X165247125Y-120403715D01*
X108704125Y-121144786D01*
X108636833Y-121125982D01*
X108590390Y-121073782D01*
X108578500Y-121020797D01*
X108578500Y-113789000D01*
X143241341Y-113789000D01*
X143261936Y-114024403D01*
X143261938Y-114024413D01*
X143323094Y-114252655D01*
X143323096Y-114252659D01*
X143323097Y-114252663D01*
X143369530Y-114352238D01*
X143422965Y-114466830D01*
X143422967Y-114466834D01*
X143531281Y-114621521D01*
X143558505Y-114660401D01*
X143725599Y-114827495D01*
X143791812Y-114873858D01*
X143919165Y-114963032D01*
X143919167Y-114963033D01*
X143919170Y-114963035D01*
X144133337Y-115062903D01*
X144133343Y-115062904D01*
X144133344Y-115062905D01*
X144188285Y-115077626D01*
X144361592Y-115124063D01*
X144533096Y-115139068D01*
X144596999Y-115144659D01*
X144597000Y-115144659D01*
X144597001Y-115144659D01*
X144636234Y-115141226D01*
X144832408Y-115124063D01*
X145060663Y-115062903D01*
X145274830Y-114963035D01*
X145468401Y-114827495D01*
X145635495Y-114660401D01*
X145771035Y-114466830D01*
X145870903Y-114252663D01*
X145932063Y-114024408D01*
X145952659Y-113789000D01*
X145932063Y-113553592D01*
X145870903Y-113325337D01*
X145771035Y-113111171D01*
X145635495Y-112917599D01*
X145635494Y-112917597D01*
X145468402Y-112750506D01*
X145468395Y-112750501D01*
X145274834Y-112614967D01*
X145274830Y-112614965D01*
X145113977Y-112539958D01*
X145060663Y-112515097D01*
X145060659Y-112515096D01*
X145060655Y-112515094D01*
X144832413Y-112453938D01*
X144832403Y-112453936D01*
X144597001Y-112433341D01*
X144596999Y-112433341D01*
X144361596Y-112453936D01*
X144361586Y-112453938D01*
X144133344Y-112515094D01*
X144133335Y-112515098D01*
X143919171Y-112614964D01*
X143919169Y-112614965D01*
X143725597Y-112750505D01*
X143558505Y-112917597D01*
X143422965Y-113111169D01*
X143422964Y-113111171D01*
X143323098Y-113325335D01*
X143323094Y-113325344D01*
X143261938Y-113553586D01*
X143261936Y-113553596D01*
X143241341Y-113788999D01*
X143241341Y-113789000D01*
X108578500Y-113789000D01*
X108578500Y-104941844D01*
X116650000Y-104941844D01*
X116656401Y-105001372D01*
X116656403Y-105001379D01*
X116706645Y-105136086D01*
X116706649Y-105136093D01*
X116792809Y-105251187D01*
X116792812Y-105251190D01*
X116907906Y-105337350D01*
X116907913Y-105337354D01*
X117042620Y-105387596D01*
X117042627Y-105387598D01*
X117102155Y-105393999D01*
X117102172Y-105394000D01*
X117750000Y-105394000D01*
X117750000Y-104479501D01*
X117857685Y-104528680D01*
X117964237Y-104544000D01*
X118035763Y-104544000D01*
X118142315Y-104528680D01*
X118250000Y-104479501D01*
X118250000Y-105394000D01*
X118897828Y-105394000D01*
X118897844Y-105393999D01*
X118957372Y-105387598D01*
X118957379Y-105387596D01*
X119092086Y-105337354D01*
X119092093Y-105337350D01*
X119207187Y-105251190D01*
X119207190Y-105251187D01*
X119293350Y-105136093D01*
X119293353Y-105136088D01*
X119303624Y-105108550D01*
X119345495Y-105052615D01*
X119410959Y-105028197D01*
X119479232Y-105043048D01*
X119511036Y-105067898D01*
X119554232Y-105114821D01*
X119554242Y-105114830D01*
X119743924Y-105262466D01*
X119743930Y-105262470D01*
X119743933Y-105262472D01*
X119955344Y-105376882D01*
X119955347Y-105376883D01*
X120182699Y-105454933D01*
X120182701Y-105454933D01*
X120182703Y-105454934D01*
X120419808Y-105494500D01*
X120419809Y-105494500D01*
X120660191Y-105494500D01*
X120660192Y-105494500D01*
X120897297Y-105454934D01*
X121124656Y-105376882D01*
X121336067Y-105262472D01*
X121525764Y-105114825D01*
X121688571Y-104937969D01*
X121706193Y-104910995D01*
X121759337Y-104865641D01*
X121828568Y-104856217D01*
X121891904Y-104885718D01*
X121913804Y-104910992D01*
X121931429Y-104937969D01*
X122094236Y-105114825D01*
X122094239Y-105114827D01*
X122094242Y-105114830D01*
X122283924Y-105262466D01*
X122283930Y-105262470D01*
X122283933Y-105262472D01*
X122495344Y-105376882D01*
X122495347Y-105376883D01*
X122722699Y-105454933D01*
X122722701Y-105454933D01*
X122722703Y-105454934D01*
X122959808Y-105494500D01*
X122959809Y-105494500D01*
X123200191Y-105494500D01*
X123200192Y-105494500D01*
X123437297Y-105454934D01*
X123664656Y-105376882D01*
X123876067Y-105262472D01*
X124065764Y-105114825D01*
X124228571Y-104937969D01*
X124246193Y-104910995D01*
X124299337Y-104865641D01*
X124368568Y-104856217D01*
X124431904Y-104885718D01*
X124453804Y-104910992D01*
X124471429Y-104937969D01*
X124634236Y-105114825D01*
X124634239Y-105114827D01*
X124634242Y-105114830D01*
X124823924Y-105262466D01*
X124823930Y-105262470D01*
X124823933Y-105262472D01*
X125035344Y-105376882D01*
X125035347Y-105376883D01*
X125262699Y-105454933D01*
X125262701Y-105454933D01*
X125262703Y-105454934D01*
X125499808Y-105494500D01*
X125499809Y-105494500D01*
X125740191Y-105494500D01*
X125740192Y-105494500D01*
X125977297Y-105454934D01*
X126204656Y-105376882D01*
X126416067Y-105262472D01*
X126605764Y-105114825D01*
X126768571Y-104937969D01*
X126846599Y-104818537D01*
X126899744Y-104773183D01*
X126968975Y-104763759D01*
X127032311Y-104793261D01*
X127051980Y-104815237D01*
X127121890Y-104915078D01*
X127288917Y-105082105D01*
X127482421Y-105217600D01*
X127696507Y-105317429D01*
X127696516Y-105317433D01*
X127910000Y-105374634D01*
X127910000Y-104479501D01*
X128017685Y-104528680D01*
X128124237Y-104544000D01*
X128195763Y-104544000D01*
X128302315Y-104528680D01*
X128410000Y-104479501D01*
X128410000Y-105374633D01*
X128623483Y-105317433D01*
X128623492Y-105317429D01*
X128837578Y-105217600D01*
X129031082Y-105082105D01*
X129198108Y-104915079D01*
X129268018Y-104815238D01*
X129322595Y-104771613D01*
X129392093Y-104764419D01*
X129454448Y-104795942D01*
X129473401Y-104818539D01*
X129533808Y-104910998D01*
X129551429Y-104937969D01*
X129714236Y-105114825D01*
X129714239Y-105114827D01*
X129714242Y-105114830D01*
X129903924Y-105262466D01*
X129903930Y-105262470D01*
X129903933Y-105262472D01*
X130115344Y-105376882D01*
X130115347Y-105376883D01*
X130342699Y-105454933D01*
X130342701Y-105454933D01*
X130342703Y-105454934D01*
X130579808Y-105494500D01*
X130579809Y-105494500D01*
X130820191Y-105494500D01*
X130820192Y-105494500D01*
X131057297Y-105454934D01*
X131284656Y-105376882D01*
X131496067Y-105262472D01*
X131685764Y-105114825D01*
X131848571Y-104937969D01*
X131866193Y-104910995D01*
X131919337Y-104865641D01*
X131988568Y-104856217D01*
X132051904Y-104885718D01*
X132073804Y-104910992D01*
X132091429Y-104937969D01*
X132254236Y-105114825D01*
X132254239Y-105114827D01*
X132254242Y-105114830D01*
X132443924Y-105262466D01*
X132443930Y-105262470D01*
X132443933Y-105262472D01*
X132655344Y-105376882D01*
X132655347Y-105376883D01*
X132882699Y-105454933D01*
X132882701Y-105454933D01*
X132882703Y-105454934D01*
X133119808Y-105494500D01*
X133119809Y-105494500D01*
X133360191Y-105494500D01*
X133360192Y-105494500D01*
X133597297Y-105454934D01*
X133824656Y-105376882D01*
X134036067Y-105262472D01*
X134225764Y-105114825D01*
X134388571Y-104937969D01*
X134406193Y-104910995D01*
X134459337Y-104865641D01*
X134528568Y-104856217D01*
X134591904Y-104885718D01*
X134613804Y-104910992D01*
X134631429Y-104937969D01*
X134794236Y-105114825D01*
X134794239Y-105114827D01*
X134794242Y-105114830D01*
X134983924Y-105262466D01*
X134983930Y-105262470D01*
X134983933Y-105262472D01*
X135195344Y-105376882D01*
X135195347Y-105376883D01*
X135422699Y-105454933D01*
X135422701Y-105454933D01*
X135422703Y-105454934D01*
X135659808Y-105494500D01*
X135659809Y-105494500D01*
X135900191Y-105494500D01*
X135900192Y-105494500D01*
X136137297Y-105454934D01*
X136364656Y-105376882D01*
X136576067Y-105262472D01*
X136765764Y-105114825D01*
X136928571Y-104937969D01*
X137006599Y-104818537D01*
X137059744Y-104773183D01*
X137128975Y-104763759D01*
X137192311Y-104793261D01*
X137211980Y-104815237D01*
X137281890Y-104915078D01*
X137448917Y-105082105D01*
X137642421Y-105217600D01*
X137856507Y-105317429D01*
X137856516Y-105317433D01*
X138070000Y-105374634D01*
X138070000Y-104479501D01*
X138177685Y-104528680D01*
X138284237Y-104544000D01*
X138355763Y-104544000D01*
X138462315Y-104528680D01*
X138570000Y-104479501D01*
X138570000Y-105374633D01*
X138783483Y-105317433D01*
X138783492Y-105317429D01*
X138997578Y-105217600D01*
X139191082Y-105082105D01*
X139358108Y-104915079D01*
X139428018Y-104815238D01*
X139482595Y-104771613D01*
X139552093Y-104764419D01*
X139614448Y-104795942D01*
X139633401Y-104818539D01*
X139693808Y-104910998D01*
X139711429Y-104937969D01*
X139874236Y-105114825D01*
X139874239Y-105114827D01*
X139874242Y-105114830D01*
X140063924Y-105262466D01*
X140063930Y-105262470D01*
X140063933Y-105262472D01*
X140275344Y-105376882D01*
X140275347Y-105376883D01*
X140502699Y-105454933D01*
X140502701Y-105454933D01*
X140502703Y-105454934D01*
X140739808Y-105494500D01*
X140739809Y-105494500D01*
X140980191Y-105494500D01*
X140980192Y-105494500D01*
X141217297Y-105454934D01*
X141444656Y-105376882D01*
X141656067Y-105262472D01*
X141845764Y-105114825D01*
X142008571Y-104937969D01*
X142026193Y-104910995D01*
X142079337Y-104865641D01*
X142148568Y-104856217D01*
X142211904Y-104885718D01*
X142233804Y-104910992D01*
X142251429Y-104937969D01*
X142414236Y-105114825D01*
X142414239Y-105114827D01*
X142414242Y-105114830D01*
X142603924Y-105262466D01*
X142603930Y-105262470D01*
X142603933Y-105262472D01*
X142815344Y-105376882D01*
X142815347Y-105376883D01*
X143042699Y-105454933D01*
X143042701Y-105454933D01*
X143042703Y-105454934D01*
X143279808Y-105494500D01*
X143279809Y-105494500D01*
X143520191Y-105494500D01*
X143520192Y-105494500D01*
X143757297Y-105454934D01*
X143984656Y-105376882D01*
X144196067Y-105262472D01*
X144385764Y-105114825D01*
X144548571Y-104937969D01*
X144566193Y-104910995D01*
X144619337Y-104865641D01*
X144688568Y-104856217D01*
X144751904Y-104885718D01*
X144773804Y-104910992D01*
X144791429Y-104937969D01*
X144954236Y-105114825D01*
X144954239Y-105114827D01*
X144954242Y-105114830D01*
X145143924Y-105262466D01*
X145143930Y-105262470D01*
X145143933Y-105262472D01*
X145355344Y-105376882D01*
X145355347Y-105376883D01*
X145582699Y-105454933D01*
X145582701Y-105454933D01*
X145582703Y-105454934D01*
X145819808Y-105494500D01*
X145819809Y-105494500D01*
X146060191Y-105494500D01*
X146060192Y-105494500D01*
X146297297Y-105454934D01*
X146524656Y-105376882D01*
X146736067Y-105262472D01*
X146925764Y-105114825D01*
X147088571Y-104937969D01*
X147106193Y-104910995D01*
X147159337Y-104865641D01*
X147228568Y-104856217D01*
X147291904Y-104885718D01*
X147313804Y-104910992D01*
X147331429Y-104937969D01*
X147494236Y-105114825D01*
X147494239Y-105114827D01*
X147494242Y-105114830D01*
X147683924Y-105262466D01*
X147683930Y-105262470D01*
X147683933Y-105262472D01*
X147895344Y-105376882D01*
X147895347Y-105376883D01*
X148122699Y-105454933D01*
X148122701Y-105454933D01*
X148122703Y-105454934D01*
X148359808Y-105494500D01*
X148359809Y-105494500D01*
X148600191Y-105494500D01*
X148600192Y-105494500D01*
X148837297Y-105454934D01*
X149064656Y-105376882D01*
X149276067Y-105262472D01*
X149465764Y-105114825D01*
X149628571Y-104937969D01*
X149646193Y-104910995D01*
X149699337Y-104865641D01*
X149768568Y-104856217D01*
X149831904Y-104885718D01*
X149853804Y-104910992D01*
X149871429Y-104937969D01*
X150034236Y-105114825D01*
X150121664Y-105182872D01*
X150162475Y-105239580D01*
X150169500Y-105280724D01*
X150169500Y-112427164D01*
X150149815Y-112494203D01*
X150097011Y-112539958D01*
X150027853Y-112549902D01*
X149993096Y-112539547D01*
X149940663Y-112515097D01*
X149940660Y-112515096D01*
X149940655Y-112515094D01*
X149712413Y-112453938D01*
X149712403Y-112453936D01*
X149477001Y-112433341D01*
X149476999Y-112433341D01*
X149241596Y-112453936D01*
X149241586Y-112453938D01*
X149013344Y-112515094D01*
X149013335Y-112515098D01*
X148799171Y-112614964D01*
X148799169Y-112614965D01*
X148605597Y-112750505D01*
X148438505Y-112917597D01*
X148302965Y-113111169D01*
X148302964Y-113111171D01*
X148203098Y-113325335D01*
X148203094Y-113325344D01*
X148141938Y-113553586D01*
X148141936Y-113553596D01*
X148121341Y-113788999D01*
X148121341Y-113789000D01*
X148141936Y-114024403D01*
X148141938Y-114024413D01*
X148203094Y-114252655D01*
X148203096Y-114252659D01*
X148203097Y-114252663D01*
X148249530Y-114352238D01*
X148302965Y-114466830D01*
X148302967Y-114466834D01*
X148411281Y-114621521D01*
X148438505Y-114660401D01*
X148605599Y-114827495D01*
X148671812Y-114873858D01*
X148799165Y-114963032D01*
X148799167Y-114963033D01*
X148799170Y-114963035D01*
X149013337Y-115062903D01*
X149013343Y-115062904D01*
X149013344Y-115062905D01*
X149068285Y-115077626D01*
X149241592Y-115124063D01*
X149413096Y-115139068D01*
X149476999Y-115144659D01*
X149477000Y-115144659D01*
X149477001Y-115144659D01*
X149516234Y-115141226D01*
X149712408Y-115124063D01*
X149940663Y-115062903D01*
X149993096Y-115038452D01*
X150062172Y-115027961D01*
X150125956Y-115056480D01*
X150164196Y-115114957D01*
X150169500Y-115150835D01*
X150169500Y-117690593D01*
X150149815Y-117757632D01*
X150144454Y-117765320D01*
X150037327Y-117907178D01*
X149946422Y-118089739D01*
X149946417Y-118089752D01*
X149890602Y-118285917D01*
X149871785Y-118488999D01*
X149871785Y-118489000D01*
X149890602Y-118692082D01*
X149946417Y-118888247D01*
X149946422Y-118888260D01*
X150037327Y-119070821D01*
X150160237Y-119233581D01*
X150310958Y-119370980D01*
X150310960Y-119370982D01*
X150410141Y-119432392D01*
X150484363Y-119478348D01*
X150674544Y-119552024D01*
X150875024Y-119589500D01*
X150875026Y-119589500D01*
X151078974Y-119589500D01*
X151078976Y-119589500D01*
X151279456Y-119552024D01*
X151469637Y-119478348D01*
X151643041Y-119370981D01*
X151793764Y-119233579D01*
X151916673Y-119070821D01*
X152007582Y-118888250D01*
X152063397Y-118692083D01*
X152082215Y-118489000D01*
X152063397Y-118285917D01*
X152007582Y-118089750D01*
X151916673Y-117907179D01*
X151916672Y-117907178D01*
X151916671Y-117907175D01*
X151895546Y-117879201D01*
X151870854Y-117813840D01*
X151870500Y-117804475D01*
X151870500Y-117759642D01*
X151870700Y-117752607D01*
X151871165Y-117744421D01*
X151871746Y-117734195D01*
X151870665Y-117713257D01*
X151870500Y-117706864D01*
X151870500Y-105280724D01*
X151890185Y-105213685D01*
X151918334Y-105182874D01*
X152005764Y-105114825D01*
X152168571Y-104937969D01*
X152186193Y-104910995D01*
X152239337Y-104865641D01*
X152308568Y-104856217D01*
X152371904Y-104885718D01*
X152393804Y-104910992D01*
X152411429Y-104937969D01*
X152574236Y-105114825D01*
X152574239Y-105114827D01*
X152574242Y-105114830D01*
X152763924Y-105262466D01*
X152763930Y-105262470D01*
X152763933Y-105262472D01*
X152975344Y-105376882D01*
X152975347Y-105376883D01*
X153202699Y-105454933D01*
X153202701Y-105454933D01*
X153202703Y-105454934D01*
X153439808Y-105494500D01*
X153439809Y-105494500D01*
X153680191Y-105494500D01*
X153680192Y-105494500D01*
X153917297Y-105454934D01*
X154144656Y-105376882D01*
X154356067Y-105262472D01*
X154545764Y-105114825D01*
X154708571Y-104937969D01*
X154786599Y-104818537D01*
X154839744Y-104773183D01*
X154908975Y-104763759D01*
X154972311Y-104793261D01*
X154991980Y-104815237D01*
X155061890Y-104915078D01*
X155228917Y-105082105D01*
X155422421Y-105217600D01*
X155636507Y-105317429D01*
X155636516Y-105317433D01*
X155850000Y-105374634D01*
X155850000Y-104479501D01*
X155957685Y-104528680D01*
X156064237Y-104544000D01*
X156135763Y-104544000D01*
X156242315Y-104528680D01*
X156350000Y-104479501D01*
X156350000Y-105374633D01*
X156563483Y-105317433D01*
X156563492Y-105317429D01*
X156777578Y-105217600D01*
X156971082Y-105082105D01*
X157138105Y-104915082D01*
X157273600Y-104721578D01*
X157373429Y-104507492D01*
X157373432Y-104507486D01*
X157430636Y-104294000D01*
X156533686Y-104294000D01*
X156559493Y-104253844D01*
X156600000Y-104115889D01*
X156600000Y-103972111D01*
X156559493Y-103834156D01*
X156533686Y-103794000D01*
X157430636Y-103794000D01*
X157430635Y-103793999D01*
X157373432Y-103580513D01*
X157373429Y-103580507D01*
X157273600Y-103366422D01*
X157273599Y-103366420D01*
X157138113Y-103172926D01*
X157138108Y-103172920D01*
X156971082Y-103005894D01*
X156777578Y-102870399D01*
X156563492Y-102770570D01*
X156563486Y-102770567D01*
X156350000Y-102713364D01*
X156350000Y-103608498D01*
X156242315Y-103559320D01*
X156135763Y-103544000D01*
X156064237Y-103544000D01*
X155957685Y-103559320D01*
X155850000Y-103608498D01*
X155850000Y-102713364D01*
X155849999Y-102713364D01*
X155636513Y-102770567D01*
X155636507Y-102770570D01*
X155422422Y-102870399D01*
X155422420Y-102870400D01*
X155228926Y-103005886D01*
X155228920Y-103005891D01*
X155061891Y-103172920D01*
X155061890Y-103172922D01*
X154991981Y-103272762D01*
X154937404Y-103316387D01*
X154867905Y-103323579D01*
X154805551Y-103292057D01*
X154786598Y-103269460D01*
X154708571Y-103150031D01*
X154545764Y-102973175D01*
X154545759Y-102973171D01*
X154545757Y-102973169D01*
X154356075Y-102825533D01*
X154356069Y-102825529D01*
X154144657Y-102711118D01*
X154144652Y-102711116D01*
X153917300Y-102633066D01*
X153739468Y-102603391D01*
X153680192Y-102593500D01*
X153439808Y-102593500D01*
X153392387Y-102601413D01*
X153202699Y-102633066D01*
X152975347Y-102711116D01*
X152975342Y-102711118D01*
X152763930Y-102825529D01*
X152763924Y-102825533D01*
X152574242Y-102973169D01*
X152574239Y-102973172D01*
X152574236Y-102973174D01*
X152574236Y-102973175D01*
X152544119Y-103005891D01*
X152411430Y-103150029D01*
X152411429Y-103150031D01*
X152393807Y-103177003D01*
X152340660Y-103222358D01*
X152271429Y-103231780D01*
X152208093Y-103202277D01*
X152186193Y-103177003D01*
X152183525Y-103172920D01*
X152168571Y-103150031D01*
X152005764Y-102973175D01*
X152005759Y-102973171D01*
X152005757Y-102973169D01*
X151816075Y-102825533D01*
X151816069Y-102825529D01*
X151604657Y-102711118D01*
X151604652Y-102711116D01*
X151377300Y-102633066D01*
X151199468Y-102603391D01*
X151140192Y-102593500D01*
X150899808Y-102593500D01*
X150852387Y-102601413D01*
X150662699Y-102633066D01*
X150435347Y-102711116D01*
X150435342Y-102711118D01*
X150223930Y-102825529D01*
X150223924Y-102825533D01*
X150034242Y-102973169D01*
X150034239Y-102973172D01*
X150034236Y-102973174D01*
X150034236Y-102973175D01*
X150004119Y-103005891D01*
X149871430Y-103150029D01*
X149871429Y-103150031D01*
X149853807Y-103177003D01*
X149800660Y-103222358D01*
X149731429Y-103231780D01*
X149668093Y-103202277D01*
X149646193Y-103177003D01*
X149643525Y-103172920D01*
X149628571Y-103150031D01*
X149465764Y-102973175D01*
X149465759Y-102973171D01*
X149465757Y-102973169D01*
X149276075Y-102825533D01*
X149276069Y-102825529D01*
X149064657Y-102711118D01*
X149064652Y-102711116D01*
X148837300Y-102633066D01*
X148659468Y-102603391D01*
X148600192Y-102593500D01*
X148359808Y-102593500D01*
X148312387Y-102601413D01*
X148122699Y-102633066D01*
X147895347Y-102711116D01*
X147895342Y-102711118D01*
X147683930Y-102825529D01*
X147683924Y-102825533D01*
X147494242Y-102973169D01*
X147494239Y-102973172D01*
X147494236Y-102973174D01*
X147494236Y-102973175D01*
X147464119Y-103005891D01*
X147331430Y-103150029D01*
X147331429Y-103150031D01*
X147313807Y-103177003D01*
X147260660Y-103222358D01*
X147191429Y-103231780D01*
X147128093Y-103202277D01*
X147106193Y-103177003D01*
X147103525Y-103172920D01*
X147088571Y-103150031D01*
X146925764Y-102973175D01*
X146925759Y-102973171D01*
X146925757Y-102973169D01*
X146736075Y-102825533D01*
X146736069Y-102825529D01*
X146524657Y-102711118D01*
X146524652Y-102711116D01*
X146297300Y-102633066D01*
X146119468Y-102603391D01*
X146060192Y-102593500D01*
X145819808Y-102593500D01*
X145772387Y-102601413D01*
X145582699Y-102633066D01*
X145355347Y-102711116D01*
X145355342Y-102711118D01*
X145143930Y-102825529D01*
X145143924Y-102825533D01*
X144954242Y-102973169D01*
X144954239Y-102973172D01*
X144954236Y-102973174D01*
X144954236Y-102973175D01*
X144924119Y-103005891D01*
X144791430Y-103150029D01*
X144791429Y-103150031D01*
X144773807Y-103177003D01*
X144720660Y-103222358D01*
X144651429Y-103231780D01*
X144588093Y-103202277D01*
X144566193Y-103177003D01*
X144563525Y-103172920D01*
X144548571Y-103150031D01*
X144385764Y-102973175D01*
X144385759Y-102973171D01*
X144385757Y-102973169D01*
X144196075Y-102825533D01*
X144196069Y-102825529D01*
X143984657Y-102711118D01*
X143984652Y-102711116D01*
X143757300Y-102633066D01*
X143579468Y-102603391D01*
X143520192Y-102593500D01*
X143279808Y-102593500D01*
X143232387Y-102601413D01*
X143042699Y-102633066D01*
X142815347Y-102711116D01*
X142815342Y-102711118D01*
X142603930Y-102825529D01*
X142603924Y-102825533D01*
X142414242Y-102973169D01*
X142414239Y-102973172D01*
X142414236Y-102973174D01*
X142414236Y-102973175D01*
X142384119Y-103005891D01*
X142251430Y-103150029D01*
X142251429Y-103150031D01*
X142233807Y-103177003D01*
X142180660Y-103222358D01*
X142111429Y-103231780D01*
X142048093Y-103202277D01*
X142026193Y-103177003D01*
X142023525Y-103172920D01*
X142008571Y-103150031D01*
X141845764Y-102973175D01*
X141845759Y-102973171D01*
X141845757Y-102973169D01*
X141656075Y-102825533D01*
X141656069Y-102825529D01*
X141444657Y-102711118D01*
X141444652Y-102711116D01*
X141217300Y-102633066D01*
X141039468Y-102603391D01*
X140980192Y-102593500D01*
X140739808Y-102593500D01*
X140692387Y-102601413D01*
X140502699Y-102633066D01*
X140275347Y-102711116D01*
X140275342Y-102711118D01*
X140063930Y-102825529D01*
X140063924Y-102825533D01*
X139874242Y-102973169D01*
X139874239Y-102973172D01*
X139874236Y-102973174D01*
X139874236Y-102973175D01*
X139844119Y-103005891D01*
X139711430Y-103150029D01*
X139711427Y-103150033D01*
X139633401Y-103269460D01*
X139580254Y-103314817D01*
X139511023Y-103324240D01*
X139447688Y-103294737D01*
X139428018Y-103272761D01*
X139358113Y-103172926D01*
X139358108Y-103172920D01*
X139191082Y-103005894D01*
X138997578Y-102870399D01*
X138783492Y-102770570D01*
X138783486Y-102770567D01*
X138570000Y-102713364D01*
X138570000Y-103608498D01*
X138462315Y-103559320D01*
X138355763Y-103544000D01*
X138284237Y-103544000D01*
X138177685Y-103559320D01*
X138070000Y-103608498D01*
X138070000Y-102713364D01*
X138069999Y-102713364D01*
X137856513Y-102770567D01*
X137856507Y-102770570D01*
X137642422Y-102870399D01*
X137642420Y-102870400D01*
X137448926Y-103005886D01*
X137448920Y-103005891D01*
X137281891Y-103172920D01*
X137281890Y-103172922D01*
X137211981Y-103272762D01*
X137157404Y-103316387D01*
X137087905Y-103323579D01*
X137025551Y-103292057D01*
X137006598Y-103269460D01*
X136928571Y-103150031D01*
X136765764Y-102973175D01*
X136765759Y-102973171D01*
X136765757Y-102973169D01*
X136576075Y-102825533D01*
X136576069Y-102825529D01*
X136364657Y-102711118D01*
X136364652Y-102711116D01*
X136137300Y-102633066D01*
X135959468Y-102603391D01*
X135900192Y-102593500D01*
X135659808Y-102593500D01*
X135612387Y-102601413D01*
X135422699Y-102633066D01*
X135195347Y-102711116D01*
X135195342Y-102711118D01*
X134983930Y-102825529D01*
X134983924Y-102825533D01*
X134794242Y-102973169D01*
X134794239Y-102973172D01*
X134794236Y-102973174D01*
X134794236Y-102973175D01*
X134764119Y-103005891D01*
X134631430Y-103150029D01*
X134631429Y-103150031D01*
X134613807Y-103177003D01*
X134560660Y-103222358D01*
X134491429Y-103231780D01*
X134428093Y-103202277D01*
X134406193Y-103177003D01*
X134403525Y-103172920D01*
X134388571Y-103150031D01*
X134225764Y-102973175D01*
X134225759Y-102973171D01*
X134225757Y-102973169D01*
X134036075Y-102825533D01*
X134036069Y-102825529D01*
X133824657Y-102711118D01*
X133824652Y-102711116D01*
X133597300Y-102633066D01*
X133419468Y-102603391D01*
X133360192Y-102593500D01*
X133119808Y-102593500D01*
X133072387Y-102601413D01*
X132882699Y-102633066D01*
X132655347Y-102711116D01*
X132655342Y-102711118D01*
X132443930Y-102825529D01*
X132443924Y-102825533D01*
X132254242Y-102973169D01*
X132254239Y-102973172D01*
X132254236Y-102973174D01*
X132254236Y-102973175D01*
X132224119Y-103005891D01*
X132091430Y-103150029D01*
X132091429Y-103150031D01*
X132073807Y-103177003D01*
X132020660Y-103222358D01*
X131951429Y-103231780D01*
X131888093Y-103202277D01*
X131866193Y-103177003D01*
X131863525Y-103172920D01*
X131848571Y-103150031D01*
X131685764Y-102973175D01*
X131685759Y-102973171D01*
X131685757Y-102973169D01*
X131496075Y-102825533D01*
X131496069Y-102825529D01*
X131284657Y-102711118D01*
X131284652Y-102711116D01*
X131057300Y-102633066D01*
X130879468Y-102603391D01*
X130820192Y-102593500D01*
X130579808Y-102593500D01*
X130532387Y-102601413D01*
X130342699Y-102633066D01*
X130115347Y-102711116D01*
X130115342Y-102711118D01*
X129903930Y-102825529D01*
X129903924Y-102825533D01*
X129714242Y-102973169D01*
X129714239Y-102973172D01*
X129714236Y-102973174D01*
X129714236Y-102973175D01*
X129684119Y-103005891D01*
X129551430Y-103150029D01*
X129551427Y-103150033D01*
X129473401Y-103269460D01*
X129420254Y-103314817D01*
X129351023Y-103324240D01*
X129287688Y-103294737D01*
X129268018Y-103272761D01*
X129198113Y-103172926D01*
X129198108Y-103172920D01*
X129031082Y-103005894D01*
X128837578Y-102870399D01*
X128623492Y-102770570D01*
X128623486Y-102770567D01*
X128410000Y-102713364D01*
X128410000Y-103608498D01*
X128302315Y-103559320D01*
X128195763Y-103544000D01*
X128124237Y-103544000D01*
X128017685Y-103559320D01*
X127910000Y-103608498D01*
X127910000Y-102713364D01*
X127909999Y-102713364D01*
X127696513Y-102770567D01*
X127696507Y-102770570D01*
X127482422Y-102870399D01*
X127482420Y-102870400D01*
X127288926Y-103005886D01*
X127288920Y-103005891D01*
X127121891Y-103172920D01*
X127121890Y-103172922D01*
X127051981Y-103272762D01*
X126997404Y-103316387D01*
X126927905Y-103323579D01*
X126865551Y-103292057D01*
X126846598Y-103269460D01*
X126768571Y-103150031D01*
X126605764Y-102973175D01*
X126605759Y-102973171D01*
X126605757Y-102973169D01*
X126416075Y-102825533D01*
X126416069Y-102825529D01*
X126204657Y-102711118D01*
X126204652Y-102711116D01*
X125977300Y-102633066D01*
X125799468Y-102603391D01*
X125740192Y-102593500D01*
X125499808Y-102593500D01*
X125452387Y-102601413D01*
X125262699Y-102633066D01*
X125035347Y-102711116D01*
X125035342Y-102711118D01*
X124823930Y-102825529D01*
X124823924Y-102825533D01*
X124634242Y-102973169D01*
X124634239Y-102973172D01*
X124634236Y-102973174D01*
X124634236Y-102973175D01*
X124604119Y-103005891D01*
X124471430Y-103150029D01*
X124471429Y-103150031D01*
X124453807Y-103177003D01*
X124400660Y-103222358D01*
X124331429Y-103231780D01*
X124268093Y-103202277D01*
X124246193Y-103177003D01*
X124243525Y-103172920D01*
X124228571Y-103150031D01*
X124065764Y-102973175D01*
X124065759Y-102973171D01*
X124065757Y-102973169D01*
X123876075Y-102825533D01*
X123876069Y-102825529D01*
X123664657Y-102711118D01*
X123664652Y-102711116D01*
X123437300Y-102633066D01*
X123259468Y-102603391D01*
X123200192Y-102593500D01*
X122959808Y-102593500D01*
X122912387Y-102601413D01*
X122722699Y-102633066D01*
X122495347Y-102711116D01*
X122495342Y-102711118D01*
X122283930Y-102825529D01*
X122283924Y-102825533D01*
X122094242Y-102973169D01*
X122094239Y-102973172D01*
X122094236Y-102973174D01*
X122094236Y-102973175D01*
X122064119Y-103005891D01*
X121931430Y-103150029D01*
X121931429Y-103150031D01*
X121913807Y-103177003D01*
X121860660Y-103222358D01*
X121791429Y-103231780D01*
X121728093Y-103202277D01*
X121706193Y-103177003D01*
X121703525Y-103172920D01*
X121688571Y-103150031D01*
X121525764Y-102973175D01*
X121525759Y-102973171D01*
X121525757Y-102973169D01*
X121336075Y-102825533D01*
X121336069Y-102825529D01*
X121124657Y-102711118D01*
X121124652Y-102711116D01*
X120897300Y-102633066D01*
X120719468Y-102603391D01*
X120660192Y-102593500D01*
X120419808Y-102593500D01*
X120372387Y-102601413D01*
X120182699Y-102633066D01*
X119955347Y-102711116D01*
X119955342Y-102711118D01*
X119743930Y-102825529D01*
X119743924Y-102825533D01*
X119554242Y-102973169D01*
X119554237Y-102973173D01*
X119511036Y-103020102D01*
X119451148Y-103056092D01*
X119381310Y-103053991D01*
X119323694Y-103014466D01*
X119303625Y-102979451D01*
X119293354Y-102951913D01*
X119293350Y-102951906D01*
X119207190Y-102836812D01*
X119207187Y-102836809D01*
X119092093Y-102750649D01*
X119092086Y-102750645D01*
X118957379Y-102700403D01*
X118957372Y-102700401D01*
X118897844Y-102694000D01*
X118250000Y-102694000D01*
X118250000Y-103608498D01*
X118142315Y-103559320D01*
X118035763Y-103544000D01*
X117964237Y-103544000D01*
X117857685Y-103559320D01*
X117750000Y-103608498D01*
X117750000Y-102694000D01*
X117102155Y-102694000D01*
X117042627Y-102700401D01*
X117042620Y-102700403D01*
X116907913Y-102750645D01*
X116907906Y-102750649D01*
X116792812Y-102836809D01*
X116792809Y-102836812D01*
X116706649Y-102951906D01*
X116706645Y-102951913D01*
X116656403Y-103086620D01*
X116656401Y-103086627D01*
X116650000Y-103146155D01*
X116650000Y-103794000D01*
X117566314Y-103794000D01*
X117540507Y-103834156D01*
X117500000Y-103972111D01*
X117500000Y-104115889D01*
X117540507Y-104253844D01*
X117566314Y-104294000D01*
X116650000Y-104294000D01*
X116650000Y-104941844D01*
X108578500Y-104941844D01*
X108578500Y-92912164D01*
X111221798Y-92912164D01*
X111232502Y-92990732D01*
X111232910Y-92994062D01*
X111241486Y-93072912D01*
X111241710Y-93073930D01*
X111246525Y-93094473D01*
X111246774Y-93095471D01*
X111274113Y-93169891D01*
X111275227Y-93173053D01*
X111287073Y-93208206D01*
X111300556Y-93248221D01*
X111300557Y-93248223D01*
X111300558Y-93248225D01*
X111301001Y-93249185D01*
X111310146Y-93268266D01*
X111310564Y-93269109D01*
X111310567Y-93269114D01*
X111310568Y-93269116D01*
X111334768Y-93306976D01*
X111353267Y-93335918D01*
X111355036Y-93338771D01*
X111395927Y-93406733D01*
X111396538Y-93407536D01*
X111409578Y-93424216D01*
X111410197Y-93424986D01*
X111410199Y-93424988D01*
X111410200Y-93424989D01*
X111466303Y-93481092D01*
X111468609Y-93483462D01*
X111523151Y-93541041D01*
X111523155Y-93541043D01*
X111523983Y-93541747D01*
X111541119Y-93555908D01*
X115032592Y-97047380D01*
X115039419Y-97054785D01*
X115073662Y-97095099D01*
X115136781Y-97143081D01*
X115139427Y-97145150D01*
X115166273Y-97166729D01*
X115201247Y-97194842D01*
X115201252Y-97194844D01*
X115202163Y-97195427D01*
X115219955Y-97206463D01*
X115220933Y-97207052D01*
X115220936Y-97207054D01*
X115220938Y-97207055D01*
X115220940Y-97207056D01*
X115292919Y-97240357D01*
X115295898Y-97241783D01*
X115366979Y-97277037D01*
X115366982Y-97277037D01*
X115366987Y-97277040D01*
X115368019Y-97277419D01*
X115387853Y-97284402D01*
X115388830Y-97284730D01*
X115388833Y-97284732D01*
X115388835Y-97284732D01*
X115388837Y-97284733D01*
X115466253Y-97301773D01*
X115469514Y-97302536D01*
X115546506Y-97321684D01*
X115546508Y-97321684D01*
X115546512Y-97321685D01*
X115547604Y-97321833D01*
X115568375Y-97324377D01*
X115569502Y-97324499D01*
X115569503Y-97324500D01*
X115648773Y-97324500D01*
X115652130Y-97324545D01*
X115731432Y-97326693D01*
X115731432Y-97326692D01*
X115731435Y-97326693D01*
X115732479Y-97326608D01*
X115754648Y-97324500D01*
X116737022Y-97324500D01*
X116804061Y-97344185D01*
X116828252Y-97364518D01*
X116962620Y-97510482D01*
X116993542Y-97573136D01*
X116985682Y-97642562D01*
X116941534Y-97696718D01*
X116914724Y-97710646D01*
X116887912Y-97720646D01*
X116887906Y-97720649D01*
X116772812Y-97806809D01*
X116772809Y-97806812D01*
X116686649Y-97921906D01*
X116686645Y-97921913D01*
X116636403Y-98056620D01*
X116636401Y-98056627D01*
X116630000Y-98116155D01*
X116630000Y-98764000D01*
X117546314Y-98764000D01*
X117520507Y-98804156D01*
X117480000Y-98942111D01*
X117480000Y-99085889D01*
X117520507Y-99223844D01*
X117546314Y-99264000D01*
X116630000Y-99264000D01*
X116630000Y-99911844D01*
X116636401Y-99971372D01*
X116636403Y-99971379D01*
X116686645Y-100106086D01*
X116686649Y-100106093D01*
X116772809Y-100221187D01*
X116772812Y-100221190D01*
X116887906Y-100307350D01*
X116887913Y-100307354D01*
X117022620Y-100357596D01*
X117022627Y-100357598D01*
X117082155Y-100363999D01*
X117082172Y-100364000D01*
X117730000Y-100364000D01*
X117730000Y-99449501D01*
X117837685Y-99498680D01*
X117944237Y-99514000D01*
X118015763Y-99514000D01*
X118122315Y-99498680D01*
X118230000Y-99449501D01*
X118230000Y-100364000D01*
X118877828Y-100364000D01*
X118877844Y-100363999D01*
X118937372Y-100357598D01*
X118937379Y-100357596D01*
X119072086Y-100307354D01*
X119072093Y-100307350D01*
X119187187Y-100221190D01*
X119187190Y-100221187D01*
X119273350Y-100106093D01*
X119273354Y-100106086D01*
X119323596Y-99971379D01*
X119323598Y-99971372D01*
X119329999Y-99911844D01*
X119330000Y-99911827D01*
X119330000Y-99264000D01*
X118413686Y-99264000D01*
X118439493Y-99223844D01*
X118480000Y-99085889D01*
X118480000Y-98942111D01*
X118439493Y-98804156D01*
X118413686Y-98764000D01*
X119330000Y-98764000D01*
X119330000Y-98116172D01*
X119329999Y-98116155D01*
X119323598Y-98056627D01*
X119323596Y-98056620D01*
X119273354Y-97921913D01*
X119273350Y-97921906D01*
X119187190Y-97806812D01*
X119187187Y-97806809D01*
X119072093Y-97720649D01*
X119072086Y-97720645D01*
X119045276Y-97710646D01*
X118989342Y-97668775D01*
X118964925Y-97603311D01*
X118979777Y-97535038D01*
X118997376Y-97510484D01*
X119128571Y-97367969D01*
X119260049Y-97166728D01*
X119356610Y-96946591D01*
X119415620Y-96713563D01*
X119435471Y-96474000D01*
X119415620Y-96234437D01*
X119356610Y-96001409D01*
X119260049Y-95781272D01*
X119128571Y-95580031D01*
X118965764Y-95403175D01*
X118965759Y-95403171D01*
X118965757Y-95403169D01*
X118776075Y-95255533D01*
X118776069Y-95255529D01*
X118564657Y-95141118D01*
X118564652Y-95141116D01*
X118337300Y-95063066D01*
X118159468Y-95033391D01*
X118100192Y-95023500D01*
X117859808Y-95023500D01*
X117812387Y-95031413D01*
X117622699Y-95063066D01*
X117395347Y-95141116D01*
X117395342Y-95141118D01*
X117183930Y-95255529D01*
X117183924Y-95255533D01*
X116994242Y-95403169D01*
X116994239Y-95403172D01*
X116994236Y-95403174D01*
X116994236Y-95403175D01*
X116831429Y-95580031D01*
X116831427Y-95580033D01*
X116828252Y-95583483D01*
X116768365Y-95619473D01*
X116737022Y-95623500D01*
X116065651Y-95623500D01*
X115998612Y-95603815D01*
X115977970Y-95587181D01*
X112963819Y-92573030D01*
X112930334Y-92511707D01*
X112927500Y-92485349D01*
X112927500Y-92212164D01*
X114321798Y-92212164D01*
X114332502Y-92290732D01*
X114332910Y-92294062D01*
X114341486Y-92372912D01*
X114341710Y-92373930D01*
X114346525Y-92394473D01*
X114346774Y-92395471D01*
X114374113Y-92469891D01*
X114375227Y-92473053D01*
X114390580Y-92518614D01*
X114400556Y-92548221D01*
X114400557Y-92548223D01*
X114400558Y-92548225D01*
X114401001Y-92549185D01*
X114410146Y-92568266D01*
X114410564Y-92569109D01*
X114410567Y-92569114D01*
X114410568Y-92569116D01*
X114422939Y-92588470D01*
X114453267Y-92635918D01*
X114455036Y-92638771D01*
X114495927Y-92706733D01*
X114496538Y-92707536D01*
X114509578Y-92724216D01*
X114510197Y-92724986D01*
X114510199Y-92724988D01*
X114510200Y-92724989D01*
X114566302Y-92781091D01*
X114568572Y-92783423D01*
X114623151Y-92841041D01*
X114623155Y-92841045D01*
X114623950Y-92841720D01*
X114641118Y-92855907D01*
X116147592Y-94362380D01*
X116154419Y-94369785D01*
X116188662Y-94410099D01*
X116251781Y-94458081D01*
X116254427Y-94460150D01*
X116316242Y-94509838D01*
X116316247Y-94509842D01*
X116316252Y-94509844D01*
X116317163Y-94510427D01*
X116334955Y-94521463D01*
X116335933Y-94522052D01*
X116335936Y-94522054D01*
X116335938Y-94522055D01*
X116335940Y-94522056D01*
X116407919Y-94555357D01*
X116410898Y-94556783D01*
X116481979Y-94592037D01*
X116481982Y-94592037D01*
X116481987Y-94592040D01*
X116483019Y-94592419D01*
X116502853Y-94599402D01*
X116503830Y-94599730D01*
X116503833Y-94599732D01*
X116503835Y-94599732D01*
X116503837Y-94599733D01*
X116581253Y-94616773D01*
X116584514Y-94617536D01*
X116661506Y-94636684D01*
X116661508Y-94636684D01*
X116661512Y-94636685D01*
X116662604Y-94636833D01*
X116683375Y-94639377D01*
X116684502Y-94639499D01*
X116684503Y-94639500D01*
X116763773Y-94639500D01*
X116767130Y-94639545D01*
X116846432Y-94641693D01*
X116846432Y-94641692D01*
X116846435Y-94641693D01*
X116847479Y-94641608D01*
X116869648Y-94639500D01*
X124528388Y-94639500D01*
X124595427Y-94659185D01*
X124606347Y-94667576D01*
X124606385Y-94667527D01*
X124610960Y-94670982D01*
X124710141Y-94732392D01*
X124784363Y-94778348D01*
X124974544Y-94852024D01*
X125175024Y-94889500D01*
X125175026Y-94889500D01*
X125378974Y-94889500D01*
X125378976Y-94889500D01*
X125579456Y-94852024D01*
X125769637Y-94778348D01*
X125943041Y-94670981D01*
X125943044Y-94670978D01*
X125947615Y-94667527D01*
X125948517Y-94668721D01*
X126004880Y-94641245D01*
X126025612Y-94639500D01*
X144926349Y-94639500D01*
X144993388Y-94659185D01*
X145014030Y-94675819D01*
X145281598Y-94943387D01*
X145288425Y-94950792D01*
X145322663Y-94991100D01*
X145385806Y-95039100D01*
X145388376Y-95041109D01*
X145450246Y-95090842D01*
X145451136Y-95091411D01*
X145469023Y-95102504D01*
X145469938Y-95103055D01*
X145541915Y-95136355D01*
X145544890Y-95137779D01*
X145615979Y-95173036D01*
X145615984Y-95173037D01*
X145615988Y-95173039D01*
X145617127Y-95173458D01*
X145636776Y-95180376D01*
X145637835Y-95180733D01*
X145715281Y-95197779D01*
X145718545Y-95198543D01*
X145795505Y-95217684D01*
X145795507Y-95217684D01*
X145796594Y-95217832D01*
X145817375Y-95220377D01*
X145818502Y-95220499D01*
X145818503Y-95220500D01*
X145897773Y-95220500D01*
X145901130Y-95220545D01*
X145980432Y-95222693D01*
X145980432Y-95222692D01*
X145980435Y-95222693D01*
X145981479Y-95222608D01*
X146003648Y-95220500D01*
X148941388Y-95220500D01*
X149008427Y-95240185D01*
X149019347Y-95248576D01*
X149019385Y-95248527D01*
X149023960Y-95251982D01*
X149123141Y-95313392D01*
X149197363Y-95359348D01*
X149387544Y-95433024D01*
X149588024Y-95470500D01*
X149588026Y-95470500D01*
X149791974Y-95470500D01*
X149791976Y-95470500D01*
X149992456Y-95433024D01*
X150182637Y-95359348D01*
X150356041Y-95251981D01*
X150356044Y-95251978D01*
X150360615Y-95248527D01*
X150361517Y-95249721D01*
X150417880Y-95222245D01*
X150438612Y-95220500D01*
X152726349Y-95220500D01*
X152793388Y-95240185D01*
X152814030Y-95256819D01*
X159643181Y-102085970D01*
X159676666Y-102147293D01*
X159679500Y-102173651D01*
X159679500Y-106322762D01*
X159659815Y-106389801D01*
X159607011Y-106435556D01*
X159537853Y-106445500D01*
X159496483Y-106431817D01*
X159441509Y-106402067D01*
X159441506Y-106402066D01*
X159441503Y-106402064D01*
X159441497Y-106402062D01*
X159441495Y-106402061D01*
X159221984Y-106326702D01*
X159050282Y-106298050D01*
X158993049Y-106288500D01*
X158760951Y-106288500D01*
X158715164Y-106296140D01*
X158532015Y-106326702D01*
X158312504Y-106402061D01*
X158312495Y-106402064D01*
X158108371Y-106512531D01*
X158108365Y-106512535D01*
X157925222Y-106655081D01*
X157925219Y-106655084D01*
X157768016Y-106825852D01*
X157710809Y-106913416D01*
X157657662Y-106958773D01*
X157588431Y-106968197D01*
X157525095Y-106938695D01*
X157503191Y-106913416D01*
X157445983Y-106825852D01*
X157445980Y-106825849D01*
X157445979Y-106825847D01*
X157288784Y-106655087D01*
X157288779Y-106655083D01*
X157288777Y-106655081D01*
X157105634Y-106512535D01*
X157105628Y-106512531D01*
X156901504Y-106402064D01*
X156901495Y-106402061D01*
X156681984Y-106326702D01*
X156510282Y-106298050D01*
X156453049Y-106288500D01*
X156220951Y-106288500D01*
X156175164Y-106296140D01*
X155992015Y-106326702D01*
X155772504Y-106402061D01*
X155772495Y-106402064D01*
X155568371Y-106512531D01*
X155568365Y-106512535D01*
X155385222Y-106655081D01*
X155385219Y-106655084D01*
X155228016Y-106825852D01*
X155101075Y-107020151D01*
X155007842Y-107232699D01*
X154950866Y-107457691D01*
X154950864Y-107457702D01*
X154931700Y-107688993D01*
X154931700Y-107689006D01*
X154950864Y-107920297D01*
X154950866Y-107920308D01*
X155007842Y-108145300D01*
X155101075Y-108357848D01*
X155228016Y-108552147D01*
X155228019Y-108552151D01*
X155228021Y-108552153D01*
X155385216Y-108722913D01*
X155385219Y-108722915D01*
X155385222Y-108722918D01*
X155568365Y-108865464D01*
X155568371Y-108865468D01*
X155568374Y-108865470D01*
X155772497Y-108975936D01*
X155878535Y-109012339D01*
X155992015Y-109051297D01*
X155992017Y-109051297D01*
X155992019Y-109051298D01*
X156220951Y-109089500D01*
X156220952Y-109089500D01*
X156453048Y-109089500D01*
X156453049Y-109089500D01*
X156681981Y-109051298D01*
X156901503Y-108975936D01*
X157105626Y-108865470D01*
X157288784Y-108722913D01*
X157445979Y-108552153D01*
X157503191Y-108464582D01*
X157556337Y-108419226D01*
X157625568Y-108409802D01*
X157688904Y-108439304D01*
X157710809Y-108464583D01*
X157768016Y-108552147D01*
X157768019Y-108552151D01*
X157768021Y-108552153D01*
X157925216Y-108722913D01*
X157925219Y-108722915D01*
X157925222Y-108722918D01*
X158108365Y-108865464D01*
X158108371Y-108865468D01*
X158108374Y-108865470D01*
X158312497Y-108975936D01*
X158418535Y-109012339D01*
X158532015Y-109051297D01*
X158532017Y-109051297D01*
X158532019Y-109051298D01*
X158760951Y-109089500D01*
X158760952Y-109089500D01*
X158993048Y-109089500D01*
X158993049Y-109089500D01*
X159221981Y-109051298D01*
X159441503Y-108975936D01*
X159441510Y-108975932D01*
X159441513Y-108975931D01*
X159496482Y-108946183D01*
X159564810Y-108931587D01*
X159630182Y-108956249D01*
X159671843Y-109012339D01*
X159679500Y-109055237D01*
X159679500Y-113942762D01*
X159659815Y-114009801D01*
X159607011Y-114055556D01*
X159537853Y-114065500D01*
X159496483Y-114051817D01*
X159441509Y-114022067D01*
X159441506Y-114022066D01*
X159441503Y-114022064D01*
X159441497Y-114022062D01*
X159441495Y-114022061D01*
X159221984Y-113946702D01*
X159050282Y-113918050D01*
X158993049Y-113908500D01*
X158760951Y-113908500D01*
X158715164Y-113916140D01*
X158532015Y-113946702D01*
X158312504Y-114022061D01*
X158312495Y-114022064D01*
X158108371Y-114132531D01*
X158108365Y-114132535D01*
X157925222Y-114275081D01*
X157925211Y-114275091D01*
X157894544Y-114308404D01*
X157834657Y-114344394D01*
X157764819Y-114342293D01*
X157707203Y-114302768D01*
X157688755Y-114271872D01*
X157680798Y-114252663D01*
X157661536Y-114206159D01*
X157565282Y-114080718D01*
X157439841Y-113984464D01*
X157293762Y-113923956D01*
X157293760Y-113923955D01*
X157176370Y-113908501D01*
X157176367Y-113908500D01*
X157176361Y-113908500D01*
X157176354Y-113908500D01*
X155497636Y-113908500D01*
X155380246Y-113923953D01*
X155380237Y-113923956D01*
X155234160Y-113984463D01*
X155108718Y-114080718D01*
X155012463Y-114206160D01*
X154951956Y-114352237D01*
X154951955Y-114352239D01*
X154936501Y-114469629D01*
X154936500Y-114469645D01*
X154936500Y-116148363D01*
X154951953Y-116265753D01*
X154951956Y-116265762D01*
X155012464Y-116411841D01*
X155108718Y-116537282D01*
X155234159Y-116633536D01*
X155380238Y-116694044D01*
X155497639Y-116709500D01*
X157176360Y-116709499D01*
X157176363Y-116709499D01*
X157293753Y-116694046D01*
X157293757Y-116694044D01*
X157293762Y-116694044D01*
X157439841Y-116633536D01*
X157565282Y-116537282D01*
X157661536Y-116411841D01*
X157688756Y-116346124D01*
X157732595Y-116291724D01*
X157798889Y-116269658D01*
X157866588Y-116286937D01*
X157894545Y-116309596D01*
X157925212Y-116342909D01*
X157925222Y-116342918D01*
X158108365Y-116485464D01*
X158108371Y-116485468D01*
X158108374Y-116485470D01*
X158312497Y-116595936D01*
X158422022Y-116633536D01*
X158532015Y-116671297D01*
X158532017Y-116671297D01*
X158532019Y-116671298D01*
X158760951Y-116709500D01*
X158760952Y-116709500D01*
X158993048Y-116709500D01*
X158993049Y-116709500D01*
X159221981Y-116671298D01*
X159441503Y-116595936D01*
X159645626Y-116485470D01*
X159828784Y-116342913D01*
X159960065Y-116200302D01*
X160019950Y-116164314D01*
X160034538Y-116161425D01*
X160080808Y-116155120D01*
X160092750Y-116153494D01*
X160096074Y-116153086D01*
X160174910Y-116144514D01*
X160174916Y-116144511D01*
X160176036Y-116144266D01*
X160196307Y-116139515D01*
X160197463Y-116139227D01*
X160197468Y-116139227D01*
X160226834Y-116128438D01*
X160271922Y-116111874D01*
X160275076Y-116110762D01*
X160350221Y-116085444D01*
X160350230Y-116085438D01*
X160351351Y-116084920D01*
X160370123Y-116075923D01*
X160371104Y-116075436D01*
X160371116Y-116075432D01*
X160437972Y-116032697D01*
X160440711Y-116030997D01*
X160508736Y-115990070D01*
X160508743Y-115990062D01*
X160509669Y-115989360D01*
X160526076Y-115976533D01*
X160526981Y-115975804D01*
X160526989Y-115975800D01*
X160583091Y-115919696D01*
X160585422Y-115917427D01*
X160643041Y-115862849D01*
X160643044Y-115862843D01*
X160643757Y-115862005D01*
X160657904Y-115844883D01*
X161103398Y-115399389D01*
X161110793Y-115392573D01*
X161151100Y-115358337D01*
X161199129Y-115295154D01*
X161201086Y-115292650D01*
X161250842Y-115230754D01*
X161250845Y-115230747D01*
X161251451Y-115229799D01*
X161262449Y-115212069D01*
X161263049Y-115211071D01*
X161263049Y-115211069D01*
X161263054Y-115211064D01*
X161296371Y-115139048D01*
X161297814Y-115136040D01*
X161333036Y-115065020D01*
X161333434Y-115063935D01*
X161340389Y-115044183D01*
X161340729Y-115043172D01*
X161340732Y-115043167D01*
X161357781Y-114965706D01*
X161358546Y-114962443D01*
X161360954Y-114952762D01*
X161377684Y-114885495D01*
X161377684Y-114885491D01*
X161377685Y-114885488D01*
X161377830Y-114884426D01*
X161380371Y-114863677D01*
X161380500Y-114862497D01*
X161380500Y-114783226D01*
X161380545Y-114779869D01*
X161382693Y-114700564D01*
X161382608Y-114699520D01*
X161380500Y-114677352D01*
X161380500Y-101809606D01*
X161380909Y-101799541D01*
X161385201Y-101746833D01*
X161374490Y-101668224D01*
X161374086Y-101664919D01*
X161365513Y-101586085D01*
X161365280Y-101585026D01*
X161360497Y-101564621D01*
X161360227Y-101563532D01*
X161332877Y-101489086D01*
X161331762Y-101485919D01*
X161329683Y-101479751D01*
X161306444Y-101410779D01*
X161306441Y-101410775D01*
X161306441Y-101410773D01*
X161306006Y-101409831D01*
X161296895Y-101390818D01*
X161296431Y-101389882D01*
X161253729Y-101323077D01*
X161251957Y-101320221D01*
X161211070Y-101252264D01*
X161211068Y-101252262D01*
X161211067Y-101252260D01*
X161210455Y-101251455D01*
X161197503Y-101234889D01*
X161196803Y-101234018D01*
X161196799Y-101234011D01*
X161140749Y-101177961D01*
X161138406Y-101175554D01*
X161083848Y-101117957D01*
X161083108Y-101117328D01*
X161065875Y-101103087D01*
X153759401Y-93796612D01*
X153752573Y-93789206D01*
X153718336Y-93748899D01*
X153695778Y-93731751D01*
X153655202Y-93700906D01*
X153652622Y-93698889D01*
X153590754Y-93649158D01*
X153589854Y-93648583D01*
X153572019Y-93637520D01*
X153571064Y-93636946D01*
X153499084Y-93603644D01*
X153496080Y-93602205D01*
X153464714Y-93586649D01*
X153425020Y-93566963D01*
X153423981Y-93566582D01*
X153404160Y-93559602D01*
X153403165Y-93559267D01*
X153325733Y-93542223D01*
X153322464Y-93541457D01*
X153245489Y-93522314D01*
X153244584Y-93522191D01*
X153223506Y-93519610D01*
X153222501Y-93519501D01*
X153222497Y-93519500D01*
X153222492Y-93519500D01*
X153143227Y-93519500D01*
X153139870Y-93519455D01*
X153060564Y-93517306D01*
X153059520Y-93517391D01*
X153037352Y-93519500D01*
X150438612Y-93519500D01*
X150371573Y-93499815D01*
X150360652Y-93491423D01*
X150360615Y-93491473D01*
X150356039Y-93488017D01*
X150182642Y-93380655D01*
X150182635Y-93380651D01*
X150067164Y-93335918D01*
X149992456Y-93306976D01*
X149791976Y-93269500D01*
X149588024Y-93269500D01*
X149387544Y-93306976D01*
X149387541Y-93306976D01*
X149387541Y-93306977D01*
X149197364Y-93380651D01*
X149197357Y-93380655D01*
X149023960Y-93488017D01*
X149019385Y-93491473D01*
X149018482Y-93490278D01*
X148962120Y-93517755D01*
X148941388Y-93519500D01*
X146314651Y-93519500D01*
X146247612Y-93499815D01*
X146226970Y-93483181D01*
X145959401Y-93215612D01*
X145952573Y-93208206D01*
X145918336Y-93167899D01*
X145895778Y-93150751D01*
X145855202Y-93119906D01*
X145852622Y-93117889D01*
X145790754Y-93068158D01*
X145789854Y-93067583D01*
X145772019Y-93056520D01*
X145771061Y-93055944D01*
X145754222Y-93048154D01*
X145701644Y-93002140D01*
X145682290Y-92935005D01*
X145702304Y-92868063D01*
X145755332Y-92822568D01*
X145824539Y-92812966D01*
X145826678Y-92813302D01*
X145869808Y-92820500D01*
X145869809Y-92820500D01*
X146110191Y-92820500D01*
X146110192Y-92820500D01*
X146347297Y-92780934D01*
X146574656Y-92702882D01*
X146786067Y-92588472D01*
X146975764Y-92440825D01*
X147138571Y-92263969D01*
X147156193Y-92236995D01*
X147209337Y-92191641D01*
X147278568Y-92182217D01*
X147341904Y-92211718D01*
X147363804Y-92236992D01*
X147381429Y-92263969D01*
X147544236Y-92440825D01*
X147544239Y-92440827D01*
X147544242Y-92440830D01*
X147733924Y-92588466D01*
X147733930Y-92588470D01*
X147733933Y-92588472D01*
X147945344Y-92702882D01*
X147945347Y-92702883D01*
X148172699Y-92780933D01*
X148172701Y-92780933D01*
X148172703Y-92780934D01*
X148409808Y-92820500D01*
X148409809Y-92820500D01*
X148650191Y-92820500D01*
X148650192Y-92820500D01*
X148887297Y-92780934D01*
X149114656Y-92702882D01*
X149326067Y-92588472D01*
X149515764Y-92440825D01*
X149678571Y-92263969D01*
X149696193Y-92236995D01*
X149749337Y-92191641D01*
X149818568Y-92182217D01*
X149881904Y-92211718D01*
X149903804Y-92236992D01*
X149921429Y-92263969D01*
X150084236Y-92440825D01*
X150084239Y-92440827D01*
X150084242Y-92440830D01*
X150273924Y-92588466D01*
X150273930Y-92588470D01*
X150273933Y-92588472D01*
X150485344Y-92702882D01*
X150485347Y-92702883D01*
X150712699Y-92780933D01*
X150712701Y-92780933D01*
X150712703Y-92780934D01*
X150949808Y-92820500D01*
X150949809Y-92820500D01*
X151190191Y-92820500D01*
X151190192Y-92820500D01*
X151427297Y-92780934D01*
X151654656Y-92702882D01*
X151866067Y-92588472D01*
X152055764Y-92440825D01*
X152218571Y-92263969D01*
X152236193Y-92236995D01*
X152289337Y-92191641D01*
X152358568Y-92182217D01*
X152421904Y-92211718D01*
X152443804Y-92236992D01*
X152461429Y-92263969D01*
X152624236Y-92440825D01*
X152624239Y-92440827D01*
X152624242Y-92440830D01*
X152813924Y-92588466D01*
X152813930Y-92588470D01*
X152813933Y-92588472D01*
X153025344Y-92702882D01*
X153025347Y-92702883D01*
X153252699Y-92780933D01*
X153252701Y-92780933D01*
X153252703Y-92780934D01*
X153489808Y-92820500D01*
X153489809Y-92820500D01*
X153730191Y-92820500D01*
X153730192Y-92820500D01*
X153967297Y-92780934D01*
X154194656Y-92702882D01*
X154406067Y-92588472D01*
X154577525Y-92455020D01*
X154642518Y-92429378D01*
X154711058Y-92442944D01*
X154761383Y-92491412D01*
X154768247Y-92505419D01*
X154775462Y-92522838D01*
X154775463Y-92522839D01*
X154775464Y-92522841D01*
X154871718Y-92648282D01*
X154997159Y-92744536D01*
X155143238Y-92805044D01*
X155260639Y-92820500D01*
X157039360Y-92820499D01*
X157039363Y-92820499D01*
X157156753Y-92805046D01*
X157156757Y-92805044D01*
X157156762Y-92805044D01*
X157302841Y-92744536D01*
X157428282Y-92648282D01*
X157524536Y-92522841D01*
X157585044Y-92376762D01*
X157600500Y-92259361D01*
X157600499Y-90480640D01*
X157600499Y-90480636D01*
X157585046Y-90363246D01*
X157585044Y-90363241D01*
X157585044Y-90363238D01*
X157524536Y-90217159D01*
X157428282Y-90091718D01*
X157302841Y-89995464D01*
X157156762Y-89934956D01*
X157156760Y-89934955D01*
X157039370Y-89919501D01*
X157039367Y-89919500D01*
X157039361Y-89919500D01*
X157039354Y-89919500D01*
X155260636Y-89919500D01*
X155143246Y-89934953D01*
X155143237Y-89934956D01*
X154997160Y-89995463D01*
X154871718Y-90091718D01*
X154775463Y-90217160D01*
X154768247Y-90234581D01*
X154724404Y-90288983D01*
X154658109Y-90311046D01*
X154590410Y-90293765D01*
X154577525Y-90284978D01*
X154406075Y-90151533D01*
X154406069Y-90151529D01*
X154194657Y-90037118D01*
X154194652Y-90037116D01*
X153967300Y-89959066D01*
X153789468Y-89929391D01*
X153730192Y-89919500D01*
X153489808Y-89919500D01*
X153442387Y-89927413D01*
X153252699Y-89959066D01*
X153025347Y-90037116D01*
X153025342Y-90037118D01*
X152813930Y-90151529D01*
X152813924Y-90151533D01*
X152624242Y-90299169D01*
X152624239Y-90299172D01*
X152461430Y-90476029D01*
X152461429Y-90476031D01*
X152443807Y-90503003D01*
X152390660Y-90548358D01*
X152321429Y-90557780D01*
X152258093Y-90528277D01*
X152236193Y-90503003D01*
X152234154Y-90499883D01*
X152218571Y-90476031D01*
X152055764Y-90299175D01*
X152055759Y-90299171D01*
X152055757Y-90299169D01*
X151866075Y-90151533D01*
X151866069Y-90151529D01*
X151654657Y-90037118D01*
X151654652Y-90037116D01*
X151427300Y-89959066D01*
X151249468Y-89929391D01*
X151190192Y-89919500D01*
X150949808Y-89919500D01*
X150902387Y-89927413D01*
X150712699Y-89959066D01*
X150485347Y-90037116D01*
X150485342Y-90037118D01*
X150273930Y-90151529D01*
X150273924Y-90151533D01*
X150084242Y-90299169D01*
X150084239Y-90299172D01*
X149921430Y-90476029D01*
X149921429Y-90476031D01*
X149903807Y-90503003D01*
X149850660Y-90548358D01*
X149781429Y-90557780D01*
X149718093Y-90528277D01*
X149696193Y-90503003D01*
X149694154Y-90499883D01*
X149678571Y-90476031D01*
X149515764Y-90299175D01*
X149515759Y-90299171D01*
X149515757Y-90299169D01*
X149326075Y-90151533D01*
X149326069Y-90151529D01*
X149114657Y-90037118D01*
X149114652Y-90037116D01*
X148887300Y-89959066D01*
X148709468Y-89929391D01*
X148650192Y-89919500D01*
X148409808Y-89919500D01*
X148362387Y-89927413D01*
X148172699Y-89959066D01*
X147945347Y-90037116D01*
X147945342Y-90037118D01*
X147733930Y-90151529D01*
X147733924Y-90151533D01*
X147544242Y-90299169D01*
X147544239Y-90299172D01*
X147381430Y-90476029D01*
X147381429Y-90476031D01*
X147363807Y-90503003D01*
X147310660Y-90548358D01*
X147241429Y-90557780D01*
X147178093Y-90528277D01*
X147156193Y-90503003D01*
X147154154Y-90499883D01*
X147138571Y-90476031D01*
X146975764Y-90299175D01*
X146975759Y-90299171D01*
X146975757Y-90299169D01*
X146786075Y-90151533D01*
X146786069Y-90151529D01*
X146574657Y-90037118D01*
X146574652Y-90037116D01*
X146347300Y-89959066D01*
X146169468Y-89929391D01*
X146110192Y-89919500D01*
X145869808Y-89919500D01*
X145822387Y-89927413D01*
X145632699Y-89959066D01*
X145405347Y-90037116D01*
X145405342Y-90037118D01*
X145193930Y-90151529D01*
X145193924Y-90151533D01*
X145004242Y-90299169D01*
X145004239Y-90299172D01*
X144841430Y-90476029D01*
X144841429Y-90476031D01*
X144823807Y-90503003D01*
X144770660Y-90548358D01*
X144701429Y-90557780D01*
X144638093Y-90528277D01*
X144616193Y-90503003D01*
X144614154Y-90499883D01*
X144598571Y-90476031D01*
X144435764Y-90299175D01*
X144435759Y-90299171D01*
X144435757Y-90299169D01*
X144246075Y-90151533D01*
X144246069Y-90151529D01*
X144034657Y-90037118D01*
X144034652Y-90037116D01*
X143807300Y-89959066D01*
X143629468Y-89929391D01*
X143570192Y-89919500D01*
X143329808Y-89919500D01*
X143282387Y-89927413D01*
X143092699Y-89959066D01*
X142865347Y-90037116D01*
X142865342Y-90037118D01*
X142653930Y-90151529D01*
X142653924Y-90151533D01*
X142464242Y-90299169D01*
X142464239Y-90299172D01*
X142301430Y-90476029D01*
X142301429Y-90476031D01*
X142283807Y-90503003D01*
X142230660Y-90548358D01*
X142161429Y-90557780D01*
X142098093Y-90528277D01*
X142076193Y-90503003D01*
X142074154Y-90499883D01*
X142058571Y-90476031D01*
X141895764Y-90299175D01*
X141895759Y-90299171D01*
X141895757Y-90299169D01*
X141706075Y-90151533D01*
X141706069Y-90151529D01*
X141494657Y-90037118D01*
X141494652Y-90037116D01*
X141267300Y-89959066D01*
X141089468Y-89929391D01*
X141030192Y-89919500D01*
X140789808Y-89919500D01*
X140742387Y-89927413D01*
X140552699Y-89959066D01*
X140325347Y-90037116D01*
X140325342Y-90037118D01*
X140113930Y-90151529D01*
X140113924Y-90151533D01*
X139924242Y-90299169D01*
X139924239Y-90299172D01*
X139761430Y-90476029D01*
X139761429Y-90476031D01*
X139743807Y-90503003D01*
X139690660Y-90548358D01*
X139621429Y-90557780D01*
X139558093Y-90528277D01*
X139536193Y-90503003D01*
X139534154Y-90499883D01*
X139518571Y-90476031D01*
X139355764Y-90299175D01*
X139355759Y-90299171D01*
X139355757Y-90299169D01*
X139166075Y-90151533D01*
X139166069Y-90151529D01*
X138954657Y-90037118D01*
X138954652Y-90037116D01*
X138727300Y-89959066D01*
X138549468Y-89929391D01*
X138490192Y-89919500D01*
X138249808Y-89919500D01*
X138202387Y-89927413D01*
X138012699Y-89959066D01*
X137785347Y-90037116D01*
X137785342Y-90037118D01*
X137573930Y-90151529D01*
X137573924Y-90151533D01*
X137384242Y-90299169D01*
X137384239Y-90299172D01*
X137221430Y-90476029D01*
X137221429Y-90476031D01*
X137203807Y-90503003D01*
X137150660Y-90548358D01*
X137081429Y-90557780D01*
X137018093Y-90528277D01*
X136996193Y-90503003D01*
X136994154Y-90499883D01*
X136978571Y-90476031D01*
X136815764Y-90299175D01*
X136815759Y-90299171D01*
X136815757Y-90299169D01*
X136626075Y-90151533D01*
X136626069Y-90151529D01*
X136414657Y-90037118D01*
X136414652Y-90037116D01*
X136187300Y-89959066D01*
X136009468Y-89929391D01*
X135950192Y-89919500D01*
X135709808Y-89919500D01*
X135662387Y-89927413D01*
X135472699Y-89959066D01*
X135245347Y-90037116D01*
X135245342Y-90037118D01*
X135033930Y-90151529D01*
X135033924Y-90151533D01*
X134844242Y-90299169D01*
X134844239Y-90299172D01*
X134681430Y-90476029D01*
X134681429Y-90476031D01*
X134663807Y-90503003D01*
X134610660Y-90548358D01*
X134541429Y-90557780D01*
X134478093Y-90528277D01*
X134456193Y-90503003D01*
X134454154Y-90499883D01*
X134438571Y-90476031D01*
X134275764Y-90299175D01*
X134275759Y-90299171D01*
X134275757Y-90299169D01*
X134086075Y-90151533D01*
X134086069Y-90151529D01*
X133874657Y-90037118D01*
X133874652Y-90037116D01*
X133647300Y-89959066D01*
X133469468Y-89929391D01*
X133410192Y-89919500D01*
X133169808Y-89919500D01*
X133122387Y-89927413D01*
X132932699Y-89959066D01*
X132705347Y-90037116D01*
X132705342Y-90037118D01*
X132493930Y-90151529D01*
X132493924Y-90151533D01*
X132304242Y-90299169D01*
X132304239Y-90299172D01*
X132141430Y-90476029D01*
X132141429Y-90476031D01*
X132123807Y-90503003D01*
X132070660Y-90548358D01*
X132001429Y-90557780D01*
X131938093Y-90528277D01*
X131916193Y-90503003D01*
X131914154Y-90499883D01*
X131898571Y-90476031D01*
X131735764Y-90299175D01*
X131735759Y-90299171D01*
X131735757Y-90299169D01*
X131546075Y-90151533D01*
X131546069Y-90151529D01*
X131334657Y-90037118D01*
X131334652Y-90037116D01*
X131107300Y-89959066D01*
X130929468Y-89929391D01*
X130870192Y-89919500D01*
X130629808Y-89919500D01*
X130582387Y-89927413D01*
X130392699Y-89959066D01*
X130165347Y-90037116D01*
X130165342Y-90037118D01*
X129953930Y-90151529D01*
X129953924Y-90151533D01*
X129764242Y-90299169D01*
X129764239Y-90299172D01*
X129601430Y-90476029D01*
X129601429Y-90476031D01*
X129583807Y-90503003D01*
X129530660Y-90548358D01*
X129461429Y-90557780D01*
X129398093Y-90528277D01*
X129376193Y-90503003D01*
X129374154Y-90499883D01*
X129358571Y-90476031D01*
X129195764Y-90299175D01*
X129195759Y-90299171D01*
X129195757Y-90299169D01*
X129006075Y-90151533D01*
X129006069Y-90151529D01*
X128794657Y-90037118D01*
X128794652Y-90037116D01*
X128567300Y-89959066D01*
X128389468Y-89929391D01*
X128330192Y-89919500D01*
X128089808Y-89919500D01*
X128042387Y-89927413D01*
X127852699Y-89959066D01*
X127625347Y-90037116D01*
X127625342Y-90037118D01*
X127413930Y-90151529D01*
X127413924Y-90151533D01*
X127224242Y-90299169D01*
X127224239Y-90299172D01*
X127061430Y-90476029D01*
X127061429Y-90476031D01*
X127043807Y-90503003D01*
X126990660Y-90548358D01*
X126921429Y-90557780D01*
X126858093Y-90528277D01*
X126836193Y-90503003D01*
X126834154Y-90499883D01*
X126818571Y-90476031D01*
X126655764Y-90299175D01*
X126655759Y-90299171D01*
X126655757Y-90299169D01*
X126466075Y-90151533D01*
X126466069Y-90151529D01*
X126254657Y-90037118D01*
X126254652Y-90037116D01*
X126027300Y-89959066D01*
X125849468Y-89929391D01*
X125790192Y-89919500D01*
X125549808Y-89919500D01*
X125502387Y-89927413D01*
X125312699Y-89959066D01*
X125085347Y-90037116D01*
X125085342Y-90037118D01*
X124873930Y-90151529D01*
X124873924Y-90151533D01*
X124684242Y-90299169D01*
X124684239Y-90299172D01*
X124521430Y-90476029D01*
X124521429Y-90476031D01*
X124503807Y-90503003D01*
X124450660Y-90548358D01*
X124381429Y-90557780D01*
X124318093Y-90528277D01*
X124296193Y-90503003D01*
X124294154Y-90499883D01*
X124278571Y-90476031D01*
X124115764Y-90299175D01*
X124115759Y-90299171D01*
X124115757Y-90299169D01*
X123926075Y-90151533D01*
X123926069Y-90151529D01*
X123714657Y-90037118D01*
X123714652Y-90037116D01*
X123487300Y-89959066D01*
X123309468Y-89929391D01*
X123250192Y-89919500D01*
X123009808Y-89919500D01*
X122962387Y-89927413D01*
X122772699Y-89959066D01*
X122545347Y-90037116D01*
X122545342Y-90037118D01*
X122333930Y-90151529D01*
X122333924Y-90151533D01*
X122144242Y-90299169D01*
X122144239Y-90299172D01*
X121981430Y-90476029D01*
X121981429Y-90476031D01*
X121963807Y-90503003D01*
X121910660Y-90548358D01*
X121841429Y-90557780D01*
X121778093Y-90528277D01*
X121756193Y-90503003D01*
X121754154Y-90499883D01*
X121738571Y-90476031D01*
X121575764Y-90299175D01*
X121575759Y-90299171D01*
X121575757Y-90299169D01*
X121386075Y-90151533D01*
X121386069Y-90151529D01*
X121174657Y-90037118D01*
X121174652Y-90037116D01*
X120947300Y-89959066D01*
X120769468Y-89929391D01*
X120710192Y-89919500D01*
X120469808Y-89919500D01*
X120422387Y-89927413D01*
X120232699Y-89959066D01*
X120005347Y-90037116D01*
X120005342Y-90037118D01*
X119793930Y-90151529D01*
X119793924Y-90151533D01*
X119604242Y-90299169D01*
X119604239Y-90299172D01*
X119441430Y-90476029D01*
X119441429Y-90476031D01*
X119423807Y-90503003D01*
X119370660Y-90548358D01*
X119301429Y-90557780D01*
X119238093Y-90528277D01*
X119216193Y-90503003D01*
X119214154Y-90499883D01*
X119198571Y-90476031D01*
X119035764Y-90299175D01*
X119035759Y-90299171D01*
X119035757Y-90299169D01*
X118846075Y-90151533D01*
X118846069Y-90151529D01*
X118634657Y-90037118D01*
X118634652Y-90037116D01*
X118407300Y-89959066D01*
X118229468Y-89929391D01*
X118170192Y-89919500D01*
X117929808Y-89919500D01*
X117882387Y-89927413D01*
X117692699Y-89959066D01*
X117465347Y-90037116D01*
X117465342Y-90037118D01*
X117253930Y-90151529D01*
X117253924Y-90151533D01*
X117064242Y-90299169D01*
X117064239Y-90299172D01*
X116901430Y-90476029D01*
X116901427Y-90476033D01*
X116769951Y-90677270D01*
X116673389Y-90897410D01*
X116614379Y-91130440D01*
X116594529Y-91369994D01*
X116594529Y-91370005D01*
X116614379Y-91609559D01*
X116673389Y-91842589D01*
X116769951Y-92062729D01*
X116867583Y-92212164D01*
X116901429Y-92263969D01*
X117064236Y-92440825D01*
X117064239Y-92440827D01*
X117064242Y-92440830D01*
X117253924Y-92588466D01*
X117253930Y-92588470D01*
X117253933Y-92588472D01*
X117465344Y-92702882D01*
X117469855Y-92705323D01*
X117468693Y-92707468D01*
X117514423Y-92745918D01*
X117535101Y-92812658D01*
X117516415Y-92879982D01*
X117464296Y-92926517D01*
X117411115Y-92938500D01*
X117180651Y-92938500D01*
X117113612Y-92918815D01*
X117092970Y-92902181D01*
X116063819Y-91873030D01*
X116030334Y-91811707D01*
X116027500Y-91785349D01*
X116027500Y-90092651D01*
X116047185Y-90025612D01*
X116063819Y-90004970D01*
X117011970Y-89056819D01*
X117073293Y-89023334D01*
X117099651Y-89020500D01*
X122490394Y-89020500D01*
X122500456Y-89020908D01*
X122553167Y-89025201D01*
X122631748Y-89014493D01*
X122635074Y-89014086D01*
X122713910Y-89005514D01*
X122713916Y-89005511D01*
X122715036Y-89005266D01*
X122735307Y-89000515D01*
X122736463Y-89000227D01*
X122736468Y-89000227D01*
X122765834Y-88989438D01*
X122810922Y-88972874D01*
X122814076Y-88971762D01*
X122889221Y-88946444D01*
X122889230Y-88946438D01*
X122890351Y-88945920D01*
X122909123Y-88936923D01*
X122910104Y-88936436D01*
X122910116Y-88936432D01*
X122976972Y-88893697D01*
X122979711Y-88891997D01*
X123047736Y-88851070D01*
X123047743Y-88851062D01*
X123048669Y-88850360D01*
X123065076Y-88837533D01*
X123065981Y-88836804D01*
X123065989Y-88836800D01*
X123122090Y-88780697D01*
X123124422Y-88778427D01*
X123182041Y-88723849D01*
X123182045Y-88723841D01*
X123182771Y-88722989D01*
X123196900Y-88705887D01*
X123850391Y-88052395D01*
X123857786Y-88045579D01*
X123898100Y-88011337D01*
X123946106Y-87948184D01*
X123948131Y-87945593D01*
X123997842Y-87883753D01*
X123997842Y-87883751D01*
X123997844Y-87883750D01*
X123998432Y-87882829D01*
X124009426Y-87865105D01*
X124010045Y-87864075D01*
X124010054Y-87864064D01*
X124043356Y-87792079D01*
X124044795Y-87789077D01*
X124080037Y-87718021D01*
X124080038Y-87718015D01*
X124080040Y-87718012D01*
X124080440Y-87716923D01*
X124087329Y-87697361D01*
X124087729Y-87696172D01*
X124087732Y-87696167D01*
X124104781Y-87618709D01*
X124105546Y-87615445D01*
X124111215Y-87592650D01*
X124124684Y-87538494D01*
X124124684Y-87538490D01*
X124124833Y-87537400D01*
X124127371Y-87516677D01*
X124127500Y-87515497D01*
X124127500Y-87436225D01*
X124127545Y-87432867D01*
X124128610Y-87393553D01*
X124129693Y-87353567D01*
X124129692Y-87353566D01*
X124129693Y-87353561D01*
X124129610Y-87352551D01*
X124127500Y-87330346D01*
X124127500Y-87030465D01*
X124147185Y-86963426D01*
X124152538Y-86955748D01*
X124216673Y-86870821D01*
X124307582Y-86688250D01*
X124363397Y-86492083D01*
X124382215Y-86289000D01*
X124363397Y-86085917D01*
X124307582Y-85889750D01*
X124234807Y-85743598D01*
X124216676Y-85707185D01*
X124216672Y-85707178D01*
X124171817Y-85647780D01*
X124152544Y-85622258D01*
X124127854Y-85556899D01*
X124127500Y-85547534D01*
X124127500Y-85216606D01*
X124127909Y-85206541D01*
X124132201Y-85153833D01*
X124121491Y-85075231D01*
X124121088Y-85071935D01*
X124113811Y-85005021D01*
X124112514Y-84993090D01*
X124112512Y-84993086D01*
X124112293Y-84992091D01*
X124107493Y-84971608D01*
X124107227Y-84970543D01*
X124107226Y-84970532D01*
X124079871Y-84896074D01*
X124078772Y-84892949D01*
X124053444Y-84817779D01*
X124052980Y-84816776D01*
X124043947Y-84797923D01*
X124043432Y-84796884D01*
X124020954Y-84761718D01*
X124000715Y-84730055D01*
X123998957Y-84727221D01*
X123958070Y-84659264D01*
X123958068Y-84659262D01*
X123958067Y-84659260D01*
X123957455Y-84658455D01*
X123944503Y-84641889D01*
X123943803Y-84641018D01*
X123943799Y-84641011D01*
X123887749Y-84584961D01*
X123885406Y-84582554D01*
X123830848Y-84524957D01*
X123830108Y-84524328D01*
X123812875Y-84510087D01*
X118739401Y-79436612D01*
X118732573Y-79429206D01*
X118698336Y-79388899D01*
X118661766Y-79361099D01*
X118635202Y-79340906D01*
X118632622Y-79338889D01*
X118570754Y-79289158D01*
X118569854Y-79288583D01*
X118552019Y-79277520D01*
X118551064Y-79276946D01*
X118479084Y-79243644D01*
X118476056Y-79242193D01*
X118424404Y-79216576D01*
X118373092Y-79169155D01*
X118355499Y-79105488D01*
X118355499Y-78635636D01*
X118340046Y-78518246D01*
X118340044Y-78518239D01*
X118340044Y-78518238D01*
X118279536Y-78372159D01*
X118183282Y-78246718D01*
X118057841Y-78150464D01*
X117981636Y-78118899D01*
X117911762Y-78089956D01*
X117911760Y-78089955D01*
X117794370Y-78074501D01*
X117794367Y-78074500D01*
X117794361Y-78074500D01*
X117794354Y-78074500D01*
X116015636Y-78074500D01*
X115898246Y-78089953D01*
X115898237Y-78089956D01*
X115752160Y-78150463D01*
X115626718Y-78246718D01*
X115530463Y-78372160D01*
X115469956Y-78518237D01*
X115469955Y-78518239D01*
X115454501Y-78635629D01*
X115454501Y-78635636D01*
X115454500Y-78635645D01*
X115454500Y-80414363D01*
X115469953Y-80531753D01*
X115469956Y-80531762D01*
X115530464Y-80677841D01*
X115626718Y-80803282D01*
X115752159Y-80899536D01*
X115898238Y-80960044D01*
X116015639Y-80975500D01*
X117794360Y-80975499D01*
X117802962Y-80974366D01*
X117871995Y-80985127D01*
X117906834Y-81009623D01*
X122375932Y-85478721D01*
X122409417Y-85540044D01*
X122404433Y-85609736D01*
X122387206Y-85641128D01*
X122337328Y-85707178D01*
X122337323Y-85707185D01*
X122246422Y-85889739D01*
X122246417Y-85889752D01*
X122190602Y-86085917D01*
X122171785Y-86288999D01*
X122171785Y-86289000D01*
X122190602Y-86492082D01*
X122246417Y-86688247D01*
X122246422Y-86688260D01*
X122276141Y-86747943D01*
X122337327Y-86870821D01*
X122354810Y-86893972D01*
X122396671Y-86949406D01*
X122421362Y-87014767D01*
X122406796Y-87083102D01*
X122385397Y-87111813D01*
X122214030Y-87283181D01*
X122152707Y-87316666D01*
X122126349Y-87319500D01*
X116735606Y-87319500D01*
X116725543Y-87319091D01*
X116721319Y-87318747D01*
X116672834Y-87314798D01*
X116672826Y-87314799D01*
X116594265Y-87325502D01*
X116590936Y-87325910D01*
X116530052Y-87332532D01*
X116512090Y-87334486D01*
X116512086Y-87334487D01*
X116511131Y-87334697D01*
X116490471Y-87339538D01*
X116489538Y-87339770D01*
X116415074Y-87367126D01*
X116411911Y-87368239D01*
X116336784Y-87393553D01*
X116335920Y-87393953D01*
X116316721Y-87403152D01*
X116315882Y-87403569D01*
X116249082Y-87446267D01*
X116246228Y-87448037D01*
X116178268Y-87488927D01*
X116177489Y-87489519D01*
X116160764Y-87502595D01*
X116160014Y-87503198D01*
X116103977Y-87559234D01*
X116101574Y-87561572D01*
X116043956Y-87616153D01*
X116043346Y-87616871D01*
X116029091Y-87634119D01*
X114603610Y-89059599D01*
X114596208Y-89066424D01*
X114555900Y-89100663D01*
X114507924Y-89163772D01*
X114505858Y-89166414D01*
X114456158Y-89228244D01*
X114455649Y-89229041D01*
X114444469Y-89247066D01*
X114443941Y-89247943D01*
X114410642Y-89319916D01*
X114409193Y-89322940D01*
X114373966Y-89393972D01*
X114373582Y-89395017D01*
X114366580Y-89414906D01*
X114366268Y-89415832D01*
X114349219Y-89493282D01*
X114348453Y-89496549D01*
X114329314Y-89573508D01*
X114329191Y-89574416D01*
X114326607Y-89595516D01*
X114326500Y-89596501D01*
X114326500Y-89675772D01*
X114326455Y-89679129D01*
X114324306Y-89758437D01*
X114324389Y-89759447D01*
X114326500Y-89781649D01*
X114326500Y-92149392D01*
X114326091Y-92159456D01*
X114321798Y-92212164D01*
X112927500Y-92212164D01*
X112927500Y-87592650D01*
X112947185Y-87525611D01*
X112963819Y-87504969D01*
X113417969Y-87050819D01*
X113479292Y-87017334D01*
X113505650Y-87014500D01*
X113628388Y-87014500D01*
X113695427Y-87034185D01*
X113706347Y-87042576D01*
X113706385Y-87042527D01*
X113710960Y-87045982D01*
X113790961Y-87095516D01*
X113884363Y-87153348D01*
X114074544Y-87227024D01*
X114275024Y-87264500D01*
X114275026Y-87264500D01*
X114478974Y-87264500D01*
X114478976Y-87264500D01*
X114679456Y-87227024D01*
X114869637Y-87153348D01*
X115043041Y-87045981D01*
X115193764Y-86908579D01*
X115316673Y-86745821D01*
X115407582Y-86563250D01*
X115463397Y-86367083D01*
X115482215Y-86164000D01*
X115463397Y-85960917D01*
X115407582Y-85764750D01*
X115400237Y-85750000D01*
X115346026Y-85641128D01*
X115316673Y-85582179D01*
X115247767Y-85490933D01*
X115193762Y-85419418D01*
X115043041Y-85282019D01*
X115043039Y-85282017D01*
X114869642Y-85174655D01*
X114869635Y-85174651D01*
X114774546Y-85137814D01*
X114679456Y-85100976D01*
X114478976Y-85063500D01*
X114275024Y-85063500D01*
X114074544Y-85100976D01*
X114074541Y-85100976D01*
X114074541Y-85100977D01*
X113884364Y-85174651D01*
X113884357Y-85174655D01*
X113710960Y-85282017D01*
X113706385Y-85285473D01*
X113705482Y-85284278D01*
X113649120Y-85311755D01*
X113628388Y-85313500D01*
X113141606Y-85313500D01*
X113131543Y-85313091D01*
X113127319Y-85312747D01*
X113078834Y-85308798D01*
X113078826Y-85308799D01*
X113000265Y-85319502D01*
X112996936Y-85319910D01*
X112936052Y-85326532D01*
X112918090Y-85328486D01*
X112918086Y-85328487D01*
X112917131Y-85328697D01*
X112896471Y-85333538D01*
X112895538Y-85333770D01*
X112821074Y-85361126D01*
X112817911Y-85362239D01*
X112742784Y-85387553D01*
X112741920Y-85387953D01*
X112722704Y-85397160D01*
X112721885Y-85397567D01*
X112655059Y-85440280D01*
X112652208Y-85442048D01*
X112584265Y-85482928D01*
X112583494Y-85483515D01*
X112566791Y-85496572D01*
X112566012Y-85497199D01*
X112509959Y-85553251D01*
X112507556Y-85555589D01*
X112449956Y-85610153D01*
X112449322Y-85610899D01*
X112435093Y-85628116D01*
X111503610Y-86559599D01*
X111496208Y-86566424D01*
X111455900Y-86600663D01*
X111407924Y-86663772D01*
X111405858Y-86666414D01*
X111356158Y-86728244D01*
X111355649Y-86729041D01*
X111344469Y-86747066D01*
X111343941Y-86747943D01*
X111310642Y-86819916D01*
X111309193Y-86822940D01*
X111273966Y-86893972D01*
X111273582Y-86895017D01*
X111266580Y-86914906D01*
X111266268Y-86915832D01*
X111249219Y-86993282D01*
X111248453Y-86996549D01*
X111229314Y-87073508D01*
X111229191Y-87074416D01*
X111226607Y-87095516D01*
X111226500Y-87096501D01*
X111226500Y-87175772D01*
X111226455Y-87179129D01*
X111224306Y-87258437D01*
X111224389Y-87259447D01*
X111226500Y-87281649D01*
X111226500Y-92849392D01*
X111226091Y-92859456D01*
X111221798Y-92912164D01*
X108578500Y-92912164D01*
X108578500Y-82102844D01*
X110855000Y-82102844D01*
X110861401Y-82162372D01*
X110861403Y-82162379D01*
X110911645Y-82297086D01*
X110911649Y-82297093D01*
X110997809Y-82412187D01*
X110997812Y-82412190D01*
X111112906Y-82498350D01*
X111112913Y-82498354D01*
X111247620Y-82548596D01*
X111247627Y-82548598D01*
X111307155Y-82554999D01*
X111307172Y-82555000D01*
X111955000Y-82555000D01*
X111955000Y-81640501D01*
X112062685Y-81689680D01*
X112169237Y-81705000D01*
X112240763Y-81705000D01*
X112347315Y-81689680D01*
X112455000Y-81640501D01*
X112455000Y-82555000D01*
X113102828Y-82555000D01*
X113102844Y-82554999D01*
X113162372Y-82548598D01*
X113162379Y-82548596D01*
X113297086Y-82498354D01*
X113297093Y-82498350D01*
X113412187Y-82412190D01*
X113412190Y-82412187D01*
X113498350Y-82297093D01*
X113498354Y-82297086D01*
X113548596Y-82162379D01*
X113548598Y-82162372D01*
X113554999Y-82102844D01*
X113555000Y-82102827D01*
X113555000Y-81455000D01*
X112638686Y-81455000D01*
X112664493Y-81414844D01*
X112705000Y-81276889D01*
X112705000Y-81133111D01*
X112664493Y-80995156D01*
X112638686Y-80955000D01*
X113555000Y-80955000D01*
X113555000Y-80307172D01*
X113554999Y-80307155D01*
X113548598Y-80247627D01*
X113548596Y-80247620D01*
X113498354Y-80112913D01*
X113498350Y-80112906D01*
X113412190Y-79997812D01*
X113412187Y-79997809D01*
X113297093Y-79911649D01*
X113297086Y-79911645D01*
X113162379Y-79861403D01*
X113162372Y-79861401D01*
X113102844Y-79855000D01*
X112455000Y-79855000D01*
X112455000Y-80769498D01*
X112347315Y-80720320D01*
X112240763Y-80705000D01*
X112169237Y-80705000D01*
X112062685Y-80720320D01*
X111955000Y-80769498D01*
X111955000Y-79855000D01*
X111307155Y-79855000D01*
X111247627Y-79861401D01*
X111247620Y-79861403D01*
X111112913Y-79911645D01*
X111112906Y-79911649D01*
X110997812Y-79997809D01*
X110997809Y-79997812D01*
X110911649Y-80112906D01*
X110911645Y-80112913D01*
X110861403Y-80247620D01*
X110861401Y-80247627D01*
X110855000Y-80307155D01*
X110855000Y-80955000D01*
X111771314Y-80955000D01*
X111745507Y-80995156D01*
X111705000Y-81133111D01*
X111705000Y-81276889D01*
X111745507Y-81414844D01*
X111771314Y-81455000D01*
X110855000Y-81455000D01*
X110855000Y-82102844D01*
X108578500Y-82102844D01*
X108578500Y-78359363D01*
X111579500Y-78359363D01*
X111594953Y-78476753D01*
X111594956Y-78476762D01*
X111612135Y-78518237D01*
X111655464Y-78622841D01*
X111751718Y-78748282D01*
X111877159Y-78844536D01*
X112023238Y-78905044D01*
X112140639Y-78920500D01*
X113919360Y-78920499D01*
X113919363Y-78920499D01*
X114036753Y-78905046D01*
X114036757Y-78905044D01*
X114036762Y-78905044D01*
X114182841Y-78844536D01*
X114308282Y-78748282D01*
X114404536Y-78622841D01*
X114465044Y-78476762D01*
X114480500Y-78359361D01*
X114480499Y-76580640D01*
X114480499Y-76580639D01*
X114480499Y-76580636D01*
X114465046Y-76463246D01*
X114465044Y-76463239D01*
X114465044Y-76463238D01*
X114404536Y-76317159D01*
X114308282Y-76191718D01*
X114182841Y-76095464D01*
X114036762Y-76034956D01*
X114036760Y-76034955D01*
X113919370Y-76019501D01*
X113919367Y-76019500D01*
X113919361Y-76019500D01*
X113919354Y-76019500D01*
X112140636Y-76019500D01*
X112023246Y-76034953D01*
X112023237Y-76034956D01*
X111877160Y-76095463D01*
X111751718Y-76191718D01*
X111655463Y-76317160D01*
X111594956Y-76463237D01*
X111594955Y-76463239D01*
X111579501Y-76580629D01*
X111579501Y-76580636D01*
X111579500Y-76580645D01*
X111579500Y-78359363D01*
X108578500Y-78359363D01*
X108578500Y-74519363D01*
X112799500Y-74519363D01*
X112814953Y-74636753D01*
X112814956Y-74636762D01*
X112875464Y-74782841D01*
X112971718Y-74908282D01*
X113097159Y-75004536D01*
X113243238Y-75065044D01*
X113360639Y-75080500D01*
X115139360Y-75080499D01*
X115139363Y-75080499D01*
X115256753Y-75065046D01*
X115256757Y-75065044D01*
X115256762Y-75065044D01*
X115402841Y-75004536D01*
X115528282Y-74908282D01*
X115624536Y-74782841D01*
X115631751Y-74765420D01*
X115675590Y-74711019D01*
X115741884Y-74688953D01*
X115809584Y-74706231D01*
X115822474Y-74715021D01*
X115993924Y-74848466D01*
X115993930Y-74848470D01*
X115993933Y-74848472D01*
X116205344Y-74962882D01*
X116205347Y-74962883D01*
X116432699Y-75040933D01*
X116432701Y-75040933D01*
X116432703Y-75040934D01*
X116669808Y-75080500D01*
X116669809Y-75080500D01*
X116910191Y-75080500D01*
X116910192Y-75080500D01*
X117147297Y-75040934D01*
X117374656Y-74962882D01*
X117586067Y-74848472D01*
X117775764Y-74700825D01*
X117938571Y-74523969D01*
X118016599Y-74404537D01*
X118069744Y-74359183D01*
X118138975Y-74349759D01*
X118202311Y-74379261D01*
X118221980Y-74401237D01*
X118291890Y-74501078D01*
X118458917Y-74668105D01*
X118652421Y-74803600D01*
X118866507Y-74903429D01*
X118866516Y-74903433D01*
X119080000Y-74960634D01*
X119080000Y-74065501D01*
X119187685Y-74114680D01*
X119294237Y-74130000D01*
X119365763Y-74130000D01*
X119472315Y-74114680D01*
X119580000Y-74065501D01*
X119580000Y-74960633D01*
X119793483Y-74903433D01*
X119793492Y-74903429D01*
X120007578Y-74803600D01*
X120201082Y-74668105D01*
X120368108Y-74501079D01*
X120438018Y-74401238D01*
X120492595Y-74357613D01*
X120562093Y-74350419D01*
X120624448Y-74381942D01*
X120643401Y-74404539D01*
X120703808Y-74496998D01*
X120721429Y-74523969D01*
X120884236Y-74700825D01*
X120884239Y-74700827D01*
X120884242Y-74700830D01*
X121073924Y-74848466D01*
X121073930Y-74848470D01*
X121073933Y-74848472D01*
X121285344Y-74962882D01*
X121285347Y-74962883D01*
X121512699Y-75040933D01*
X121512701Y-75040933D01*
X121512703Y-75040934D01*
X121749808Y-75080500D01*
X121749809Y-75080500D01*
X121990191Y-75080500D01*
X121990192Y-75080500D01*
X122227297Y-75040934D01*
X122454656Y-74962882D01*
X122666067Y-74848472D01*
X122855764Y-74700825D01*
X123018571Y-74523969D01*
X123036193Y-74496995D01*
X123089337Y-74451641D01*
X123158568Y-74442217D01*
X123221904Y-74471718D01*
X123243804Y-74496992D01*
X123261429Y-74523969D01*
X123424236Y-74700825D01*
X123507232Y-74765423D01*
X123509645Y-74767301D01*
X123550458Y-74824012D01*
X123557074Y-74875217D01*
X123554798Y-74903163D01*
X123565502Y-74981732D01*
X123565910Y-74985062D01*
X123574486Y-75063912D01*
X123574710Y-75064930D01*
X123579525Y-75085473D01*
X123579774Y-75086471D01*
X123607113Y-75160891D01*
X123608227Y-75164053D01*
X123623580Y-75209614D01*
X123633556Y-75239221D01*
X123633557Y-75239223D01*
X123633558Y-75239225D01*
X123634001Y-75240185D01*
X123643146Y-75259266D01*
X123643564Y-75260109D01*
X123686267Y-75326918D01*
X123688036Y-75329771D01*
X123728927Y-75397733D01*
X123729538Y-75398536D01*
X123742578Y-75415216D01*
X123743197Y-75415986D01*
X123743199Y-75415988D01*
X123743200Y-75415989D01*
X123799303Y-75472092D01*
X123801609Y-75474462D01*
X123856151Y-75532041D01*
X123856155Y-75532043D01*
X123856983Y-75532747D01*
X123874119Y-75546908D01*
X127640598Y-79313387D01*
X127647425Y-79320792D01*
X127681662Y-79361099D01*
X127744772Y-79409074D01*
X127747419Y-79411142D01*
X127809246Y-79460841D01*
X127809252Y-79460844D01*
X127810157Y-79461423D01*
X127828009Y-79472497D01*
X127828931Y-79473051D01*
X127828933Y-79473052D01*
X127828936Y-79473054D01*
X127900943Y-79506367D01*
X127903941Y-79507805D01*
X127974979Y-79543036D01*
X127976110Y-79543452D01*
X127995776Y-79550376D01*
X127996835Y-79550733D01*
X128074281Y-79567779D01*
X128077545Y-79568543D01*
X128154505Y-79587684D01*
X128154507Y-79587684D01*
X128155594Y-79587832D01*
X128176375Y-79590377D01*
X128177502Y-79590499D01*
X128177503Y-79590500D01*
X128256773Y-79590500D01*
X128260130Y-79590545D01*
X128339432Y-79592693D01*
X128339432Y-79592692D01*
X128339435Y-79592693D01*
X128340479Y-79592608D01*
X128362648Y-79590500D01*
X139176349Y-79590500D01*
X139243388Y-79610185D01*
X139264030Y-79626819D01*
X142307695Y-82670484D01*
X142341180Y-82731807D01*
X142336196Y-82801499D01*
X142307076Y-82844818D01*
X142307710Y-82845402D01*
X142304238Y-82849173D01*
X142304236Y-82849175D01*
X142245263Y-82913237D01*
X142141430Y-83026029D01*
X142141429Y-83026031D01*
X142123807Y-83053003D01*
X142070660Y-83098358D01*
X142001429Y-83107780D01*
X141938093Y-83078277D01*
X141916193Y-83053003D01*
X141914154Y-83049883D01*
X141898571Y-83026031D01*
X141735764Y-82849175D01*
X141735759Y-82849171D01*
X141735757Y-82849169D01*
X141546075Y-82701533D01*
X141546069Y-82701529D01*
X141334657Y-82587118D01*
X141334652Y-82587116D01*
X141107300Y-82509066D01*
X140929468Y-82479391D01*
X140870192Y-82469500D01*
X140629808Y-82469500D01*
X140582387Y-82477413D01*
X140392699Y-82509066D01*
X140165347Y-82587116D01*
X140165342Y-82587118D01*
X139953930Y-82701529D01*
X139953924Y-82701533D01*
X139764242Y-82849169D01*
X139764239Y-82849172D01*
X139601430Y-83026029D01*
X139601429Y-83026031D01*
X139583807Y-83053003D01*
X139530660Y-83098358D01*
X139461429Y-83107780D01*
X139398093Y-83078277D01*
X139376193Y-83053003D01*
X139374154Y-83049883D01*
X139358571Y-83026031D01*
X139195764Y-82849175D01*
X139195759Y-82849171D01*
X139195757Y-82849169D01*
X139006075Y-82701533D01*
X139006069Y-82701529D01*
X138794657Y-82587118D01*
X138794652Y-82587116D01*
X138567300Y-82509066D01*
X138389468Y-82479391D01*
X138330192Y-82469500D01*
X138089808Y-82469500D01*
X138042387Y-82477413D01*
X137852699Y-82509066D01*
X137625347Y-82587116D01*
X137625342Y-82587118D01*
X137413930Y-82701529D01*
X137413924Y-82701533D01*
X137224242Y-82849169D01*
X137224239Y-82849172D01*
X137061430Y-83026029D01*
X137061427Y-83026033D01*
X136929951Y-83227270D01*
X136833389Y-83447410D01*
X136774379Y-83680440D01*
X136754529Y-83919994D01*
X136754529Y-83920005D01*
X136774379Y-84159559D01*
X136833389Y-84392589D01*
X136929951Y-84612729D01*
X137057405Y-84807810D01*
X137061429Y-84813969D01*
X137224236Y-84990825D01*
X137289232Y-85041413D01*
X137354414Y-85092147D01*
X137395227Y-85148857D01*
X137398901Y-85218630D01*
X137364269Y-85279313D01*
X137354414Y-85287853D01*
X137224238Y-85389173D01*
X137061430Y-85566029D01*
X137061427Y-85566033D01*
X136929951Y-85767270D01*
X136833389Y-85987410D01*
X136774379Y-86220440D01*
X136754529Y-86459994D01*
X136754529Y-86460005D01*
X136774379Y-86699559D01*
X136833389Y-86932589D01*
X136929951Y-87152729D01*
X137038642Y-87319091D01*
X137061429Y-87353969D01*
X137224236Y-87530825D01*
X137224239Y-87530827D01*
X137224242Y-87530830D01*
X137413924Y-87678466D01*
X137413930Y-87678470D01*
X137413933Y-87678472D01*
X137625344Y-87792882D01*
X137625347Y-87792883D01*
X137852699Y-87870933D01*
X137852701Y-87870933D01*
X137852703Y-87870934D01*
X138089808Y-87910500D01*
X138089809Y-87910500D01*
X138330191Y-87910500D01*
X138330192Y-87910500D01*
X138567297Y-87870934D01*
X138794656Y-87792882D01*
X139006067Y-87678472D01*
X139195764Y-87530825D01*
X139358571Y-87353969D01*
X139376193Y-87326995D01*
X139429337Y-87281641D01*
X139498568Y-87272217D01*
X139561904Y-87301718D01*
X139583804Y-87326992D01*
X139601429Y-87353969D01*
X139764236Y-87530825D01*
X139764239Y-87530827D01*
X139764242Y-87530830D01*
X139953924Y-87678466D01*
X139953930Y-87678470D01*
X139953933Y-87678472D01*
X140165344Y-87792882D01*
X140165347Y-87792883D01*
X140392699Y-87870933D01*
X140392701Y-87870933D01*
X140392703Y-87870934D01*
X140629808Y-87910500D01*
X140629809Y-87910500D01*
X140870191Y-87910500D01*
X140870192Y-87910500D01*
X141107297Y-87870934D01*
X141334656Y-87792882D01*
X141546067Y-87678472D01*
X141735764Y-87530825D01*
X141898571Y-87353969D01*
X141916193Y-87326995D01*
X141969337Y-87281641D01*
X142038568Y-87272217D01*
X142101904Y-87301718D01*
X142123804Y-87326992D01*
X142141429Y-87353969D01*
X142304236Y-87530825D01*
X142304239Y-87530827D01*
X142304242Y-87530830D01*
X142493924Y-87678466D01*
X142493930Y-87678470D01*
X142493933Y-87678472D01*
X142705344Y-87792882D01*
X142705347Y-87792883D01*
X142932699Y-87870933D01*
X142932701Y-87870933D01*
X142932703Y-87870934D01*
X143169808Y-87910500D01*
X143169809Y-87910500D01*
X143410191Y-87910500D01*
X143410192Y-87910500D01*
X143647297Y-87870934D01*
X143874656Y-87792882D01*
X144086067Y-87678472D01*
X144275764Y-87530825D01*
X144438571Y-87353969D01*
X144456193Y-87326995D01*
X144509337Y-87281641D01*
X144578568Y-87272217D01*
X144641904Y-87301718D01*
X144663804Y-87326992D01*
X144681429Y-87353969D01*
X144844236Y-87530825D01*
X144844239Y-87530827D01*
X144844242Y-87530830D01*
X145033924Y-87678466D01*
X145033930Y-87678470D01*
X145033933Y-87678472D01*
X145245344Y-87792882D01*
X145245347Y-87792883D01*
X145472699Y-87870933D01*
X145472701Y-87870933D01*
X145472703Y-87870934D01*
X145709808Y-87910500D01*
X145709809Y-87910500D01*
X145950191Y-87910500D01*
X145950192Y-87910500D01*
X146187297Y-87870934D01*
X146414656Y-87792882D01*
X146626067Y-87678472D01*
X146815764Y-87530825D01*
X146978571Y-87353969D01*
X147110049Y-87152728D01*
X147206610Y-86932591D01*
X147265620Y-86699563D01*
X147277218Y-86559599D01*
X147285471Y-86460005D01*
X147285471Y-86459994D01*
X147265620Y-86220440D01*
X147265620Y-86220437D01*
X147206610Y-85987409D01*
X147110049Y-85767272D01*
X147108401Y-85764750D01*
X147031981Y-85647780D01*
X146978571Y-85566031D01*
X146919046Y-85501369D01*
X146888125Y-85438716D01*
X146895985Y-85369290D01*
X146940132Y-85315135D01*
X146962825Y-85302827D01*
X146974855Y-85297844D01*
X161950000Y-85297844D01*
X161956401Y-85357372D01*
X161956403Y-85357379D01*
X162006645Y-85492086D01*
X162006649Y-85492093D01*
X162092809Y-85607187D01*
X162092812Y-85607190D01*
X162207906Y-85693350D01*
X162207913Y-85693354D01*
X162342620Y-85743596D01*
X162342627Y-85743598D01*
X162402155Y-85749999D01*
X162402172Y-85750000D01*
X163050000Y-85750000D01*
X163050000Y-84835501D01*
X163157685Y-84884680D01*
X163264237Y-84900000D01*
X163335763Y-84900000D01*
X163442315Y-84884680D01*
X163550000Y-84835501D01*
X163550000Y-85750000D01*
X164197828Y-85750000D01*
X164197844Y-85749999D01*
X164257372Y-85743598D01*
X164257379Y-85743596D01*
X164392086Y-85693354D01*
X164392093Y-85693350D01*
X164507187Y-85607190D01*
X164507190Y-85607187D01*
X164593350Y-85492093D01*
X164593354Y-85492086D01*
X164643596Y-85357379D01*
X164643598Y-85357372D01*
X164649999Y-85297844D01*
X164650000Y-85297827D01*
X164650000Y-84650000D01*
X163733686Y-84650000D01*
X163759493Y-84609844D01*
X163800000Y-84471889D01*
X163800000Y-84328111D01*
X163759493Y-84190156D01*
X163733686Y-84150000D01*
X164650000Y-84150000D01*
X164650000Y-83502172D01*
X164649999Y-83502155D01*
X164643598Y-83442627D01*
X164643596Y-83442620D01*
X164593354Y-83307913D01*
X164593350Y-83307906D01*
X164507190Y-83192812D01*
X164507187Y-83192809D01*
X164392093Y-83106649D01*
X164392086Y-83106645D01*
X164257379Y-83056403D01*
X164257372Y-83056401D01*
X164197844Y-83050000D01*
X163550000Y-83050000D01*
X163550000Y-83964498D01*
X163442315Y-83915320D01*
X163335763Y-83900000D01*
X163264237Y-83900000D01*
X163157685Y-83915320D01*
X163050000Y-83964498D01*
X163050000Y-83050000D01*
X162402155Y-83050000D01*
X162342627Y-83056401D01*
X162342620Y-83056403D01*
X162207913Y-83106645D01*
X162207906Y-83106649D01*
X162092812Y-83192809D01*
X162092809Y-83192812D01*
X162006649Y-83307906D01*
X162006645Y-83307913D01*
X161956403Y-83442620D01*
X161956401Y-83442627D01*
X161950000Y-83502155D01*
X161950000Y-84150000D01*
X162866314Y-84150000D01*
X162840507Y-84190156D01*
X162800000Y-84328111D01*
X162800000Y-84471889D01*
X162840507Y-84609844D01*
X162866314Y-84650000D01*
X161950000Y-84650000D01*
X161950000Y-85297844D01*
X146974855Y-85297844D01*
X146974896Y-85297827D01*
X146982841Y-85294536D01*
X147108282Y-85198282D01*
X147204536Y-85072841D01*
X147265044Y-84926762D01*
X147280500Y-84809361D01*
X147280499Y-83030640D01*
X147280499Y-83030636D01*
X147265046Y-82913246D01*
X147265044Y-82913241D01*
X147265044Y-82913238D01*
X147204536Y-82767159D01*
X147108282Y-82641718D01*
X146982841Y-82545464D01*
X146836762Y-82484956D01*
X146836760Y-82484955D01*
X146719370Y-82469501D01*
X146719367Y-82469500D01*
X146719361Y-82469500D01*
X146719354Y-82469500D01*
X144940636Y-82469500D01*
X144823246Y-82484953D01*
X144823237Y-82484956D01*
X144677160Y-82545463D01*
X144551718Y-82641718D01*
X144455463Y-82767160D01*
X144448247Y-82784581D01*
X144404404Y-82838983D01*
X144338109Y-82861046D01*
X144270410Y-82843765D01*
X144257524Y-82834978D01*
X144188337Y-82781127D01*
X144147524Y-82724416D01*
X144140500Y-82683274D01*
X144140500Y-82489606D01*
X144140909Y-82479541D01*
X144145201Y-82426833D01*
X144134490Y-82348224D01*
X144134086Y-82344919D01*
X144128885Y-82297093D01*
X144125514Y-82266090D01*
X144125513Y-82266088D01*
X144125513Y-82266085D01*
X144125280Y-82265026D01*
X144120497Y-82244621D01*
X144120227Y-82243532D01*
X144092877Y-82169086D01*
X144091762Y-82165919D01*
X144089683Y-82159751D01*
X144066444Y-82090779D01*
X144066441Y-82090775D01*
X144066441Y-82090773D01*
X144066006Y-82089831D01*
X144056895Y-82070818D01*
X144056431Y-82069882D01*
X144013729Y-82003077D01*
X144011957Y-82000221D01*
X143971070Y-81932264D01*
X143971068Y-81932262D01*
X143971067Y-81932260D01*
X143970455Y-81931455D01*
X143957503Y-81914889D01*
X143956803Y-81914018D01*
X143956799Y-81914011D01*
X143900749Y-81857961D01*
X143898406Y-81855554D01*
X143843848Y-81797957D01*
X143843108Y-81797328D01*
X143825875Y-81783087D01*
X141468952Y-79426163D01*
X148206300Y-79426163D01*
X148221753Y-79543553D01*
X148221756Y-79543562D01*
X148242071Y-79592608D01*
X148282264Y-79689641D01*
X148378518Y-79815082D01*
X148503959Y-79911336D01*
X148650038Y-79971844D01*
X148767439Y-79987300D01*
X150546160Y-79987299D01*
X150546163Y-79987299D01*
X150663553Y-79971846D01*
X150663557Y-79971844D01*
X150663562Y-79971844D01*
X150809641Y-79911336D01*
X150935082Y-79815082D01*
X151031336Y-79689641D01*
X151091844Y-79543562D01*
X151107300Y-79426161D01*
X151107300Y-78889363D01*
X158549500Y-78889363D01*
X158564953Y-79006753D01*
X158564956Y-79006762D01*
X158625464Y-79152841D01*
X158721718Y-79278282D01*
X158847159Y-79374536D01*
X158993238Y-79435044D01*
X159110639Y-79450500D01*
X160889360Y-79450499D01*
X160889363Y-79450499D01*
X161006753Y-79435046D01*
X161006757Y-79435044D01*
X161006762Y-79435044D01*
X161152841Y-79374536D01*
X161278282Y-79278282D01*
X161374536Y-79152841D01*
X161435044Y-79006762D01*
X161450500Y-78889361D01*
X161450499Y-77110640D01*
X161450499Y-77110639D01*
X161450499Y-77110636D01*
X161435046Y-76993246D01*
X161435044Y-76993239D01*
X161435044Y-76993238D01*
X161374536Y-76847159D01*
X161278282Y-76721718D01*
X161152841Y-76625464D01*
X161044626Y-76580640D01*
X161006762Y-76564956D01*
X161006760Y-76564955D01*
X160889370Y-76549501D01*
X160889367Y-76549500D01*
X160889361Y-76549500D01*
X160889354Y-76549500D01*
X159110636Y-76549500D01*
X158993246Y-76564953D01*
X158993237Y-76564956D01*
X158847160Y-76625463D01*
X158721718Y-76721718D01*
X158625463Y-76847160D01*
X158564956Y-76993237D01*
X158564955Y-76993239D01*
X158550669Y-77101756D01*
X158549501Y-77110636D01*
X158549500Y-77110645D01*
X158549500Y-78889363D01*
X151107300Y-78889363D01*
X151107299Y-77647440D01*
X151107299Y-77647439D01*
X151107299Y-77647436D01*
X151091846Y-77530046D01*
X151091844Y-77530039D01*
X151091844Y-77530038D01*
X151031336Y-77383959D01*
X150935082Y-77258518D01*
X150809641Y-77162264D01*
X150663562Y-77101756D01*
X150663560Y-77101755D01*
X150546170Y-77086301D01*
X150546167Y-77086300D01*
X150546161Y-77086300D01*
X150546154Y-77086300D01*
X148767436Y-77086300D01*
X148650046Y-77101753D01*
X148650037Y-77101756D01*
X148503960Y-77162263D01*
X148378518Y-77258518D01*
X148282263Y-77383960D01*
X148221756Y-77530037D01*
X148221755Y-77530039D01*
X148206301Y-77647429D01*
X148206301Y-77647436D01*
X148206300Y-77647445D01*
X148206300Y-79426163D01*
X141468952Y-79426163D01*
X140209401Y-78166612D01*
X140202573Y-78159206D01*
X140168337Y-78118900D01*
X140105202Y-78070906D01*
X140102622Y-78068889D01*
X140040754Y-78019158D01*
X140039854Y-78018583D01*
X140022019Y-78007520D01*
X140021064Y-78006946D01*
X139949084Y-77973644D01*
X139946080Y-77972205D01*
X139914714Y-77956649D01*
X139875020Y-77936963D01*
X139873981Y-77936582D01*
X139854160Y-77929602D01*
X139853165Y-77929267D01*
X139775733Y-77912223D01*
X139772464Y-77911457D01*
X139695489Y-77892314D01*
X139694584Y-77892191D01*
X139673506Y-77889610D01*
X139672501Y-77889501D01*
X139672497Y-77889500D01*
X139672492Y-77889500D01*
X139593227Y-77889500D01*
X139589870Y-77889455D01*
X139510564Y-77887306D01*
X139509520Y-77887391D01*
X139487352Y-77889500D01*
X128673650Y-77889500D01*
X128606611Y-77869815D01*
X128585969Y-77853181D01*
X125498035Y-74765246D01*
X125464550Y-74703923D01*
X125469534Y-74634231D01*
X125494483Y-74593586D01*
X125558571Y-74523969D01*
X125576193Y-74496995D01*
X125629337Y-74451641D01*
X125698568Y-74442217D01*
X125761904Y-74471718D01*
X125783804Y-74496992D01*
X125801429Y-74523969D01*
X125964236Y-74700825D01*
X125964239Y-74700827D01*
X125964242Y-74700830D01*
X126153924Y-74848466D01*
X126153930Y-74848470D01*
X126153933Y-74848472D01*
X126365344Y-74962882D01*
X126365347Y-74962883D01*
X126592699Y-75040933D01*
X126592701Y-75040933D01*
X126592703Y-75040934D01*
X126829808Y-75080500D01*
X126829809Y-75080500D01*
X127070191Y-75080500D01*
X127070192Y-75080500D01*
X127307297Y-75040934D01*
X127534656Y-74962882D01*
X127746067Y-74848472D01*
X127935764Y-74700825D01*
X128098571Y-74523969D01*
X128116193Y-74496995D01*
X128169337Y-74451641D01*
X128238568Y-74442217D01*
X128301904Y-74471718D01*
X128323804Y-74496992D01*
X128341429Y-74523969D01*
X128504236Y-74700825D01*
X128504239Y-74700827D01*
X128504242Y-74700830D01*
X128693924Y-74848466D01*
X128693930Y-74848470D01*
X128693933Y-74848472D01*
X128905344Y-74962882D01*
X128905347Y-74962883D01*
X129132699Y-75040933D01*
X129132701Y-75040933D01*
X129132703Y-75040934D01*
X129369808Y-75080500D01*
X129369809Y-75080500D01*
X129610191Y-75080500D01*
X129610192Y-75080500D01*
X129847297Y-75040934D01*
X130074656Y-74962882D01*
X130286067Y-74848472D01*
X130475764Y-74700825D01*
X130638571Y-74523969D01*
X130716599Y-74404537D01*
X130769744Y-74359183D01*
X130838975Y-74349759D01*
X130902311Y-74379261D01*
X130921980Y-74401237D01*
X130991890Y-74501078D01*
X131158917Y-74668105D01*
X131352421Y-74803600D01*
X131566507Y-74903429D01*
X131566516Y-74903433D01*
X131780000Y-74960634D01*
X131780000Y-74065501D01*
X131887685Y-74114680D01*
X131994237Y-74130000D01*
X132065763Y-74130000D01*
X132172315Y-74114680D01*
X132280000Y-74065501D01*
X132280000Y-74960633D01*
X132493483Y-74903433D01*
X132493492Y-74903429D01*
X132707578Y-74803600D01*
X132901082Y-74668105D01*
X133068108Y-74501079D01*
X133138018Y-74401238D01*
X133192595Y-74357613D01*
X133262093Y-74350419D01*
X133324448Y-74381942D01*
X133343401Y-74404539D01*
X133403808Y-74496998D01*
X133421429Y-74523969D01*
X133584236Y-74700825D01*
X133584239Y-74700827D01*
X133584242Y-74700830D01*
X133773924Y-74848466D01*
X133773930Y-74848470D01*
X133773933Y-74848472D01*
X133985344Y-74962882D01*
X133985347Y-74962883D01*
X134212699Y-75040933D01*
X134212701Y-75040933D01*
X134212703Y-75040934D01*
X134449808Y-75080500D01*
X134449809Y-75080500D01*
X134690191Y-75080500D01*
X134690192Y-75080500D01*
X134927297Y-75040934D01*
X135154656Y-74962882D01*
X135366067Y-74848472D01*
X135555764Y-74700825D01*
X135718571Y-74523969D01*
X135736193Y-74496995D01*
X135789337Y-74451641D01*
X135858568Y-74442217D01*
X135921904Y-74471718D01*
X135943804Y-74496992D01*
X135961429Y-74523969D01*
X136124236Y-74700825D01*
X136124239Y-74700827D01*
X136124242Y-74700830D01*
X136313924Y-74848466D01*
X136313930Y-74848470D01*
X136313933Y-74848472D01*
X136525344Y-74962882D01*
X136525347Y-74962883D01*
X136752699Y-75040933D01*
X136752701Y-75040933D01*
X136752703Y-75040934D01*
X136989808Y-75080500D01*
X136989809Y-75080500D01*
X137230191Y-75080500D01*
X137230192Y-75080500D01*
X137467297Y-75040934D01*
X137694656Y-74962882D01*
X137906067Y-74848472D01*
X138095764Y-74700825D01*
X138258571Y-74523969D01*
X138276193Y-74496995D01*
X138329337Y-74451641D01*
X138398568Y-74442217D01*
X138461904Y-74471718D01*
X138483804Y-74496992D01*
X138501429Y-74523969D01*
X138664236Y-74700825D01*
X138664239Y-74700827D01*
X138664242Y-74700830D01*
X138853924Y-74848466D01*
X138853930Y-74848470D01*
X138853933Y-74848472D01*
X139065344Y-74962882D01*
X139065347Y-74962883D01*
X139292699Y-75040933D01*
X139292701Y-75040933D01*
X139292703Y-75040934D01*
X139529808Y-75080500D01*
X139529809Y-75080500D01*
X139770191Y-75080500D01*
X139770192Y-75080500D01*
X140007297Y-75040934D01*
X140234656Y-74962882D01*
X140446067Y-74848472D01*
X140635764Y-74700825D01*
X140798571Y-74523969D01*
X140816193Y-74496995D01*
X140869337Y-74451641D01*
X140938568Y-74442217D01*
X141001904Y-74471718D01*
X141023804Y-74496992D01*
X141041429Y-74523969D01*
X141204236Y-74700825D01*
X141204239Y-74700827D01*
X141204242Y-74700830D01*
X141393924Y-74848466D01*
X141393930Y-74848470D01*
X141393933Y-74848472D01*
X141605344Y-74962882D01*
X141605347Y-74962883D01*
X141832699Y-75040933D01*
X141832701Y-75040933D01*
X141832703Y-75040934D01*
X142069808Y-75080500D01*
X142069809Y-75080500D01*
X142310191Y-75080500D01*
X142310192Y-75080500D01*
X142547297Y-75040934D01*
X142774656Y-74962882D01*
X142986067Y-74848472D01*
X143175764Y-74700825D01*
X143338571Y-74523969D01*
X143416599Y-74404537D01*
X143469744Y-74359183D01*
X143538975Y-74349759D01*
X143602311Y-74379261D01*
X143621980Y-74401237D01*
X143691890Y-74501078D01*
X143858917Y-74668105D01*
X144052421Y-74803600D01*
X144266507Y-74903429D01*
X144266516Y-74903433D01*
X144480000Y-74960634D01*
X144480000Y-74065501D01*
X144587685Y-74114680D01*
X144694237Y-74130000D01*
X144765763Y-74130000D01*
X144872315Y-74114680D01*
X144980000Y-74065501D01*
X144980000Y-74960633D01*
X145193483Y-74903433D01*
X145193492Y-74903429D01*
X145407578Y-74803600D01*
X145601082Y-74668105D01*
X145768108Y-74501079D01*
X145838018Y-74401238D01*
X145892595Y-74357613D01*
X145962093Y-74350419D01*
X146024448Y-74381942D01*
X146043401Y-74404539D01*
X146103808Y-74496998D01*
X146121429Y-74523969D01*
X146284236Y-74700825D01*
X146284239Y-74700827D01*
X146284242Y-74700830D01*
X146473924Y-74848466D01*
X146473930Y-74848470D01*
X146473933Y-74848472D01*
X146685344Y-74962882D01*
X146685347Y-74962883D01*
X146912699Y-75040933D01*
X146912701Y-75040933D01*
X146912703Y-75040934D01*
X147149808Y-75080500D01*
X147149809Y-75080500D01*
X147390191Y-75080500D01*
X147390192Y-75080500D01*
X147627297Y-75040934D01*
X147854656Y-74962882D01*
X148066067Y-74848472D01*
X148255764Y-74700825D01*
X148418571Y-74523969D01*
X148436193Y-74496995D01*
X148489337Y-74451641D01*
X148558568Y-74442217D01*
X148621904Y-74471718D01*
X148643804Y-74496992D01*
X148661429Y-74523969D01*
X148824236Y-74700825D01*
X148824239Y-74700827D01*
X148824242Y-74700830D01*
X149013924Y-74848466D01*
X149013930Y-74848470D01*
X149013933Y-74848472D01*
X149225344Y-74962882D01*
X149225347Y-74962883D01*
X149452699Y-75040933D01*
X149452701Y-75040933D01*
X149452703Y-75040934D01*
X149689808Y-75080500D01*
X149689809Y-75080500D01*
X149930191Y-75080500D01*
X149930192Y-75080500D01*
X150167297Y-75040934D01*
X150394656Y-74962882D01*
X150606067Y-74848472D01*
X150795764Y-74700825D01*
X150958571Y-74523969D01*
X150976193Y-74496995D01*
X151029337Y-74451641D01*
X151098568Y-74442217D01*
X151161904Y-74471718D01*
X151183804Y-74496992D01*
X151201429Y-74523969D01*
X151364236Y-74700825D01*
X151364239Y-74700827D01*
X151364242Y-74700830D01*
X151553924Y-74848466D01*
X151553930Y-74848470D01*
X151553933Y-74848472D01*
X151765344Y-74962882D01*
X151765347Y-74962883D01*
X151992699Y-75040933D01*
X151992701Y-75040933D01*
X151992703Y-75040934D01*
X152229808Y-75080500D01*
X152229809Y-75080500D01*
X152470191Y-75080500D01*
X152470192Y-75080500D01*
X152707297Y-75040934D01*
X152934656Y-74962882D01*
X153146067Y-74848472D01*
X153335764Y-74700825D01*
X153498571Y-74523969D01*
X153516193Y-74496995D01*
X153569337Y-74451641D01*
X153638568Y-74442217D01*
X153701904Y-74471718D01*
X153723804Y-74496992D01*
X153741429Y-74523969D01*
X153904236Y-74700825D01*
X153904239Y-74700827D01*
X153904242Y-74700830D01*
X154093924Y-74848466D01*
X154093930Y-74848470D01*
X154093933Y-74848472D01*
X154305344Y-74962882D01*
X154305347Y-74962883D01*
X154532699Y-75040933D01*
X154532701Y-75040933D01*
X154532703Y-75040934D01*
X154769808Y-75080500D01*
X154769809Y-75080500D01*
X155010191Y-75080500D01*
X155010192Y-75080500D01*
X155247297Y-75040934D01*
X155474656Y-74962882D01*
X155686067Y-74848472D01*
X155875764Y-74700825D01*
X156038571Y-74523969D01*
X156116599Y-74404537D01*
X156169744Y-74359183D01*
X156238975Y-74349759D01*
X156302311Y-74379261D01*
X156321980Y-74401237D01*
X156391890Y-74501078D01*
X156558917Y-74668105D01*
X156752421Y-74803600D01*
X156966507Y-74903429D01*
X156966516Y-74903433D01*
X157180000Y-74960634D01*
X157180000Y-74065501D01*
X157287685Y-74114680D01*
X157394237Y-74130000D01*
X157465763Y-74130000D01*
X157572315Y-74114680D01*
X157680000Y-74065501D01*
X157680000Y-74960633D01*
X157893483Y-74903433D01*
X157893492Y-74903429D01*
X158107578Y-74803600D01*
X158301082Y-74668105D01*
X158468108Y-74501079D01*
X158538018Y-74401238D01*
X158592595Y-74357613D01*
X158662093Y-74350419D01*
X158724448Y-74381942D01*
X158743401Y-74404539D01*
X158803808Y-74496998D01*
X158821429Y-74523969D01*
X158984236Y-74700825D01*
X158984239Y-74700827D01*
X158984242Y-74700830D01*
X159173924Y-74848466D01*
X159173930Y-74848470D01*
X159173933Y-74848472D01*
X159385344Y-74962882D01*
X159385347Y-74962883D01*
X159612699Y-75040933D01*
X159612701Y-75040933D01*
X159612703Y-75040934D01*
X159849808Y-75080500D01*
X159849809Y-75080500D01*
X160090191Y-75080500D01*
X160090192Y-75080500D01*
X160327297Y-75040934D01*
X160554656Y-74962882D01*
X160766067Y-74848472D01*
X160955764Y-74700825D01*
X161118571Y-74523969D01*
X161136193Y-74496995D01*
X161189337Y-74451641D01*
X161258568Y-74442217D01*
X161321904Y-74471718D01*
X161343804Y-74496992D01*
X161361429Y-74523969D01*
X161524236Y-74700825D01*
X161524239Y-74700827D01*
X161524242Y-74700830D01*
X161713924Y-74848466D01*
X161713930Y-74848470D01*
X161713933Y-74848472D01*
X161925344Y-74962882D01*
X161925347Y-74962883D01*
X162152699Y-75040933D01*
X162152701Y-75040933D01*
X162152703Y-75040934D01*
X162389808Y-75080500D01*
X162389809Y-75080500D01*
X162630191Y-75080500D01*
X162630192Y-75080500D01*
X162867297Y-75040934D01*
X163094656Y-74962882D01*
X163306067Y-74848472D01*
X163495764Y-74700825D01*
X163658571Y-74523969D01*
X163790049Y-74322728D01*
X163886610Y-74102591D01*
X163945620Y-73869563D01*
X163965471Y-73630000D01*
X163945620Y-73390437D01*
X163886610Y-73157409D01*
X163790049Y-72937272D01*
X163779999Y-72921890D01*
X163673529Y-72758926D01*
X163658571Y-72736031D01*
X163495764Y-72559175D01*
X163495759Y-72559171D01*
X163495757Y-72559169D01*
X163306075Y-72411533D01*
X163306069Y-72411529D01*
X163094657Y-72297118D01*
X163094652Y-72297116D01*
X162867300Y-72219066D01*
X162689468Y-72189391D01*
X162630192Y-72179500D01*
X162389808Y-72179500D01*
X162342387Y-72187413D01*
X162152699Y-72219066D01*
X161925347Y-72297116D01*
X161925342Y-72297118D01*
X161713930Y-72411529D01*
X161713924Y-72411533D01*
X161524242Y-72559169D01*
X161524239Y-72559172D01*
X161524236Y-72559174D01*
X161524236Y-72559175D01*
X161494119Y-72591891D01*
X161361430Y-72736029D01*
X161361429Y-72736031D01*
X161343807Y-72763003D01*
X161290660Y-72808358D01*
X161221429Y-72817780D01*
X161158093Y-72788277D01*
X161136193Y-72763003D01*
X161133525Y-72758920D01*
X161118571Y-72736031D01*
X160955764Y-72559175D01*
X160955759Y-72559171D01*
X160955757Y-72559169D01*
X160766075Y-72411533D01*
X160766069Y-72411529D01*
X160554657Y-72297118D01*
X160554652Y-72297116D01*
X160327300Y-72219066D01*
X160149468Y-72189391D01*
X160090192Y-72179500D01*
X159849808Y-72179500D01*
X159802387Y-72187413D01*
X159612699Y-72219066D01*
X159385347Y-72297116D01*
X159385342Y-72297118D01*
X159173930Y-72411529D01*
X159173924Y-72411533D01*
X158984242Y-72559169D01*
X158984239Y-72559172D01*
X158984236Y-72559174D01*
X158984236Y-72559175D01*
X158954119Y-72591891D01*
X158821430Y-72736029D01*
X158821427Y-72736033D01*
X158743401Y-72855460D01*
X158690254Y-72900817D01*
X158621023Y-72910240D01*
X158557688Y-72880737D01*
X158538018Y-72858761D01*
X158468113Y-72758926D01*
X158468108Y-72758920D01*
X158301082Y-72591894D01*
X158107578Y-72456399D01*
X157893492Y-72356570D01*
X157893486Y-72356567D01*
X157680000Y-72299364D01*
X157680000Y-73194498D01*
X157572315Y-73145320D01*
X157465763Y-73130000D01*
X157394237Y-73130000D01*
X157287685Y-73145320D01*
X157180000Y-73194498D01*
X157180000Y-72299364D01*
X157179999Y-72299364D01*
X156966513Y-72356567D01*
X156966507Y-72356570D01*
X156752422Y-72456399D01*
X156752420Y-72456400D01*
X156558926Y-72591886D01*
X156558920Y-72591891D01*
X156391891Y-72758920D01*
X156391890Y-72758922D01*
X156321981Y-72858762D01*
X156267404Y-72902387D01*
X156197905Y-72909579D01*
X156135551Y-72878057D01*
X156116598Y-72855460D01*
X156038571Y-72736031D01*
X155875764Y-72559175D01*
X155875759Y-72559171D01*
X155875757Y-72559169D01*
X155686075Y-72411533D01*
X155686069Y-72411529D01*
X155474657Y-72297118D01*
X155474652Y-72297116D01*
X155247300Y-72219066D01*
X155069468Y-72189391D01*
X155010192Y-72179500D01*
X154769808Y-72179500D01*
X154722387Y-72187413D01*
X154532699Y-72219066D01*
X154305347Y-72297116D01*
X154305342Y-72297118D01*
X154093930Y-72411529D01*
X154093924Y-72411533D01*
X153904242Y-72559169D01*
X153904239Y-72559172D01*
X153904236Y-72559174D01*
X153904236Y-72559175D01*
X153874119Y-72591891D01*
X153741430Y-72736029D01*
X153741429Y-72736031D01*
X153723807Y-72763003D01*
X153670660Y-72808358D01*
X153601429Y-72817780D01*
X153538093Y-72788277D01*
X153516193Y-72763003D01*
X153513525Y-72758920D01*
X153498571Y-72736031D01*
X153335764Y-72559175D01*
X153335759Y-72559171D01*
X153335757Y-72559169D01*
X153146075Y-72411533D01*
X153146069Y-72411529D01*
X152934657Y-72297118D01*
X152934652Y-72297116D01*
X152707300Y-72219066D01*
X152529468Y-72189391D01*
X152470192Y-72179500D01*
X152229808Y-72179500D01*
X152182387Y-72187413D01*
X151992699Y-72219066D01*
X151765347Y-72297116D01*
X151765342Y-72297118D01*
X151553930Y-72411529D01*
X151553924Y-72411533D01*
X151364242Y-72559169D01*
X151364239Y-72559172D01*
X151364236Y-72559174D01*
X151364236Y-72559175D01*
X151334119Y-72591891D01*
X151201430Y-72736029D01*
X151201429Y-72736031D01*
X151183807Y-72763003D01*
X151130660Y-72808358D01*
X151061429Y-72817780D01*
X150998093Y-72788277D01*
X150976193Y-72763003D01*
X150973525Y-72758920D01*
X150958571Y-72736031D01*
X150795764Y-72559175D01*
X150795759Y-72559171D01*
X150795757Y-72559169D01*
X150606075Y-72411533D01*
X150606069Y-72411529D01*
X150394657Y-72297118D01*
X150394652Y-72297116D01*
X150167300Y-72219066D01*
X149989468Y-72189391D01*
X149930192Y-72179500D01*
X149689808Y-72179500D01*
X149642387Y-72187413D01*
X149452699Y-72219066D01*
X149225347Y-72297116D01*
X149225342Y-72297118D01*
X149013930Y-72411529D01*
X149013924Y-72411533D01*
X148824242Y-72559169D01*
X148824239Y-72559172D01*
X148824236Y-72559174D01*
X148824236Y-72559175D01*
X148794119Y-72591891D01*
X148661430Y-72736029D01*
X148661429Y-72736031D01*
X148643807Y-72763003D01*
X148590660Y-72808358D01*
X148521429Y-72817780D01*
X148458093Y-72788277D01*
X148436193Y-72763003D01*
X148433525Y-72758920D01*
X148418571Y-72736031D01*
X148255764Y-72559175D01*
X148255759Y-72559171D01*
X148255757Y-72559169D01*
X148066075Y-72411533D01*
X148066069Y-72411529D01*
X147854657Y-72297118D01*
X147854652Y-72297116D01*
X147627300Y-72219066D01*
X147449468Y-72189391D01*
X147390192Y-72179500D01*
X147149808Y-72179500D01*
X147102387Y-72187413D01*
X146912699Y-72219066D01*
X146685347Y-72297116D01*
X146685342Y-72297118D01*
X146473930Y-72411529D01*
X146473924Y-72411533D01*
X146284242Y-72559169D01*
X146284239Y-72559172D01*
X146284236Y-72559174D01*
X146284236Y-72559175D01*
X146254119Y-72591891D01*
X146121430Y-72736029D01*
X146121427Y-72736033D01*
X146043401Y-72855460D01*
X145990254Y-72900817D01*
X145921023Y-72910240D01*
X145857688Y-72880737D01*
X145838018Y-72858761D01*
X145768113Y-72758926D01*
X145768108Y-72758920D01*
X145601082Y-72591894D01*
X145407578Y-72456399D01*
X145193492Y-72356570D01*
X145193486Y-72356567D01*
X144980000Y-72299364D01*
X144980000Y-73194498D01*
X144872315Y-73145320D01*
X144765763Y-73130000D01*
X144694237Y-73130000D01*
X144587685Y-73145320D01*
X144480000Y-73194498D01*
X144480000Y-72299364D01*
X144479999Y-72299364D01*
X144266513Y-72356567D01*
X144266507Y-72356570D01*
X144052422Y-72456399D01*
X144052420Y-72456400D01*
X143858926Y-72591886D01*
X143858920Y-72591891D01*
X143691891Y-72758920D01*
X143691890Y-72758922D01*
X143621981Y-72858762D01*
X143567404Y-72902387D01*
X143497905Y-72909579D01*
X143435551Y-72878057D01*
X143416598Y-72855460D01*
X143338571Y-72736031D01*
X143175764Y-72559175D01*
X143175759Y-72559171D01*
X143175757Y-72559169D01*
X142986075Y-72411533D01*
X142986069Y-72411529D01*
X142774657Y-72297118D01*
X142774652Y-72297116D01*
X142547300Y-72219066D01*
X142369468Y-72189391D01*
X142310192Y-72179500D01*
X142069808Y-72179500D01*
X142022387Y-72187413D01*
X141832699Y-72219066D01*
X141605347Y-72297116D01*
X141605342Y-72297118D01*
X141393930Y-72411529D01*
X141393924Y-72411533D01*
X141204242Y-72559169D01*
X141204239Y-72559172D01*
X141204236Y-72559174D01*
X141204236Y-72559175D01*
X141174119Y-72591891D01*
X141041430Y-72736029D01*
X141041429Y-72736031D01*
X141023807Y-72763003D01*
X140970660Y-72808358D01*
X140901429Y-72817780D01*
X140838093Y-72788277D01*
X140816193Y-72763003D01*
X140813525Y-72758920D01*
X140798571Y-72736031D01*
X140635764Y-72559175D01*
X140635759Y-72559171D01*
X140635757Y-72559169D01*
X140446075Y-72411533D01*
X140446069Y-72411529D01*
X140234657Y-72297118D01*
X140234652Y-72297116D01*
X140007300Y-72219066D01*
X139829468Y-72189391D01*
X139770192Y-72179500D01*
X139529808Y-72179500D01*
X139482387Y-72187413D01*
X139292699Y-72219066D01*
X139065347Y-72297116D01*
X139065342Y-72297118D01*
X138853930Y-72411529D01*
X138853924Y-72411533D01*
X138664242Y-72559169D01*
X138664239Y-72559172D01*
X138664236Y-72559174D01*
X138664236Y-72559175D01*
X138634119Y-72591891D01*
X138501430Y-72736029D01*
X138501429Y-72736031D01*
X138483807Y-72763003D01*
X138430660Y-72808358D01*
X138361429Y-72817780D01*
X138298093Y-72788277D01*
X138276193Y-72763003D01*
X138273525Y-72758920D01*
X138258571Y-72736031D01*
X138095764Y-72559175D01*
X138095759Y-72559171D01*
X138095757Y-72559169D01*
X137906075Y-72411533D01*
X137906069Y-72411529D01*
X137694657Y-72297118D01*
X137694652Y-72297116D01*
X137467300Y-72219066D01*
X137289468Y-72189391D01*
X137230192Y-72179500D01*
X136989808Y-72179500D01*
X136942387Y-72187413D01*
X136752699Y-72219066D01*
X136525347Y-72297116D01*
X136525342Y-72297118D01*
X136313930Y-72411529D01*
X136313924Y-72411533D01*
X136124242Y-72559169D01*
X136124239Y-72559172D01*
X136124236Y-72559174D01*
X136124236Y-72559175D01*
X136094119Y-72591891D01*
X135961430Y-72736029D01*
X135961429Y-72736031D01*
X135943807Y-72763003D01*
X135890660Y-72808358D01*
X135821429Y-72817780D01*
X135758093Y-72788277D01*
X135736193Y-72763003D01*
X135733525Y-72758920D01*
X135718571Y-72736031D01*
X135555764Y-72559175D01*
X135555759Y-72559171D01*
X135555757Y-72559169D01*
X135366075Y-72411533D01*
X135366069Y-72411529D01*
X135154657Y-72297118D01*
X135154652Y-72297116D01*
X134927300Y-72219066D01*
X134749468Y-72189391D01*
X134690192Y-72179500D01*
X134449808Y-72179500D01*
X134402387Y-72187413D01*
X134212699Y-72219066D01*
X133985347Y-72297116D01*
X133985342Y-72297118D01*
X133773930Y-72411529D01*
X133773924Y-72411533D01*
X133584242Y-72559169D01*
X133584239Y-72559172D01*
X133584236Y-72559174D01*
X133584236Y-72559175D01*
X133554119Y-72591891D01*
X133421430Y-72736029D01*
X133421427Y-72736033D01*
X133343401Y-72855460D01*
X133290254Y-72900817D01*
X133221023Y-72910240D01*
X133157688Y-72880737D01*
X133138018Y-72858761D01*
X133068113Y-72758926D01*
X133068108Y-72758920D01*
X132901082Y-72591894D01*
X132707578Y-72456399D01*
X132493492Y-72356570D01*
X132493486Y-72356567D01*
X132280000Y-72299364D01*
X132280000Y-73194498D01*
X132172315Y-73145320D01*
X132065763Y-73130000D01*
X131994237Y-73130000D01*
X131887685Y-73145320D01*
X131780000Y-73194498D01*
X131780000Y-72299364D01*
X131779999Y-72299364D01*
X131566513Y-72356567D01*
X131566507Y-72356570D01*
X131352422Y-72456399D01*
X131352420Y-72456400D01*
X131158926Y-72591886D01*
X131158920Y-72591891D01*
X130991891Y-72758920D01*
X130991890Y-72758922D01*
X130921981Y-72858762D01*
X130867404Y-72902387D01*
X130797905Y-72909579D01*
X130735551Y-72878057D01*
X130716598Y-72855460D01*
X130638571Y-72736031D01*
X130475764Y-72559175D01*
X130475759Y-72559171D01*
X130475757Y-72559169D01*
X130286075Y-72411533D01*
X130286069Y-72411529D01*
X130074657Y-72297118D01*
X130074652Y-72297116D01*
X129847300Y-72219066D01*
X129669468Y-72189391D01*
X129610192Y-72179500D01*
X129369808Y-72179500D01*
X129322387Y-72187413D01*
X129132699Y-72219066D01*
X128905347Y-72297116D01*
X128905342Y-72297118D01*
X128693930Y-72411529D01*
X128693924Y-72411533D01*
X128504242Y-72559169D01*
X128504239Y-72559172D01*
X128504236Y-72559174D01*
X128504236Y-72559175D01*
X128474119Y-72591891D01*
X128341430Y-72736029D01*
X128341429Y-72736031D01*
X128323807Y-72763003D01*
X128270660Y-72808358D01*
X128201429Y-72817780D01*
X128138093Y-72788277D01*
X128116193Y-72763003D01*
X128113525Y-72758920D01*
X128098571Y-72736031D01*
X127935764Y-72559175D01*
X127935759Y-72559171D01*
X127935757Y-72559169D01*
X127746075Y-72411533D01*
X127746069Y-72411529D01*
X127534657Y-72297118D01*
X127534652Y-72297116D01*
X127307300Y-72219066D01*
X127129468Y-72189391D01*
X127070192Y-72179500D01*
X126829808Y-72179500D01*
X126782387Y-72187413D01*
X126592699Y-72219066D01*
X126365347Y-72297116D01*
X126365342Y-72297118D01*
X126153930Y-72411529D01*
X126153924Y-72411533D01*
X125964242Y-72559169D01*
X125964239Y-72559172D01*
X125964236Y-72559174D01*
X125964236Y-72559175D01*
X125934119Y-72591891D01*
X125801430Y-72736029D01*
X125801429Y-72736031D01*
X125783807Y-72763003D01*
X125730660Y-72808358D01*
X125661429Y-72817780D01*
X125598093Y-72788277D01*
X125576193Y-72763003D01*
X125573525Y-72758920D01*
X125558571Y-72736031D01*
X125395764Y-72559175D01*
X125395759Y-72559171D01*
X125395757Y-72559169D01*
X125206075Y-72411533D01*
X125206069Y-72411529D01*
X124994657Y-72297118D01*
X124994652Y-72297116D01*
X124767300Y-72219066D01*
X124589468Y-72189391D01*
X124530192Y-72179500D01*
X124289808Y-72179500D01*
X124242387Y-72187413D01*
X124052699Y-72219066D01*
X123825347Y-72297116D01*
X123825342Y-72297118D01*
X123613930Y-72411529D01*
X123613924Y-72411533D01*
X123424242Y-72559169D01*
X123424239Y-72559172D01*
X123424236Y-72559174D01*
X123424236Y-72559175D01*
X123394119Y-72591891D01*
X123261430Y-72736029D01*
X123261429Y-72736031D01*
X123243807Y-72763003D01*
X123190660Y-72808358D01*
X123121429Y-72817780D01*
X123058093Y-72788277D01*
X123036193Y-72763003D01*
X123033525Y-72758920D01*
X123018571Y-72736031D01*
X122855764Y-72559175D01*
X122855759Y-72559171D01*
X122855757Y-72559169D01*
X122666075Y-72411533D01*
X122666069Y-72411529D01*
X122454657Y-72297118D01*
X122454652Y-72297116D01*
X122227300Y-72219066D01*
X122049468Y-72189391D01*
X121990192Y-72179500D01*
X121749808Y-72179500D01*
X121702387Y-72187413D01*
X121512699Y-72219066D01*
X121285347Y-72297116D01*
X121285342Y-72297118D01*
X121073930Y-72411529D01*
X121073924Y-72411533D01*
X120884242Y-72559169D01*
X120884239Y-72559172D01*
X120884236Y-72559174D01*
X120884236Y-72559175D01*
X120854119Y-72591891D01*
X120721430Y-72736029D01*
X120721427Y-72736033D01*
X120643401Y-72855460D01*
X120590254Y-72900817D01*
X120521023Y-72910240D01*
X120457688Y-72880737D01*
X120438018Y-72858761D01*
X120368113Y-72758926D01*
X120368108Y-72758920D01*
X120201082Y-72591894D01*
X120007578Y-72456399D01*
X119793492Y-72356570D01*
X119793486Y-72356567D01*
X119580000Y-72299364D01*
X119580000Y-73194498D01*
X119472315Y-73145320D01*
X119365763Y-73130000D01*
X119294237Y-73130000D01*
X119187685Y-73145320D01*
X119080000Y-73194498D01*
X119080000Y-72299364D01*
X119079999Y-72299364D01*
X118866513Y-72356567D01*
X118866507Y-72356570D01*
X118652422Y-72456399D01*
X118652420Y-72456400D01*
X118458926Y-72591886D01*
X118458920Y-72591891D01*
X118291891Y-72758920D01*
X118291890Y-72758922D01*
X118221981Y-72858762D01*
X118167404Y-72902387D01*
X118097905Y-72909579D01*
X118035551Y-72878057D01*
X118016598Y-72855460D01*
X117938571Y-72736031D01*
X117775764Y-72559175D01*
X117775759Y-72559171D01*
X117775757Y-72559169D01*
X117586075Y-72411533D01*
X117586069Y-72411529D01*
X117374657Y-72297118D01*
X117374652Y-72297116D01*
X117147300Y-72219066D01*
X116969468Y-72189391D01*
X116910192Y-72179500D01*
X116669808Y-72179500D01*
X116622387Y-72187413D01*
X116432699Y-72219066D01*
X116205347Y-72297116D01*
X116205342Y-72297118D01*
X115993930Y-72411529D01*
X115993924Y-72411533D01*
X115822474Y-72544979D01*
X115757480Y-72570622D01*
X115688940Y-72557056D01*
X115638616Y-72508587D01*
X115631755Y-72494587D01*
X115624536Y-72477159D01*
X115528282Y-72351718D01*
X115402841Y-72255464D01*
X115256762Y-72194956D01*
X115256760Y-72194955D01*
X115139370Y-72179501D01*
X115139367Y-72179500D01*
X115139361Y-72179500D01*
X115139354Y-72179500D01*
X113360636Y-72179500D01*
X113243246Y-72194953D01*
X113243237Y-72194956D01*
X113097160Y-72255463D01*
X112971718Y-72351718D01*
X112875463Y-72477160D01*
X112814956Y-72623237D01*
X112814955Y-72623239D01*
X112799501Y-72740629D01*
X112799500Y-72740645D01*
X112799500Y-74519363D01*
X108578500Y-74519363D01*
X108578500Y-63500004D01*
X140134732Y-63500004D01*
X140153777Y-63754154D01*
X140175866Y-63850934D01*
X140210492Y-64002637D01*
X140303607Y-64239888D01*
X140431041Y-64460612D01*
X140589950Y-64659877D01*
X140776783Y-64833232D01*
X140987366Y-64976805D01*
X140987371Y-64976807D01*
X140987372Y-64976808D01*
X140987373Y-64976809D01*
X141094257Y-65028281D01*
X141216992Y-65087387D01*
X141216993Y-65087387D01*
X141216996Y-65087389D01*
X141460542Y-65162513D01*
X141712565Y-65200500D01*
X141967435Y-65200500D01*
X142219458Y-65162513D01*
X142463004Y-65087389D01*
X142692634Y-64976805D01*
X142903217Y-64833232D01*
X143090050Y-64659877D01*
X143106409Y-64639363D01*
X150299500Y-64639363D01*
X150314953Y-64756753D01*
X150314956Y-64756762D01*
X150346630Y-64833231D01*
X150375464Y-64902841D01*
X150471718Y-65028282D01*
X150597159Y-65124536D01*
X150743238Y-65185044D01*
X150860639Y-65200500D01*
X153139360Y-65200499D01*
X153139363Y-65200499D01*
X153256753Y-65185046D01*
X153256757Y-65185044D01*
X153256762Y-65185044D01*
X153402841Y-65124536D01*
X153528282Y-65028282D01*
X153624536Y-64902841D01*
X153685044Y-64756762D01*
X153700500Y-64639361D01*
X153700499Y-62440005D01*
X158744529Y-62440005D01*
X158764379Y-62679559D01*
X158823389Y-62912589D01*
X158919951Y-63132729D01*
X159033808Y-63306998D01*
X159051429Y-63333969D01*
X159214236Y-63510825D01*
X159214239Y-63510827D01*
X159214242Y-63510830D01*
X159403924Y-63658466D01*
X159403930Y-63658470D01*
X159403933Y-63658472D01*
X159615344Y-63772882D01*
X159615347Y-63772883D01*
X159842699Y-63850933D01*
X159842701Y-63850933D01*
X159842703Y-63850934D01*
X160079808Y-63890500D01*
X160079809Y-63890500D01*
X160320191Y-63890500D01*
X160320192Y-63890500D01*
X160557297Y-63850934D01*
X160784656Y-63772882D01*
X160996067Y-63658472D01*
X161185764Y-63510825D01*
X161348571Y-63333969D01*
X161366193Y-63306995D01*
X161419337Y-63261641D01*
X161488568Y-63252217D01*
X161551904Y-63281718D01*
X161573804Y-63306992D01*
X161591429Y-63333969D01*
X161754236Y-63510825D01*
X161754239Y-63510827D01*
X161754242Y-63510830D01*
X161943924Y-63658466D01*
X161943930Y-63658470D01*
X161943933Y-63658472D01*
X162155344Y-63772882D01*
X162155347Y-63772883D01*
X162382699Y-63850933D01*
X162382701Y-63850933D01*
X162382703Y-63850934D01*
X162619808Y-63890500D01*
X162619809Y-63890500D01*
X162860191Y-63890500D01*
X162860192Y-63890500D01*
X163097297Y-63850934D01*
X163324656Y-63772882D01*
X163536067Y-63658472D01*
X163725764Y-63510825D01*
X163888571Y-63333969D01*
X164020049Y-63132728D01*
X164116610Y-62912591D01*
X164175620Y-62679563D01*
X164195471Y-62440000D01*
X164188895Y-62360645D01*
X164179167Y-62243238D01*
X164175620Y-62200437D01*
X164116610Y-61967409D01*
X164020049Y-61747272D01*
X164009999Y-61731890D01*
X163888572Y-61546033D01*
X163888571Y-61546031D01*
X163725764Y-61369175D01*
X163595585Y-61267852D01*
X163554773Y-61211143D01*
X163551098Y-61141370D01*
X163585730Y-61080687D01*
X163595585Y-61072147D01*
X163725764Y-60970825D01*
X163888571Y-60793969D01*
X164020049Y-60592728D01*
X164116610Y-60372591D01*
X164175620Y-60139563D01*
X164195471Y-59900000D01*
X164175620Y-59660437D01*
X164116610Y-59427409D01*
X164020049Y-59207272D01*
X163888571Y-59006031D01*
X163725764Y-58829175D01*
X163725759Y-58829171D01*
X163725757Y-58829169D01*
X163536075Y-58681533D01*
X163536069Y-58681529D01*
X163324657Y-58567118D01*
X163324652Y-58567116D01*
X163097300Y-58489066D01*
X162919468Y-58459391D01*
X162860192Y-58449500D01*
X162619808Y-58449500D01*
X162572387Y-58457413D01*
X162382699Y-58489066D01*
X162155347Y-58567116D01*
X162155342Y-58567118D01*
X161943930Y-58681529D01*
X161943924Y-58681533D01*
X161772474Y-58814979D01*
X161707480Y-58840622D01*
X161638940Y-58827056D01*
X161588616Y-58778587D01*
X161581755Y-58764587D01*
X161574536Y-58747159D01*
X161478282Y-58621718D01*
X161352841Y-58525464D01*
X161206762Y-58464956D01*
X161206760Y-58464955D01*
X161089370Y-58449501D01*
X161089367Y-58449500D01*
X161089361Y-58449500D01*
X161089354Y-58449500D01*
X159310636Y-58449500D01*
X159193246Y-58464953D01*
X159193237Y-58464956D01*
X159047160Y-58525463D01*
X158921718Y-58621718D01*
X158825463Y-58747160D01*
X158764956Y-58893237D01*
X158764955Y-58893239D01*
X158749501Y-59010629D01*
X158749500Y-59010645D01*
X158749500Y-60789363D01*
X158764953Y-60906753D01*
X158764956Y-60906762D01*
X158825464Y-61052841D01*
X158921718Y-61178282D01*
X159047159Y-61274536D01*
X159063666Y-61281373D01*
X159067175Y-61282827D01*
X159121579Y-61326669D01*
X159143643Y-61392963D01*
X159126363Y-61460662D01*
X159110952Y-61481370D01*
X159051435Y-61546022D01*
X159051427Y-61546033D01*
X158919951Y-61747270D01*
X158823389Y-61967410D01*
X158764379Y-62200440D01*
X158744529Y-62439994D01*
X158744529Y-62440005D01*
X153700499Y-62440005D01*
X153700499Y-62360640D01*
X153700499Y-62360639D01*
X153700499Y-62360636D01*
X153685046Y-62243246D01*
X153685044Y-62243239D01*
X153685044Y-62243238D01*
X153624536Y-62097159D01*
X153528282Y-61971718D01*
X153402841Y-61875464D01*
X153311161Y-61837489D01*
X153256762Y-61814956D01*
X153256760Y-61814955D01*
X153139370Y-61799501D01*
X153139367Y-61799500D01*
X153139361Y-61799500D01*
X153139354Y-61799500D01*
X150860636Y-61799500D01*
X150743246Y-61814953D01*
X150743237Y-61814956D01*
X150597160Y-61875463D01*
X150471718Y-61971718D01*
X150375463Y-62097160D01*
X150314956Y-62243237D01*
X150314955Y-62243239D01*
X150302201Y-62340121D01*
X150299501Y-62360636D01*
X150299500Y-62360645D01*
X150299500Y-64639363D01*
X143106409Y-64639363D01*
X143248959Y-64460612D01*
X143376393Y-64239888D01*
X143469508Y-64002637D01*
X143526222Y-63754157D01*
X143534384Y-63645232D01*
X143545268Y-63500004D01*
X143545268Y-63499995D01*
X143526222Y-63245845D01*
X143503914Y-63148109D01*
X143469508Y-62997363D01*
X143376393Y-62760112D01*
X143248959Y-62539388D01*
X143090050Y-62340123D01*
X142903217Y-62166768D01*
X142692634Y-62023195D01*
X142692630Y-62023193D01*
X142692627Y-62023191D01*
X142692626Y-62023190D01*
X142463006Y-61912612D01*
X142463008Y-61912612D01*
X142219466Y-61837489D01*
X142219462Y-61837488D01*
X142219458Y-61837487D01*
X142098231Y-61819214D01*
X141967440Y-61799500D01*
X141967435Y-61799500D01*
X141712565Y-61799500D01*
X141712559Y-61799500D01*
X141555609Y-61823157D01*
X141460542Y-61837487D01*
X141460539Y-61837488D01*
X141460533Y-61837489D01*
X141216992Y-61912612D01*
X140987373Y-62023190D01*
X140987372Y-62023191D01*
X140776782Y-62166768D01*
X140589952Y-62340121D01*
X140589950Y-62340123D01*
X140431041Y-62539388D01*
X140303608Y-62760109D01*
X140210492Y-62997362D01*
X140210490Y-62997369D01*
X140153777Y-63245845D01*
X140134732Y-63499995D01*
X140134732Y-63500004D01*
X108578500Y-63500004D01*
X108578500Y-56769363D01*
X112849500Y-56769363D01*
X112864953Y-56886753D01*
X112864956Y-56886762D01*
X112925464Y-57032841D01*
X113021718Y-57158282D01*
X113147159Y-57254536D01*
X113293238Y-57315044D01*
X113410639Y-57330500D01*
X115189360Y-57330499D01*
X115189363Y-57330499D01*
X115306753Y-57315046D01*
X115306757Y-57315044D01*
X115306762Y-57315044D01*
X115452841Y-57254536D01*
X115578282Y-57158282D01*
X115674536Y-57032841D01*
X115681751Y-57015420D01*
X115725590Y-56961019D01*
X115791884Y-56938953D01*
X115859584Y-56956231D01*
X115872474Y-56965021D01*
X116043924Y-57098466D01*
X116043930Y-57098470D01*
X116043933Y-57098472D01*
X116255344Y-57212882D01*
X116255347Y-57212883D01*
X116482699Y-57290933D01*
X116482701Y-57290933D01*
X116482703Y-57290934D01*
X116719808Y-57330500D01*
X116719809Y-57330500D01*
X116960191Y-57330500D01*
X116960192Y-57330500D01*
X117197297Y-57290934D01*
X117424656Y-57212882D01*
X117636067Y-57098472D01*
X117825764Y-56950825D01*
X117988571Y-56773969D01*
X118066599Y-56654537D01*
X118119744Y-56609183D01*
X118188975Y-56599759D01*
X118252311Y-56629261D01*
X118271980Y-56651237D01*
X118341890Y-56751078D01*
X118508917Y-56918105D01*
X118702421Y-57053600D01*
X118916507Y-57153429D01*
X118916516Y-57153433D01*
X119130000Y-57210634D01*
X119130000Y-56315501D01*
X119237685Y-56364680D01*
X119344237Y-56380000D01*
X119415763Y-56380000D01*
X119522315Y-56364680D01*
X119630000Y-56315501D01*
X119630000Y-57210633D01*
X119843483Y-57153433D01*
X119843492Y-57153429D01*
X120057578Y-57053600D01*
X120251082Y-56918105D01*
X120418108Y-56751079D01*
X120488018Y-56651238D01*
X120542595Y-56607613D01*
X120612093Y-56600419D01*
X120674448Y-56631942D01*
X120693401Y-56654539D01*
X120753808Y-56746998D01*
X120771429Y-56773969D01*
X120934236Y-56950825D01*
X120934239Y-56950827D01*
X120934242Y-56950830D01*
X121123924Y-57098466D01*
X121123930Y-57098470D01*
X121123933Y-57098472D01*
X121335344Y-57212882D01*
X121335347Y-57212883D01*
X121562699Y-57290933D01*
X121562701Y-57290933D01*
X121562703Y-57290934D01*
X121799808Y-57330500D01*
X121799809Y-57330500D01*
X122040191Y-57330500D01*
X122040192Y-57330500D01*
X122277297Y-57290934D01*
X122504656Y-57212882D01*
X122716067Y-57098472D01*
X122905764Y-56950825D01*
X123068571Y-56773969D01*
X123086193Y-56746995D01*
X123139337Y-56701641D01*
X123208568Y-56692217D01*
X123271904Y-56721718D01*
X123293804Y-56746992D01*
X123311429Y-56773969D01*
X123474236Y-56950825D01*
X123474239Y-56950827D01*
X123474242Y-56950830D01*
X123663924Y-57098466D01*
X123663930Y-57098470D01*
X123663933Y-57098472D01*
X123875344Y-57212882D01*
X123875347Y-57212883D01*
X124102699Y-57290933D01*
X124102701Y-57290933D01*
X124102703Y-57290934D01*
X124339808Y-57330500D01*
X124339809Y-57330500D01*
X124580191Y-57330500D01*
X124580192Y-57330500D01*
X124817297Y-57290934D01*
X125044656Y-57212882D01*
X125256067Y-57098472D01*
X125445764Y-56950825D01*
X125608571Y-56773969D01*
X125626193Y-56746995D01*
X125679337Y-56701641D01*
X125748568Y-56692217D01*
X125811904Y-56721718D01*
X125833804Y-56746992D01*
X125851429Y-56773969D01*
X126014236Y-56950825D01*
X126014239Y-56950827D01*
X126014242Y-56950830D01*
X126203924Y-57098466D01*
X126203930Y-57098470D01*
X126203933Y-57098472D01*
X126415344Y-57212882D01*
X126415347Y-57212883D01*
X126642699Y-57290933D01*
X126642701Y-57290933D01*
X126642703Y-57290934D01*
X126879808Y-57330500D01*
X126879809Y-57330500D01*
X127120191Y-57330500D01*
X127120192Y-57330500D01*
X127357297Y-57290934D01*
X127584656Y-57212882D01*
X127796067Y-57098472D01*
X127985764Y-56950825D01*
X128148571Y-56773969D01*
X128166193Y-56746995D01*
X128219337Y-56701641D01*
X128288568Y-56692217D01*
X128351904Y-56721718D01*
X128373804Y-56746992D01*
X128391429Y-56773969D01*
X128554236Y-56950825D01*
X128554239Y-56950827D01*
X128554242Y-56950830D01*
X128743924Y-57098466D01*
X128743930Y-57098470D01*
X128743933Y-57098472D01*
X128955344Y-57212882D01*
X128955347Y-57212883D01*
X129182699Y-57290933D01*
X129182701Y-57290933D01*
X129182703Y-57290934D01*
X129419808Y-57330500D01*
X129419809Y-57330500D01*
X129660191Y-57330500D01*
X129660192Y-57330500D01*
X129897297Y-57290934D01*
X130124656Y-57212882D01*
X130336067Y-57098472D01*
X130525764Y-56950825D01*
X130688571Y-56773969D01*
X130766599Y-56654537D01*
X130819744Y-56609183D01*
X130888975Y-56599759D01*
X130952311Y-56629261D01*
X130971980Y-56651237D01*
X131041890Y-56751078D01*
X131208917Y-56918105D01*
X131402421Y-57053600D01*
X131616507Y-57153429D01*
X131616516Y-57153433D01*
X131830000Y-57210634D01*
X131830000Y-56315501D01*
X131937685Y-56364680D01*
X132044237Y-56380000D01*
X132115763Y-56380000D01*
X132222315Y-56364680D01*
X132330000Y-56315501D01*
X132330000Y-57210633D01*
X132543483Y-57153433D01*
X132543492Y-57153429D01*
X132757578Y-57053600D01*
X132951082Y-56918105D01*
X133118108Y-56751079D01*
X133188018Y-56651238D01*
X133242595Y-56607613D01*
X133312093Y-56600419D01*
X133374448Y-56631942D01*
X133393401Y-56654539D01*
X133453808Y-56746998D01*
X133471429Y-56773969D01*
X133634236Y-56950825D01*
X133634239Y-56950827D01*
X133634242Y-56950830D01*
X133823924Y-57098466D01*
X133823930Y-57098470D01*
X133823933Y-57098472D01*
X134035344Y-57212882D01*
X134035347Y-57212883D01*
X134262699Y-57290933D01*
X134262701Y-57290933D01*
X134262703Y-57290934D01*
X134499808Y-57330500D01*
X134499809Y-57330500D01*
X134740191Y-57330500D01*
X134740192Y-57330500D01*
X134977297Y-57290934D01*
X135204656Y-57212882D01*
X135416067Y-57098472D01*
X135605764Y-56950825D01*
X135768571Y-56773969D01*
X135786193Y-56746995D01*
X135839337Y-56701641D01*
X135908568Y-56692217D01*
X135971904Y-56721718D01*
X135993804Y-56746992D01*
X136011429Y-56773969D01*
X136174236Y-56950825D01*
X136174239Y-56950827D01*
X136174242Y-56950830D01*
X136363924Y-57098466D01*
X136363930Y-57098470D01*
X136363933Y-57098472D01*
X136575344Y-57212882D01*
X136575347Y-57212883D01*
X136802699Y-57290933D01*
X136802701Y-57290933D01*
X136802703Y-57290934D01*
X137039808Y-57330500D01*
X137039809Y-57330500D01*
X137280191Y-57330500D01*
X137280192Y-57330500D01*
X137517297Y-57290934D01*
X137744656Y-57212882D01*
X137956067Y-57098472D01*
X138145764Y-56950825D01*
X138308571Y-56773969D01*
X138326193Y-56746995D01*
X138379337Y-56701641D01*
X138448568Y-56692217D01*
X138511904Y-56721718D01*
X138533804Y-56746992D01*
X138551429Y-56773969D01*
X138714236Y-56950825D01*
X138714239Y-56950827D01*
X138714242Y-56950830D01*
X138903924Y-57098466D01*
X138903930Y-57098470D01*
X138903933Y-57098472D01*
X139115344Y-57212882D01*
X139115347Y-57212883D01*
X139342699Y-57290933D01*
X139342701Y-57290933D01*
X139342703Y-57290934D01*
X139579808Y-57330500D01*
X139579809Y-57330500D01*
X139820191Y-57330500D01*
X139820192Y-57330500D01*
X140057297Y-57290934D01*
X140284656Y-57212882D01*
X140496067Y-57098472D01*
X140685764Y-56950825D01*
X140848571Y-56773969D01*
X140866193Y-56746995D01*
X140919337Y-56701641D01*
X140988568Y-56692217D01*
X141051904Y-56721718D01*
X141073804Y-56746992D01*
X141091429Y-56773969D01*
X141254236Y-56950825D01*
X141254239Y-56950827D01*
X141254242Y-56950830D01*
X141443924Y-57098466D01*
X141443930Y-57098470D01*
X141443933Y-57098472D01*
X141655344Y-57212882D01*
X141655347Y-57212883D01*
X141882699Y-57290933D01*
X141882701Y-57290933D01*
X141882703Y-57290934D01*
X142119808Y-57330500D01*
X142119809Y-57330500D01*
X142360191Y-57330500D01*
X142360192Y-57330500D01*
X142597297Y-57290934D01*
X142824656Y-57212882D01*
X143036067Y-57098472D01*
X143225764Y-56950825D01*
X143388571Y-56773969D01*
X143466599Y-56654537D01*
X143519744Y-56609183D01*
X143588975Y-56599759D01*
X143652311Y-56629261D01*
X143671980Y-56651237D01*
X143741890Y-56751078D01*
X143908917Y-56918105D01*
X144102421Y-57053600D01*
X144316507Y-57153429D01*
X144316516Y-57153433D01*
X144530000Y-57210634D01*
X144530000Y-56315501D01*
X144637685Y-56364680D01*
X144744237Y-56380000D01*
X144815763Y-56380000D01*
X144922315Y-56364680D01*
X145030000Y-56315501D01*
X145030000Y-57210633D01*
X145243483Y-57153433D01*
X145243492Y-57153429D01*
X145457578Y-57053600D01*
X145651082Y-56918105D01*
X145818108Y-56751079D01*
X145888018Y-56651238D01*
X145942595Y-56607613D01*
X146012093Y-56600419D01*
X146074448Y-56631942D01*
X146093401Y-56654539D01*
X146153808Y-56746998D01*
X146171429Y-56773969D01*
X146334236Y-56950825D01*
X146334239Y-56950827D01*
X146334242Y-56950830D01*
X146523924Y-57098466D01*
X146523930Y-57098470D01*
X146523933Y-57098472D01*
X146735344Y-57212882D01*
X146735347Y-57212883D01*
X146962699Y-57290933D01*
X146962701Y-57290933D01*
X146962703Y-57290934D01*
X147199808Y-57330500D01*
X147199809Y-57330500D01*
X147440191Y-57330500D01*
X147440192Y-57330500D01*
X147677297Y-57290934D01*
X147904656Y-57212882D01*
X148116067Y-57098472D01*
X148305764Y-56950825D01*
X148468571Y-56773969D01*
X148486193Y-56746995D01*
X148539337Y-56701641D01*
X148608568Y-56692217D01*
X148671904Y-56721718D01*
X148693804Y-56746992D01*
X148711429Y-56773969D01*
X148874236Y-56950825D01*
X148874239Y-56950827D01*
X148874242Y-56950830D01*
X149063924Y-57098466D01*
X149063930Y-57098470D01*
X149063933Y-57098472D01*
X149275344Y-57212882D01*
X149275347Y-57212883D01*
X149502699Y-57290933D01*
X149502701Y-57290933D01*
X149502703Y-57290934D01*
X149739808Y-57330500D01*
X149739809Y-57330500D01*
X149980191Y-57330500D01*
X149980192Y-57330500D01*
X150217297Y-57290934D01*
X150444656Y-57212882D01*
X150656067Y-57098472D01*
X150845764Y-56950825D01*
X151008571Y-56773969D01*
X151026193Y-56746995D01*
X151079337Y-56701641D01*
X151148568Y-56692217D01*
X151211904Y-56721718D01*
X151233804Y-56746992D01*
X151251429Y-56773969D01*
X151414236Y-56950825D01*
X151414239Y-56950827D01*
X151414242Y-56950830D01*
X151603924Y-57098466D01*
X151603930Y-57098470D01*
X151603933Y-57098472D01*
X151815344Y-57212882D01*
X151815347Y-57212883D01*
X152042699Y-57290933D01*
X152042701Y-57290933D01*
X152042703Y-57290934D01*
X152279808Y-57330500D01*
X152279809Y-57330500D01*
X152520191Y-57330500D01*
X152520192Y-57330500D01*
X152757297Y-57290934D01*
X152984656Y-57212882D01*
X153196067Y-57098472D01*
X153385764Y-56950825D01*
X153548571Y-56773969D01*
X153566193Y-56746995D01*
X153619337Y-56701641D01*
X153688568Y-56692217D01*
X153751904Y-56721718D01*
X153773804Y-56746992D01*
X153791429Y-56773969D01*
X153954236Y-56950825D01*
X153954239Y-56950827D01*
X153954242Y-56950830D01*
X154143924Y-57098466D01*
X154143930Y-57098470D01*
X154143933Y-57098472D01*
X154355344Y-57212882D01*
X154355347Y-57212883D01*
X154582699Y-57290933D01*
X154582701Y-57290933D01*
X154582703Y-57290934D01*
X154819808Y-57330500D01*
X154819809Y-57330500D01*
X155060191Y-57330500D01*
X155060192Y-57330500D01*
X155297297Y-57290934D01*
X155524656Y-57212882D01*
X155736067Y-57098472D01*
X155925764Y-56950825D01*
X156088571Y-56773969D01*
X156166599Y-56654537D01*
X156219744Y-56609183D01*
X156288975Y-56599759D01*
X156352311Y-56629261D01*
X156371980Y-56651237D01*
X156441890Y-56751078D01*
X156608917Y-56918105D01*
X156802421Y-57053600D01*
X157016507Y-57153429D01*
X157016516Y-57153433D01*
X157230000Y-57210634D01*
X157230000Y-56315501D01*
X157337685Y-56364680D01*
X157444237Y-56380000D01*
X157515763Y-56380000D01*
X157622315Y-56364680D01*
X157730000Y-56315501D01*
X157730000Y-57210633D01*
X157943483Y-57153433D01*
X157943492Y-57153429D01*
X158157578Y-57053600D01*
X158351082Y-56918105D01*
X158518108Y-56751079D01*
X158588018Y-56651238D01*
X158642595Y-56607613D01*
X158712093Y-56600419D01*
X158774448Y-56631942D01*
X158793401Y-56654539D01*
X158853808Y-56746998D01*
X158871429Y-56773969D01*
X159034236Y-56950825D01*
X159034239Y-56950827D01*
X159034242Y-56950830D01*
X159223924Y-57098466D01*
X159223930Y-57098470D01*
X159223933Y-57098472D01*
X159435344Y-57212882D01*
X159435347Y-57212883D01*
X159662699Y-57290933D01*
X159662701Y-57290933D01*
X159662703Y-57290934D01*
X159899808Y-57330500D01*
X159899809Y-57330500D01*
X160140191Y-57330500D01*
X160140192Y-57330500D01*
X160377297Y-57290934D01*
X160604656Y-57212882D01*
X160816067Y-57098472D01*
X161005764Y-56950825D01*
X161168571Y-56773969D01*
X161186193Y-56746995D01*
X161239337Y-56701641D01*
X161308568Y-56692217D01*
X161371904Y-56721718D01*
X161393804Y-56746992D01*
X161411429Y-56773969D01*
X161574236Y-56950825D01*
X161574239Y-56950827D01*
X161574242Y-56950830D01*
X161763924Y-57098466D01*
X161763930Y-57098470D01*
X161763933Y-57098472D01*
X161975344Y-57212882D01*
X161975347Y-57212883D01*
X162202699Y-57290933D01*
X162202701Y-57290933D01*
X162202703Y-57290934D01*
X162439808Y-57330500D01*
X162439809Y-57330500D01*
X162680191Y-57330500D01*
X162680192Y-57330500D01*
X162917297Y-57290934D01*
X163144656Y-57212882D01*
X163356067Y-57098472D01*
X163545764Y-56950825D01*
X163708571Y-56773969D01*
X163840049Y-56572728D01*
X163936610Y-56352591D01*
X163995620Y-56119563D01*
X164015471Y-55880000D01*
X163995620Y-55640437D01*
X163936610Y-55407409D01*
X163840049Y-55187272D01*
X163829999Y-55171890D01*
X163723529Y-55008926D01*
X163708571Y-54986031D01*
X163545764Y-54809175D01*
X163545759Y-54809171D01*
X163545757Y-54809169D01*
X163356075Y-54661533D01*
X163356069Y-54661529D01*
X163144657Y-54547118D01*
X163144652Y-54547116D01*
X162917300Y-54469066D01*
X162739468Y-54439391D01*
X162680192Y-54429500D01*
X162439808Y-54429500D01*
X162392387Y-54437413D01*
X162202699Y-54469066D01*
X161975347Y-54547116D01*
X161975342Y-54547118D01*
X161763930Y-54661529D01*
X161763924Y-54661533D01*
X161574242Y-54809169D01*
X161574239Y-54809172D01*
X161574236Y-54809174D01*
X161574236Y-54809175D01*
X161544119Y-54841891D01*
X161411430Y-54986029D01*
X161411429Y-54986031D01*
X161393807Y-55013003D01*
X161340660Y-55058358D01*
X161271429Y-55067780D01*
X161208093Y-55038277D01*
X161186193Y-55013003D01*
X161183525Y-55008920D01*
X161168571Y-54986031D01*
X161005764Y-54809175D01*
X161005759Y-54809171D01*
X161005757Y-54809169D01*
X160816075Y-54661533D01*
X160816069Y-54661529D01*
X160604657Y-54547118D01*
X160604652Y-54547116D01*
X160377300Y-54469066D01*
X160199468Y-54439391D01*
X160140192Y-54429500D01*
X159899808Y-54429500D01*
X159852387Y-54437413D01*
X159662699Y-54469066D01*
X159435347Y-54547116D01*
X159435342Y-54547118D01*
X159223930Y-54661529D01*
X159223924Y-54661533D01*
X159034242Y-54809169D01*
X159034239Y-54809172D01*
X159034236Y-54809174D01*
X159034236Y-54809175D01*
X159004119Y-54841891D01*
X158871430Y-54986029D01*
X158871427Y-54986033D01*
X158793401Y-55105460D01*
X158740254Y-55150817D01*
X158671023Y-55160240D01*
X158607688Y-55130737D01*
X158588018Y-55108761D01*
X158518113Y-55008926D01*
X158518108Y-55008920D01*
X158351082Y-54841894D01*
X158157578Y-54706399D01*
X157943492Y-54606570D01*
X157943486Y-54606567D01*
X157730000Y-54549364D01*
X157730000Y-55444498D01*
X157622315Y-55395320D01*
X157515763Y-55380000D01*
X157444237Y-55380000D01*
X157337685Y-55395320D01*
X157230000Y-55444498D01*
X157230000Y-54549364D01*
X157229999Y-54549364D01*
X157016513Y-54606567D01*
X157016507Y-54606570D01*
X156802422Y-54706399D01*
X156802420Y-54706400D01*
X156608926Y-54841886D01*
X156608920Y-54841891D01*
X156441891Y-55008920D01*
X156441890Y-55008922D01*
X156371981Y-55108762D01*
X156317404Y-55152387D01*
X156247905Y-55159579D01*
X156185551Y-55128057D01*
X156166598Y-55105460D01*
X156088571Y-54986031D01*
X155925764Y-54809175D01*
X155925759Y-54809171D01*
X155925757Y-54809169D01*
X155736075Y-54661533D01*
X155736069Y-54661529D01*
X155524657Y-54547118D01*
X155524652Y-54547116D01*
X155297300Y-54469066D01*
X155119468Y-54439391D01*
X155060192Y-54429500D01*
X154819808Y-54429500D01*
X154772387Y-54437413D01*
X154582699Y-54469066D01*
X154355347Y-54547116D01*
X154355342Y-54547118D01*
X154143930Y-54661529D01*
X154143924Y-54661533D01*
X153954242Y-54809169D01*
X153954239Y-54809172D01*
X153954236Y-54809174D01*
X153954236Y-54809175D01*
X153924119Y-54841891D01*
X153791430Y-54986029D01*
X153791429Y-54986031D01*
X153773807Y-55013003D01*
X153720660Y-55058358D01*
X153651429Y-55067780D01*
X153588093Y-55038277D01*
X153566193Y-55013003D01*
X153563525Y-55008920D01*
X153548571Y-54986031D01*
X153385764Y-54809175D01*
X153385759Y-54809171D01*
X153385757Y-54809169D01*
X153196075Y-54661533D01*
X153196069Y-54661529D01*
X152984657Y-54547118D01*
X152984652Y-54547116D01*
X152757300Y-54469066D01*
X152579468Y-54439391D01*
X152520192Y-54429500D01*
X152279808Y-54429500D01*
X152232387Y-54437413D01*
X152042699Y-54469066D01*
X151815347Y-54547116D01*
X151815342Y-54547118D01*
X151603930Y-54661529D01*
X151603924Y-54661533D01*
X151414242Y-54809169D01*
X151414239Y-54809172D01*
X151414236Y-54809174D01*
X151414236Y-54809175D01*
X151384119Y-54841891D01*
X151251430Y-54986029D01*
X151251429Y-54986031D01*
X151233807Y-55013003D01*
X151180660Y-55058358D01*
X151111429Y-55067780D01*
X151048093Y-55038277D01*
X151026193Y-55013003D01*
X151023525Y-55008920D01*
X151008571Y-54986031D01*
X150845764Y-54809175D01*
X150845759Y-54809171D01*
X150845757Y-54809169D01*
X150656075Y-54661533D01*
X150656069Y-54661529D01*
X150444657Y-54547118D01*
X150444652Y-54547116D01*
X150217300Y-54469066D01*
X150039468Y-54439391D01*
X149980192Y-54429500D01*
X149739808Y-54429500D01*
X149692387Y-54437413D01*
X149502699Y-54469066D01*
X149275347Y-54547116D01*
X149275342Y-54547118D01*
X149063930Y-54661529D01*
X149063924Y-54661533D01*
X148874242Y-54809169D01*
X148874239Y-54809172D01*
X148874236Y-54809174D01*
X148874236Y-54809175D01*
X148844119Y-54841891D01*
X148711430Y-54986029D01*
X148711429Y-54986031D01*
X148693807Y-55013003D01*
X148640660Y-55058358D01*
X148571429Y-55067780D01*
X148508093Y-55038277D01*
X148486193Y-55013003D01*
X148483525Y-55008920D01*
X148468571Y-54986031D01*
X148305764Y-54809175D01*
X148305759Y-54809171D01*
X148305757Y-54809169D01*
X148116075Y-54661533D01*
X148116069Y-54661529D01*
X147904657Y-54547118D01*
X147904652Y-54547116D01*
X147677300Y-54469066D01*
X147499468Y-54439391D01*
X147440192Y-54429500D01*
X147199808Y-54429500D01*
X147152387Y-54437413D01*
X146962699Y-54469066D01*
X146735347Y-54547116D01*
X146735342Y-54547118D01*
X146523930Y-54661529D01*
X146523924Y-54661533D01*
X146334242Y-54809169D01*
X146334239Y-54809172D01*
X146334236Y-54809174D01*
X146334236Y-54809175D01*
X146304119Y-54841891D01*
X146171430Y-54986029D01*
X146171427Y-54986033D01*
X146093401Y-55105460D01*
X146040254Y-55150817D01*
X145971023Y-55160240D01*
X145907688Y-55130737D01*
X145888018Y-55108761D01*
X145818113Y-55008926D01*
X145818108Y-55008920D01*
X145651082Y-54841894D01*
X145457578Y-54706399D01*
X145243492Y-54606570D01*
X145243486Y-54606567D01*
X145030000Y-54549364D01*
X145030000Y-55444498D01*
X144922315Y-55395320D01*
X144815763Y-55380000D01*
X144744237Y-55380000D01*
X144637685Y-55395320D01*
X144530000Y-55444498D01*
X144530000Y-54549364D01*
X144529999Y-54549364D01*
X144316513Y-54606567D01*
X144316507Y-54606570D01*
X144102422Y-54706399D01*
X144102420Y-54706400D01*
X143908926Y-54841886D01*
X143908920Y-54841891D01*
X143741891Y-55008920D01*
X143741890Y-55008922D01*
X143671981Y-55108762D01*
X143617404Y-55152387D01*
X143547905Y-55159579D01*
X143485551Y-55128057D01*
X143466598Y-55105460D01*
X143388571Y-54986031D01*
X143225764Y-54809175D01*
X143225759Y-54809171D01*
X143225757Y-54809169D01*
X143036075Y-54661533D01*
X143036069Y-54661529D01*
X142824657Y-54547118D01*
X142824652Y-54547116D01*
X142597300Y-54469066D01*
X142419468Y-54439391D01*
X142360192Y-54429500D01*
X142119808Y-54429500D01*
X142072387Y-54437413D01*
X141882699Y-54469066D01*
X141655347Y-54547116D01*
X141655342Y-54547118D01*
X141443930Y-54661529D01*
X141443924Y-54661533D01*
X141254242Y-54809169D01*
X141254239Y-54809172D01*
X141254236Y-54809174D01*
X141254236Y-54809175D01*
X141224119Y-54841891D01*
X141091430Y-54986029D01*
X141091429Y-54986031D01*
X141073807Y-55013003D01*
X141020660Y-55058358D01*
X140951429Y-55067780D01*
X140888093Y-55038277D01*
X140866193Y-55013003D01*
X140863525Y-55008920D01*
X140848571Y-54986031D01*
X140685764Y-54809175D01*
X140685759Y-54809171D01*
X140685757Y-54809169D01*
X140496075Y-54661533D01*
X140496069Y-54661529D01*
X140284657Y-54547118D01*
X140284652Y-54547116D01*
X140057300Y-54469066D01*
X139879468Y-54439391D01*
X139820192Y-54429500D01*
X139579808Y-54429500D01*
X139532387Y-54437413D01*
X139342699Y-54469066D01*
X139115347Y-54547116D01*
X139115342Y-54547118D01*
X138903930Y-54661529D01*
X138903924Y-54661533D01*
X138714242Y-54809169D01*
X138714239Y-54809172D01*
X138714236Y-54809174D01*
X138714236Y-54809175D01*
X138684119Y-54841891D01*
X138551430Y-54986029D01*
X138551429Y-54986031D01*
X138533807Y-55013003D01*
X138480660Y-55058358D01*
X138411429Y-55067780D01*
X138348093Y-55038277D01*
X138326193Y-55013003D01*
X138323525Y-55008920D01*
X138308571Y-54986031D01*
X138145764Y-54809175D01*
X138145759Y-54809171D01*
X138145757Y-54809169D01*
X137956075Y-54661533D01*
X137956069Y-54661529D01*
X137744657Y-54547118D01*
X137744652Y-54547116D01*
X137517300Y-54469066D01*
X137339468Y-54439391D01*
X137280192Y-54429500D01*
X137039808Y-54429500D01*
X136992387Y-54437413D01*
X136802699Y-54469066D01*
X136575347Y-54547116D01*
X136575342Y-54547118D01*
X136363930Y-54661529D01*
X136363924Y-54661533D01*
X136174242Y-54809169D01*
X136174239Y-54809172D01*
X136174236Y-54809174D01*
X136174236Y-54809175D01*
X136144119Y-54841891D01*
X136011430Y-54986029D01*
X136011429Y-54986031D01*
X135993807Y-55013003D01*
X135940660Y-55058358D01*
X135871429Y-55067780D01*
X135808093Y-55038277D01*
X135786193Y-55013003D01*
X135783525Y-55008920D01*
X135768571Y-54986031D01*
X135605764Y-54809175D01*
X135605759Y-54809171D01*
X135605757Y-54809169D01*
X135416075Y-54661533D01*
X135416069Y-54661529D01*
X135204657Y-54547118D01*
X135204652Y-54547116D01*
X134977300Y-54469066D01*
X134799468Y-54439391D01*
X134740192Y-54429500D01*
X134499808Y-54429500D01*
X134452387Y-54437413D01*
X134262699Y-54469066D01*
X134035347Y-54547116D01*
X134035342Y-54547118D01*
X133823930Y-54661529D01*
X133823924Y-54661533D01*
X133634242Y-54809169D01*
X133634239Y-54809172D01*
X133634236Y-54809174D01*
X133634236Y-54809175D01*
X133604119Y-54841891D01*
X133471430Y-54986029D01*
X133471427Y-54986033D01*
X133393401Y-55105460D01*
X133340254Y-55150817D01*
X133271023Y-55160240D01*
X133207688Y-55130737D01*
X133188018Y-55108761D01*
X133118113Y-55008926D01*
X133118108Y-55008920D01*
X132951082Y-54841894D01*
X132757578Y-54706399D01*
X132543492Y-54606570D01*
X132543486Y-54606567D01*
X132330000Y-54549364D01*
X132330000Y-55444498D01*
X132222315Y-55395320D01*
X132115763Y-55380000D01*
X132044237Y-55380000D01*
X131937685Y-55395320D01*
X131830000Y-55444498D01*
X131830000Y-54549364D01*
X131829999Y-54549364D01*
X131616513Y-54606567D01*
X131616507Y-54606570D01*
X131402422Y-54706399D01*
X131402420Y-54706400D01*
X131208926Y-54841886D01*
X131208920Y-54841891D01*
X131041891Y-55008920D01*
X131041890Y-55008922D01*
X130971981Y-55108762D01*
X130917404Y-55152387D01*
X130847905Y-55159579D01*
X130785551Y-55128057D01*
X130766598Y-55105460D01*
X130688571Y-54986031D01*
X130525764Y-54809175D01*
X130525759Y-54809171D01*
X130525757Y-54809169D01*
X130336075Y-54661533D01*
X130336069Y-54661529D01*
X130124657Y-54547118D01*
X130124652Y-54547116D01*
X129897300Y-54469066D01*
X129719468Y-54439391D01*
X129660192Y-54429500D01*
X129419808Y-54429500D01*
X129372387Y-54437413D01*
X129182699Y-54469066D01*
X128955347Y-54547116D01*
X128955342Y-54547118D01*
X128743930Y-54661529D01*
X128743924Y-54661533D01*
X128554242Y-54809169D01*
X128554239Y-54809172D01*
X128554236Y-54809174D01*
X128554236Y-54809175D01*
X128524119Y-54841891D01*
X128391430Y-54986029D01*
X128391429Y-54986031D01*
X128373807Y-55013003D01*
X128320660Y-55058358D01*
X128251429Y-55067780D01*
X128188093Y-55038277D01*
X128166193Y-55013003D01*
X128163525Y-55008920D01*
X128148571Y-54986031D01*
X127985764Y-54809175D01*
X127985759Y-54809171D01*
X127985757Y-54809169D01*
X127796075Y-54661533D01*
X127796069Y-54661529D01*
X127584657Y-54547118D01*
X127584652Y-54547116D01*
X127357300Y-54469066D01*
X127179468Y-54439391D01*
X127120192Y-54429500D01*
X126879808Y-54429500D01*
X126832387Y-54437413D01*
X126642699Y-54469066D01*
X126415347Y-54547116D01*
X126415342Y-54547118D01*
X126203930Y-54661529D01*
X126203924Y-54661533D01*
X126014242Y-54809169D01*
X126014239Y-54809172D01*
X126014236Y-54809174D01*
X126014236Y-54809175D01*
X125984119Y-54841891D01*
X125851430Y-54986029D01*
X125851429Y-54986031D01*
X125833807Y-55013003D01*
X125780660Y-55058358D01*
X125711429Y-55067780D01*
X125648093Y-55038277D01*
X125626193Y-55013003D01*
X125623525Y-55008920D01*
X125608571Y-54986031D01*
X125445764Y-54809175D01*
X125445759Y-54809171D01*
X125445757Y-54809169D01*
X125256075Y-54661533D01*
X125256069Y-54661529D01*
X125044657Y-54547118D01*
X125044652Y-54547116D01*
X124817300Y-54469066D01*
X124639468Y-54439391D01*
X124580192Y-54429500D01*
X124339808Y-54429500D01*
X124292387Y-54437413D01*
X124102699Y-54469066D01*
X123875347Y-54547116D01*
X123875342Y-54547118D01*
X123663930Y-54661529D01*
X123663924Y-54661533D01*
X123474242Y-54809169D01*
X123474239Y-54809172D01*
X123474236Y-54809174D01*
X123474236Y-54809175D01*
X123444119Y-54841891D01*
X123311430Y-54986029D01*
X123311429Y-54986031D01*
X123293807Y-55013003D01*
X123240660Y-55058358D01*
X123171429Y-55067780D01*
X123108093Y-55038277D01*
X123086193Y-55013003D01*
X123083525Y-55008920D01*
X123068571Y-54986031D01*
X122905764Y-54809175D01*
X122905759Y-54809171D01*
X122905757Y-54809169D01*
X122716075Y-54661533D01*
X122716069Y-54661529D01*
X122504657Y-54547118D01*
X122504652Y-54547116D01*
X122277300Y-54469066D01*
X122099468Y-54439391D01*
X122040192Y-54429500D01*
X121799808Y-54429500D01*
X121752387Y-54437413D01*
X121562699Y-54469066D01*
X121335347Y-54547116D01*
X121335342Y-54547118D01*
X121123930Y-54661529D01*
X121123924Y-54661533D01*
X120934242Y-54809169D01*
X120934239Y-54809172D01*
X120934236Y-54809174D01*
X120934236Y-54809175D01*
X120904119Y-54841891D01*
X120771430Y-54986029D01*
X120771427Y-54986033D01*
X120693401Y-55105460D01*
X120640254Y-55150817D01*
X120571023Y-55160240D01*
X120507688Y-55130737D01*
X120488018Y-55108761D01*
X120418113Y-55008926D01*
X120418108Y-55008920D01*
X120251082Y-54841894D01*
X120057578Y-54706399D01*
X119843492Y-54606570D01*
X119843486Y-54606567D01*
X119630000Y-54549364D01*
X119630000Y-55444498D01*
X119522315Y-55395320D01*
X119415763Y-55380000D01*
X119344237Y-55380000D01*
X119237685Y-55395320D01*
X119130000Y-55444498D01*
X119130000Y-54549364D01*
X119129999Y-54549364D01*
X118916513Y-54606567D01*
X118916507Y-54606570D01*
X118702422Y-54706399D01*
X118702420Y-54706400D01*
X118508926Y-54841886D01*
X118508920Y-54841891D01*
X118341891Y-55008920D01*
X118341890Y-55008922D01*
X118271981Y-55108762D01*
X118217404Y-55152387D01*
X118147905Y-55159579D01*
X118085551Y-55128057D01*
X118066598Y-55105460D01*
X117988571Y-54986031D01*
X117825764Y-54809175D01*
X117825759Y-54809171D01*
X117825757Y-54809169D01*
X117636075Y-54661533D01*
X117636069Y-54661529D01*
X117424657Y-54547118D01*
X117424652Y-54547116D01*
X117197300Y-54469066D01*
X117019468Y-54439391D01*
X116960192Y-54429500D01*
X116719808Y-54429500D01*
X116672387Y-54437413D01*
X116482699Y-54469066D01*
X116255347Y-54547116D01*
X116255342Y-54547118D01*
X116043930Y-54661529D01*
X116043924Y-54661533D01*
X115872474Y-54794979D01*
X115807480Y-54820622D01*
X115738940Y-54807056D01*
X115688616Y-54758587D01*
X115681755Y-54744587D01*
X115674536Y-54727159D01*
X115578282Y-54601718D01*
X115452841Y-54505464D01*
X115306762Y-54444956D01*
X115306760Y-54444955D01*
X115189370Y-54429501D01*
X115189367Y-54429500D01*
X115189361Y-54429500D01*
X115189354Y-54429500D01*
X113410636Y-54429500D01*
X113293246Y-54444953D01*
X113293237Y-54444956D01*
X113147160Y-54505463D01*
X113021718Y-54601718D01*
X112925463Y-54727160D01*
X112864956Y-54873237D01*
X112864955Y-54873239D01*
X112849501Y-54990629D01*
X112849500Y-54990645D01*
X112849500Y-56769363D01*
X108578500Y-56769363D01*
X108578500Y-50221579D01*
X108598185Y-50154540D01*
X108650989Y-50108785D01*
X108720147Y-50098841D01*
X108783703Y-50127866D01*
X108820991Y-50185029D01*
X108855938Y-50298326D01*
X108969767Y-50534696D01*
X108969768Y-50534697D01*
X108969770Y-50534700D01*
X108969772Y-50534704D01*
X109117567Y-50751479D01*
X109296014Y-50943801D01*
X109296018Y-50943804D01*
X109296019Y-50943805D01*
X109501143Y-51107386D01*
X109728357Y-51238568D01*
X109972584Y-51334420D01*
X110228370Y-51392802D01*
X110228376Y-51392802D01*
X110228379Y-51392803D01*
X110424484Y-51407499D01*
X110424503Y-51407499D01*
X110424506Y-51407500D01*
X110424508Y-51407500D01*
X110555492Y-51407500D01*
X110555494Y-51407500D01*
X110555496Y-51407499D01*
X110555515Y-51407499D01*
X110751620Y-51392803D01*
X110751622Y-51392802D01*
X110751630Y-51392802D01*
X111007416Y-51334420D01*
X111251643Y-51238568D01*
X111478857Y-51107386D01*
X111683981Y-50943805D01*
X111862433Y-50751479D01*
X112010228Y-50534704D01*
X112124063Y-50298323D01*
X112201396Y-50047615D01*
X112240500Y-49788182D01*
X112240500Y-49525818D01*
X112201396Y-49266385D01*
X112124063Y-49015677D01*
X112067000Y-48897184D01*
X112010232Y-48779303D01*
X112010231Y-48779302D01*
X112010230Y-48779300D01*
X112010228Y-48779296D01*
X111862433Y-48562521D01*
X111852441Y-48551753D01*
X111683985Y-48370198D01*
X111644533Y-48338736D01*
X111478857Y-48206614D01*
X111344230Y-48128887D01*
X111296014Y-48078320D01*
X111282791Y-48009713D01*
X111308760Y-47944848D01*
X111365674Y-47904320D01*
X111406230Y-47897500D01*
X162659770Y-47897500D01*
X162726809Y-47917185D01*
G37*
%TD.AperFunction*%
%TD*%
M02*
