M48
; DRILL file {KiCad 7.0.10} date Wed Apr  3 14:27:53 2024
; FORMAT={-:-/ absolute / metric / decimal}
; #@! TF.CreationDate,2024-04-03T14:27:53+05:30
; #@! TF.GenerationSoftware,Kicad,Pcbnew,7.0.10
; #@! TF.FileFunction,MixedPlating,1,2
FMAT,2
METRIC
; #@! TA.AperFunction,Plated,PTH,ViaDrill
T1C0.700
; #@! TA.AperFunction,Plated,PTH,ComponentDrill
T2C0.800
; #@! TA.AperFunction,Plated,PTH,ComponentDrill
T3C1.000
; #@! TA.AperFunction,Plated,PTH,ComponentDrill
T4C1.100
; #@! TA.AperFunction,NonPlated,NPTH,ComponentDrill
T5C2.500
%
G90
G05
T1
X109.22Y-85.598
X109.22Y-96.52
X109.22Y-99.06
X109.22Y-101.6
X109.22Y-104.14
X109.22Y-106.68
X109.22Y-109.22
X109.22Y-111.76
X109.22Y-114.3
X109.22Y-116.84
X109.22Y-119.38
X109.474Y-93.472
X109.728Y-79.502
X109.728Y-83.312
X109.982Y-89.662
X109.982Y-91.694
X110.49Y-87.63
X110.998Y-85.598
X110.998Y-94.742
X111.76Y-96.52
X111.76Y-99.06
X111.76Y-101.6
X111.76Y-104.14
X111.76Y-106.68
X111.76Y-109.22
X111.76Y-111.76
X111.76Y-114.3
X111.76Y-116.84
X111.76Y-119.38
X112.522Y-53.594
X113.538Y-83.312
X113.77Y-114.18
X113.792Y-110.998
X114.046Y-58.42
X114.046Y-60.96
X114.3Y-98.609
X114.3Y-101.149
X114.3Y-106.68
X114.3Y-116.84
X114.3Y-119.38
X114.377Y-86.164
X114.554Y-79.756
X114.554Y-81.788
X114.808Y-65.786
X114.808Y-68.326
X114.808Y-70.866
X114.808Y-104.14
X114.96Y-108.25
X116.84Y-58.42
X116.84Y-60.96
X116.84Y-76.2
X116.84Y-119.38
X118.4Y-84.48
X118.6Y-107.2
X119.377Y-101.589
X119.38Y-66.04
X119.38Y-68.58
X119.38Y-71.12
X119.38Y-76.2
X119.38Y-119.38
X120.65Y-95.25
X120.677Y-99.589
X120.877Y-97.289
X121.92Y-58.42
X121.92Y-60.96
X121.92Y-119.38
X123.077Y-108.189
X123.19Y-82.804
X123.19Y-106.426
X123.19Y-111.0
X123.19Y-114.808
X123.277Y-86.289
X124.206Y-88.9
X124.46Y-66.04
X124.46Y-68.58
X124.46Y-71.12
X125.277Y-93.789
X127.0Y-58.42
X127.0Y-60.96
X127.02Y-88.86
X128.01Y-82.52
X128.016Y-106.426
X128.92Y-96.48
X129.13Y-99.22
X129.54Y-66.04
X129.54Y-68.58
X129.54Y-71.12
X130.556Y-109.474
X130.556Y-111.506
X130.81Y-58.42
X130.81Y-60.96
X130.877Y-88.449
X132.334Y-87.376
X133.35Y-66.04
X133.35Y-68.58
X133.35Y-71.12
X133.7Y-119.4
X134.62Y-58.42
X134.62Y-60.96
X134.673Y-126.758
X134.8Y-178.955
X134.8Y-181.495
X135.53Y-95.39
X135.957Y-98.609
X135.97Y-102.01
X136.705Y-180.733
X136.832Y-183.273
X137.16Y-66.04
X137.16Y-68.58
X137.16Y-71.12
X137.213Y-124.98
X137.414Y-106.426
X137.755Y-131.415
X138.43Y-60.96
X138.49Y-101.22
X138.497Y-96.069
X138.61Y-99.02
X138.684Y-119.38
X139.7Y-58.42
X140.208Y-117.094
X140.462Y-106.489
X140.83Y-111.94
X141.037Y-96.069
X141.037Y-98.609
X141.037Y-101.149
X142.24Y-60.96
X142.24Y-66.04
X142.24Y-68.58
X142.24Y-71.12
X142.494Y-117.348
X143.577Y-96.069
X143.577Y-98.609
X143.577Y-101.149
X144.78Y-58.42
X144.78Y-77.47
X144.78Y-119.38
X146.05Y-60.96
X146.117Y-98.609
X146.117Y-101.149
X147.32Y-66.04
X147.32Y-68.58
X147.32Y-71.12
X147.32Y-76.2
X147.32Y-96.52
X147.32Y-119.38
X148.59Y-58.42
X148.657Y-98.609
X148.657Y-101.149
X148.844Y-83.312
X149.69Y-94.37
X149.86Y-87.63
X149.86Y-96.52
X150.977Y-118.489
X151.13Y-66.04
X151.13Y-68.58
X151.13Y-71.12
X151.197Y-98.609
X151.197Y-101.149
X152.4Y-58.42
X152.4Y-60.96
X152.4Y-76.2
X152.4Y-81.28
X152.4Y-83.82
X152.4Y-86.36
X152.4Y-96.52
X152.908Y-110.49
X153.416Y-116.332
X153.737Y-98.609
X153.924Y-106.934
X154.94Y-66.04
X154.94Y-68.58
X154.94Y-70.866
X154.94Y-78.74
X154.94Y-87.63
X155.448Y-82.042
X156.1Y-60.7
X156.21Y-76.2
X156.4Y-58.4
X156.9Y-78.8
X157.226Y-85.344
X157.48Y-66.04
X157.48Y-68.326
X157.48Y-70.866
X158.75Y-81.788
X159.512Y-89.154
X159.512Y-92.202
X159.512Y-97.536
X160.02Y-66.04
X160.02Y-68.072
X160.02Y-70.612
X160.02Y-83.82
X161.29Y-86.36
X162.56Y-91.44
X162.56Y-93.98
X162.56Y-96.52
X162.56Y-99.06
X162.56Y-111.76
X162.56Y-114.3
X162.56Y-116.84
X162.56Y-119.38
X162.814Y-66.802
X162.814Y-69.342
X162.814Y-105.918
X162.814Y-108.966
X163.83Y-76.2
X163.83Y-88.9
T2
X144.597Y-113.789
X149.477Y-113.789
X156.337Y-107.689
X156.337Y-115.309
X158.877Y-107.689
X158.877Y-115.309
T3
X112.205Y-81.205
X113.03Y-77.47
X114.25Y-73.63
X114.3Y-55.88
X116.79Y-73.63
X116.84Y-55.88
X116.905Y-79.525
X117.98Y-96.474
X117.98Y-99.014
X118.0Y-104.044
X118.05Y-91.37
X119.33Y-73.63
X119.38Y-55.88
X120.54Y-104.044
X120.59Y-91.37
X121.87Y-73.63
X121.92Y-55.88
X123.08Y-104.044
X123.13Y-91.37
X124.41Y-73.63
X124.46Y-55.88
X125.62Y-104.044
X125.67Y-91.37
X126.95Y-73.63
X127.0Y-55.88
X128.16Y-104.044
X128.21Y-91.37
X129.49Y-73.63
X129.54Y-55.88
X130.7Y-104.044
X130.75Y-91.37
X132.03Y-73.63
X132.08Y-55.88
X133.24Y-104.044
X133.29Y-91.37
X134.57Y-73.63
X134.62Y-55.88
X135.78Y-104.044
X135.83Y-91.37
X137.11Y-73.63
X137.16Y-55.88
X138.21Y-83.92
X138.21Y-86.46
X138.32Y-104.044
X138.37Y-91.37
X139.65Y-73.63
X139.7Y-55.88
X140.75Y-83.92
X140.75Y-86.46
X140.86Y-104.044
X140.91Y-91.37
X142.19Y-73.63
X142.24Y-55.88
X143.29Y-83.92
X143.29Y-86.46
X143.4Y-104.044
X143.45Y-91.37
X144.73Y-73.63
X144.78Y-55.88
X145.83Y-83.92
X145.83Y-86.46
X145.94Y-104.044
X145.99Y-91.37
X147.27Y-73.63
X147.32Y-55.88
X148.48Y-104.044
X148.53Y-91.37
X149.657Y-78.537
X149.81Y-73.63
X149.86Y-55.88
X151.02Y-104.044
X151.07Y-91.37
X152.35Y-73.63
X152.4Y-55.88
X153.56Y-104.044
X153.61Y-91.37
X154.89Y-73.63
X154.94Y-55.88
X156.1Y-104.044
X156.15Y-91.37
X157.43Y-73.63
X157.48Y-55.88
X159.97Y-73.63
X160.0Y-78.0
X160.02Y-55.88
X160.2Y-59.9
X160.2Y-62.44
X162.51Y-73.63
X162.56Y-55.88
X162.74Y-59.9
X162.74Y-62.44
X163.3Y-84.4
T4
X141.84Y-63.5
X152.0Y-63.5
T5
X110.49Y-49.657
X110.5Y-182.5
X163.449Y-182.5
X163.576Y-49.657
M30
