%TF.GenerationSoftware,KiCad,Pcbnew,7.0.10*%
%TF.CreationDate,2024-04-03T14:27:39+05:30*%
%TF.ProjectId,PN532,504e3533-322e-46b6-9963-61645f706362,rev?*%
%TF.SameCoordinates,Original*%
%TF.FileFunction,Legend,Top*%
%TF.FilePolarity,Positive*%
%FSLAX46Y46*%
G04 Gerber Fmt 4.6, Leading zero omitted, Abs format (unit mm)*
G04 Created by KiCad (PCBNEW 7.0.10) date 2024-04-03 14:27:39*
%MOMM*%
%LPD*%
G01*
G04 APERTURE LIST*
%ADD10C,0.300000*%
%ADD11C,0.200000*%
%ADD12C,0.120000*%
G04 APERTURE END LIST*
D10*
X124926510Y-48971828D02*
X125783653Y-48971828D01*
X125355081Y-50471828D02*
X125355081Y-48971828D01*
X126283652Y-48971828D02*
X126283652Y-50186114D01*
X126283652Y-50186114D02*
X126355081Y-50328971D01*
X126355081Y-50328971D02*
X126426510Y-50400400D01*
X126426510Y-50400400D02*
X126569367Y-50471828D01*
X126569367Y-50471828D02*
X126855081Y-50471828D01*
X126855081Y-50471828D02*
X126997938Y-50400400D01*
X126997938Y-50400400D02*
X127069367Y-50328971D01*
X127069367Y-50328971D02*
X127140795Y-50186114D01*
X127140795Y-50186114D02*
X127140795Y-48971828D01*
X127855081Y-49686114D02*
X128355081Y-49686114D01*
X128569367Y-50471828D02*
X127855081Y-50471828D01*
X127855081Y-50471828D02*
X127855081Y-48971828D01*
X127855081Y-48971828D02*
X128569367Y-48971828D01*
X129212224Y-49900400D02*
X130355082Y-49900400D01*
X131355082Y-48971828D02*
X131497939Y-48971828D01*
X131497939Y-48971828D02*
X131640796Y-49043257D01*
X131640796Y-49043257D02*
X131712225Y-49114685D01*
X131712225Y-49114685D02*
X131783653Y-49257542D01*
X131783653Y-49257542D02*
X131855082Y-49543257D01*
X131855082Y-49543257D02*
X131855082Y-49900400D01*
X131855082Y-49900400D02*
X131783653Y-50186114D01*
X131783653Y-50186114D02*
X131712225Y-50328971D01*
X131712225Y-50328971D02*
X131640796Y-50400400D01*
X131640796Y-50400400D02*
X131497939Y-50471828D01*
X131497939Y-50471828D02*
X131355082Y-50471828D01*
X131355082Y-50471828D02*
X131212225Y-50400400D01*
X131212225Y-50400400D02*
X131140796Y-50328971D01*
X131140796Y-50328971D02*
X131069367Y-50186114D01*
X131069367Y-50186114D02*
X130997939Y-49900400D01*
X130997939Y-49900400D02*
X130997939Y-49543257D01*
X130997939Y-49543257D02*
X131069367Y-49257542D01*
X131069367Y-49257542D02*
X131140796Y-49114685D01*
X131140796Y-49114685D02*
X131212225Y-49043257D01*
X131212225Y-49043257D02*
X131355082Y-48971828D01*
X132426510Y-49114685D02*
X132497938Y-49043257D01*
X132497938Y-49043257D02*
X132640796Y-48971828D01*
X132640796Y-48971828D02*
X132997938Y-48971828D01*
X132997938Y-48971828D02*
X133140796Y-49043257D01*
X133140796Y-49043257D02*
X133212224Y-49114685D01*
X133212224Y-49114685D02*
X133283653Y-49257542D01*
X133283653Y-49257542D02*
X133283653Y-49400400D01*
X133283653Y-49400400D02*
X133212224Y-49614685D01*
X133212224Y-49614685D02*
X132355081Y-50471828D01*
X132355081Y-50471828D02*
X133283653Y-50471828D01*
X135926509Y-50471828D02*
X135426509Y-49757542D01*
X135069366Y-50471828D02*
X135069366Y-48971828D01*
X135069366Y-48971828D02*
X135640795Y-48971828D01*
X135640795Y-48971828D02*
X135783652Y-49043257D01*
X135783652Y-49043257D02*
X135855081Y-49114685D01*
X135855081Y-49114685D02*
X135926509Y-49257542D01*
X135926509Y-49257542D02*
X135926509Y-49471828D01*
X135926509Y-49471828D02*
X135855081Y-49614685D01*
X135855081Y-49614685D02*
X135783652Y-49686114D01*
X135783652Y-49686114D02*
X135640795Y-49757542D01*
X135640795Y-49757542D02*
X135069366Y-49757542D01*
X137069366Y-49686114D02*
X136569366Y-49686114D01*
X136569366Y-50471828D02*
X136569366Y-48971828D01*
X136569366Y-48971828D02*
X137283652Y-48971828D01*
X137855080Y-50471828D02*
X137855080Y-48971828D01*
X138569366Y-50471828D02*
X138569366Y-48971828D01*
X138569366Y-48971828D02*
X138926509Y-48971828D01*
X138926509Y-48971828D02*
X139140795Y-49043257D01*
X139140795Y-49043257D02*
X139283652Y-49186114D01*
X139283652Y-49186114D02*
X139355081Y-49328971D01*
X139355081Y-49328971D02*
X139426509Y-49614685D01*
X139426509Y-49614685D02*
X139426509Y-49828971D01*
X139426509Y-49828971D02*
X139355081Y-50114685D01*
X139355081Y-50114685D02*
X139283652Y-50257542D01*
X139283652Y-50257542D02*
X139140795Y-50400400D01*
X139140795Y-50400400D02*
X138926509Y-50471828D01*
X138926509Y-50471828D02*
X138569366Y-50471828D01*
X142069366Y-50471828D02*
X141569366Y-49757542D01*
X141212223Y-50471828D02*
X141212223Y-48971828D01*
X141212223Y-48971828D02*
X141783652Y-48971828D01*
X141783652Y-48971828D02*
X141926509Y-49043257D01*
X141926509Y-49043257D02*
X141997938Y-49114685D01*
X141997938Y-49114685D02*
X142069366Y-49257542D01*
X142069366Y-49257542D02*
X142069366Y-49471828D01*
X142069366Y-49471828D02*
X141997938Y-49614685D01*
X141997938Y-49614685D02*
X141926509Y-49686114D01*
X141926509Y-49686114D02*
X141783652Y-49757542D01*
X141783652Y-49757542D02*
X141212223Y-49757542D01*
X143283652Y-50400400D02*
X143140795Y-50471828D01*
X143140795Y-50471828D02*
X142855081Y-50471828D01*
X142855081Y-50471828D02*
X142712223Y-50400400D01*
X142712223Y-50400400D02*
X142640795Y-50257542D01*
X142640795Y-50257542D02*
X142640795Y-49686114D01*
X142640795Y-49686114D02*
X142712223Y-49543257D01*
X142712223Y-49543257D02*
X142855081Y-49471828D01*
X142855081Y-49471828D02*
X143140795Y-49471828D01*
X143140795Y-49471828D02*
X143283652Y-49543257D01*
X143283652Y-49543257D02*
X143355081Y-49686114D01*
X143355081Y-49686114D02*
X143355081Y-49828971D01*
X143355081Y-49828971D02*
X142640795Y-49971828D01*
X144640795Y-50471828D02*
X144640795Y-49686114D01*
X144640795Y-49686114D02*
X144569366Y-49543257D01*
X144569366Y-49543257D02*
X144426509Y-49471828D01*
X144426509Y-49471828D02*
X144140795Y-49471828D01*
X144140795Y-49471828D02*
X143997937Y-49543257D01*
X144640795Y-50400400D02*
X144497937Y-50471828D01*
X144497937Y-50471828D02*
X144140795Y-50471828D01*
X144140795Y-50471828D02*
X143997937Y-50400400D01*
X143997937Y-50400400D02*
X143926509Y-50257542D01*
X143926509Y-50257542D02*
X143926509Y-50114685D01*
X143926509Y-50114685D02*
X143997937Y-49971828D01*
X143997937Y-49971828D02*
X144140795Y-49900400D01*
X144140795Y-49900400D02*
X144497937Y-49900400D01*
X144497937Y-49900400D02*
X144640795Y-49828971D01*
X145997938Y-50471828D02*
X145997938Y-48971828D01*
X145997938Y-50400400D02*
X145855080Y-50471828D01*
X145855080Y-50471828D02*
X145569366Y-50471828D01*
X145569366Y-50471828D02*
X145426509Y-50400400D01*
X145426509Y-50400400D02*
X145355080Y-50328971D01*
X145355080Y-50328971D02*
X145283652Y-50186114D01*
X145283652Y-50186114D02*
X145283652Y-49757542D01*
X145283652Y-49757542D02*
X145355080Y-49614685D01*
X145355080Y-49614685D02*
X145426509Y-49543257D01*
X145426509Y-49543257D02*
X145569366Y-49471828D01*
X145569366Y-49471828D02*
X145855080Y-49471828D01*
X145855080Y-49471828D02*
X145997938Y-49543257D01*
X147283652Y-50400400D02*
X147140795Y-50471828D01*
X147140795Y-50471828D02*
X146855081Y-50471828D01*
X146855081Y-50471828D02*
X146712223Y-50400400D01*
X146712223Y-50400400D02*
X146640795Y-50257542D01*
X146640795Y-50257542D02*
X146640795Y-49686114D01*
X146640795Y-49686114D02*
X146712223Y-49543257D01*
X146712223Y-49543257D02*
X146855081Y-49471828D01*
X146855081Y-49471828D02*
X147140795Y-49471828D01*
X147140795Y-49471828D02*
X147283652Y-49543257D01*
X147283652Y-49543257D02*
X147355081Y-49686114D01*
X147355081Y-49686114D02*
X147355081Y-49828971D01*
X147355081Y-49828971D02*
X146640795Y-49971828D01*
X147997937Y-50471828D02*
X147997937Y-49471828D01*
X147997937Y-49757542D02*
X148069366Y-49614685D01*
X148069366Y-49614685D02*
X148140795Y-49543257D01*
X148140795Y-49543257D02*
X148283652Y-49471828D01*
X148283652Y-49471828D02*
X148426509Y-49471828D01*
X119712225Y-51386828D02*
X119997939Y-51386828D01*
X119997939Y-51386828D02*
X120140796Y-51458257D01*
X120140796Y-51458257D02*
X120283653Y-51601114D01*
X120283653Y-51601114D02*
X120355082Y-51886828D01*
X120355082Y-51886828D02*
X120355082Y-52386828D01*
X120355082Y-52386828D02*
X120283653Y-52672542D01*
X120283653Y-52672542D02*
X120140796Y-52815400D01*
X120140796Y-52815400D02*
X119997939Y-52886828D01*
X119997939Y-52886828D02*
X119712225Y-52886828D01*
X119712225Y-52886828D02*
X119569368Y-52815400D01*
X119569368Y-52815400D02*
X119426510Y-52672542D01*
X119426510Y-52672542D02*
X119355082Y-52386828D01*
X119355082Y-52386828D02*
X119355082Y-51886828D01*
X119355082Y-51886828D02*
X119426510Y-51601114D01*
X119426510Y-51601114D02*
X119569368Y-51458257D01*
X119569368Y-51458257D02*
X119712225Y-51386828D01*
X120997939Y-52886828D02*
X120997939Y-51886828D01*
X120997939Y-52029685D02*
X121069368Y-51958257D01*
X121069368Y-51958257D02*
X121212225Y-51886828D01*
X121212225Y-51886828D02*
X121426511Y-51886828D01*
X121426511Y-51886828D02*
X121569368Y-51958257D01*
X121569368Y-51958257D02*
X121640797Y-52101114D01*
X121640797Y-52101114D02*
X121640797Y-52886828D01*
X121640797Y-52101114D02*
X121712225Y-51958257D01*
X121712225Y-51958257D02*
X121855082Y-51886828D01*
X121855082Y-51886828D02*
X122069368Y-51886828D01*
X122069368Y-51886828D02*
X122212225Y-51958257D01*
X122212225Y-51958257D02*
X122283654Y-52101114D01*
X122283654Y-52101114D02*
X122283654Y-52886828D01*
X124069368Y-52815400D02*
X124283654Y-52886828D01*
X124283654Y-52886828D02*
X124640796Y-52886828D01*
X124640796Y-52886828D02*
X124783654Y-52815400D01*
X124783654Y-52815400D02*
X124855082Y-52743971D01*
X124855082Y-52743971D02*
X124926511Y-52601114D01*
X124926511Y-52601114D02*
X124926511Y-52458257D01*
X124926511Y-52458257D02*
X124855082Y-52315400D01*
X124855082Y-52315400D02*
X124783654Y-52243971D01*
X124783654Y-52243971D02*
X124640796Y-52172542D01*
X124640796Y-52172542D02*
X124355082Y-52101114D01*
X124355082Y-52101114D02*
X124212225Y-52029685D01*
X124212225Y-52029685D02*
X124140796Y-51958257D01*
X124140796Y-51958257D02*
X124069368Y-51815400D01*
X124069368Y-51815400D02*
X124069368Y-51672542D01*
X124069368Y-51672542D02*
X124140796Y-51529685D01*
X124140796Y-51529685D02*
X124212225Y-51458257D01*
X124212225Y-51458257D02*
X124355082Y-51386828D01*
X124355082Y-51386828D02*
X124712225Y-51386828D01*
X124712225Y-51386828D02*
X124926511Y-51458257D01*
X126212225Y-52886828D02*
X126212225Y-52101114D01*
X126212225Y-52101114D02*
X126140796Y-51958257D01*
X126140796Y-51958257D02*
X125997939Y-51886828D01*
X125997939Y-51886828D02*
X125712225Y-51886828D01*
X125712225Y-51886828D02*
X125569367Y-51958257D01*
X126212225Y-52815400D02*
X126069367Y-52886828D01*
X126069367Y-52886828D02*
X125712225Y-52886828D01*
X125712225Y-52886828D02*
X125569367Y-52815400D01*
X125569367Y-52815400D02*
X125497939Y-52672542D01*
X125497939Y-52672542D02*
X125497939Y-52529685D01*
X125497939Y-52529685D02*
X125569367Y-52386828D01*
X125569367Y-52386828D02*
X125712225Y-52315400D01*
X125712225Y-52315400D02*
X126069367Y-52315400D01*
X126069367Y-52315400D02*
X126212225Y-52243971D01*
X127569368Y-51886828D02*
X127569368Y-52886828D01*
X126926510Y-51886828D02*
X126926510Y-52672542D01*
X126926510Y-52672542D02*
X126997939Y-52815400D01*
X126997939Y-52815400D02*
X127140796Y-52886828D01*
X127140796Y-52886828D02*
X127355082Y-52886828D01*
X127355082Y-52886828D02*
X127497939Y-52815400D01*
X127497939Y-52815400D02*
X127569368Y-52743971D01*
X128283653Y-52886828D02*
X128283653Y-51886828D01*
X128283653Y-52029685D02*
X128355082Y-51958257D01*
X128355082Y-51958257D02*
X128497939Y-51886828D01*
X128497939Y-51886828D02*
X128712225Y-51886828D01*
X128712225Y-51886828D02*
X128855082Y-51958257D01*
X128855082Y-51958257D02*
X128926511Y-52101114D01*
X128926511Y-52101114D02*
X128926511Y-52886828D01*
X128926511Y-52101114D02*
X128997939Y-51958257D01*
X128997939Y-51958257D02*
X129140796Y-51886828D01*
X129140796Y-51886828D02*
X129355082Y-51886828D01*
X129355082Y-51886828D02*
X129497939Y-51958257D01*
X129497939Y-51958257D02*
X129569368Y-52101114D01*
X129569368Y-52101114D02*
X129569368Y-52886828D01*
X130140796Y-51886828D02*
X130497939Y-52886828D01*
X130855082Y-51886828D02*
X130497939Y-52886828D01*
X130497939Y-52886828D02*
X130355082Y-53243971D01*
X130355082Y-53243971D02*
X130283653Y-53315400D01*
X130283653Y-53315400D02*
X130140796Y-53386828D01*
X132069368Y-52886828D02*
X132069368Y-52101114D01*
X132069368Y-52101114D02*
X131997939Y-51958257D01*
X131997939Y-51958257D02*
X131855082Y-51886828D01*
X131855082Y-51886828D02*
X131569368Y-51886828D01*
X131569368Y-51886828D02*
X131426510Y-51958257D01*
X132069368Y-52815400D02*
X131926510Y-52886828D01*
X131926510Y-52886828D02*
X131569368Y-52886828D01*
X131569368Y-52886828D02*
X131426510Y-52815400D01*
X131426510Y-52815400D02*
X131355082Y-52672542D01*
X131355082Y-52672542D02*
X131355082Y-52529685D01*
X131355082Y-52529685D02*
X131426510Y-52386828D01*
X131426510Y-52386828D02*
X131569368Y-52315400D01*
X131569368Y-52315400D02*
X131926510Y-52315400D01*
X131926510Y-52315400D02*
X132069368Y-52243971D01*
X133426511Y-52886828D02*
X133426511Y-51386828D01*
X133426511Y-52815400D02*
X133283653Y-52886828D01*
X133283653Y-52886828D02*
X132997939Y-52886828D01*
X132997939Y-52886828D02*
X132855082Y-52815400D01*
X132855082Y-52815400D02*
X132783653Y-52743971D01*
X132783653Y-52743971D02*
X132712225Y-52601114D01*
X132712225Y-52601114D02*
X132712225Y-52172542D01*
X132712225Y-52172542D02*
X132783653Y-52029685D01*
X132783653Y-52029685D02*
X132855082Y-51958257D01*
X132855082Y-51958257D02*
X132997939Y-51886828D01*
X132997939Y-51886828D02*
X133283653Y-51886828D01*
X133283653Y-51886828D02*
X133426511Y-51958257D01*
X134712225Y-52815400D02*
X134569368Y-52886828D01*
X134569368Y-52886828D02*
X134283654Y-52886828D01*
X134283654Y-52886828D02*
X134140796Y-52815400D01*
X134140796Y-52815400D02*
X134069368Y-52672542D01*
X134069368Y-52672542D02*
X134069368Y-52101114D01*
X134069368Y-52101114D02*
X134140796Y-51958257D01*
X134140796Y-51958257D02*
X134283654Y-51886828D01*
X134283654Y-51886828D02*
X134569368Y-51886828D01*
X134569368Y-51886828D02*
X134712225Y-51958257D01*
X134712225Y-51958257D02*
X134783654Y-52101114D01*
X134783654Y-52101114D02*
X134783654Y-52243971D01*
X134783654Y-52243971D02*
X134069368Y-52386828D01*
X135997939Y-52815400D02*
X135855082Y-52886828D01*
X135855082Y-52886828D02*
X135569368Y-52886828D01*
X135569368Y-52886828D02*
X135426510Y-52815400D01*
X135426510Y-52815400D02*
X135355082Y-52672542D01*
X135355082Y-52672542D02*
X135355082Y-52101114D01*
X135355082Y-52101114D02*
X135426510Y-51958257D01*
X135426510Y-51958257D02*
X135569368Y-51886828D01*
X135569368Y-51886828D02*
X135855082Y-51886828D01*
X135855082Y-51886828D02*
X135997939Y-51958257D01*
X135997939Y-51958257D02*
X136069368Y-52101114D01*
X136069368Y-52101114D02*
X136069368Y-52243971D01*
X136069368Y-52243971D02*
X135355082Y-52386828D01*
X136712224Y-51886828D02*
X136712224Y-53386828D01*
X136712224Y-51958257D02*
X136855082Y-51886828D01*
X136855082Y-51886828D02*
X137140796Y-51886828D01*
X137140796Y-51886828D02*
X137283653Y-51958257D01*
X137283653Y-51958257D02*
X137355082Y-52029685D01*
X137355082Y-52029685D02*
X137426510Y-52172542D01*
X137426510Y-52172542D02*
X137426510Y-52601114D01*
X137426510Y-52601114D02*
X137355082Y-52743971D01*
X137355082Y-52743971D02*
X137283653Y-52815400D01*
X137283653Y-52815400D02*
X137140796Y-52886828D01*
X137140796Y-52886828D02*
X136855082Y-52886828D01*
X136855082Y-52886828D02*
X136712224Y-52815400D01*
X139212224Y-52886828D02*
X139212224Y-51386828D01*
X139212224Y-51386828D02*
X139783653Y-51386828D01*
X139783653Y-51386828D02*
X139926510Y-51458257D01*
X139926510Y-51458257D02*
X139997939Y-51529685D01*
X139997939Y-51529685D02*
X140069367Y-51672542D01*
X140069367Y-51672542D02*
X140069367Y-51886828D01*
X140069367Y-51886828D02*
X139997939Y-52029685D01*
X139997939Y-52029685D02*
X139926510Y-52101114D01*
X139926510Y-52101114D02*
X139783653Y-52172542D01*
X139783653Y-52172542D02*
X139212224Y-52172542D01*
X140712224Y-52886828D02*
X140712224Y-51886828D01*
X140712224Y-52172542D02*
X140783653Y-52029685D01*
X140783653Y-52029685D02*
X140855082Y-51958257D01*
X140855082Y-51958257D02*
X140997939Y-51886828D01*
X140997939Y-51886828D02*
X141140796Y-51886828D01*
X141640795Y-52886828D02*
X141640795Y-51886828D01*
X141640795Y-51386828D02*
X141569367Y-51458257D01*
X141569367Y-51458257D02*
X141640795Y-51529685D01*
X141640795Y-51529685D02*
X141712224Y-51458257D01*
X141712224Y-51458257D02*
X141640795Y-51386828D01*
X141640795Y-51386828D02*
X141640795Y-51529685D01*
X142355081Y-51886828D02*
X142355081Y-52886828D01*
X142355081Y-52029685D02*
X142426510Y-51958257D01*
X142426510Y-51958257D02*
X142569367Y-51886828D01*
X142569367Y-51886828D02*
X142783653Y-51886828D01*
X142783653Y-51886828D02*
X142926510Y-51958257D01*
X142926510Y-51958257D02*
X142997939Y-52101114D01*
X142997939Y-52101114D02*
X142997939Y-52886828D01*
X144355082Y-52815400D02*
X144212224Y-52886828D01*
X144212224Y-52886828D02*
X143926510Y-52886828D01*
X143926510Y-52886828D02*
X143783653Y-52815400D01*
X143783653Y-52815400D02*
X143712224Y-52743971D01*
X143712224Y-52743971D02*
X143640796Y-52601114D01*
X143640796Y-52601114D02*
X143640796Y-52172542D01*
X143640796Y-52172542D02*
X143712224Y-52029685D01*
X143712224Y-52029685D02*
X143783653Y-51958257D01*
X143783653Y-51958257D02*
X143926510Y-51886828D01*
X143926510Y-51886828D02*
X144212224Y-51886828D01*
X144212224Y-51886828D02*
X144355082Y-51958257D01*
X145569367Y-52815400D02*
X145426510Y-52886828D01*
X145426510Y-52886828D02*
X145140796Y-52886828D01*
X145140796Y-52886828D02*
X144997938Y-52815400D01*
X144997938Y-52815400D02*
X144926510Y-52672542D01*
X144926510Y-52672542D02*
X144926510Y-52101114D01*
X144926510Y-52101114D02*
X144997938Y-51958257D01*
X144997938Y-51958257D02*
X145140796Y-51886828D01*
X145140796Y-51886828D02*
X145426510Y-51886828D01*
X145426510Y-51886828D02*
X145569367Y-51958257D01*
X145569367Y-51958257D02*
X145640796Y-52101114D01*
X145640796Y-52101114D02*
X145640796Y-52243971D01*
X145640796Y-52243971D02*
X144926510Y-52386828D01*
X147355081Y-52815400D02*
X147569367Y-52886828D01*
X147569367Y-52886828D02*
X147926509Y-52886828D01*
X147926509Y-52886828D02*
X148069367Y-52815400D01*
X148069367Y-52815400D02*
X148140795Y-52743971D01*
X148140795Y-52743971D02*
X148212224Y-52601114D01*
X148212224Y-52601114D02*
X148212224Y-52458257D01*
X148212224Y-52458257D02*
X148140795Y-52315400D01*
X148140795Y-52315400D02*
X148069367Y-52243971D01*
X148069367Y-52243971D02*
X147926509Y-52172542D01*
X147926509Y-52172542D02*
X147640795Y-52101114D01*
X147640795Y-52101114D02*
X147497938Y-52029685D01*
X147497938Y-52029685D02*
X147426509Y-51958257D01*
X147426509Y-51958257D02*
X147355081Y-51815400D01*
X147355081Y-51815400D02*
X147355081Y-51672542D01*
X147355081Y-51672542D02*
X147426509Y-51529685D01*
X147426509Y-51529685D02*
X147497938Y-51458257D01*
X147497938Y-51458257D02*
X147640795Y-51386828D01*
X147640795Y-51386828D02*
X147997938Y-51386828D01*
X147997938Y-51386828D02*
X148212224Y-51458257D01*
X149497938Y-51886828D02*
X149497938Y-52886828D01*
X148855080Y-51886828D02*
X148855080Y-52672542D01*
X148855080Y-52672542D02*
X148926509Y-52815400D01*
X148926509Y-52815400D02*
X149069366Y-52886828D01*
X149069366Y-52886828D02*
X149283652Y-52886828D01*
X149283652Y-52886828D02*
X149426509Y-52815400D01*
X149426509Y-52815400D02*
X149497938Y-52743971D01*
X150140795Y-52815400D02*
X150283652Y-52886828D01*
X150283652Y-52886828D02*
X150569366Y-52886828D01*
X150569366Y-52886828D02*
X150712223Y-52815400D01*
X150712223Y-52815400D02*
X150783652Y-52672542D01*
X150783652Y-52672542D02*
X150783652Y-52601114D01*
X150783652Y-52601114D02*
X150712223Y-52458257D01*
X150712223Y-52458257D02*
X150569366Y-52386828D01*
X150569366Y-52386828D02*
X150355081Y-52386828D01*
X150355081Y-52386828D02*
X150212223Y-52315400D01*
X150212223Y-52315400D02*
X150140795Y-52172542D01*
X150140795Y-52172542D02*
X150140795Y-52101114D01*
X150140795Y-52101114D02*
X150212223Y-51958257D01*
X150212223Y-51958257D02*
X150355081Y-51886828D01*
X150355081Y-51886828D02*
X150569366Y-51886828D01*
X150569366Y-51886828D02*
X150712223Y-51958257D01*
X151426509Y-52886828D02*
X151426509Y-51886828D01*
X151426509Y-52172542D02*
X151497938Y-52029685D01*
X151497938Y-52029685D02*
X151569367Y-51958257D01*
X151569367Y-51958257D02*
X151712224Y-51886828D01*
X151712224Y-51886828D02*
X151855081Y-51886828D01*
X152997938Y-51886828D02*
X152997938Y-52886828D01*
X152355080Y-51886828D02*
X152355080Y-52672542D01*
X152355080Y-52672542D02*
X152426509Y-52815400D01*
X152426509Y-52815400D02*
X152569366Y-52886828D01*
X152569366Y-52886828D02*
X152783652Y-52886828D01*
X152783652Y-52886828D02*
X152926509Y-52815400D01*
X152926509Y-52815400D02*
X152997938Y-52743971D01*
X153640795Y-52815400D02*
X153783652Y-52886828D01*
X153783652Y-52886828D02*
X154069366Y-52886828D01*
X154069366Y-52886828D02*
X154212223Y-52815400D01*
X154212223Y-52815400D02*
X154283652Y-52672542D01*
X154283652Y-52672542D02*
X154283652Y-52601114D01*
X154283652Y-52601114D02*
X154212223Y-52458257D01*
X154212223Y-52458257D02*
X154069366Y-52386828D01*
X154069366Y-52386828D02*
X153855081Y-52386828D01*
X153855081Y-52386828D02*
X153712223Y-52315400D01*
X153712223Y-52315400D02*
X153640795Y-52172542D01*
X153640795Y-52172542D02*
X153640795Y-52101114D01*
X153640795Y-52101114D02*
X153712223Y-51958257D01*
X153712223Y-51958257D02*
X153855081Y-51886828D01*
X153855081Y-51886828D02*
X154069366Y-51886828D01*
X154069366Y-51886828D02*
X154212223Y-51958257D01*
X154926509Y-52886828D02*
X154926509Y-51386828D01*
X155569367Y-52886828D02*
X155569367Y-52101114D01*
X155569367Y-52101114D02*
X155497938Y-51958257D01*
X155497938Y-51958257D02*
X155355081Y-51886828D01*
X155355081Y-51886828D02*
X155140795Y-51886828D01*
X155140795Y-51886828D02*
X154997938Y-51958257D01*
X154997938Y-51958257D02*
X154926509Y-52029685D01*
D11*
X136185714Y-97673504D02*
X136147618Y-97711600D01*
X136147618Y-97711600D02*
X136033333Y-97749695D01*
X136033333Y-97749695D02*
X135957142Y-97749695D01*
X135957142Y-97749695D02*
X135842856Y-97711600D01*
X135842856Y-97711600D02*
X135766666Y-97635409D01*
X135766666Y-97635409D02*
X135728571Y-97559219D01*
X135728571Y-97559219D02*
X135690475Y-97406838D01*
X135690475Y-97406838D02*
X135690475Y-97292552D01*
X135690475Y-97292552D02*
X135728571Y-97140171D01*
X135728571Y-97140171D02*
X135766666Y-97063980D01*
X135766666Y-97063980D02*
X135842856Y-96987790D01*
X135842856Y-96987790D02*
X135957142Y-96949695D01*
X135957142Y-96949695D02*
X136033333Y-96949695D01*
X136033333Y-96949695D02*
X136147618Y-96987790D01*
X136147618Y-96987790D02*
X136185714Y-97025885D01*
X136947618Y-97749695D02*
X136490475Y-97749695D01*
X136719047Y-97749695D02*
X136719047Y-96949695D01*
X136719047Y-96949695D02*
X136642856Y-97063980D01*
X136642856Y-97063980D02*
X136566666Y-97140171D01*
X136566666Y-97140171D02*
X136490475Y-97178266D01*
X137709523Y-97749695D02*
X137252380Y-97749695D01*
X137480952Y-97749695D02*
X137480952Y-96949695D01*
X137480952Y-96949695D02*
X137404761Y-97063980D01*
X137404761Y-97063980D02*
X137328571Y-97140171D01*
X137328571Y-97140171D02*
X137252380Y-97178266D01*
X162331476Y-179176695D02*
X162331476Y-178376695D01*
X162331476Y-178757647D02*
X162788619Y-178757647D01*
X162788619Y-179176695D02*
X162788619Y-178376695D01*
X163093380Y-178376695D02*
X163588618Y-178376695D01*
X163588618Y-178376695D02*
X163321952Y-178681457D01*
X163321952Y-178681457D02*
X163436237Y-178681457D01*
X163436237Y-178681457D02*
X163512428Y-178719552D01*
X163512428Y-178719552D02*
X163550523Y-178757647D01*
X163550523Y-178757647D02*
X163588618Y-178833838D01*
X163588618Y-178833838D02*
X163588618Y-179024314D01*
X163588618Y-179024314D02*
X163550523Y-179100504D01*
X163550523Y-179100504D02*
X163512428Y-179138600D01*
X163512428Y-179138600D02*
X163436237Y-179176695D01*
X163436237Y-179176695D02*
X163207666Y-179176695D01*
X163207666Y-179176695D02*
X163131475Y-179138600D01*
X163131475Y-179138600D02*
X163093380Y-179100504D01*
X127536667Y-101426504D02*
X127498571Y-101464600D01*
X127498571Y-101464600D02*
X127384286Y-101502695D01*
X127384286Y-101502695D02*
X127308095Y-101502695D01*
X127308095Y-101502695D02*
X127193809Y-101464600D01*
X127193809Y-101464600D02*
X127117619Y-101388409D01*
X127117619Y-101388409D02*
X127079524Y-101312219D01*
X127079524Y-101312219D02*
X127041428Y-101159838D01*
X127041428Y-101159838D02*
X127041428Y-101045552D01*
X127041428Y-101045552D02*
X127079524Y-100893171D01*
X127079524Y-100893171D02*
X127117619Y-100816980D01*
X127117619Y-100816980D02*
X127193809Y-100740790D01*
X127193809Y-100740790D02*
X127308095Y-100702695D01*
X127308095Y-100702695D02*
X127384286Y-100702695D01*
X127384286Y-100702695D02*
X127498571Y-100740790D01*
X127498571Y-100740790D02*
X127536667Y-100778885D01*
X127917619Y-101502695D02*
X128070000Y-101502695D01*
X128070000Y-101502695D02*
X128146190Y-101464600D01*
X128146190Y-101464600D02*
X128184286Y-101426504D01*
X128184286Y-101426504D02*
X128260476Y-101312219D01*
X128260476Y-101312219D02*
X128298571Y-101159838D01*
X128298571Y-101159838D02*
X128298571Y-100855076D01*
X128298571Y-100855076D02*
X128260476Y-100778885D01*
X128260476Y-100778885D02*
X128222381Y-100740790D01*
X128222381Y-100740790D02*
X128146190Y-100702695D01*
X128146190Y-100702695D02*
X127993809Y-100702695D01*
X127993809Y-100702695D02*
X127917619Y-100740790D01*
X127917619Y-100740790D02*
X127879524Y-100778885D01*
X127879524Y-100778885D02*
X127841428Y-100855076D01*
X127841428Y-100855076D02*
X127841428Y-101045552D01*
X127841428Y-101045552D02*
X127879524Y-101121742D01*
X127879524Y-101121742D02*
X127917619Y-101159838D01*
X127917619Y-101159838D02*
X127993809Y-101197933D01*
X127993809Y-101197933D02*
X128146190Y-101197933D01*
X128146190Y-101197933D02*
X128222381Y-101159838D01*
X128222381Y-101159838D02*
X128260476Y-101121742D01*
X128260476Y-101121742D02*
X128298571Y-101045552D01*
X127913467Y-121383504D02*
X127875371Y-121421600D01*
X127875371Y-121421600D02*
X127761086Y-121459695D01*
X127761086Y-121459695D02*
X127684895Y-121459695D01*
X127684895Y-121459695D02*
X127570609Y-121421600D01*
X127570609Y-121421600D02*
X127494419Y-121345409D01*
X127494419Y-121345409D02*
X127456324Y-121269219D01*
X127456324Y-121269219D02*
X127418228Y-121116838D01*
X127418228Y-121116838D02*
X127418228Y-121002552D01*
X127418228Y-121002552D02*
X127456324Y-120850171D01*
X127456324Y-120850171D02*
X127494419Y-120773980D01*
X127494419Y-120773980D02*
X127570609Y-120697790D01*
X127570609Y-120697790D02*
X127684895Y-120659695D01*
X127684895Y-120659695D02*
X127761086Y-120659695D01*
X127761086Y-120659695D02*
X127875371Y-120697790D01*
X127875371Y-120697790D02*
X127913467Y-120735885D01*
X128180133Y-120659695D02*
X128713467Y-120659695D01*
X128713467Y-120659695D02*
X128370609Y-121459695D01*
X126343695Y-122238095D02*
X126343695Y-122695238D01*
X126343695Y-122466666D02*
X125543695Y-122466666D01*
X125543695Y-122466666D02*
X125657980Y-122542857D01*
X125657980Y-122542857D02*
X125734171Y-122619047D01*
X125734171Y-122619047D02*
X125772266Y-122695238D01*
X125543695Y-121742856D02*
X125543695Y-121666666D01*
X125543695Y-121666666D02*
X125581790Y-121590475D01*
X125581790Y-121590475D02*
X125619885Y-121552380D01*
X125619885Y-121552380D02*
X125696076Y-121514285D01*
X125696076Y-121514285D02*
X125848457Y-121476190D01*
X125848457Y-121476190D02*
X126038933Y-121476190D01*
X126038933Y-121476190D02*
X126191314Y-121514285D01*
X126191314Y-121514285D02*
X126267504Y-121552380D01*
X126267504Y-121552380D02*
X126305600Y-121590475D01*
X126305600Y-121590475D02*
X126343695Y-121666666D01*
X126343695Y-121666666D02*
X126343695Y-121742856D01*
X126343695Y-121742856D02*
X126305600Y-121819047D01*
X126305600Y-121819047D02*
X126267504Y-121857142D01*
X126267504Y-121857142D02*
X126191314Y-121895237D01*
X126191314Y-121895237D02*
X126038933Y-121933333D01*
X126038933Y-121933333D02*
X125848457Y-121933333D01*
X125848457Y-121933333D02*
X125696076Y-121895237D01*
X125696076Y-121895237D02*
X125619885Y-121857142D01*
X125619885Y-121857142D02*
X125581790Y-121819047D01*
X125581790Y-121819047D02*
X125543695Y-121742856D01*
X125543695Y-120980951D02*
X125543695Y-120904761D01*
X125543695Y-120904761D02*
X125581790Y-120828570D01*
X125581790Y-120828570D02*
X125619885Y-120790475D01*
X125619885Y-120790475D02*
X125696076Y-120752380D01*
X125696076Y-120752380D02*
X125848457Y-120714285D01*
X125848457Y-120714285D02*
X126038933Y-120714285D01*
X126038933Y-120714285D02*
X126191314Y-120752380D01*
X126191314Y-120752380D02*
X126267504Y-120790475D01*
X126267504Y-120790475D02*
X126305600Y-120828570D01*
X126305600Y-120828570D02*
X126343695Y-120904761D01*
X126343695Y-120904761D02*
X126343695Y-120980951D01*
X126343695Y-120980951D02*
X126305600Y-121057142D01*
X126305600Y-121057142D02*
X126267504Y-121095237D01*
X126267504Y-121095237D02*
X126191314Y-121133332D01*
X126191314Y-121133332D02*
X126038933Y-121171428D01*
X126038933Y-121171428D02*
X125848457Y-121171428D01*
X125848457Y-121171428D02*
X125696076Y-121133332D01*
X125696076Y-121133332D02*
X125619885Y-121095237D01*
X125619885Y-121095237D02*
X125581790Y-121057142D01*
X125581790Y-121057142D02*
X125543695Y-120980951D01*
X125810361Y-120371427D02*
X126610361Y-120371427D01*
X125848457Y-120371427D02*
X125810361Y-120295237D01*
X125810361Y-120295237D02*
X125810361Y-120142856D01*
X125810361Y-120142856D02*
X125848457Y-120066665D01*
X125848457Y-120066665D02*
X125886552Y-120028570D01*
X125886552Y-120028570D02*
X125962742Y-119990475D01*
X125962742Y-119990475D02*
X126191314Y-119990475D01*
X126191314Y-119990475D02*
X126267504Y-120028570D01*
X126267504Y-120028570D02*
X126305600Y-120066665D01*
X126305600Y-120066665D02*
X126343695Y-120142856D01*
X126343695Y-120142856D02*
X126343695Y-120295237D01*
X126343695Y-120295237D02*
X126305600Y-120371427D01*
X125924647Y-119380951D02*
X125924647Y-119647617D01*
X126343695Y-119647617D02*
X125543695Y-119647617D01*
X125543695Y-119647617D02*
X125543695Y-119266665D01*
X164039667Y-103483695D02*
X163773000Y-103102742D01*
X163582524Y-103483695D02*
X163582524Y-102683695D01*
X163582524Y-102683695D02*
X163887286Y-102683695D01*
X163887286Y-102683695D02*
X163963476Y-102721790D01*
X163963476Y-102721790D02*
X164001571Y-102759885D01*
X164001571Y-102759885D02*
X164039667Y-102836076D01*
X164039667Y-102836076D02*
X164039667Y-102950361D01*
X164039667Y-102950361D02*
X164001571Y-103026552D01*
X164001571Y-103026552D02*
X163963476Y-103064647D01*
X163963476Y-103064647D02*
X163887286Y-103102742D01*
X163887286Y-103102742D02*
X163582524Y-103102742D01*
X164763476Y-102683695D02*
X164382524Y-102683695D01*
X164382524Y-102683695D02*
X164344428Y-103064647D01*
X164344428Y-103064647D02*
X164382524Y-103026552D01*
X164382524Y-103026552D02*
X164458714Y-102988457D01*
X164458714Y-102988457D02*
X164649190Y-102988457D01*
X164649190Y-102988457D02*
X164725381Y-103026552D01*
X164725381Y-103026552D02*
X164763476Y-103064647D01*
X164763476Y-103064647D02*
X164801571Y-103140838D01*
X164801571Y-103140838D02*
X164801571Y-103331314D01*
X164801571Y-103331314D02*
X164763476Y-103407504D01*
X164763476Y-103407504D02*
X164725381Y-103445600D01*
X164725381Y-103445600D02*
X164649190Y-103483695D01*
X164649190Y-103483695D02*
X164458714Y-103483695D01*
X164458714Y-103483695D02*
X164382524Y-103445600D01*
X164382524Y-103445600D02*
X164344428Y-103407504D01*
X163816809Y-105070695D02*
X163359666Y-105070695D01*
X163588238Y-105070695D02*
X163588238Y-104270695D01*
X163588238Y-104270695D02*
X163512047Y-104384980D01*
X163512047Y-104384980D02*
X163435857Y-104461171D01*
X163435857Y-104461171D02*
X163359666Y-104499266D01*
X164312048Y-104270695D02*
X164388238Y-104270695D01*
X164388238Y-104270695D02*
X164464429Y-104308790D01*
X164464429Y-104308790D02*
X164502524Y-104346885D01*
X164502524Y-104346885D02*
X164540619Y-104423076D01*
X164540619Y-104423076D02*
X164578714Y-104575457D01*
X164578714Y-104575457D02*
X164578714Y-104765933D01*
X164578714Y-104765933D02*
X164540619Y-104918314D01*
X164540619Y-104918314D02*
X164502524Y-104994504D01*
X164502524Y-104994504D02*
X164464429Y-105032600D01*
X164464429Y-105032600D02*
X164388238Y-105070695D01*
X164388238Y-105070695D02*
X164312048Y-105070695D01*
X164312048Y-105070695D02*
X164235857Y-105032600D01*
X164235857Y-105032600D02*
X164197762Y-104994504D01*
X164197762Y-104994504D02*
X164159667Y-104918314D01*
X164159667Y-104918314D02*
X164121571Y-104765933D01*
X164121571Y-104765933D02*
X164121571Y-104575457D01*
X164121571Y-104575457D02*
X164159667Y-104423076D01*
X164159667Y-104423076D02*
X164197762Y-104346885D01*
X164197762Y-104346885D02*
X164235857Y-104308790D01*
X164235857Y-104308790D02*
X164312048Y-104270695D01*
X164921572Y-105070695D02*
X164921572Y-104270695D01*
X164997762Y-104765933D02*
X165226334Y-105070695D01*
X165226334Y-104537361D02*
X164921572Y-104842123D01*
X150615714Y-110400504D02*
X150577618Y-110438600D01*
X150577618Y-110438600D02*
X150463333Y-110476695D01*
X150463333Y-110476695D02*
X150387142Y-110476695D01*
X150387142Y-110476695D02*
X150272856Y-110438600D01*
X150272856Y-110438600D02*
X150196666Y-110362409D01*
X150196666Y-110362409D02*
X150158571Y-110286219D01*
X150158571Y-110286219D02*
X150120475Y-110133838D01*
X150120475Y-110133838D02*
X150120475Y-110019552D01*
X150120475Y-110019552D02*
X150158571Y-109867171D01*
X150158571Y-109867171D02*
X150196666Y-109790980D01*
X150196666Y-109790980D02*
X150272856Y-109714790D01*
X150272856Y-109714790D02*
X150387142Y-109676695D01*
X150387142Y-109676695D02*
X150463333Y-109676695D01*
X150463333Y-109676695D02*
X150577618Y-109714790D01*
X150577618Y-109714790D02*
X150615714Y-109752885D01*
X151377618Y-110476695D02*
X150920475Y-110476695D01*
X151149047Y-110476695D02*
X151149047Y-109676695D01*
X151149047Y-109676695D02*
X151072856Y-109790980D01*
X151072856Y-109790980D02*
X150996666Y-109867171D01*
X150996666Y-109867171D02*
X150920475Y-109905266D01*
X151644285Y-109676695D02*
X152139523Y-109676695D01*
X152139523Y-109676695D02*
X151872857Y-109981457D01*
X151872857Y-109981457D02*
X151987142Y-109981457D01*
X151987142Y-109981457D02*
X152063333Y-110019552D01*
X152063333Y-110019552D02*
X152101428Y-110057647D01*
X152101428Y-110057647D02*
X152139523Y-110133838D01*
X152139523Y-110133838D02*
X152139523Y-110324314D01*
X152139523Y-110324314D02*
X152101428Y-110400504D01*
X152101428Y-110400504D02*
X152063333Y-110438600D01*
X152063333Y-110438600D02*
X151987142Y-110476695D01*
X151987142Y-110476695D02*
X151758571Y-110476695D01*
X151758571Y-110476695D02*
X151682380Y-110438600D01*
X151682380Y-110438600D02*
X151644285Y-110400504D01*
X145967618Y-109287695D02*
X146462856Y-109287695D01*
X146462856Y-109287695D02*
X146196190Y-109592457D01*
X146196190Y-109592457D02*
X146310475Y-109592457D01*
X146310475Y-109592457D02*
X146386666Y-109630552D01*
X146386666Y-109630552D02*
X146424761Y-109668647D01*
X146424761Y-109668647D02*
X146462856Y-109744838D01*
X146462856Y-109744838D02*
X146462856Y-109935314D01*
X146462856Y-109935314D02*
X146424761Y-110011504D01*
X146424761Y-110011504D02*
X146386666Y-110049600D01*
X146386666Y-110049600D02*
X146310475Y-110087695D01*
X146310475Y-110087695D02*
X146081904Y-110087695D01*
X146081904Y-110087695D02*
X146005713Y-110049600D01*
X146005713Y-110049600D02*
X145967618Y-110011504D01*
X146729523Y-109287695D02*
X147224761Y-109287695D01*
X147224761Y-109287695D02*
X146958095Y-109592457D01*
X146958095Y-109592457D02*
X147072380Y-109592457D01*
X147072380Y-109592457D02*
X147148571Y-109630552D01*
X147148571Y-109630552D02*
X147186666Y-109668647D01*
X147186666Y-109668647D02*
X147224761Y-109744838D01*
X147224761Y-109744838D02*
X147224761Y-109935314D01*
X147224761Y-109935314D02*
X147186666Y-110011504D01*
X147186666Y-110011504D02*
X147148571Y-110049600D01*
X147148571Y-110049600D02*
X147072380Y-110087695D01*
X147072380Y-110087695D02*
X146843809Y-110087695D01*
X146843809Y-110087695D02*
X146767618Y-110049600D01*
X146767618Y-110049600D02*
X146729523Y-110011504D01*
X147567619Y-109554361D02*
X147567619Y-110354361D01*
X147567619Y-109592457D02*
X147643809Y-109554361D01*
X147643809Y-109554361D02*
X147796190Y-109554361D01*
X147796190Y-109554361D02*
X147872381Y-109592457D01*
X147872381Y-109592457D02*
X147910476Y-109630552D01*
X147910476Y-109630552D02*
X147948571Y-109706742D01*
X147948571Y-109706742D02*
X147948571Y-109935314D01*
X147948571Y-109935314D02*
X147910476Y-110011504D01*
X147910476Y-110011504D02*
X147872381Y-110049600D01*
X147872381Y-110049600D02*
X147796190Y-110087695D01*
X147796190Y-110087695D02*
X147643809Y-110087695D01*
X147643809Y-110087695D02*
X147567619Y-110049600D01*
X148558095Y-109668647D02*
X148291429Y-109668647D01*
X148291429Y-110087695D02*
X148291429Y-109287695D01*
X148291429Y-109287695D02*
X148672381Y-109287695D01*
X108506428Y-80854695D02*
X108506428Y-81426123D01*
X108506428Y-81426123D02*
X108468333Y-81540409D01*
X108468333Y-81540409D02*
X108392142Y-81616600D01*
X108392142Y-81616600D02*
X108277857Y-81654695D01*
X108277857Y-81654695D02*
X108201666Y-81654695D01*
X109268333Y-80854695D02*
X108887381Y-80854695D01*
X108887381Y-80854695D02*
X108849285Y-81235647D01*
X108849285Y-81235647D02*
X108887381Y-81197552D01*
X108887381Y-81197552D02*
X108963571Y-81159457D01*
X108963571Y-81159457D02*
X109154047Y-81159457D01*
X109154047Y-81159457D02*
X109230238Y-81197552D01*
X109230238Y-81197552D02*
X109268333Y-81235647D01*
X109268333Y-81235647D02*
X109306428Y-81311838D01*
X109306428Y-81311838D02*
X109306428Y-81502314D01*
X109306428Y-81502314D02*
X109268333Y-81578504D01*
X109268333Y-81578504D02*
X109230238Y-81616600D01*
X109230238Y-81616600D02*
X109154047Y-81654695D01*
X109154047Y-81654695D02*
X108963571Y-81654695D01*
X108963571Y-81654695D02*
X108887381Y-81616600D01*
X108887381Y-81616600D02*
X108849285Y-81578504D01*
X109801667Y-80854695D02*
X109877857Y-80854695D01*
X109877857Y-80854695D02*
X109954048Y-80892790D01*
X109954048Y-80892790D02*
X109992143Y-80930885D01*
X109992143Y-80930885D02*
X110030238Y-81007076D01*
X110030238Y-81007076D02*
X110068333Y-81159457D01*
X110068333Y-81159457D02*
X110068333Y-81349933D01*
X110068333Y-81349933D02*
X110030238Y-81502314D01*
X110030238Y-81502314D02*
X109992143Y-81578504D01*
X109992143Y-81578504D02*
X109954048Y-81616600D01*
X109954048Y-81616600D02*
X109877857Y-81654695D01*
X109877857Y-81654695D02*
X109801667Y-81654695D01*
X109801667Y-81654695D02*
X109725476Y-81616600D01*
X109725476Y-81616600D02*
X109687381Y-81578504D01*
X109687381Y-81578504D02*
X109649286Y-81502314D01*
X109649286Y-81502314D02*
X109611190Y-81349933D01*
X109611190Y-81349933D02*
X109611190Y-81159457D01*
X109611190Y-81159457D02*
X109649286Y-81007076D01*
X109649286Y-81007076D02*
X109687381Y-80930885D01*
X109687381Y-80930885D02*
X109725476Y-80892790D01*
X109725476Y-80892790D02*
X109801667Y-80854695D01*
X110335000Y-80854695D02*
X110830238Y-80854695D01*
X110830238Y-80854695D02*
X110563572Y-81159457D01*
X110563572Y-81159457D02*
X110677857Y-81159457D01*
X110677857Y-81159457D02*
X110754048Y-81197552D01*
X110754048Y-81197552D02*
X110792143Y-81235647D01*
X110792143Y-81235647D02*
X110830238Y-81311838D01*
X110830238Y-81311838D02*
X110830238Y-81502314D01*
X110830238Y-81502314D02*
X110792143Y-81578504D01*
X110792143Y-81578504D02*
X110754048Y-81616600D01*
X110754048Y-81616600D02*
X110677857Y-81654695D01*
X110677857Y-81654695D02*
X110449286Y-81654695D01*
X110449286Y-81654695D02*
X110373095Y-81616600D01*
X110373095Y-81616600D02*
X110335000Y-81578504D01*
X115876428Y-76654695D02*
X115876428Y-77226123D01*
X115876428Y-77226123D02*
X115838333Y-77340409D01*
X115838333Y-77340409D02*
X115762142Y-77416600D01*
X115762142Y-77416600D02*
X115647857Y-77454695D01*
X115647857Y-77454695D02*
X115571666Y-77454695D01*
X116638333Y-76654695D02*
X116257381Y-76654695D01*
X116257381Y-76654695D02*
X116219285Y-77035647D01*
X116219285Y-77035647D02*
X116257381Y-76997552D01*
X116257381Y-76997552D02*
X116333571Y-76959457D01*
X116333571Y-76959457D02*
X116524047Y-76959457D01*
X116524047Y-76959457D02*
X116600238Y-76997552D01*
X116600238Y-76997552D02*
X116638333Y-77035647D01*
X116638333Y-77035647D02*
X116676428Y-77111838D01*
X116676428Y-77111838D02*
X116676428Y-77302314D01*
X116676428Y-77302314D02*
X116638333Y-77378504D01*
X116638333Y-77378504D02*
X116600238Y-77416600D01*
X116600238Y-77416600D02*
X116524047Y-77454695D01*
X116524047Y-77454695D02*
X116333571Y-77454695D01*
X116333571Y-77454695D02*
X116257381Y-77416600D01*
X116257381Y-77416600D02*
X116219285Y-77378504D01*
X117438333Y-77454695D02*
X116981190Y-77454695D01*
X117209762Y-77454695D02*
X117209762Y-76654695D01*
X117209762Y-76654695D02*
X117133571Y-76768980D01*
X117133571Y-76768980D02*
X117057381Y-76845171D01*
X117057381Y-76845171D02*
X116981190Y-76883266D01*
X118200238Y-77454695D02*
X117743095Y-77454695D01*
X117971667Y-77454695D02*
X117971667Y-76654695D01*
X117971667Y-76654695D02*
X117895476Y-76768980D01*
X117895476Y-76768980D02*
X117819286Y-76845171D01*
X117819286Y-76845171D02*
X117743095Y-76883266D01*
X136286667Y-100968504D02*
X136248571Y-101006600D01*
X136248571Y-101006600D02*
X136134286Y-101044695D01*
X136134286Y-101044695D02*
X136058095Y-101044695D01*
X136058095Y-101044695D02*
X135943809Y-101006600D01*
X135943809Y-101006600D02*
X135867619Y-100930409D01*
X135867619Y-100930409D02*
X135829524Y-100854219D01*
X135829524Y-100854219D02*
X135791428Y-100701838D01*
X135791428Y-100701838D02*
X135791428Y-100587552D01*
X135791428Y-100587552D02*
X135829524Y-100435171D01*
X135829524Y-100435171D02*
X135867619Y-100358980D01*
X135867619Y-100358980D02*
X135943809Y-100282790D01*
X135943809Y-100282790D02*
X136058095Y-100244695D01*
X136058095Y-100244695D02*
X136134286Y-100244695D01*
X136134286Y-100244695D02*
X136248571Y-100282790D01*
X136248571Y-100282790D02*
X136286667Y-100320885D01*
X137010476Y-100244695D02*
X136629524Y-100244695D01*
X136629524Y-100244695D02*
X136591428Y-100625647D01*
X136591428Y-100625647D02*
X136629524Y-100587552D01*
X136629524Y-100587552D02*
X136705714Y-100549457D01*
X136705714Y-100549457D02*
X136896190Y-100549457D01*
X136896190Y-100549457D02*
X136972381Y-100587552D01*
X136972381Y-100587552D02*
X137010476Y-100625647D01*
X137010476Y-100625647D02*
X137048571Y-100701838D01*
X137048571Y-100701838D02*
X137048571Y-100892314D01*
X137048571Y-100892314D02*
X137010476Y-100968504D01*
X137010476Y-100968504D02*
X136972381Y-101006600D01*
X136972381Y-101006600D02*
X136896190Y-101044695D01*
X136896190Y-101044695D02*
X136705714Y-101044695D01*
X136705714Y-101044695D02*
X136629524Y-101006600D01*
X136629524Y-101006600D02*
X136591428Y-100968504D01*
X124878714Y-87962004D02*
X124840618Y-88000100D01*
X124840618Y-88000100D02*
X124726333Y-88038195D01*
X124726333Y-88038195D02*
X124650142Y-88038195D01*
X124650142Y-88038195D02*
X124535856Y-88000100D01*
X124535856Y-88000100D02*
X124459666Y-87923909D01*
X124459666Y-87923909D02*
X124421571Y-87847719D01*
X124421571Y-87847719D02*
X124383475Y-87695338D01*
X124383475Y-87695338D02*
X124383475Y-87581052D01*
X124383475Y-87581052D02*
X124421571Y-87428671D01*
X124421571Y-87428671D02*
X124459666Y-87352480D01*
X124459666Y-87352480D02*
X124535856Y-87276290D01*
X124535856Y-87276290D02*
X124650142Y-87238195D01*
X124650142Y-87238195D02*
X124726333Y-87238195D01*
X124726333Y-87238195D02*
X124840618Y-87276290D01*
X124840618Y-87276290D02*
X124878714Y-87314385D01*
X125640618Y-88038195D02*
X125183475Y-88038195D01*
X125412047Y-88038195D02*
X125412047Y-87238195D01*
X125412047Y-87238195D02*
X125335856Y-87352480D01*
X125335856Y-87352480D02*
X125259666Y-87428671D01*
X125259666Y-87428671D02*
X125183475Y-87466766D01*
X126021571Y-88038195D02*
X126173952Y-88038195D01*
X126173952Y-88038195D02*
X126250142Y-88000100D01*
X126250142Y-88000100D02*
X126288238Y-87962004D01*
X126288238Y-87962004D02*
X126364428Y-87847719D01*
X126364428Y-87847719D02*
X126402523Y-87695338D01*
X126402523Y-87695338D02*
X126402523Y-87390576D01*
X126402523Y-87390576D02*
X126364428Y-87314385D01*
X126364428Y-87314385D02*
X126326333Y-87276290D01*
X126326333Y-87276290D02*
X126250142Y-87238195D01*
X126250142Y-87238195D02*
X126097761Y-87238195D01*
X126097761Y-87238195D02*
X126021571Y-87276290D01*
X126021571Y-87276290D02*
X125983476Y-87314385D01*
X125983476Y-87314385D02*
X125945380Y-87390576D01*
X125945380Y-87390576D02*
X125945380Y-87581052D01*
X125945380Y-87581052D02*
X125983476Y-87657242D01*
X125983476Y-87657242D02*
X126021571Y-87695338D01*
X126021571Y-87695338D02*
X126097761Y-87733433D01*
X126097761Y-87733433D02*
X126250142Y-87733433D01*
X126250142Y-87733433D02*
X126326333Y-87695338D01*
X126326333Y-87695338D02*
X126364428Y-87657242D01*
X126364428Y-87657242D02*
X126402523Y-87581052D01*
X124872856Y-81893695D02*
X124415713Y-81893695D01*
X124644285Y-81893695D02*
X124644285Y-81093695D01*
X124644285Y-81093695D02*
X124568094Y-81207980D01*
X124568094Y-81207980D02*
X124491904Y-81284171D01*
X124491904Y-81284171D02*
X124415713Y-81322266D01*
X125368095Y-81093695D02*
X125444285Y-81093695D01*
X125444285Y-81093695D02*
X125520476Y-81131790D01*
X125520476Y-81131790D02*
X125558571Y-81169885D01*
X125558571Y-81169885D02*
X125596666Y-81246076D01*
X125596666Y-81246076D02*
X125634761Y-81398457D01*
X125634761Y-81398457D02*
X125634761Y-81588933D01*
X125634761Y-81588933D02*
X125596666Y-81741314D01*
X125596666Y-81741314D02*
X125558571Y-81817504D01*
X125558571Y-81817504D02*
X125520476Y-81855600D01*
X125520476Y-81855600D02*
X125444285Y-81893695D01*
X125444285Y-81893695D02*
X125368095Y-81893695D01*
X125368095Y-81893695D02*
X125291904Y-81855600D01*
X125291904Y-81855600D02*
X125253809Y-81817504D01*
X125253809Y-81817504D02*
X125215714Y-81741314D01*
X125215714Y-81741314D02*
X125177618Y-81588933D01*
X125177618Y-81588933D02*
X125177618Y-81398457D01*
X125177618Y-81398457D02*
X125215714Y-81246076D01*
X125215714Y-81246076D02*
X125253809Y-81169885D01*
X125253809Y-81169885D02*
X125291904Y-81131790D01*
X125291904Y-81131790D02*
X125368095Y-81093695D01*
X126320476Y-81360361D02*
X126320476Y-81893695D01*
X125977619Y-81360361D02*
X125977619Y-81779409D01*
X125977619Y-81779409D02*
X126015714Y-81855600D01*
X126015714Y-81855600D02*
X126091904Y-81893695D01*
X126091904Y-81893695D02*
X126206190Y-81893695D01*
X126206190Y-81893695D02*
X126282381Y-81855600D01*
X126282381Y-81855600D02*
X126320476Y-81817504D01*
X126968095Y-81474647D02*
X126701429Y-81474647D01*
X126701429Y-81893695D02*
X126701429Y-81093695D01*
X126701429Y-81093695D02*
X127082381Y-81093695D01*
X138926667Y-121453504D02*
X138888571Y-121491600D01*
X138888571Y-121491600D02*
X138774286Y-121529695D01*
X138774286Y-121529695D02*
X138698095Y-121529695D01*
X138698095Y-121529695D02*
X138583809Y-121491600D01*
X138583809Y-121491600D02*
X138507619Y-121415409D01*
X138507619Y-121415409D02*
X138469524Y-121339219D01*
X138469524Y-121339219D02*
X138431428Y-121186838D01*
X138431428Y-121186838D02*
X138431428Y-121072552D01*
X138431428Y-121072552D02*
X138469524Y-120920171D01*
X138469524Y-120920171D02*
X138507619Y-120843980D01*
X138507619Y-120843980D02*
X138583809Y-120767790D01*
X138583809Y-120767790D02*
X138698095Y-120729695D01*
X138698095Y-120729695D02*
X138774286Y-120729695D01*
X138774286Y-120729695D02*
X138888571Y-120767790D01*
X138888571Y-120767790D02*
X138926667Y-120805885D01*
X139383809Y-121072552D02*
X139307619Y-121034457D01*
X139307619Y-121034457D02*
X139269524Y-120996361D01*
X139269524Y-120996361D02*
X139231428Y-120920171D01*
X139231428Y-120920171D02*
X139231428Y-120882076D01*
X139231428Y-120882076D02*
X139269524Y-120805885D01*
X139269524Y-120805885D02*
X139307619Y-120767790D01*
X139307619Y-120767790D02*
X139383809Y-120729695D01*
X139383809Y-120729695D02*
X139536190Y-120729695D01*
X139536190Y-120729695D02*
X139612381Y-120767790D01*
X139612381Y-120767790D02*
X139650476Y-120805885D01*
X139650476Y-120805885D02*
X139688571Y-120882076D01*
X139688571Y-120882076D02*
X139688571Y-120920171D01*
X139688571Y-120920171D02*
X139650476Y-120996361D01*
X139650476Y-120996361D02*
X139612381Y-121034457D01*
X139612381Y-121034457D02*
X139536190Y-121072552D01*
X139536190Y-121072552D02*
X139383809Y-121072552D01*
X139383809Y-121072552D02*
X139307619Y-121110647D01*
X139307619Y-121110647D02*
X139269524Y-121148742D01*
X139269524Y-121148742D02*
X139231428Y-121224933D01*
X139231428Y-121224933D02*
X139231428Y-121377314D01*
X139231428Y-121377314D02*
X139269524Y-121453504D01*
X139269524Y-121453504D02*
X139307619Y-121491600D01*
X139307619Y-121491600D02*
X139383809Y-121529695D01*
X139383809Y-121529695D02*
X139536190Y-121529695D01*
X139536190Y-121529695D02*
X139612381Y-121491600D01*
X139612381Y-121491600D02*
X139650476Y-121453504D01*
X139650476Y-121453504D02*
X139688571Y-121377314D01*
X139688571Y-121377314D02*
X139688571Y-121224933D01*
X139688571Y-121224933D02*
X139650476Y-121148742D01*
X139650476Y-121148742D02*
X139612381Y-121110647D01*
X139612381Y-121110647D02*
X139536190Y-121072552D01*
X137519695Y-122388095D02*
X137519695Y-122845238D01*
X137519695Y-122616666D02*
X136719695Y-122616666D01*
X136719695Y-122616666D02*
X136833980Y-122692857D01*
X136833980Y-122692857D02*
X136910171Y-122769047D01*
X136910171Y-122769047D02*
X136948266Y-122845238D01*
X136719695Y-121892856D02*
X136719695Y-121816666D01*
X136719695Y-121816666D02*
X136757790Y-121740475D01*
X136757790Y-121740475D02*
X136795885Y-121702380D01*
X136795885Y-121702380D02*
X136872076Y-121664285D01*
X136872076Y-121664285D02*
X137024457Y-121626190D01*
X137024457Y-121626190D02*
X137214933Y-121626190D01*
X137214933Y-121626190D02*
X137367314Y-121664285D01*
X137367314Y-121664285D02*
X137443504Y-121702380D01*
X137443504Y-121702380D02*
X137481600Y-121740475D01*
X137481600Y-121740475D02*
X137519695Y-121816666D01*
X137519695Y-121816666D02*
X137519695Y-121892856D01*
X137519695Y-121892856D02*
X137481600Y-121969047D01*
X137481600Y-121969047D02*
X137443504Y-122007142D01*
X137443504Y-122007142D02*
X137367314Y-122045237D01*
X137367314Y-122045237D02*
X137214933Y-122083333D01*
X137214933Y-122083333D02*
X137024457Y-122083333D01*
X137024457Y-122083333D02*
X136872076Y-122045237D01*
X136872076Y-122045237D02*
X136795885Y-122007142D01*
X136795885Y-122007142D02*
X136757790Y-121969047D01*
X136757790Y-121969047D02*
X136719695Y-121892856D01*
X136719695Y-121130951D02*
X136719695Y-121054761D01*
X136719695Y-121054761D02*
X136757790Y-120978570D01*
X136757790Y-120978570D02*
X136795885Y-120940475D01*
X136795885Y-120940475D02*
X136872076Y-120902380D01*
X136872076Y-120902380D02*
X137024457Y-120864285D01*
X137024457Y-120864285D02*
X137214933Y-120864285D01*
X137214933Y-120864285D02*
X137367314Y-120902380D01*
X137367314Y-120902380D02*
X137443504Y-120940475D01*
X137443504Y-120940475D02*
X137481600Y-120978570D01*
X137481600Y-120978570D02*
X137519695Y-121054761D01*
X137519695Y-121054761D02*
X137519695Y-121130951D01*
X137519695Y-121130951D02*
X137481600Y-121207142D01*
X137481600Y-121207142D02*
X137443504Y-121245237D01*
X137443504Y-121245237D02*
X137367314Y-121283332D01*
X137367314Y-121283332D02*
X137214933Y-121321428D01*
X137214933Y-121321428D02*
X137024457Y-121321428D01*
X137024457Y-121321428D02*
X136872076Y-121283332D01*
X136872076Y-121283332D02*
X136795885Y-121245237D01*
X136795885Y-121245237D02*
X136757790Y-121207142D01*
X136757790Y-121207142D02*
X136719695Y-121130951D01*
X136986361Y-120521427D02*
X137786361Y-120521427D01*
X137024457Y-120521427D02*
X136986361Y-120445237D01*
X136986361Y-120445237D02*
X136986361Y-120292856D01*
X136986361Y-120292856D02*
X137024457Y-120216665D01*
X137024457Y-120216665D02*
X137062552Y-120178570D01*
X137062552Y-120178570D02*
X137138742Y-120140475D01*
X137138742Y-120140475D02*
X137367314Y-120140475D01*
X137367314Y-120140475D02*
X137443504Y-120178570D01*
X137443504Y-120178570D02*
X137481600Y-120216665D01*
X137481600Y-120216665D02*
X137519695Y-120292856D01*
X137519695Y-120292856D02*
X137519695Y-120445237D01*
X137519695Y-120445237D02*
X137481600Y-120521427D01*
X137100647Y-119530951D02*
X137100647Y-119797617D01*
X137519695Y-119797617D02*
X136719695Y-119797617D01*
X136719695Y-119797617D02*
X136719695Y-119416665D01*
X141075695Y-110585048D02*
X141075695Y-111042191D01*
X141075695Y-110813619D02*
X140275695Y-110813619D01*
X140275695Y-110813619D02*
X140389980Y-110889810D01*
X140389980Y-110889810D02*
X140466171Y-110966000D01*
X140466171Y-110966000D02*
X140504266Y-111042191D01*
X140275695Y-110089809D02*
X140275695Y-110013619D01*
X140275695Y-110013619D02*
X140313790Y-109937428D01*
X140313790Y-109937428D02*
X140351885Y-109899333D01*
X140351885Y-109899333D02*
X140428076Y-109861238D01*
X140428076Y-109861238D02*
X140580457Y-109823143D01*
X140580457Y-109823143D02*
X140770933Y-109823143D01*
X140770933Y-109823143D02*
X140923314Y-109861238D01*
X140923314Y-109861238D02*
X140999504Y-109899333D01*
X140999504Y-109899333D02*
X141037600Y-109937428D01*
X141037600Y-109937428D02*
X141075695Y-110013619D01*
X141075695Y-110013619D02*
X141075695Y-110089809D01*
X141075695Y-110089809D02*
X141037600Y-110166000D01*
X141037600Y-110166000D02*
X140999504Y-110204095D01*
X140999504Y-110204095D02*
X140923314Y-110242190D01*
X140923314Y-110242190D02*
X140770933Y-110280286D01*
X140770933Y-110280286D02*
X140580457Y-110280286D01*
X140580457Y-110280286D02*
X140428076Y-110242190D01*
X140428076Y-110242190D02*
X140351885Y-110204095D01*
X140351885Y-110204095D02*
X140313790Y-110166000D01*
X140313790Y-110166000D02*
X140275695Y-110089809D01*
X140275695Y-109327904D02*
X140275695Y-109251714D01*
X140275695Y-109251714D02*
X140313790Y-109175523D01*
X140313790Y-109175523D02*
X140351885Y-109137428D01*
X140351885Y-109137428D02*
X140428076Y-109099333D01*
X140428076Y-109099333D02*
X140580457Y-109061238D01*
X140580457Y-109061238D02*
X140770933Y-109061238D01*
X140770933Y-109061238D02*
X140923314Y-109099333D01*
X140923314Y-109099333D02*
X140999504Y-109137428D01*
X140999504Y-109137428D02*
X141037600Y-109175523D01*
X141037600Y-109175523D02*
X141075695Y-109251714D01*
X141075695Y-109251714D02*
X141075695Y-109327904D01*
X141075695Y-109327904D02*
X141037600Y-109404095D01*
X141037600Y-109404095D02*
X140999504Y-109442190D01*
X140999504Y-109442190D02*
X140923314Y-109480285D01*
X140923314Y-109480285D02*
X140770933Y-109518381D01*
X140770933Y-109518381D02*
X140580457Y-109518381D01*
X140580457Y-109518381D02*
X140428076Y-109480285D01*
X140428076Y-109480285D02*
X140351885Y-109442190D01*
X140351885Y-109442190D02*
X140313790Y-109404095D01*
X140313790Y-109404095D02*
X140275695Y-109327904D01*
X140275695Y-108565999D02*
X140275695Y-108489809D01*
X140275695Y-108489809D02*
X140313790Y-108413618D01*
X140313790Y-108413618D02*
X140351885Y-108375523D01*
X140351885Y-108375523D02*
X140428076Y-108337428D01*
X140428076Y-108337428D02*
X140580457Y-108299333D01*
X140580457Y-108299333D02*
X140770933Y-108299333D01*
X140770933Y-108299333D02*
X140923314Y-108337428D01*
X140923314Y-108337428D02*
X140999504Y-108375523D01*
X140999504Y-108375523D02*
X141037600Y-108413618D01*
X141037600Y-108413618D02*
X141075695Y-108489809D01*
X141075695Y-108489809D02*
X141075695Y-108565999D01*
X141075695Y-108565999D02*
X141037600Y-108642190D01*
X141037600Y-108642190D02*
X140999504Y-108680285D01*
X140999504Y-108680285D02*
X140923314Y-108718380D01*
X140923314Y-108718380D02*
X140770933Y-108756476D01*
X140770933Y-108756476D02*
X140580457Y-108756476D01*
X140580457Y-108756476D02*
X140428076Y-108718380D01*
X140428076Y-108718380D02*
X140351885Y-108680285D01*
X140351885Y-108680285D02*
X140313790Y-108642190D01*
X140313790Y-108642190D02*
X140275695Y-108565999D01*
X140542361Y-107956475D02*
X141342361Y-107956475D01*
X140580457Y-107956475D02*
X140542361Y-107880285D01*
X140542361Y-107880285D02*
X140542361Y-107727904D01*
X140542361Y-107727904D02*
X140580457Y-107651713D01*
X140580457Y-107651713D02*
X140618552Y-107613618D01*
X140618552Y-107613618D02*
X140694742Y-107575523D01*
X140694742Y-107575523D02*
X140923314Y-107575523D01*
X140923314Y-107575523D02*
X140999504Y-107613618D01*
X140999504Y-107613618D02*
X141037600Y-107651713D01*
X141037600Y-107651713D02*
X141075695Y-107727904D01*
X141075695Y-107727904D02*
X141075695Y-107880285D01*
X141075695Y-107880285D02*
X141037600Y-107956475D01*
X140656647Y-106965999D02*
X140656647Y-107232665D01*
X141075695Y-107232665D02*
X140275695Y-107232665D01*
X140275695Y-107232665D02*
X140275695Y-106851713D01*
X159043504Y-96414285D02*
X159081600Y-96452381D01*
X159081600Y-96452381D02*
X159119695Y-96566666D01*
X159119695Y-96566666D02*
X159119695Y-96642857D01*
X159119695Y-96642857D02*
X159081600Y-96757143D01*
X159081600Y-96757143D02*
X159005409Y-96833333D01*
X159005409Y-96833333D02*
X158929219Y-96871428D01*
X158929219Y-96871428D02*
X158776838Y-96909524D01*
X158776838Y-96909524D02*
X158662552Y-96909524D01*
X158662552Y-96909524D02*
X158510171Y-96871428D01*
X158510171Y-96871428D02*
X158433980Y-96833333D01*
X158433980Y-96833333D02*
X158357790Y-96757143D01*
X158357790Y-96757143D02*
X158319695Y-96642857D01*
X158319695Y-96642857D02*
X158319695Y-96566666D01*
X158319695Y-96566666D02*
X158357790Y-96452381D01*
X158357790Y-96452381D02*
X158395885Y-96414285D01*
X159119695Y-95652381D02*
X159119695Y-96109524D01*
X159119695Y-95880952D02*
X158319695Y-95880952D01*
X158319695Y-95880952D02*
X158433980Y-95957143D01*
X158433980Y-95957143D02*
X158510171Y-96033333D01*
X158510171Y-96033333D02*
X158548266Y-96109524D01*
X158319695Y-94966666D02*
X158319695Y-95119047D01*
X158319695Y-95119047D02*
X158357790Y-95195238D01*
X158357790Y-95195238D02*
X158395885Y-95233333D01*
X158395885Y-95233333D02*
X158510171Y-95309523D01*
X158510171Y-95309523D02*
X158662552Y-95347619D01*
X158662552Y-95347619D02*
X158967314Y-95347619D01*
X158967314Y-95347619D02*
X159043504Y-95309523D01*
X159043504Y-95309523D02*
X159081600Y-95271428D01*
X159081600Y-95271428D02*
X159119695Y-95195238D01*
X159119695Y-95195238D02*
X159119695Y-95042857D01*
X159119695Y-95042857D02*
X159081600Y-94966666D01*
X159081600Y-94966666D02*
X159043504Y-94928571D01*
X159043504Y-94928571D02*
X158967314Y-94890476D01*
X158967314Y-94890476D02*
X158776838Y-94890476D01*
X158776838Y-94890476D02*
X158700647Y-94928571D01*
X158700647Y-94928571D02*
X158662552Y-94966666D01*
X158662552Y-94966666D02*
X158624457Y-95042857D01*
X158624457Y-95042857D02*
X158624457Y-95195238D01*
X158624457Y-95195238D02*
X158662552Y-95271428D01*
X158662552Y-95271428D02*
X158700647Y-95309523D01*
X158700647Y-95309523D02*
X158776838Y-95347619D01*
X155636667Y-120939695D02*
X155370000Y-120558742D01*
X155179524Y-120939695D02*
X155179524Y-120139695D01*
X155179524Y-120139695D02*
X155484286Y-120139695D01*
X155484286Y-120139695D02*
X155560476Y-120177790D01*
X155560476Y-120177790D02*
X155598571Y-120215885D01*
X155598571Y-120215885D02*
X155636667Y-120292076D01*
X155636667Y-120292076D02*
X155636667Y-120406361D01*
X155636667Y-120406361D02*
X155598571Y-120482552D01*
X155598571Y-120482552D02*
X155560476Y-120520647D01*
X155560476Y-120520647D02*
X155484286Y-120558742D01*
X155484286Y-120558742D02*
X155179524Y-120558742D01*
X156322381Y-120139695D02*
X156170000Y-120139695D01*
X156170000Y-120139695D02*
X156093809Y-120177790D01*
X156093809Y-120177790D02*
X156055714Y-120215885D01*
X156055714Y-120215885D02*
X155979524Y-120330171D01*
X155979524Y-120330171D02*
X155941428Y-120482552D01*
X155941428Y-120482552D02*
X155941428Y-120787314D01*
X155941428Y-120787314D02*
X155979524Y-120863504D01*
X155979524Y-120863504D02*
X156017619Y-120901600D01*
X156017619Y-120901600D02*
X156093809Y-120939695D01*
X156093809Y-120939695D02*
X156246190Y-120939695D01*
X156246190Y-120939695D02*
X156322381Y-120901600D01*
X156322381Y-120901600D02*
X156360476Y-120863504D01*
X156360476Y-120863504D02*
X156398571Y-120787314D01*
X156398571Y-120787314D02*
X156398571Y-120596838D01*
X156398571Y-120596838D02*
X156360476Y-120520647D01*
X156360476Y-120520647D02*
X156322381Y-120482552D01*
X156322381Y-120482552D02*
X156246190Y-120444457D01*
X156246190Y-120444457D02*
X156093809Y-120444457D01*
X156093809Y-120444457D02*
X156017619Y-120482552D01*
X156017619Y-120482552D02*
X155979524Y-120520647D01*
X155979524Y-120520647D02*
X155941428Y-120596838D01*
X157773809Y-120949695D02*
X157316666Y-120949695D01*
X157545238Y-120949695D02*
X157545238Y-120149695D01*
X157545238Y-120149695D02*
X157469047Y-120263980D01*
X157469047Y-120263980D02*
X157392857Y-120340171D01*
X157392857Y-120340171D02*
X157316666Y-120378266D01*
X158269048Y-120149695D02*
X158345238Y-120149695D01*
X158345238Y-120149695D02*
X158421429Y-120187790D01*
X158421429Y-120187790D02*
X158459524Y-120225885D01*
X158459524Y-120225885D02*
X158497619Y-120302076D01*
X158497619Y-120302076D02*
X158535714Y-120454457D01*
X158535714Y-120454457D02*
X158535714Y-120644933D01*
X158535714Y-120644933D02*
X158497619Y-120797314D01*
X158497619Y-120797314D02*
X158459524Y-120873504D01*
X158459524Y-120873504D02*
X158421429Y-120911600D01*
X158421429Y-120911600D02*
X158345238Y-120949695D01*
X158345238Y-120949695D02*
X158269048Y-120949695D01*
X158269048Y-120949695D02*
X158192857Y-120911600D01*
X158192857Y-120911600D02*
X158154762Y-120873504D01*
X158154762Y-120873504D02*
X158116667Y-120797314D01*
X158116667Y-120797314D02*
X158078571Y-120644933D01*
X158078571Y-120644933D02*
X158078571Y-120454457D01*
X158078571Y-120454457D02*
X158116667Y-120302076D01*
X158116667Y-120302076D02*
X158154762Y-120225885D01*
X158154762Y-120225885D02*
X158192857Y-120187790D01*
X158192857Y-120187790D02*
X158269048Y-120149695D01*
X158878572Y-120949695D02*
X158878572Y-120149695D01*
X158954762Y-120644933D02*
X159183334Y-120949695D01*
X159183334Y-120416361D02*
X158878572Y-120721123D01*
X133470667Y-115167695D02*
X133204000Y-114786742D01*
X133013524Y-115167695D02*
X133013524Y-114367695D01*
X133013524Y-114367695D02*
X133318286Y-114367695D01*
X133318286Y-114367695D02*
X133394476Y-114405790D01*
X133394476Y-114405790D02*
X133432571Y-114443885D01*
X133432571Y-114443885D02*
X133470667Y-114520076D01*
X133470667Y-114520076D02*
X133470667Y-114634361D01*
X133470667Y-114634361D02*
X133432571Y-114710552D01*
X133432571Y-114710552D02*
X133394476Y-114748647D01*
X133394476Y-114748647D02*
X133318286Y-114786742D01*
X133318286Y-114786742D02*
X133013524Y-114786742D01*
X133775428Y-114443885D02*
X133813524Y-114405790D01*
X133813524Y-114405790D02*
X133889714Y-114367695D01*
X133889714Y-114367695D02*
X134080190Y-114367695D01*
X134080190Y-114367695D02*
X134156381Y-114405790D01*
X134156381Y-114405790D02*
X134194476Y-114443885D01*
X134194476Y-114443885D02*
X134232571Y-114520076D01*
X134232571Y-114520076D02*
X134232571Y-114596266D01*
X134232571Y-114596266D02*
X134194476Y-114710552D01*
X134194476Y-114710552D02*
X133737333Y-115167695D01*
X133737333Y-115167695D02*
X134232571Y-115167695D01*
X136290190Y-117453695D02*
X135833047Y-117453695D01*
X136061619Y-117453695D02*
X136061619Y-116653695D01*
X136061619Y-116653695D02*
X135985428Y-116767980D01*
X135985428Y-116767980D02*
X135909238Y-116844171D01*
X135909238Y-116844171D02*
X135833047Y-116882266D01*
X136633048Y-117377504D02*
X136671143Y-117415600D01*
X136671143Y-117415600D02*
X136633048Y-117453695D01*
X136633048Y-117453695D02*
X136594952Y-117415600D01*
X136594952Y-117415600D02*
X136633048Y-117377504D01*
X136633048Y-117377504D02*
X136633048Y-117453695D01*
X137356857Y-116653695D02*
X137204476Y-116653695D01*
X137204476Y-116653695D02*
X137128285Y-116691790D01*
X137128285Y-116691790D02*
X137090190Y-116729885D01*
X137090190Y-116729885D02*
X137014000Y-116844171D01*
X137014000Y-116844171D02*
X136975904Y-116996552D01*
X136975904Y-116996552D02*
X136975904Y-117301314D01*
X136975904Y-117301314D02*
X137014000Y-117377504D01*
X137014000Y-117377504D02*
X137052095Y-117415600D01*
X137052095Y-117415600D02*
X137128285Y-117453695D01*
X137128285Y-117453695D02*
X137280666Y-117453695D01*
X137280666Y-117453695D02*
X137356857Y-117415600D01*
X137356857Y-117415600D02*
X137394952Y-117377504D01*
X137394952Y-117377504D02*
X137433047Y-117301314D01*
X137433047Y-117301314D02*
X137433047Y-117110838D01*
X137433047Y-117110838D02*
X137394952Y-117034647D01*
X137394952Y-117034647D02*
X137356857Y-116996552D01*
X137356857Y-116996552D02*
X137280666Y-116958457D01*
X137280666Y-116958457D02*
X137128285Y-116958457D01*
X137128285Y-116958457D02*
X137052095Y-116996552D01*
X137052095Y-116996552D02*
X137014000Y-117034647D01*
X137014000Y-117034647D02*
X136975904Y-117110838D01*
X137814000Y-117453695D02*
X137966381Y-117453695D01*
X137966381Y-117453695D02*
X138042571Y-117415600D01*
X138042571Y-117415600D02*
X138080667Y-117377504D01*
X138080667Y-117377504D02*
X138156857Y-117263219D01*
X138156857Y-117263219D02*
X138194952Y-117110838D01*
X138194952Y-117110838D02*
X138194952Y-116806076D01*
X138194952Y-116806076D02*
X138156857Y-116729885D01*
X138156857Y-116729885D02*
X138118762Y-116691790D01*
X138118762Y-116691790D02*
X138042571Y-116653695D01*
X138042571Y-116653695D02*
X137890190Y-116653695D01*
X137890190Y-116653695D02*
X137814000Y-116691790D01*
X137814000Y-116691790D02*
X137775905Y-116729885D01*
X137775905Y-116729885D02*
X137737809Y-116806076D01*
X137737809Y-116806076D02*
X137737809Y-116996552D01*
X137737809Y-116996552D02*
X137775905Y-117072742D01*
X137775905Y-117072742D02*
X137814000Y-117110838D01*
X137814000Y-117110838D02*
X137890190Y-117148933D01*
X137890190Y-117148933D02*
X138042571Y-117148933D01*
X138042571Y-117148933D02*
X138118762Y-117110838D01*
X138118762Y-117110838D02*
X138156857Y-117072742D01*
X138156857Y-117072742D02*
X138194952Y-116996552D01*
X138537810Y-117453695D02*
X138537810Y-116653695D01*
X138994953Y-117453695D02*
X138652095Y-116996552D01*
X138994953Y-116653695D02*
X138537810Y-117110838D01*
X141866667Y-129959695D02*
X141600000Y-129578742D01*
X141409524Y-129959695D02*
X141409524Y-129159695D01*
X141409524Y-129159695D02*
X141714286Y-129159695D01*
X141714286Y-129159695D02*
X141790476Y-129197790D01*
X141790476Y-129197790D02*
X141828571Y-129235885D01*
X141828571Y-129235885D02*
X141866667Y-129312076D01*
X141866667Y-129312076D02*
X141866667Y-129426361D01*
X141866667Y-129426361D02*
X141828571Y-129502552D01*
X141828571Y-129502552D02*
X141790476Y-129540647D01*
X141790476Y-129540647D02*
X141714286Y-129578742D01*
X141714286Y-129578742D02*
X141409524Y-129578742D01*
X142133333Y-129159695D02*
X142628571Y-129159695D01*
X142628571Y-129159695D02*
X142361905Y-129464457D01*
X142361905Y-129464457D02*
X142476190Y-129464457D01*
X142476190Y-129464457D02*
X142552381Y-129502552D01*
X142552381Y-129502552D02*
X142590476Y-129540647D01*
X142590476Y-129540647D02*
X142628571Y-129616838D01*
X142628571Y-129616838D02*
X142628571Y-129807314D01*
X142628571Y-129807314D02*
X142590476Y-129883504D01*
X142590476Y-129883504D02*
X142552381Y-129921600D01*
X142552381Y-129921600D02*
X142476190Y-129959695D01*
X142476190Y-129959695D02*
X142247619Y-129959695D01*
X142247619Y-129959695D02*
X142171428Y-129921600D01*
X142171428Y-129921600D02*
X142133333Y-129883504D01*
X133257142Y-131359695D02*
X132799999Y-131359695D01*
X133028571Y-131359695D02*
X133028571Y-130559695D01*
X133028571Y-130559695D02*
X132952380Y-130673980D01*
X132952380Y-130673980D02*
X132876190Y-130750171D01*
X132876190Y-130750171D02*
X132799999Y-130788266D01*
X133600000Y-131283504D02*
X133638095Y-131321600D01*
X133638095Y-131321600D02*
X133600000Y-131359695D01*
X133600000Y-131359695D02*
X133561904Y-131321600D01*
X133561904Y-131321600D02*
X133600000Y-131283504D01*
X133600000Y-131283504D02*
X133600000Y-131359695D01*
X134361904Y-130559695D02*
X133980952Y-130559695D01*
X133980952Y-130559695D02*
X133942856Y-130940647D01*
X133942856Y-130940647D02*
X133980952Y-130902552D01*
X133980952Y-130902552D02*
X134057142Y-130864457D01*
X134057142Y-130864457D02*
X134247618Y-130864457D01*
X134247618Y-130864457D02*
X134323809Y-130902552D01*
X134323809Y-130902552D02*
X134361904Y-130940647D01*
X134361904Y-130940647D02*
X134399999Y-131016838D01*
X134399999Y-131016838D02*
X134399999Y-131207314D01*
X134399999Y-131207314D02*
X134361904Y-131283504D01*
X134361904Y-131283504D02*
X134323809Y-131321600D01*
X134323809Y-131321600D02*
X134247618Y-131359695D01*
X134247618Y-131359695D02*
X134057142Y-131359695D01*
X134057142Y-131359695D02*
X133980952Y-131321600D01*
X133980952Y-131321600D02*
X133942856Y-131283504D01*
X133073333Y-93940647D02*
X132806667Y-93940647D01*
X132806667Y-94359695D02*
X132806667Y-93559695D01*
X132806667Y-93559695D02*
X133187619Y-93559695D01*
X133759047Y-93940647D02*
X133873333Y-93978742D01*
X133873333Y-93978742D02*
X133911428Y-94016838D01*
X133911428Y-94016838D02*
X133949524Y-94093028D01*
X133949524Y-94093028D02*
X133949524Y-94207314D01*
X133949524Y-94207314D02*
X133911428Y-94283504D01*
X133911428Y-94283504D02*
X133873333Y-94321600D01*
X133873333Y-94321600D02*
X133797143Y-94359695D01*
X133797143Y-94359695D02*
X133492381Y-94359695D01*
X133492381Y-94359695D02*
X133492381Y-93559695D01*
X133492381Y-93559695D02*
X133759047Y-93559695D01*
X133759047Y-93559695D02*
X133835238Y-93597790D01*
X133835238Y-93597790D02*
X133873333Y-93635885D01*
X133873333Y-93635885D02*
X133911428Y-93712076D01*
X133911428Y-93712076D02*
X133911428Y-93788266D01*
X133911428Y-93788266D02*
X133873333Y-93864457D01*
X133873333Y-93864457D02*
X133835238Y-93902552D01*
X133835238Y-93902552D02*
X133759047Y-93940647D01*
X133759047Y-93940647D02*
X133492381Y-93940647D01*
X134254285Y-93635885D02*
X134292381Y-93597790D01*
X134292381Y-93597790D02*
X134368571Y-93559695D01*
X134368571Y-93559695D02*
X134559047Y-93559695D01*
X134559047Y-93559695D02*
X134635238Y-93597790D01*
X134635238Y-93597790D02*
X134673333Y-93635885D01*
X134673333Y-93635885D02*
X134711428Y-93712076D01*
X134711428Y-93712076D02*
X134711428Y-93788266D01*
X134711428Y-93788266D02*
X134673333Y-93902552D01*
X134673333Y-93902552D02*
X134216190Y-94359695D01*
X134216190Y-94359695D02*
X134711428Y-94359695D01*
X131470476Y-85665695D02*
X131470476Y-86313314D01*
X131470476Y-86313314D02*
X131508571Y-86389504D01*
X131508571Y-86389504D02*
X131546666Y-86427600D01*
X131546666Y-86427600D02*
X131622857Y-86465695D01*
X131622857Y-86465695D02*
X131775238Y-86465695D01*
X131775238Y-86465695D02*
X131851428Y-86427600D01*
X131851428Y-86427600D02*
X131889523Y-86389504D01*
X131889523Y-86389504D02*
X131927619Y-86313314D01*
X131927619Y-86313314D02*
X131927619Y-85665695D01*
X132727618Y-86465695D02*
X132270475Y-86465695D01*
X132499047Y-86465695D02*
X132499047Y-85665695D01*
X132499047Y-85665695D02*
X132422856Y-85779980D01*
X132422856Y-85779980D02*
X132346666Y-85856171D01*
X132346666Y-85856171D02*
X132270475Y-85894266D01*
X126841333Y-95444647D02*
X126574667Y-95444647D01*
X126574667Y-95863695D02*
X126574667Y-95063695D01*
X126574667Y-95063695D02*
X126955619Y-95063695D01*
X127527047Y-95444647D02*
X127641333Y-95482742D01*
X127641333Y-95482742D02*
X127679428Y-95520838D01*
X127679428Y-95520838D02*
X127717524Y-95597028D01*
X127717524Y-95597028D02*
X127717524Y-95711314D01*
X127717524Y-95711314D02*
X127679428Y-95787504D01*
X127679428Y-95787504D02*
X127641333Y-95825600D01*
X127641333Y-95825600D02*
X127565143Y-95863695D01*
X127565143Y-95863695D02*
X127260381Y-95863695D01*
X127260381Y-95863695D02*
X127260381Y-95063695D01*
X127260381Y-95063695D02*
X127527047Y-95063695D01*
X127527047Y-95063695D02*
X127603238Y-95101790D01*
X127603238Y-95101790D02*
X127641333Y-95139885D01*
X127641333Y-95139885D02*
X127679428Y-95216076D01*
X127679428Y-95216076D02*
X127679428Y-95292266D01*
X127679428Y-95292266D02*
X127641333Y-95368457D01*
X127641333Y-95368457D02*
X127603238Y-95406552D01*
X127603238Y-95406552D02*
X127527047Y-95444647D01*
X127527047Y-95444647D02*
X127260381Y-95444647D01*
X128479428Y-95863695D02*
X128022285Y-95863695D01*
X128250857Y-95863695D02*
X128250857Y-95063695D01*
X128250857Y-95063695D02*
X128174666Y-95177980D01*
X128174666Y-95177980D02*
X128098476Y-95254171D01*
X128098476Y-95254171D02*
X128022285Y-95292266D01*
X111865695Y-90303332D02*
X111484742Y-90569999D01*
X111865695Y-90760475D02*
X111065695Y-90760475D01*
X111065695Y-90760475D02*
X111065695Y-90455713D01*
X111065695Y-90455713D02*
X111103790Y-90379523D01*
X111103790Y-90379523D02*
X111141885Y-90341428D01*
X111141885Y-90341428D02*
X111218076Y-90303332D01*
X111218076Y-90303332D02*
X111332361Y-90303332D01*
X111332361Y-90303332D02*
X111408552Y-90341428D01*
X111408552Y-90341428D02*
X111446647Y-90379523D01*
X111446647Y-90379523D02*
X111484742Y-90455713D01*
X111484742Y-90455713D02*
X111484742Y-90760475D01*
X111065695Y-90036666D02*
X111065695Y-89503332D01*
X111065695Y-89503332D02*
X111865695Y-89846190D01*
X113359695Y-60514285D02*
X112978742Y-60780952D01*
X113359695Y-60971428D02*
X112559695Y-60971428D01*
X112559695Y-60971428D02*
X112559695Y-60666666D01*
X112559695Y-60666666D02*
X112597790Y-60590476D01*
X112597790Y-60590476D02*
X112635885Y-60552381D01*
X112635885Y-60552381D02*
X112712076Y-60514285D01*
X112712076Y-60514285D02*
X112826361Y-60514285D01*
X112826361Y-60514285D02*
X112902552Y-60552381D01*
X112902552Y-60552381D02*
X112940647Y-60590476D01*
X112940647Y-60590476D02*
X112978742Y-60666666D01*
X112978742Y-60666666D02*
X112978742Y-60971428D01*
X112559695Y-59828571D02*
X112559695Y-59980952D01*
X112559695Y-59980952D02*
X112597790Y-60057143D01*
X112597790Y-60057143D02*
X112635885Y-60095238D01*
X112635885Y-60095238D02*
X112750171Y-60171428D01*
X112750171Y-60171428D02*
X112902552Y-60209524D01*
X112902552Y-60209524D02*
X113207314Y-60209524D01*
X113207314Y-60209524D02*
X113283504Y-60171428D01*
X113283504Y-60171428D02*
X113321600Y-60133333D01*
X113321600Y-60133333D02*
X113359695Y-60057143D01*
X113359695Y-60057143D02*
X113359695Y-59904762D01*
X113359695Y-59904762D02*
X113321600Y-59828571D01*
X113321600Y-59828571D02*
X113283504Y-59790476D01*
X113283504Y-59790476D02*
X113207314Y-59752381D01*
X113207314Y-59752381D02*
X113016838Y-59752381D01*
X113016838Y-59752381D02*
X112940647Y-59790476D01*
X112940647Y-59790476D02*
X112902552Y-59828571D01*
X112902552Y-59828571D02*
X112864457Y-59904762D01*
X112864457Y-59904762D02*
X112864457Y-60057143D01*
X112864457Y-60057143D02*
X112902552Y-60133333D01*
X112902552Y-60133333D02*
X112940647Y-60171428D01*
X112940647Y-60171428D02*
X113016838Y-60209524D01*
X112559695Y-59257142D02*
X112559695Y-59180952D01*
X112559695Y-59180952D02*
X112597790Y-59104761D01*
X112597790Y-59104761D02*
X112635885Y-59066666D01*
X112635885Y-59066666D02*
X112712076Y-59028571D01*
X112712076Y-59028571D02*
X112864457Y-58990476D01*
X112864457Y-58990476D02*
X113054933Y-58990476D01*
X113054933Y-58990476D02*
X113207314Y-59028571D01*
X113207314Y-59028571D02*
X113283504Y-59066666D01*
X113283504Y-59066666D02*
X113321600Y-59104761D01*
X113321600Y-59104761D02*
X113359695Y-59180952D01*
X113359695Y-59180952D02*
X113359695Y-59257142D01*
X113359695Y-59257142D02*
X113321600Y-59333333D01*
X113321600Y-59333333D02*
X113283504Y-59371428D01*
X113283504Y-59371428D02*
X113207314Y-59409523D01*
X113207314Y-59409523D02*
X113054933Y-59447619D01*
X113054933Y-59447619D02*
X112864457Y-59447619D01*
X112864457Y-59447619D02*
X112712076Y-59409523D01*
X112712076Y-59409523D02*
X112635885Y-59371428D01*
X112635885Y-59371428D02*
X112597790Y-59333333D01*
X112597790Y-59333333D02*
X112559695Y-59257142D01*
X123636666Y-109949695D02*
X123255714Y-109949695D01*
X123255714Y-109949695D02*
X123255714Y-109149695D01*
X124246190Y-109416361D02*
X124246190Y-109949695D01*
X124055714Y-109111600D02*
X123865237Y-109683028D01*
X123865237Y-109683028D02*
X124360476Y-109683028D01*
X162171428Y-81529695D02*
X162171428Y-82101123D01*
X162171428Y-82101123D02*
X162133333Y-82215409D01*
X162133333Y-82215409D02*
X162057142Y-82291600D01*
X162057142Y-82291600D02*
X161942857Y-82329695D01*
X161942857Y-82329695D02*
X161866666Y-82329695D01*
X162933333Y-81529695D02*
X162552381Y-81529695D01*
X162552381Y-81529695D02*
X162514285Y-81910647D01*
X162514285Y-81910647D02*
X162552381Y-81872552D01*
X162552381Y-81872552D02*
X162628571Y-81834457D01*
X162628571Y-81834457D02*
X162819047Y-81834457D01*
X162819047Y-81834457D02*
X162895238Y-81872552D01*
X162895238Y-81872552D02*
X162933333Y-81910647D01*
X162933333Y-81910647D02*
X162971428Y-81986838D01*
X162971428Y-81986838D02*
X162971428Y-82177314D01*
X162971428Y-82177314D02*
X162933333Y-82253504D01*
X162933333Y-82253504D02*
X162895238Y-82291600D01*
X162895238Y-82291600D02*
X162819047Y-82329695D01*
X162819047Y-82329695D02*
X162628571Y-82329695D01*
X162628571Y-82329695D02*
X162552381Y-82291600D01*
X162552381Y-82291600D02*
X162514285Y-82253504D01*
X163466667Y-81529695D02*
X163542857Y-81529695D01*
X163542857Y-81529695D02*
X163619048Y-81567790D01*
X163619048Y-81567790D02*
X163657143Y-81605885D01*
X163657143Y-81605885D02*
X163695238Y-81682076D01*
X163695238Y-81682076D02*
X163733333Y-81834457D01*
X163733333Y-81834457D02*
X163733333Y-82024933D01*
X163733333Y-82024933D02*
X163695238Y-82177314D01*
X163695238Y-82177314D02*
X163657143Y-82253504D01*
X163657143Y-82253504D02*
X163619048Y-82291600D01*
X163619048Y-82291600D02*
X163542857Y-82329695D01*
X163542857Y-82329695D02*
X163466667Y-82329695D01*
X163466667Y-82329695D02*
X163390476Y-82291600D01*
X163390476Y-82291600D02*
X163352381Y-82253504D01*
X163352381Y-82253504D02*
X163314286Y-82177314D01*
X163314286Y-82177314D02*
X163276190Y-82024933D01*
X163276190Y-82024933D02*
X163276190Y-81834457D01*
X163276190Y-81834457D02*
X163314286Y-81682076D01*
X163314286Y-81682076D02*
X163352381Y-81605885D01*
X163352381Y-81605885D02*
X163390476Y-81567790D01*
X163390476Y-81567790D02*
X163466667Y-81529695D01*
X164419048Y-81796361D02*
X164419048Y-82329695D01*
X164228572Y-81491600D02*
X164038095Y-82063028D01*
X164038095Y-82063028D02*
X164533334Y-82063028D01*
X127247714Y-107725504D02*
X127209618Y-107763600D01*
X127209618Y-107763600D02*
X127095333Y-107801695D01*
X127095333Y-107801695D02*
X127019142Y-107801695D01*
X127019142Y-107801695D02*
X126904856Y-107763600D01*
X126904856Y-107763600D02*
X126828666Y-107687409D01*
X126828666Y-107687409D02*
X126790571Y-107611219D01*
X126790571Y-107611219D02*
X126752475Y-107458838D01*
X126752475Y-107458838D02*
X126752475Y-107344552D01*
X126752475Y-107344552D02*
X126790571Y-107192171D01*
X126790571Y-107192171D02*
X126828666Y-107115980D01*
X126828666Y-107115980D02*
X126904856Y-107039790D01*
X126904856Y-107039790D02*
X127019142Y-107001695D01*
X127019142Y-107001695D02*
X127095333Y-107001695D01*
X127095333Y-107001695D02*
X127209618Y-107039790D01*
X127209618Y-107039790D02*
X127247714Y-107077885D01*
X128009618Y-107801695D02*
X127552475Y-107801695D01*
X127781047Y-107801695D02*
X127781047Y-107001695D01*
X127781047Y-107001695D02*
X127704856Y-107115980D01*
X127704856Y-107115980D02*
X127628666Y-107192171D01*
X127628666Y-107192171D02*
X127552475Y-107230266D01*
X128695333Y-107268361D02*
X128695333Y-107801695D01*
X128504857Y-106963600D02*
X128314380Y-107535028D01*
X128314380Y-107535028D02*
X128809619Y-107535028D01*
X129241714Y-109541695D02*
X129317904Y-109541695D01*
X129317904Y-109541695D02*
X129394095Y-109579790D01*
X129394095Y-109579790D02*
X129432190Y-109617885D01*
X129432190Y-109617885D02*
X129470285Y-109694076D01*
X129470285Y-109694076D02*
X129508380Y-109846457D01*
X129508380Y-109846457D02*
X129508380Y-110036933D01*
X129508380Y-110036933D02*
X129470285Y-110189314D01*
X129470285Y-110189314D02*
X129432190Y-110265504D01*
X129432190Y-110265504D02*
X129394095Y-110303600D01*
X129394095Y-110303600D02*
X129317904Y-110341695D01*
X129317904Y-110341695D02*
X129241714Y-110341695D01*
X129241714Y-110341695D02*
X129165523Y-110303600D01*
X129165523Y-110303600D02*
X129127428Y-110265504D01*
X129127428Y-110265504D02*
X129089333Y-110189314D01*
X129089333Y-110189314D02*
X129051237Y-110036933D01*
X129051237Y-110036933D02*
X129051237Y-109846457D01*
X129051237Y-109846457D02*
X129089333Y-109694076D01*
X129089333Y-109694076D02*
X129127428Y-109617885D01*
X129127428Y-109617885D02*
X129165523Y-109579790D01*
X129165523Y-109579790D02*
X129241714Y-109541695D01*
X129851238Y-110265504D02*
X129889333Y-110303600D01*
X129889333Y-110303600D02*
X129851238Y-110341695D01*
X129851238Y-110341695D02*
X129813142Y-110303600D01*
X129813142Y-110303600D02*
X129851238Y-110265504D01*
X129851238Y-110265504D02*
X129851238Y-110341695D01*
X130651237Y-110341695D02*
X130194094Y-110341695D01*
X130422666Y-110341695D02*
X130422666Y-109541695D01*
X130422666Y-109541695D02*
X130346475Y-109655980D01*
X130346475Y-109655980D02*
X130270285Y-109732171D01*
X130270285Y-109732171D02*
X130194094Y-109770266D01*
X131336952Y-109808361D02*
X131336952Y-110341695D01*
X130994095Y-109808361D02*
X130994095Y-110227409D01*
X130994095Y-110227409D02*
X131032190Y-110303600D01*
X131032190Y-110303600D02*
X131108380Y-110341695D01*
X131108380Y-110341695D02*
X131222666Y-110341695D01*
X131222666Y-110341695D02*
X131298857Y-110303600D01*
X131298857Y-110303600D02*
X131336952Y-110265504D01*
X131984571Y-109922647D02*
X131717905Y-109922647D01*
X131717905Y-110341695D02*
X131717905Y-109541695D01*
X131717905Y-109541695D02*
X132098857Y-109541695D01*
X133566667Y-129759695D02*
X133300000Y-129378742D01*
X133109524Y-129759695D02*
X133109524Y-128959695D01*
X133109524Y-128959695D02*
X133414286Y-128959695D01*
X133414286Y-128959695D02*
X133490476Y-128997790D01*
X133490476Y-128997790D02*
X133528571Y-129035885D01*
X133528571Y-129035885D02*
X133566667Y-129112076D01*
X133566667Y-129112076D02*
X133566667Y-129226361D01*
X133566667Y-129226361D02*
X133528571Y-129302552D01*
X133528571Y-129302552D02*
X133490476Y-129340647D01*
X133490476Y-129340647D02*
X133414286Y-129378742D01*
X133414286Y-129378742D02*
X133109524Y-129378742D01*
X134252381Y-129226361D02*
X134252381Y-129759695D01*
X134061905Y-128921600D02*
X133871428Y-129493028D01*
X133871428Y-129493028D02*
X134366667Y-129493028D01*
X141557142Y-131459695D02*
X141099999Y-131459695D01*
X141328571Y-131459695D02*
X141328571Y-130659695D01*
X141328571Y-130659695D02*
X141252380Y-130773980D01*
X141252380Y-130773980D02*
X141176190Y-130850171D01*
X141176190Y-130850171D02*
X141099999Y-130888266D01*
X141900000Y-131383504D02*
X141938095Y-131421600D01*
X141938095Y-131421600D02*
X141900000Y-131459695D01*
X141900000Y-131459695D02*
X141861904Y-131421600D01*
X141861904Y-131421600D02*
X141900000Y-131383504D01*
X141900000Y-131383504D02*
X141900000Y-131459695D01*
X142661904Y-130659695D02*
X142280952Y-130659695D01*
X142280952Y-130659695D02*
X142242856Y-131040647D01*
X142242856Y-131040647D02*
X142280952Y-131002552D01*
X142280952Y-131002552D02*
X142357142Y-130964457D01*
X142357142Y-130964457D02*
X142547618Y-130964457D01*
X142547618Y-130964457D02*
X142623809Y-131002552D01*
X142623809Y-131002552D02*
X142661904Y-131040647D01*
X142661904Y-131040647D02*
X142699999Y-131116838D01*
X142699999Y-131116838D02*
X142699999Y-131307314D01*
X142699999Y-131307314D02*
X142661904Y-131383504D01*
X142661904Y-131383504D02*
X142623809Y-131421600D01*
X142623809Y-131421600D02*
X142547618Y-131459695D01*
X142547618Y-131459695D02*
X142357142Y-131459695D01*
X142357142Y-131459695D02*
X142280952Y-131421600D01*
X142280952Y-131421600D02*
X142242856Y-131383504D01*
X115690667Y-114075504D02*
X115652571Y-114113600D01*
X115652571Y-114113600D02*
X115538286Y-114151695D01*
X115538286Y-114151695D02*
X115462095Y-114151695D01*
X115462095Y-114151695D02*
X115347809Y-114113600D01*
X115347809Y-114113600D02*
X115271619Y-114037409D01*
X115271619Y-114037409D02*
X115233524Y-113961219D01*
X115233524Y-113961219D02*
X115195428Y-113808838D01*
X115195428Y-113808838D02*
X115195428Y-113694552D01*
X115195428Y-113694552D02*
X115233524Y-113542171D01*
X115233524Y-113542171D02*
X115271619Y-113465980D01*
X115271619Y-113465980D02*
X115347809Y-113389790D01*
X115347809Y-113389790D02*
X115462095Y-113351695D01*
X115462095Y-113351695D02*
X115538286Y-113351695D01*
X115538286Y-113351695D02*
X115652571Y-113389790D01*
X115652571Y-113389790D02*
X115690667Y-113427885D01*
X115957333Y-113351695D02*
X116452571Y-113351695D01*
X116452571Y-113351695D02*
X116185905Y-113656457D01*
X116185905Y-113656457D02*
X116300190Y-113656457D01*
X116300190Y-113656457D02*
X116376381Y-113694552D01*
X116376381Y-113694552D02*
X116414476Y-113732647D01*
X116414476Y-113732647D02*
X116452571Y-113808838D01*
X116452571Y-113808838D02*
X116452571Y-113999314D01*
X116452571Y-113999314D02*
X116414476Y-114075504D01*
X116414476Y-114075504D02*
X116376381Y-114113600D01*
X116376381Y-114113600D02*
X116300190Y-114151695D01*
X116300190Y-114151695D02*
X116071619Y-114151695D01*
X116071619Y-114151695D02*
X115995428Y-114113600D01*
X115995428Y-114113600D02*
X115957333Y-114075504D01*
X113224761Y-111649885D02*
X113262857Y-111611790D01*
X113262857Y-111611790D02*
X113339047Y-111573695D01*
X113339047Y-111573695D02*
X113529523Y-111573695D01*
X113529523Y-111573695D02*
X113605714Y-111611790D01*
X113605714Y-111611790D02*
X113643809Y-111649885D01*
X113643809Y-111649885D02*
X113681904Y-111726076D01*
X113681904Y-111726076D02*
X113681904Y-111802266D01*
X113681904Y-111802266D02*
X113643809Y-111916552D01*
X113643809Y-111916552D02*
X113186666Y-112373695D01*
X113186666Y-112373695D02*
X113681904Y-112373695D01*
X113986666Y-111649885D02*
X114024762Y-111611790D01*
X114024762Y-111611790D02*
X114100952Y-111573695D01*
X114100952Y-111573695D02*
X114291428Y-111573695D01*
X114291428Y-111573695D02*
X114367619Y-111611790D01*
X114367619Y-111611790D02*
X114405714Y-111649885D01*
X114405714Y-111649885D02*
X114443809Y-111726076D01*
X114443809Y-111726076D02*
X114443809Y-111802266D01*
X114443809Y-111802266D02*
X114405714Y-111916552D01*
X114405714Y-111916552D02*
X113948571Y-112373695D01*
X113948571Y-112373695D02*
X114443809Y-112373695D01*
X114939048Y-111573695D02*
X115015238Y-111573695D01*
X115015238Y-111573695D02*
X115091429Y-111611790D01*
X115091429Y-111611790D02*
X115129524Y-111649885D01*
X115129524Y-111649885D02*
X115167619Y-111726076D01*
X115167619Y-111726076D02*
X115205714Y-111878457D01*
X115205714Y-111878457D02*
X115205714Y-112068933D01*
X115205714Y-112068933D02*
X115167619Y-112221314D01*
X115167619Y-112221314D02*
X115129524Y-112297504D01*
X115129524Y-112297504D02*
X115091429Y-112335600D01*
X115091429Y-112335600D02*
X115015238Y-112373695D01*
X115015238Y-112373695D02*
X114939048Y-112373695D01*
X114939048Y-112373695D02*
X114862857Y-112335600D01*
X114862857Y-112335600D02*
X114824762Y-112297504D01*
X114824762Y-112297504D02*
X114786667Y-112221314D01*
X114786667Y-112221314D02*
X114748571Y-112068933D01*
X114748571Y-112068933D02*
X114748571Y-111878457D01*
X114748571Y-111878457D02*
X114786667Y-111726076D01*
X114786667Y-111726076D02*
X114824762Y-111649885D01*
X114824762Y-111649885D02*
X114862857Y-111611790D01*
X114862857Y-111611790D02*
X114939048Y-111573695D01*
X115548572Y-111840361D02*
X115548572Y-112640361D01*
X115548572Y-111878457D02*
X115624762Y-111840361D01*
X115624762Y-111840361D02*
X115777143Y-111840361D01*
X115777143Y-111840361D02*
X115853334Y-111878457D01*
X115853334Y-111878457D02*
X115891429Y-111916552D01*
X115891429Y-111916552D02*
X115929524Y-111992742D01*
X115929524Y-111992742D02*
X115929524Y-112221314D01*
X115929524Y-112221314D02*
X115891429Y-112297504D01*
X115891429Y-112297504D02*
X115853334Y-112335600D01*
X115853334Y-112335600D02*
X115777143Y-112373695D01*
X115777143Y-112373695D02*
X115624762Y-112373695D01*
X115624762Y-112373695D02*
X115548572Y-112335600D01*
X116539048Y-111954647D02*
X116272382Y-111954647D01*
X116272382Y-112373695D02*
X116272382Y-111573695D01*
X116272382Y-111573695D02*
X116653334Y-111573695D01*
X116706666Y-108817695D02*
X116325714Y-108817695D01*
X116325714Y-108817695D02*
X116325714Y-108017695D01*
X116897142Y-108017695D02*
X117392380Y-108017695D01*
X117392380Y-108017695D02*
X117125714Y-108322457D01*
X117125714Y-108322457D02*
X117239999Y-108322457D01*
X117239999Y-108322457D02*
X117316190Y-108360552D01*
X117316190Y-108360552D02*
X117354285Y-108398647D01*
X117354285Y-108398647D02*
X117392380Y-108474838D01*
X117392380Y-108474838D02*
X117392380Y-108665314D01*
X117392380Y-108665314D02*
X117354285Y-108741504D01*
X117354285Y-108741504D02*
X117316190Y-108779600D01*
X117316190Y-108779600D02*
X117239999Y-108817695D01*
X117239999Y-108817695D02*
X117011428Y-108817695D01*
X117011428Y-108817695D02*
X116935237Y-108779600D01*
X116935237Y-108779600D02*
X116897142Y-108741504D01*
X113896190Y-109541695D02*
X113515238Y-109541695D01*
X113515238Y-109541695D02*
X113477142Y-109922647D01*
X113477142Y-109922647D02*
X113515238Y-109884552D01*
X113515238Y-109884552D02*
X113591428Y-109846457D01*
X113591428Y-109846457D02*
X113781904Y-109846457D01*
X113781904Y-109846457D02*
X113858095Y-109884552D01*
X113858095Y-109884552D02*
X113896190Y-109922647D01*
X113896190Y-109922647D02*
X113934285Y-109998838D01*
X113934285Y-109998838D02*
X113934285Y-110189314D01*
X113934285Y-110189314D02*
X113896190Y-110265504D01*
X113896190Y-110265504D02*
X113858095Y-110303600D01*
X113858095Y-110303600D02*
X113781904Y-110341695D01*
X113781904Y-110341695D02*
X113591428Y-110341695D01*
X113591428Y-110341695D02*
X113515238Y-110303600D01*
X113515238Y-110303600D02*
X113477142Y-110265504D01*
X114620000Y-109541695D02*
X114467619Y-109541695D01*
X114467619Y-109541695D02*
X114391428Y-109579790D01*
X114391428Y-109579790D02*
X114353333Y-109617885D01*
X114353333Y-109617885D02*
X114277143Y-109732171D01*
X114277143Y-109732171D02*
X114239047Y-109884552D01*
X114239047Y-109884552D02*
X114239047Y-110189314D01*
X114239047Y-110189314D02*
X114277143Y-110265504D01*
X114277143Y-110265504D02*
X114315238Y-110303600D01*
X114315238Y-110303600D02*
X114391428Y-110341695D01*
X114391428Y-110341695D02*
X114543809Y-110341695D01*
X114543809Y-110341695D02*
X114620000Y-110303600D01*
X114620000Y-110303600D02*
X114658095Y-110265504D01*
X114658095Y-110265504D02*
X114696190Y-110189314D01*
X114696190Y-110189314D02*
X114696190Y-109998838D01*
X114696190Y-109998838D02*
X114658095Y-109922647D01*
X114658095Y-109922647D02*
X114620000Y-109884552D01*
X114620000Y-109884552D02*
X114543809Y-109846457D01*
X114543809Y-109846457D02*
X114391428Y-109846457D01*
X114391428Y-109846457D02*
X114315238Y-109884552D01*
X114315238Y-109884552D02*
X114277143Y-109922647D01*
X114277143Y-109922647D02*
X114239047Y-109998838D01*
X115191429Y-109541695D02*
X115267619Y-109541695D01*
X115267619Y-109541695D02*
X115343810Y-109579790D01*
X115343810Y-109579790D02*
X115381905Y-109617885D01*
X115381905Y-109617885D02*
X115420000Y-109694076D01*
X115420000Y-109694076D02*
X115458095Y-109846457D01*
X115458095Y-109846457D02*
X115458095Y-110036933D01*
X115458095Y-110036933D02*
X115420000Y-110189314D01*
X115420000Y-110189314D02*
X115381905Y-110265504D01*
X115381905Y-110265504D02*
X115343810Y-110303600D01*
X115343810Y-110303600D02*
X115267619Y-110341695D01*
X115267619Y-110341695D02*
X115191429Y-110341695D01*
X115191429Y-110341695D02*
X115115238Y-110303600D01*
X115115238Y-110303600D02*
X115077143Y-110265504D01*
X115077143Y-110265504D02*
X115039048Y-110189314D01*
X115039048Y-110189314D02*
X115000952Y-110036933D01*
X115000952Y-110036933D02*
X115000952Y-109846457D01*
X115000952Y-109846457D02*
X115039048Y-109694076D01*
X115039048Y-109694076D02*
X115077143Y-109617885D01*
X115077143Y-109617885D02*
X115115238Y-109579790D01*
X115115238Y-109579790D02*
X115191429Y-109541695D01*
X115800953Y-110341695D02*
X115800953Y-109808361D01*
X115800953Y-109884552D02*
X115839048Y-109846457D01*
X115839048Y-109846457D02*
X115915238Y-109808361D01*
X115915238Y-109808361D02*
X116029524Y-109808361D01*
X116029524Y-109808361D02*
X116105715Y-109846457D01*
X116105715Y-109846457D02*
X116143810Y-109922647D01*
X116143810Y-109922647D02*
X116143810Y-110341695D01*
X116143810Y-109922647D02*
X116181905Y-109846457D01*
X116181905Y-109846457D02*
X116258096Y-109808361D01*
X116258096Y-109808361D02*
X116372381Y-109808361D01*
X116372381Y-109808361D02*
X116448572Y-109846457D01*
X116448572Y-109846457D02*
X116486667Y-109922647D01*
X116486667Y-109922647D02*
X116486667Y-110341695D01*
X116867620Y-110341695D02*
X116867620Y-109541695D01*
X116867620Y-109922647D02*
X117324763Y-109922647D01*
X117324763Y-110341695D02*
X117324763Y-109541695D01*
X142741714Y-110270504D02*
X142703618Y-110308600D01*
X142703618Y-110308600D02*
X142589333Y-110346695D01*
X142589333Y-110346695D02*
X142513142Y-110346695D01*
X142513142Y-110346695D02*
X142398856Y-110308600D01*
X142398856Y-110308600D02*
X142322666Y-110232409D01*
X142322666Y-110232409D02*
X142284571Y-110156219D01*
X142284571Y-110156219D02*
X142246475Y-110003838D01*
X142246475Y-110003838D02*
X142246475Y-109889552D01*
X142246475Y-109889552D02*
X142284571Y-109737171D01*
X142284571Y-109737171D02*
X142322666Y-109660980D01*
X142322666Y-109660980D02*
X142398856Y-109584790D01*
X142398856Y-109584790D02*
X142513142Y-109546695D01*
X142513142Y-109546695D02*
X142589333Y-109546695D01*
X142589333Y-109546695D02*
X142703618Y-109584790D01*
X142703618Y-109584790D02*
X142741714Y-109622885D01*
X143503618Y-110346695D02*
X143046475Y-110346695D01*
X143275047Y-110346695D02*
X143275047Y-109546695D01*
X143275047Y-109546695D02*
X143198856Y-109660980D01*
X143198856Y-109660980D02*
X143122666Y-109737171D01*
X143122666Y-109737171D02*
X143046475Y-109775266D01*
X143808380Y-109622885D02*
X143846476Y-109584790D01*
X143846476Y-109584790D02*
X143922666Y-109546695D01*
X143922666Y-109546695D02*
X144113142Y-109546695D01*
X144113142Y-109546695D02*
X144189333Y-109584790D01*
X144189333Y-109584790D02*
X144227428Y-109622885D01*
X144227428Y-109622885D02*
X144265523Y-109699076D01*
X144265523Y-109699076D02*
X144265523Y-109775266D01*
X144265523Y-109775266D02*
X144227428Y-109889552D01*
X144227428Y-109889552D02*
X143770285Y-110346695D01*
X143770285Y-110346695D02*
X144265523Y-110346695D01*
X126104667Y-118139504D02*
X126066571Y-118177600D01*
X126066571Y-118177600D02*
X125952286Y-118215695D01*
X125952286Y-118215695D02*
X125876095Y-118215695D01*
X125876095Y-118215695D02*
X125761809Y-118177600D01*
X125761809Y-118177600D02*
X125685619Y-118101409D01*
X125685619Y-118101409D02*
X125647524Y-118025219D01*
X125647524Y-118025219D02*
X125609428Y-117872838D01*
X125609428Y-117872838D02*
X125609428Y-117758552D01*
X125609428Y-117758552D02*
X125647524Y-117606171D01*
X125647524Y-117606171D02*
X125685619Y-117529980D01*
X125685619Y-117529980D02*
X125761809Y-117453790D01*
X125761809Y-117453790D02*
X125876095Y-117415695D01*
X125876095Y-117415695D02*
X125952286Y-117415695D01*
X125952286Y-117415695D02*
X126066571Y-117453790D01*
X126066571Y-117453790D02*
X126104667Y-117491885D01*
X126409428Y-117491885D02*
X126447524Y-117453790D01*
X126447524Y-117453790D02*
X126523714Y-117415695D01*
X126523714Y-117415695D02*
X126714190Y-117415695D01*
X126714190Y-117415695D02*
X126790381Y-117453790D01*
X126790381Y-117453790D02*
X126828476Y-117491885D01*
X126828476Y-117491885D02*
X126866571Y-117568076D01*
X126866571Y-117568076D02*
X126866571Y-117644266D01*
X126866571Y-117644266D02*
X126828476Y-117758552D01*
X126828476Y-117758552D02*
X126371333Y-118215695D01*
X126371333Y-118215695D02*
X126866571Y-118215695D01*
X124585713Y-115542085D02*
X124623809Y-115503990D01*
X124623809Y-115503990D02*
X124699999Y-115465895D01*
X124699999Y-115465895D02*
X124890475Y-115465895D01*
X124890475Y-115465895D02*
X124966666Y-115503990D01*
X124966666Y-115503990D02*
X125004761Y-115542085D01*
X125004761Y-115542085D02*
X125042856Y-115618276D01*
X125042856Y-115618276D02*
X125042856Y-115694466D01*
X125042856Y-115694466D02*
X125004761Y-115808752D01*
X125004761Y-115808752D02*
X124547618Y-116265895D01*
X124547618Y-116265895D02*
X125042856Y-116265895D01*
X125347618Y-115542085D02*
X125385714Y-115503990D01*
X125385714Y-115503990D02*
X125461904Y-115465895D01*
X125461904Y-115465895D02*
X125652380Y-115465895D01*
X125652380Y-115465895D02*
X125728571Y-115503990D01*
X125728571Y-115503990D02*
X125766666Y-115542085D01*
X125766666Y-115542085D02*
X125804761Y-115618276D01*
X125804761Y-115618276D02*
X125804761Y-115694466D01*
X125804761Y-115694466D02*
X125766666Y-115808752D01*
X125766666Y-115808752D02*
X125309523Y-116265895D01*
X125309523Y-116265895D02*
X125804761Y-116265895D01*
X126147619Y-115732561D02*
X126147619Y-116532561D01*
X126147619Y-115770657D02*
X126223809Y-115732561D01*
X126223809Y-115732561D02*
X126376190Y-115732561D01*
X126376190Y-115732561D02*
X126452381Y-115770657D01*
X126452381Y-115770657D02*
X126490476Y-115808752D01*
X126490476Y-115808752D02*
X126528571Y-115884942D01*
X126528571Y-115884942D02*
X126528571Y-116113514D01*
X126528571Y-116113514D02*
X126490476Y-116189704D01*
X126490476Y-116189704D02*
X126452381Y-116227800D01*
X126452381Y-116227800D02*
X126376190Y-116265895D01*
X126376190Y-116265895D02*
X126223809Y-116265895D01*
X126223809Y-116265895D02*
X126147619Y-116227800D01*
X127138095Y-115846847D02*
X126871429Y-115846847D01*
X126871429Y-116265895D02*
X126871429Y-115465895D01*
X126871429Y-115465895D02*
X127252381Y-115465895D01*
X108961428Y-77429695D02*
X108961428Y-78001123D01*
X108961428Y-78001123D02*
X108923333Y-78115409D01*
X108923333Y-78115409D02*
X108847142Y-78191600D01*
X108847142Y-78191600D02*
X108732857Y-78229695D01*
X108732857Y-78229695D02*
X108656666Y-78229695D01*
X109723333Y-77429695D02*
X109342381Y-77429695D01*
X109342381Y-77429695D02*
X109304285Y-77810647D01*
X109304285Y-77810647D02*
X109342381Y-77772552D01*
X109342381Y-77772552D02*
X109418571Y-77734457D01*
X109418571Y-77734457D02*
X109609047Y-77734457D01*
X109609047Y-77734457D02*
X109685238Y-77772552D01*
X109685238Y-77772552D02*
X109723333Y-77810647D01*
X109723333Y-77810647D02*
X109761428Y-77886838D01*
X109761428Y-77886838D02*
X109761428Y-78077314D01*
X109761428Y-78077314D02*
X109723333Y-78153504D01*
X109723333Y-78153504D02*
X109685238Y-78191600D01*
X109685238Y-78191600D02*
X109609047Y-78229695D01*
X109609047Y-78229695D02*
X109418571Y-78229695D01*
X109418571Y-78229695D02*
X109342381Y-78191600D01*
X109342381Y-78191600D02*
X109304285Y-78153504D01*
X110523333Y-78229695D02*
X110066190Y-78229695D01*
X110294762Y-78229695D02*
X110294762Y-77429695D01*
X110294762Y-77429695D02*
X110218571Y-77543980D01*
X110218571Y-77543980D02*
X110142381Y-77620171D01*
X110142381Y-77620171D02*
X110066190Y-77658266D01*
X111018572Y-77429695D02*
X111094762Y-77429695D01*
X111094762Y-77429695D02*
X111170953Y-77467790D01*
X111170953Y-77467790D02*
X111209048Y-77505885D01*
X111209048Y-77505885D02*
X111247143Y-77582076D01*
X111247143Y-77582076D02*
X111285238Y-77734457D01*
X111285238Y-77734457D02*
X111285238Y-77924933D01*
X111285238Y-77924933D02*
X111247143Y-78077314D01*
X111247143Y-78077314D02*
X111209048Y-78153504D01*
X111209048Y-78153504D02*
X111170953Y-78191600D01*
X111170953Y-78191600D02*
X111094762Y-78229695D01*
X111094762Y-78229695D02*
X111018572Y-78229695D01*
X111018572Y-78229695D02*
X110942381Y-78191600D01*
X110942381Y-78191600D02*
X110904286Y-78153504D01*
X110904286Y-78153504D02*
X110866191Y-78077314D01*
X110866191Y-78077314D02*
X110828095Y-77924933D01*
X110828095Y-77924933D02*
X110828095Y-77734457D01*
X110828095Y-77734457D02*
X110866191Y-77582076D01*
X110866191Y-77582076D02*
X110904286Y-77505885D01*
X110904286Y-77505885D02*
X110942381Y-77467790D01*
X110942381Y-77467790D02*
X111018572Y-77429695D01*
X109847142Y-53284219D02*
X109370952Y-53284219D01*
X109370952Y-53284219D02*
X109370952Y-52284219D01*
X110180476Y-52760409D02*
X110513809Y-52760409D01*
X110656666Y-53284219D02*
X110180476Y-53284219D01*
X110180476Y-53284219D02*
X110180476Y-52284219D01*
X110180476Y-52284219D02*
X110656666Y-52284219D01*
X111085238Y-53284219D02*
X111085238Y-52284219D01*
X111085238Y-52284219D02*
X111323333Y-52284219D01*
X111323333Y-52284219D02*
X111466190Y-52331838D01*
X111466190Y-52331838D02*
X111561428Y-52427076D01*
X111561428Y-52427076D02*
X111609047Y-52522314D01*
X111609047Y-52522314D02*
X111656666Y-52712790D01*
X111656666Y-52712790D02*
X111656666Y-52855647D01*
X111656666Y-52855647D02*
X111609047Y-53046123D01*
X111609047Y-53046123D02*
X111561428Y-53141361D01*
X111561428Y-53141361D02*
X111466190Y-53236600D01*
X111466190Y-53236600D02*
X111323333Y-53284219D01*
X111323333Y-53284219D02*
X111085238Y-53284219D01*
X130676667Y-113135695D02*
X130410000Y-112754742D01*
X130219524Y-113135695D02*
X130219524Y-112335695D01*
X130219524Y-112335695D02*
X130524286Y-112335695D01*
X130524286Y-112335695D02*
X130600476Y-112373790D01*
X130600476Y-112373790D02*
X130638571Y-112411885D01*
X130638571Y-112411885D02*
X130676667Y-112488076D01*
X130676667Y-112488076D02*
X130676667Y-112602361D01*
X130676667Y-112602361D02*
X130638571Y-112678552D01*
X130638571Y-112678552D02*
X130600476Y-112716647D01*
X130600476Y-112716647D02*
X130524286Y-112754742D01*
X130524286Y-112754742D02*
X130219524Y-112754742D01*
X131438571Y-113135695D02*
X130981428Y-113135695D01*
X131210000Y-113135695D02*
X131210000Y-112335695D01*
X131210000Y-112335695D02*
X131133809Y-112449980D01*
X131133809Y-112449980D02*
X131057619Y-112526171D01*
X131057619Y-112526171D02*
X130981428Y-112564266D01*
X137941142Y-112373695D02*
X137483999Y-112373695D01*
X137712571Y-112373695D02*
X137712571Y-111573695D01*
X137712571Y-111573695D02*
X137636380Y-111687980D01*
X137636380Y-111687980D02*
X137560190Y-111764171D01*
X137560190Y-111764171D02*
X137483999Y-111802266D01*
X138284000Y-112297504D02*
X138322095Y-112335600D01*
X138322095Y-112335600D02*
X138284000Y-112373695D01*
X138284000Y-112373695D02*
X138245904Y-112335600D01*
X138245904Y-112335600D02*
X138284000Y-112297504D01*
X138284000Y-112297504D02*
X138284000Y-112373695D01*
X138817333Y-111573695D02*
X138893523Y-111573695D01*
X138893523Y-111573695D02*
X138969714Y-111611790D01*
X138969714Y-111611790D02*
X139007809Y-111649885D01*
X139007809Y-111649885D02*
X139045904Y-111726076D01*
X139045904Y-111726076D02*
X139083999Y-111878457D01*
X139083999Y-111878457D02*
X139083999Y-112068933D01*
X139083999Y-112068933D02*
X139045904Y-112221314D01*
X139045904Y-112221314D02*
X139007809Y-112297504D01*
X139007809Y-112297504D02*
X138969714Y-112335600D01*
X138969714Y-112335600D02*
X138893523Y-112373695D01*
X138893523Y-112373695D02*
X138817333Y-112373695D01*
X138817333Y-112373695D02*
X138741142Y-112335600D01*
X138741142Y-112335600D02*
X138703047Y-112297504D01*
X138703047Y-112297504D02*
X138664952Y-112221314D01*
X138664952Y-112221314D02*
X138626856Y-112068933D01*
X138626856Y-112068933D02*
X138626856Y-111878457D01*
X138626856Y-111878457D02*
X138664952Y-111726076D01*
X138664952Y-111726076D02*
X138703047Y-111649885D01*
X138703047Y-111649885D02*
X138741142Y-111611790D01*
X138741142Y-111611790D02*
X138817333Y-111573695D01*
X139426857Y-112373695D02*
X139426857Y-111573695D01*
X139884000Y-112373695D02*
X139541142Y-111916552D01*
X139884000Y-111573695D02*
X139426857Y-112030838D01*
X161733332Y-108121600D02*
X161847618Y-108159695D01*
X161847618Y-108159695D02*
X162038094Y-108159695D01*
X162038094Y-108159695D02*
X162114285Y-108121600D01*
X162114285Y-108121600D02*
X162152380Y-108083504D01*
X162152380Y-108083504D02*
X162190475Y-108007314D01*
X162190475Y-108007314D02*
X162190475Y-107931123D01*
X162190475Y-107931123D02*
X162152380Y-107854933D01*
X162152380Y-107854933D02*
X162114285Y-107816838D01*
X162114285Y-107816838D02*
X162038094Y-107778742D01*
X162038094Y-107778742D02*
X161885713Y-107740647D01*
X161885713Y-107740647D02*
X161809523Y-107702552D01*
X161809523Y-107702552D02*
X161771428Y-107664457D01*
X161771428Y-107664457D02*
X161733332Y-107588266D01*
X161733332Y-107588266D02*
X161733332Y-107512076D01*
X161733332Y-107512076D02*
X161771428Y-107435885D01*
X161771428Y-107435885D02*
X161809523Y-107397790D01*
X161809523Y-107397790D02*
X161885713Y-107359695D01*
X161885713Y-107359695D02*
X162076190Y-107359695D01*
X162076190Y-107359695D02*
X162190475Y-107397790D01*
X162457142Y-107359695D02*
X162647618Y-108159695D01*
X162647618Y-108159695D02*
X162799999Y-107588266D01*
X162799999Y-107588266D02*
X162952380Y-108159695D01*
X162952380Y-108159695D02*
X163142857Y-107359695D01*
X163866666Y-108159695D02*
X163409523Y-108159695D01*
X163638095Y-108159695D02*
X163638095Y-107359695D01*
X163638095Y-107359695D02*
X163561904Y-107473980D01*
X163561904Y-107473980D02*
X163485714Y-107550171D01*
X163485714Y-107550171D02*
X163409523Y-107588266D01*
X115895714Y-87803504D02*
X115857618Y-87841600D01*
X115857618Y-87841600D02*
X115743333Y-87879695D01*
X115743333Y-87879695D02*
X115667142Y-87879695D01*
X115667142Y-87879695D02*
X115552856Y-87841600D01*
X115552856Y-87841600D02*
X115476666Y-87765409D01*
X115476666Y-87765409D02*
X115438571Y-87689219D01*
X115438571Y-87689219D02*
X115400475Y-87536838D01*
X115400475Y-87536838D02*
X115400475Y-87422552D01*
X115400475Y-87422552D02*
X115438571Y-87270171D01*
X115438571Y-87270171D02*
X115476666Y-87193980D01*
X115476666Y-87193980D02*
X115552856Y-87117790D01*
X115552856Y-87117790D02*
X115667142Y-87079695D01*
X115667142Y-87079695D02*
X115743333Y-87079695D01*
X115743333Y-87079695D02*
X115857618Y-87117790D01*
X115857618Y-87117790D02*
X115895714Y-87155885D01*
X116657618Y-87879695D02*
X116200475Y-87879695D01*
X116429047Y-87879695D02*
X116429047Y-87079695D01*
X116429047Y-87079695D02*
X116352856Y-87193980D01*
X116352856Y-87193980D02*
X116276666Y-87270171D01*
X116276666Y-87270171D02*
X116200475Y-87308266D01*
X116924285Y-87079695D02*
X117457619Y-87079695D01*
X117457619Y-87079695D02*
X117114761Y-87879695D01*
X111845714Y-83889695D02*
X111921904Y-83889695D01*
X111921904Y-83889695D02*
X111998095Y-83927790D01*
X111998095Y-83927790D02*
X112036190Y-83965885D01*
X112036190Y-83965885D02*
X112074285Y-84042076D01*
X112074285Y-84042076D02*
X112112380Y-84194457D01*
X112112380Y-84194457D02*
X112112380Y-84384933D01*
X112112380Y-84384933D02*
X112074285Y-84537314D01*
X112074285Y-84537314D02*
X112036190Y-84613504D01*
X112036190Y-84613504D02*
X111998095Y-84651600D01*
X111998095Y-84651600D02*
X111921904Y-84689695D01*
X111921904Y-84689695D02*
X111845714Y-84689695D01*
X111845714Y-84689695D02*
X111769523Y-84651600D01*
X111769523Y-84651600D02*
X111731428Y-84613504D01*
X111731428Y-84613504D02*
X111693333Y-84537314D01*
X111693333Y-84537314D02*
X111655237Y-84384933D01*
X111655237Y-84384933D02*
X111655237Y-84194457D01*
X111655237Y-84194457D02*
X111693333Y-84042076D01*
X111693333Y-84042076D02*
X111731428Y-83965885D01*
X111731428Y-83965885D02*
X111769523Y-83927790D01*
X111769523Y-83927790D02*
X111845714Y-83889695D01*
X112455238Y-84613504D02*
X112493333Y-84651600D01*
X112493333Y-84651600D02*
X112455238Y-84689695D01*
X112455238Y-84689695D02*
X112417142Y-84651600D01*
X112417142Y-84651600D02*
X112455238Y-84613504D01*
X112455238Y-84613504D02*
X112455238Y-84689695D01*
X113255237Y-84689695D02*
X112798094Y-84689695D01*
X113026666Y-84689695D02*
X113026666Y-83889695D01*
X113026666Y-83889695D02*
X112950475Y-84003980D01*
X112950475Y-84003980D02*
X112874285Y-84080171D01*
X112874285Y-84080171D02*
X112798094Y-84118266D01*
X113940952Y-84156361D02*
X113940952Y-84689695D01*
X113598095Y-84156361D02*
X113598095Y-84575409D01*
X113598095Y-84575409D02*
X113636190Y-84651600D01*
X113636190Y-84651600D02*
X113712380Y-84689695D01*
X113712380Y-84689695D02*
X113826666Y-84689695D01*
X113826666Y-84689695D02*
X113902857Y-84651600D01*
X113902857Y-84651600D02*
X113940952Y-84613504D01*
X114588571Y-84270647D02*
X114321905Y-84270647D01*
X114321905Y-84689695D02*
X114321905Y-83889695D01*
X114321905Y-83889695D02*
X114702857Y-83889695D01*
X124378214Y-77863504D02*
X124340118Y-77901600D01*
X124340118Y-77901600D02*
X124225833Y-77939695D01*
X124225833Y-77939695D02*
X124149642Y-77939695D01*
X124149642Y-77939695D02*
X124035356Y-77901600D01*
X124035356Y-77901600D02*
X123959166Y-77825409D01*
X123959166Y-77825409D02*
X123921071Y-77749219D01*
X123921071Y-77749219D02*
X123882975Y-77596838D01*
X123882975Y-77596838D02*
X123882975Y-77482552D01*
X123882975Y-77482552D02*
X123921071Y-77330171D01*
X123921071Y-77330171D02*
X123959166Y-77253980D01*
X123959166Y-77253980D02*
X124035356Y-77177790D01*
X124035356Y-77177790D02*
X124149642Y-77139695D01*
X124149642Y-77139695D02*
X124225833Y-77139695D01*
X124225833Y-77139695D02*
X124340118Y-77177790D01*
X124340118Y-77177790D02*
X124378214Y-77215885D01*
X125140118Y-77939695D02*
X124682975Y-77939695D01*
X124911547Y-77939695D02*
X124911547Y-77139695D01*
X124911547Y-77139695D02*
X124835356Y-77253980D01*
X124835356Y-77253980D02*
X124759166Y-77330171D01*
X124759166Y-77330171D02*
X124682975Y-77368266D01*
X125597261Y-77482552D02*
X125521071Y-77444457D01*
X125521071Y-77444457D02*
X125482976Y-77406361D01*
X125482976Y-77406361D02*
X125444880Y-77330171D01*
X125444880Y-77330171D02*
X125444880Y-77292076D01*
X125444880Y-77292076D02*
X125482976Y-77215885D01*
X125482976Y-77215885D02*
X125521071Y-77177790D01*
X125521071Y-77177790D02*
X125597261Y-77139695D01*
X125597261Y-77139695D02*
X125749642Y-77139695D01*
X125749642Y-77139695D02*
X125825833Y-77177790D01*
X125825833Y-77177790D02*
X125863928Y-77215885D01*
X125863928Y-77215885D02*
X125902023Y-77292076D01*
X125902023Y-77292076D02*
X125902023Y-77330171D01*
X125902023Y-77330171D02*
X125863928Y-77406361D01*
X125863928Y-77406361D02*
X125825833Y-77444457D01*
X125825833Y-77444457D02*
X125749642Y-77482552D01*
X125749642Y-77482552D02*
X125597261Y-77482552D01*
X125597261Y-77482552D02*
X125521071Y-77520647D01*
X125521071Y-77520647D02*
X125482976Y-77558742D01*
X125482976Y-77558742D02*
X125444880Y-77634933D01*
X125444880Y-77634933D02*
X125444880Y-77787314D01*
X125444880Y-77787314D02*
X125482976Y-77863504D01*
X125482976Y-77863504D02*
X125521071Y-77901600D01*
X125521071Y-77901600D02*
X125597261Y-77939695D01*
X125597261Y-77939695D02*
X125749642Y-77939695D01*
X125749642Y-77939695D02*
X125825833Y-77901600D01*
X125825833Y-77901600D02*
X125863928Y-77863504D01*
X125863928Y-77863504D02*
X125902023Y-77787314D01*
X125902023Y-77787314D02*
X125902023Y-77634933D01*
X125902023Y-77634933D02*
X125863928Y-77558742D01*
X125863928Y-77558742D02*
X125825833Y-77520647D01*
X125825833Y-77520647D02*
X125749642Y-77482552D01*
X120852856Y-77819695D02*
X120395713Y-77819695D01*
X120624285Y-77819695D02*
X120624285Y-77019695D01*
X120624285Y-77019695D02*
X120548094Y-77133980D01*
X120548094Y-77133980D02*
X120471904Y-77210171D01*
X120471904Y-77210171D02*
X120395713Y-77248266D01*
X121348095Y-77019695D02*
X121424285Y-77019695D01*
X121424285Y-77019695D02*
X121500476Y-77057790D01*
X121500476Y-77057790D02*
X121538571Y-77095885D01*
X121538571Y-77095885D02*
X121576666Y-77172076D01*
X121576666Y-77172076D02*
X121614761Y-77324457D01*
X121614761Y-77324457D02*
X121614761Y-77514933D01*
X121614761Y-77514933D02*
X121576666Y-77667314D01*
X121576666Y-77667314D02*
X121538571Y-77743504D01*
X121538571Y-77743504D02*
X121500476Y-77781600D01*
X121500476Y-77781600D02*
X121424285Y-77819695D01*
X121424285Y-77819695D02*
X121348095Y-77819695D01*
X121348095Y-77819695D02*
X121271904Y-77781600D01*
X121271904Y-77781600D02*
X121233809Y-77743504D01*
X121233809Y-77743504D02*
X121195714Y-77667314D01*
X121195714Y-77667314D02*
X121157618Y-77514933D01*
X121157618Y-77514933D02*
X121157618Y-77324457D01*
X121157618Y-77324457D02*
X121195714Y-77172076D01*
X121195714Y-77172076D02*
X121233809Y-77095885D01*
X121233809Y-77095885D02*
X121271904Y-77057790D01*
X121271904Y-77057790D02*
X121348095Y-77019695D01*
X122300476Y-77286361D02*
X122300476Y-77819695D01*
X121957619Y-77286361D02*
X121957619Y-77705409D01*
X121957619Y-77705409D02*
X121995714Y-77781600D01*
X121995714Y-77781600D02*
X122071904Y-77819695D01*
X122071904Y-77819695D02*
X122186190Y-77819695D01*
X122186190Y-77819695D02*
X122262381Y-77781600D01*
X122262381Y-77781600D02*
X122300476Y-77743504D01*
X122948095Y-77400647D02*
X122681429Y-77400647D01*
X122681429Y-77819695D02*
X122681429Y-77019695D01*
X122681429Y-77019695D02*
X123062381Y-77019695D01*
X119865714Y-88093504D02*
X119827618Y-88131600D01*
X119827618Y-88131600D02*
X119713333Y-88169695D01*
X119713333Y-88169695D02*
X119637142Y-88169695D01*
X119637142Y-88169695D02*
X119522856Y-88131600D01*
X119522856Y-88131600D02*
X119446666Y-88055409D01*
X119446666Y-88055409D02*
X119408571Y-87979219D01*
X119408571Y-87979219D02*
X119370475Y-87826838D01*
X119370475Y-87826838D02*
X119370475Y-87712552D01*
X119370475Y-87712552D02*
X119408571Y-87560171D01*
X119408571Y-87560171D02*
X119446666Y-87483980D01*
X119446666Y-87483980D02*
X119522856Y-87407790D01*
X119522856Y-87407790D02*
X119637142Y-87369695D01*
X119637142Y-87369695D02*
X119713333Y-87369695D01*
X119713333Y-87369695D02*
X119827618Y-87407790D01*
X119827618Y-87407790D02*
X119865714Y-87445885D01*
X120627618Y-88169695D02*
X120170475Y-88169695D01*
X120399047Y-88169695D02*
X120399047Y-87369695D01*
X120399047Y-87369695D02*
X120322856Y-87483980D01*
X120322856Y-87483980D02*
X120246666Y-87560171D01*
X120246666Y-87560171D02*
X120170475Y-87598266D01*
X121122857Y-87369695D02*
X121199047Y-87369695D01*
X121199047Y-87369695D02*
X121275238Y-87407790D01*
X121275238Y-87407790D02*
X121313333Y-87445885D01*
X121313333Y-87445885D02*
X121351428Y-87522076D01*
X121351428Y-87522076D02*
X121389523Y-87674457D01*
X121389523Y-87674457D02*
X121389523Y-87864933D01*
X121389523Y-87864933D02*
X121351428Y-88017314D01*
X121351428Y-88017314D02*
X121313333Y-88093504D01*
X121313333Y-88093504D02*
X121275238Y-88131600D01*
X121275238Y-88131600D02*
X121199047Y-88169695D01*
X121199047Y-88169695D02*
X121122857Y-88169695D01*
X121122857Y-88169695D02*
X121046666Y-88131600D01*
X121046666Y-88131600D02*
X121008571Y-88093504D01*
X121008571Y-88093504D02*
X120970476Y-88017314D01*
X120970476Y-88017314D02*
X120932380Y-87864933D01*
X120932380Y-87864933D02*
X120932380Y-87674457D01*
X120932380Y-87674457D02*
X120970476Y-87522076D01*
X120970476Y-87522076D02*
X121008571Y-87445885D01*
X121008571Y-87445885D02*
X121046666Y-87407790D01*
X121046666Y-87407790D02*
X121122857Y-87369695D01*
X119072856Y-82349695D02*
X118615713Y-82349695D01*
X118844285Y-82349695D02*
X118844285Y-81549695D01*
X118844285Y-81549695D02*
X118768094Y-81663980D01*
X118768094Y-81663980D02*
X118691904Y-81740171D01*
X118691904Y-81740171D02*
X118615713Y-81778266D01*
X119568095Y-81549695D02*
X119644285Y-81549695D01*
X119644285Y-81549695D02*
X119720476Y-81587790D01*
X119720476Y-81587790D02*
X119758571Y-81625885D01*
X119758571Y-81625885D02*
X119796666Y-81702076D01*
X119796666Y-81702076D02*
X119834761Y-81854457D01*
X119834761Y-81854457D02*
X119834761Y-82044933D01*
X119834761Y-82044933D02*
X119796666Y-82197314D01*
X119796666Y-82197314D02*
X119758571Y-82273504D01*
X119758571Y-82273504D02*
X119720476Y-82311600D01*
X119720476Y-82311600D02*
X119644285Y-82349695D01*
X119644285Y-82349695D02*
X119568095Y-82349695D01*
X119568095Y-82349695D02*
X119491904Y-82311600D01*
X119491904Y-82311600D02*
X119453809Y-82273504D01*
X119453809Y-82273504D02*
X119415714Y-82197314D01*
X119415714Y-82197314D02*
X119377618Y-82044933D01*
X119377618Y-82044933D02*
X119377618Y-81854457D01*
X119377618Y-81854457D02*
X119415714Y-81702076D01*
X119415714Y-81702076D02*
X119453809Y-81625885D01*
X119453809Y-81625885D02*
X119491904Y-81587790D01*
X119491904Y-81587790D02*
X119568095Y-81549695D01*
X120520476Y-81816361D02*
X120520476Y-82349695D01*
X120177619Y-81816361D02*
X120177619Y-82235409D01*
X120177619Y-82235409D02*
X120215714Y-82311600D01*
X120215714Y-82311600D02*
X120291904Y-82349695D01*
X120291904Y-82349695D02*
X120406190Y-82349695D01*
X120406190Y-82349695D02*
X120482381Y-82311600D01*
X120482381Y-82311600D02*
X120520476Y-82273504D01*
X121168095Y-81930647D02*
X120901429Y-81930647D01*
X120901429Y-82349695D02*
X120901429Y-81549695D01*
X120901429Y-81549695D02*
X121282381Y-81549695D01*
X109890476Y-179359695D02*
X109890476Y-178559695D01*
X109890476Y-178940647D02*
X110347619Y-178940647D01*
X110347619Y-179359695D02*
X110347619Y-178559695D01*
X111071428Y-178826361D02*
X111071428Y-179359695D01*
X110880952Y-178521600D02*
X110690475Y-179093028D01*
X110690475Y-179093028D02*
X111185714Y-179093028D01*
X115657333Y-117196980D02*
X115609714Y-117244600D01*
X115609714Y-117244600D02*
X115466857Y-117292219D01*
X115466857Y-117292219D02*
X115371619Y-117292219D01*
X115371619Y-117292219D02*
X115228762Y-117244600D01*
X115228762Y-117244600D02*
X115133524Y-117149361D01*
X115133524Y-117149361D02*
X115085905Y-117054123D01*
X115085905Y-117054123D02*
X115038286Y-116863647D01*
X115038286Y-116863647D02*
X115038286Y-116720790D01*
X115038286Y-116720790D02*
X115085905Y-116530314D01*
X115085905Y-116530314D02*
X115133524Y-116435076D01*
X115133524Y-116435076D02*
X115228762Y-116339838D01*
X115228762Y-116339838D02*
X115371619Y-116292219D01*
X115371619Y-116292219D02*
X115466857Y-116292219D01*
X115466857Y-116292219D02*
X115609714Y-116339838D01*
X115609714Y-116339838D02*
X115657333Y-116387457D01*
X116609714Y-117292219D02*
X116038286Y-117292219D01*
X116324000Y-117292219D02*
X116324000Y-116292219D01*
X116324000Y-116292219D02*
X116228762Y-116435076D01*
X116228762Y-116435076D02*
X116133524Y-116530314D01*
X116133524Y-116530314D02*
X116038286Y-116577933D01*
X127466667Y-98134504D02*
X127428571Y-98172600D01*
X127428571Y-98172600D02*
X127314286Y-98210695D01*
X127314286Y-98210695D02*
X127238095Y-98210695D01*
X127238095Y-98210695D02*
X127123809Y-98172600D01*
X127123809Y-98172600D02*
X127047619Y-98096409D01*
X127047619Y-98096409D02*
X127009524Y-98020219D01*
X127009524Y-98020219D02*
X126971428Y-97867838D01*
X126971428Y-97867838D02*
X126971428Y-97753552D01*
X126971428Y-97753552D02*
X127009524Y-97601171D01*
X127009524Y-97601171D02*
X127047619Y-97524980D01*
X127047619Y-97524980D02*
X127123809Y-97448790D01*
X127123809Y-97448790D02*
X127238095Y-97410695D01*
X127238095Y-97410695D02*
X127314286Y-97410695D01*
X127314286Y-97410695D02*
X127428571Y-97448790D01*
X127428571Y-97448790D02*
X127466667Y-97486885D01*
X128152381Y-97410695D02*
X128000000Y-97410695D01*
X128000000Y-97410695D02*
X127923809Y-97448790D01*
X127923809Y-97448790D02*
X127885714Y-97486885D01*
X127885714Y-97486885D02*
X127809524Y-97601171D01*
X127809524Y-97601171D02*
X127771428Y-97753552D01*
X127771428Y-97753552D02*
X127771428Y-98058314D01*
X127771428Y-98058314D02*
X127809524Y-98134504D01*
X127809524Y-98134504D02*
X127847619Y-98172600D01*
X127847619Y-98172600D02*
X127923809Y-98210695D01*
X127923809Y-98210695D02*
X128076190Y-98210695D01*
X128076190Y-98210695D02*
X128152381Y-98172600D01*
X128152381Y-98172600D02*
X128190476Y-98134504D01*
X128190476Y-98134504D02*
X128228571Y-98058314D01*
X128228571Y-98058314D02*
X128228571Y-97867838D01*
X128228571Y-97867838D02*
X128190476Y-97791647D01*
X128190476Y-97791647D02*
X128152381Y-97753552D01*
X128152381Y-97753552D02*
X128076190Y-97715457D01*
X128076190Y-97715457D02*
X127923809Y-97715457D01*
X127923809Y-97715457D02*
X127847619Y-97753552D01*
X127847619Y-97753552D02*
X127809524Y-97791647D01*
X127809524Y-97791647D02*
X127771428Y-97867838D01*
X144245237Y-117237885D02*
X144283333Y-117199790D01*
X144283333Y-117199790D02*
X144359523Y-117161695D01*
X144359523Y-117161695D02*
X144549999Y-117161695D01*
X144549999Y-117161695D02*
X144626190Y-117199790D01*
X144626190Y-117199790D02*
X144664285Y-117237885D01*
X144664285Y-117237885D02*
X144702380Y-117314076D01*
X144702380Y-117314076D02*
X144702380Y-117390266D01*
X144702380Y-117390266D02*
X144664285Y-117504552D01*
X144664285Y-117504552D02*
X144207142Y-117961695D01*
X144207142Y-117961695D02*
X144702380Y-117961695D01*
X144969047Y-117161695D02*
X145502381Y-117161695D01*
X145502381Y-117161695D02*
X145159523Y-117961695D01*
X145807143Y-117885504D02*
X145845238Y-117923600D01*
X145845238Y-117923600D02*
X145807143Y-117961695D01*
X145807143Y-117961695D02*
X145769047Y-117923600D01*
X145769047Y-117923600D02*
X145807143Y-117885504D01*
X145807143Y-117885504D02*
X145807143Y-117961695D01*
X146607142Y-117961695D02*
X146149999Y-117961695D01*
X146378571Y-117961695D02*
X146378571Y-117161695D01*
X146378571Y-117161695D02*
X146302380Y-117275980D01*
X146302380Y-117275980D02*
X146226190Y-117352171D01*
X146226190Y-117352171D02*
X146149999Y-117390266D01*
X146911904Y-117237885D02*
X146950000Y-117199790D01*
X146950000Y-117199790D02*
X147026190Y-117161695D01*
X147026190Y-117161695D02*
X147216666Y-117161695D01*
X147216666Y-117161695D02*
X147292857Y-117199790D01*
X147292857Y-117199790D02*
X147330952Y-117237885D01*
X147330952Y-117237885D02*
X147369047Y-117314076D01*
X147369047Y-117314076D02*
X147369047Y-117390266D01*
X147369047Y-117390266D02*
X147330952Y-117504552D01*
X147330952Y-117504552D02*
X146873809Y-117961695D01*
X146873809Y-117961695D02*
X147369047Y-117961695D01*
X147711905Y-117961695D02*
X147711905Y-117161695D01*
X147711905Y-117161695D02*
X147978571Y-117733123D01*
X147978571Y-117733123D02*
X148245238Y-117161695D01*
X148245238Y-117161695D02*
X148245238Y-117961695D01*
X148626191Y-117961695D02*
X148626191Y-117161695D01*
X148969048Y-117961695D02*
X148969048Y-117542647D01*
X148969048Y-117542647D02*
X148930953Y-117466457D01*
X148930953Y-117466457D02*
X148854762Y-117428361D01*
X148854762Y-117428361D02*
X148740476Y-117428361D01*
X148740476Y-117428361D02*
X148664286Y-117466457D01*
X148664286Y-117466457D02*
X148626191Y-117504552D01*
X149273810Y-117428361D02*
X149692858Y-117428361D01*
X149692858Y-117428361D02*
X149273810Y-117961695D01*
X149273810Y-117961695D02*
X149692858Y-117961695D01*
X150614095Y-60904219D02*
X150614095Y-59904219D01*
X151185523Y-60904219D02*
X150756952Y-60332790D01*
X151185523Y-59904219D02*
X150614095Y-60475647D01*
X123196667Y-113373504D02*
X123158571Y-113411600D01*
X123158571Y-113411600D02*
X123044286Y-113449695D01*
X123044286Y-113449695D02*
X122968095Y-113449695D01*
X122968095Y-113449695D02*
X122853809Y-113411600D01*
X122853809Y-113411600D02*
X122777619Y-113335409D01*
X122777619Y-113335409D02*
X122739524Y-113259219D01*
X122739524Y-113259219D02*
X122701428Y-113106838D01*
X122701428Y-113106838D02*
X122701428Y-112992552D01*
X122701428Y-112992552D02*
X122739524Y-112840171D01*
X122739524Y-112840171D02*
X122777619Y-112763980D01*
X122777619Y-112763980D02*
X122853809Y-112687790D01*
X122853809Y-112687790D02*
X122968095Y-112649695D01*
X122968095Y-112649695D02*
X123044286Y-112649695D01*
X123044286Y-112649695D02*
X123158571Y-112687790D01*
X123158571Y-112687790D02*
X123196667Y-112725885D01*
X123882381Y-112916361D02*
X123882381Y-113449695D01*
X123691905Y-112611600D02*
X123501428Y-113183028D01*
X123501428Y-113183028D02*
X123996667Y-113183028D01*
D12*
%TO.C,C11*%
X131865748Y-96779000D02*
X133288252Y-96779000D01*
X131865748Y-98599000D02*
X133288252Y-98599000D01*
%TO.C,C9*%
X123803248Y-100182000D02*
X125225752Y-100182000D01*
X123803248Y-102002000D02*
X125225752Y-102002000D01*
%TO.C,J402*%
X154880000Y-90040000D02*
X116720000Y-90040000D01*
X154880000Y-90040000D02*
X154880000Y-92700000D01*
X116720000Y-90040000D02*
X116720000Y-92700000D01*
X157480000Y-91370000D02*
X157480000Y-92700000D01*
X157480000Y-92700000D02*
X156150000Y-92700000D01*
X154880000Y-92700000D02*
X116720000Y-92700000D01*
%TO.C,C7*%
X129490000Y-121662752D02*
X129490000Y-120240248D01*
X131310000Y-121662752D02*
X131310000Y-120240248D01*
%TO.C,R5*%
X160722936Y-103365000D02*
X161177064Y-103365000D01*
X160722936Y-104835000D02*
X161177064Y-104835000D01*
%TO.C,C13*%
X149265748Y-106786000D02*
X150688252Y-106786000D01*
X149265748Y-108606000D02*
X150688252Y-108606000D01*
%TO.C,J503*%
X110875000Y-82415000D02*
X110875000Y-82535000D01*
X110875000Y-82535000D02*
X113535000Y-82535000D01*
X112205000Y-79875000D02*
X113535000Y-79875000D01*
X113535000Y-79875000D02*
X113535000Y-81205000D01*
X113535000Y-82415000D02*
X113535000Y-82535000D01*
%TO.C,J511*%
X115575000Y-80735000D02*
X115575000Y-80855000D01*
X115575000Y-80855000D02*
X118235000Y-80855000D01*
X116905000Y-78195000D02*
X118235000Y-78195000D01*
X118235000Y-78195000D02*
X118235000Y-79525000D01*
X118235000Y-80735000D02*
X118235000Y-80855000D01*
%TO.C,C5*%
X131828248Y-99674000D02*
X133250752Y-99674000D01*
X131828248Y-101494000D02*
X133250752Y-101494000D01*
%TO.C,C19*%
X124610000Y-85371252D02*
X124610000Y-83948748D01*
X126430000Y-85371252D02*
X126430000Y-83948748D01*
%TO.C,C8*%
X142210000Y-120440248D02*
X142210000Y-121862752D01*
X140390000Y-120440248D02*
X140390000Y-121862752D01*
%TO.C,J43*%
X148326800Y-79746800D02*
X148326800Y-79866800D01*
X148326800Y-79866800D02*
X150986800Y-79866800D01*
X149656800Y-77206800D02*
X150986800Y-77206800D01*
X150986800Y-77206800D02*
X150986800Y-78536800D01*
X150986800Y-79746800D02*
X150986800Y-79866800D01*
%TO.C,C15*%
X136703248Y-107679000D02*
X138125752Y-107679000D01*
X136703248Y-109499000D02*
X138125752Y-109499000D01*
%TO.C,J44*%
X158670000Y-79210000D02*
X158670000Y-79330000D01*
X158670000Y-79330000D02*
X161330000Y-79330000D01*
X160000000Y-76670000D02*
X161330000Y-76670000D01*
X161330000Y-76670000D02*
X161330000Y-78000000D01*
X161330000Y-79210000D02*
X161330000Y-79330000D01*
%TO.C,C16*%
X157240000Y-95221248D02*
X157240000Y-96643752D01*
X155420000Y-95221248D02*
X155420000Y-96643752D01*
%TO.C,J8*%
X115570000Y-57210000D02*
X163890000Y-57210000D01*
X115570000Y-57210000D02*
X115570000Y-54550000D01*
X163890000Y-57210000D02*
X163890000Y-54550000D01*
X112970000Y-55880000D02*
X112970000Y-54550000D01*
X112970000Y-54550000D02*
X114300000Y-54550000D01*
X115570000Y-54550000D02*
X163890000Y-54550000D01*
%TO.C,J40*%
X158870000Y-63770000D02*
X164070000Y-63770000D01*
X158870000Y-63770000D02*
X158870000Y-61170000D01*
X164070000Y-63770000D02*
X164070000Y-58570000D01*
X158870000Y-61170000D02*
X161470000Y-61170000D01*
X161470000Y-61170000D02*
X161470000Y-58570000D01*
X158870000Y-59900000D02*
X158870000Y-58570000D01*
X158870000Y-58570000D02*
X160200000Y-58570000D01*
X161470000Y-58570000D02*
X164070000Y-58570000D01*
%TO.C,J50*%
X147160000Y-82590000D02*
X147160000Y-83920000D01*
X145830000Y-82590000D02*
X147160000Y-82590000D01*
X144560000Y-82590000D02*
X136880000Y-82590000D01*
X144560000Y-82590000D02*
X144560000Y-85190000D01*
X136880000Y-82590000D02*
X136880000Y-87790000D01*
X147160000Y-85190000D02*
X147160000Y-87790000D01*
X144560000Y-85190000D02*
X147160000Y-85190000D01*
X147160000Y-87790000D02*
X136880000Y-87790000D01*
%TO.C,R6*%
X156949936Y-117754000D02*
X157404064Y-117754000D01*
X156949936Y-119224000D02*
X157404064Y-119224000D01*
%TO.C,R2*%
X136699936Y-113979000D02*
X138154064Y-113979000D01*
X136699936Y-115799000D02*
X138154064Y-115799000D01*
%TO.C,R3*%
X140409200Y-129231736D02*
X140409200Y-130685864D01*
X138589200Y-129231736D02*
X138589200Y-130685864D01*
%TO.C,FB2*%
X130330242Y-94580000D02*
X129509758Y-94580000D01*
X130330242Y-93460000D02*
X129509758Y-93460000D01*
%TO.C,U1*%
X135866000Y-89192000D02*
X129856000Y-89192000D01*
X133616000Y-82372000D02*
X129856000Y-82372000D01*
X129856000Y-89192000D02*
X129856000Y-87932000D01*
X129856000Y-82372000D02*
X129856000Y-83632000D01*
%TO.C,FB1*%
X124587242Y-95849000D02*
X123766758Y-95849000D01*
X124587242Y-94729000D02*
X123766758Y-94729000D01*
%TO.C,R7*%
X114412000Y-90161936D02*
X114412000Y-90616064D01*
X112942000Y-90161936D02*
X112942000Y-90616064D01*
%TO.C,J7*%
X115520000Y-74960000D02*
X163840000Y-74960000D01*
X115520000Y-74960000D02*
X115520000Y-72300000D01*
X163840000Y-74960000D02*
X163840000Y-72300000D01*
X112920000Y-73630000D02*
X112920000Y-72300000D01*
X112920000Y-72300000D02*
X114250000Y-72300000D01*
X115520000Y-72300000D02*
X163840000Y-72300000D01*
%TO.C,R60*%
X111225000Y-61002936D02*
X111225000Y-61457064D01*
X109755000Y-61002936D02*
X109755000Y-61457064D01*
%TO.C,L4*%
X126373733Y-109021000D02*
X126716267Y-109021000D01*
X126373733Y-110041000D02*
X126716267Y-110041000D01*
%TO.C,J504*%
X161970000Y-85610000D02*
X161970000Y-85730000D01*
X161970000Y-85730000D02*
X164630000Y-85730000D01*
X163300000Y-83070000D02*
X164630000Y-83070000D01*
X164630000Y-83070000D02*
X164630000Y-84400000D01*
X164630000Y-85610000D02*
X164630000Y-85730000D01*
%TO.C,C14*%
X132537252Y-108352000D02*
X131114748Y-108352000D01*
X132537252Y-106532000D02*
X131114748Y-106532000D01*
%TO.C,R4*%
X135160200Y-130812864D02*
X135160200Y-129358736D01*
X136980200Y-130812864D02*
X136980200Y-129358736D01*
%TO.C,C3*%
X118968248Y-112050000D02*
X120390752Y-112050000D01*
X118968248Y-113870000D02*
X120390752Y-113870000D01*
%TO.C,J401*%
X119270000Y-105374000D02*
X157430000Y-105374000D01*
X119270000Y-105374000D02*
X119270000Y-102714000D01*
X157430000Y-105374000D02*
X157430000Y-102714000D01*
X116670000Y-104044000D02*
X116670000Y-102714000D01*
X116670000Y-102714000D02*
X118000000Y-102714000D01*
X119270000Y-102714000D02*
X157430000Y-102714000D01*
%TO.C,L3*%
X119543733Y-109021000D02*
X119886267Y-109021000D01*
X119543733Y-110041000D02*
X119886267Y-110041000D01*
%TO.C,C12*%
X144888252Y-108606000D02*
X143465748Y-108606000D01*
X144888252Y-106786000D02*
X143465748Y-106786000D01*
%TO.C,C2*%
X129454548Y-115890000D02*
X130877052Y-115890000D01*
X129454548Y-117710000D02*
X130877052Y-117710000D01*
%TO.C,J510*%
X111700000Y-78680000D02*
X111700000Y-78800000D01*
X111700000Y-78800000D02*
X114360000Y-78800000D01*
X113030000Y-76140000D02*
X114360000Y-76140000D01*
X114360000Y-76140000D02*
X114360000Y-77470000D01*
X114360000Y-78680000D02*
X114360000Y-78800000D01*
%TO.C,LED*%
X109755000Y-56271252D02*
X109755000Y-55748748D01*
X111225000Y-56271252D02*
X111225000Y-55748748D01*
%TO.C,R1*%
X133699936Y-111079000D02*
X135154064Y-111079000D01*
X133699936Y-112899000D02*
X135154064Y-112899000D01*
%TO.C,SW1*%
X153987000Y-115149000D02*
X155297000Y-115149000D01*
X153987000Y-115149000D02*
X153987000Y-113766000D01*
X154227000Y-114909000D02*
X155297000Y-114909000D01*
X154227000Y-114909000D02*
X154227000Y-108088000D01*
X157377000Y-114909000D02*
X157888000Y-114909000D01*
X159867000Y-114909000D02*
X160987000Y-114909000D01*
X160987000Y-114909000D02*
X160987000Y-108088000D01*
X155702000Y-113309000D02*
X156972000Y-113309000D01*
X155822000Y-113309000D02*
X155822000Y-112102333D01*
X155942000Y-113309000D02*
X155942000Y-112102333D01*
X156062000Y-113309000D02*
X156062000Y-112102333D01*
X156182000Y-113309000D02*
X156182000Y-112102333D01*
X156302000Y-113309000D02*
X156302000Y-112102333D01*
X156422000Y-113309000D02*
X156422000Y-112102333D01*
X156542000Y-113309000D02*
X156542000Y-112102333D01*
X156662000Y-113309000D02*
X156662000Y-112102333D01*
X156782000Y-113309000D02*
X156782000Y-112102333D01*
X156902000Y-113309000D02*
X156902000Y-112102333D01*
X156972000Y-113309000D02*
X156972000Y-109689000D01*
X158242000Y-113309000D02*
X159512000Y-113309000D01*
X158362000Y-113309000D02*
X158362000Y-112102333D01*
X158482000Y-113309000D02*
X158482000Y-112102333D01*
X158602000Y-113309000D02*
X158602000Y-112102333D01*
X158722000Y-113309000D02*
X158722000Y-112102333D01*
X158842000Y-113309000D02*
X158842000Y-112102333D01*
X158962000Y-113309000D02*
X158962000Y-112102333D01*
X159082000Y-113309000D02*
X159082000Y-112102333D01*
X159202000Y-113309000D02*
X159202000Y-112102333D01*
X159322000Y-113309000D02*
X159322000Y-112102333D01*
X159442000Y-113309000D02*
X159442000Y-112102333D01*
X159512000Y-113309000D02*
X159512000Y-109689000D01*
X155702000Y-112102333D02*
X156972000Y-112102333D01*
X158242000Y-112102333D02*
X159512000Y-112102333D01*
X155702000Y-109689000D02*
X155702000Y-113309000D01*
X156972000Y-109689000D02*
X155702000Y-109689000D01*
X158242000Y-109689000D02*
X158242000Y-113309000D01*
X159512000Y-109689000D02*
X158242000Y-109689000D01*
X154227000Y-108088000D02*
X155347000Y-108088000D01*
X157327000Y-108088000D02*
X157888000Y-108088000D01*
X159867000Y-108088000D02*
X160987000Y-108088000D01*
%TO.C,C17*%
X115467000Y-85362752D02*
X115467000Y-83940248D01*
X117287000Y-85362752D02*
X117287000Y-83940248D01*
%TO.C,C18*%
X123508752Y-80410000D02*
X122086248Y-80410000D01*
X123508752Y-78590000D02*
X122086248Y-78590000D01*
%TO.C,C10*%
X119567000Y-85562752D02*
X119567000Y-84140248D01*
X121387000Y-85562752D02*
X121387000Y-84140248D01*
%TO.C,C1*%
X120388252Y-117750000D02*
X118965748Y-117750000D01*
X120388252Y-115930000D02*
X118965748Y-115930000D01*
%TO.C,C6*%
X123803248Y-96880000D02*
X125225752Y-96880000D01*
X123803248Y-98700000D02*
X125225752Y-98700000D01*
%TO.C,Y1*%
X143912000Y-111264000D02*
X150162000Y-111264000D01*
X143912000Y-116314000D02*
X150162000Y-116314000D01*
X143912000Y-111264000D02*
G75*
G03*
X143912000Y-116314000I0J-2525000D01*
G01*
X150162000Y-116314000D02*
G75*
G03*
X150162000Y-111264000I0J2525000D01*
G01*
%TO.C,D1*%
X150660000Y-63500000D02*
X149640000Y-63500000D01*
X149640000Y-64970000D02*
X149640000Y-62030000D01*
X149640000Y-62030000D02*
X144200000Y-62030000D01*
X148860000Y-64970000D02*
X148860000Y-62030000D01*
X148740000Y-64970000D02*
X148740000Y-62030000D01*
X148620000Y-64970000D02*
X148620000Y-62030000D01*
X144200000Y-64970000D02*
X149640000Y-64970000D01*
X144200000Y-62030000D02*
X144200000Y-64970000D01*
X143180000Y-63500000D02*
X144200000Y-63500000D01*
%TO.C,J3*%
X119310000Y-97744000D02*
X119310000Y-95144000D01*
X119310000Y-97744000D02*
X116650000Y-97744000D01*
X119310000Y-95144000D02*
X116650000Y-95144000D01*
X117980000Y-100344000D02*
X116650000Y-100344000D01*
X116650000Y-100344000D02*
X116650000Y-99014000D01*
X116650000Y-97744000D02*
X116650000Y-95144000D01*
%TO.C,C4*%
X126256248Y-112098000D02*
X127678752Y-112098000D01*
X126256248Y-113918000D02*
X127678752Y-113918000D01*
%TD*%
M02*
